<?xml version="1.0" encoding="UTF-8"?>
<svg width="13px" height="19px" viewBox="0 0 13 19" version="1.1" xmlns="http://www.w3.org/2000/svg" xmlns:xlink="http://www.w3.org/1999/xlink">
    <!-- Generator: Sketch 63 (92445) - https://sketch.com -->
    <title>address</title>
    <desc>Created with Sketch.</desc>
    <g id="Mock-Ups" stroke="none" stroke-width="1" fill="none" fill-rule="evenodd">
        <g id="Feedback" transform="translate(-1000.000000, -978.000000)" fill="#FFFFFF" fill-rule="nonzero">
            <g id="Footer" transform="translate(0.000000, 928.000000)">
                <g id="Group-33" transform="translate(1000.000000, 48.000000)">
                    <g id="address" transform="translate(0.000000, 2.000000)">
                        <path d="M6.5,0 C2.9159,0 0,2.99650781 0,6.6796875 C0,7.92411328 0.335436111,9.13855469 0.970269444,10.1921641 L6.13000556,18.7368574 C6.22884167,18.9005469 6.40296944,19 6.59024167,19 C6.59168611,19 6.59309444,19 6.59453889,19 C6.78343611,18.9984785 6.957925,18.8959453 7.05495556,18.7293984 L12.083175,10.1019141 C12.6829806,9.07057031 13,7.88718945 13,6.6796875 C13,2.99650781 10.0841,0 6.5,0 Z M11.1534944,9.53035547 L6.58204444,17.3740898 L1.89103056,9.60561328 C1.36261667,8.72864453 1.07611111,7.71689453 1.07611111,6.6796875 C1.07611111,3.61037109 3.51325,1.10585937 6.5,1.10585937 C9.48675,1.10585937 11.9202778,3.61037109 11.9202778,6.6796875 C11.9202778,7.68613086 11.6526583,8.67201562 11.1534944,9.53035547 Z" id="Shape"></path>
                        <path d="M6.5,3 C4.5701,3 3,4.5701 3,6.5 C3,8.41757222 4.54455,10 6.5,10 C8.47956111,10 10,8.39649444 10,6.5 C10,4.5701 8.4299,3 6.5,3 Z M6.5,8.84111111 C5.20667222,8.84111111 4.15888889,7.78982778 4.15888889,6.5 C4.15888889,5.2134 5.2134,4.15888889 6.5,4.15888889 C7.7866,4.15888889 8.83722222,5.2134 8.83722222,6.5 C8.83722222,7.77100556 7.81382222,8.84111111 6.5,8.84111111 Z" id="Shape"></path>
                    </g>
                </g>
            </g>
        </g>
    </g>
</svg>