<?xml version="1.0" encoding="UTF-8"?>
<svg width="1440px" height="245px" viewBox="0 0 1440 245" version="1.1" xmlns="http://www.w3.org/2000/svg" xmlns:xlink="http://www.w3.org/1999/xlink">
    <!-- Generator: Sketch 62 (91390) - https://sketch.com -->
    <title>Group 36</title>
    <desc>Created with Sketch.</desc>
    <defs>
        <polygon id="path-1" points="0.757888577 0.4875 194.356 0.4875 194.356 184.464 0.757888577 184.464"></polygon>
        <polygon id="path-3" points="0.356 0.464 138.906249 0.464 138.906249 18.7504 0.356 18.7504"></polygon>
        <polygon id="path-5" points="0.677847426 0.464 983.356 0.464 983.356 244.464 0.677847426 244.464"></polygon>
        <polygon id="path-7" points="0.356 0.464 548.6882 0.464 548.6882 244.464 0.356 244.464"></polygon>
        <polygon id="path-9" points="0.683042144 0.464 399.501713 0.464 399.501713 185.4609 0.683042144 185.4609"></polygon>
        <polygon id="path-11" points="0.492887556 0.5298 447.243144 0.5298 447.243144 214.464 0.492887556 214.464"></polygon>
        <polygon id="path-13" points="0.327156972 0.1583 170.415741 0.1583 170.415741 99.464 0.327156972 99.464"></polygon>
        <polygon id="path-15" points="0.151741968 0.6337 171.419521 0.6337 171.419521 139.464 0.151741968 139.464"></polygon>
        <polygon id="path-17" points="0.740308395 0.4449 113.809271 0.4449 113.809271 31.464 0.740308395 31.464"></polygon>
        <polygon id="path-19" points="0.731307391 0.4371 167.711588 0.4371 167.711588 216.464 0.731307391 216.464"></polygon>
        <polygon id="path-21" points="0.769438262 0.464 213.452743 0.464 213.452743 228.0352 0.769438262 228.0352"></polygon>
    </defs>
    <g id="Page-1" stroke="none" stroke-width="1" fill="none" fill-rule="evenodd">
        <g id="1" transform="translate(0.000000, -5732.000000)">
            <g id="Group-36" transform="translate(0.000000, 5732.000000)">
                <polygon id="Fill-1" fill="#C4E4EB" points="0.356 244.867 1440.356 244.867 1440.356 0.867 0.356 0.867"></polygon>
                <g id="Group-35" opacity="0.35" transform="translate(0.000000, 0.403000)">
                    <g id="Group-4" transform="translate(1246.000000, 60.000000)">
                        <mask id="mask-2" fill="white">
                            <use xlink:href="#path-1"></use>
                        </mask>
                        <g id="Clip-3"></g>
                        <path d="M202.2284,268.2515 C201.2574,267.0575 200.1764,266.6355 199.0884,266.6355 C197.8324,266.6355 196.5234,267.1755 195.2074,267.6525 C187.4464,270.2835 179.8534,273.7565 171.9204,276.0285 C158.6764,279.7325 145.6064,281.4655 132.6484,281.4655 C111.7574,281.4655 91.2644,276.8615 71.2274,267.8975 C43.4874,255.5165 31.7854,231.7775 32.7544,201.5215 C33.6144,174.4935 44.6854,152.9655 63.7504,136.8225 C84.8114,119.0015 108.6704,113.2625 133.5604,113.2625 C139.0414,113.2625 144.5194,113.5615 150.1134,114.0385 C165.4104,115.3555 180.2494,119.9585 195.2074,123.5465 C196.4064,123.7865 197.6044,124.2045 198.7494,124.2045 C199.9994,124.2045 201.1464,123.7865 202.2284,122.4705 L202.2284,0.4875 C196.1784,3.6565 192.7524,10.1145 187.7324,14.5995 C175.5154,25.3615 162.2184,34.1515 148.2904,41.9855 C125.1704,54.7215 101.7684,66.8005 78.6514,79.8365 C56.5024,92.1535 37.5474,109.3155 23.1114,131.7975 C1.3614,165.7635 -2.4606,204.0305 2.9574,244.0955 C6.4994,270.6465 20.4274,287.7475 42.5754,297.1345 C57.4744,303.4105 72.9404,307.4225 88.2374,312.0255 C110.0434,318.7195 131.5084,326.7335 151.4284,339.1695 C160.9604,345.2075 169.8644,352.5055 176.1414,362.4315 C193.4374,389.5205 198.8614,419.5345 191.3274,452.0675 C186.0784,474.6055 174.5444,491.1685 154.9124,500.3155 C146.6884,504.1445 138.2424,507.3775 129.6204,509.8255 C114.6104,514.0755 99.1964,517.1245 85.0404,524.3015 C73.7414,530.2155 64.3754,539.0085 59.9294,552.8775 L128.8764,552.8775 C151.8264,552.8775 174.7734,552.8775 197.7214,552.9995 L197.9494,552.9995 L197.7214,550.5505 C174.7734,550.4285 151.8264,550.3675 128.8764,550.3675 L94.4034,550.4285 L63.3484,550.4285 C67.4624,540.2015 74.8794,532.3095 86.0684,526.5725 C96.8584,521.0675 108.6704,517.9565 120.1454,514.9085 C123.5114,514.0145 126.8844,513.1765 130.2504,512.2205 C138.6984,509.8255 147.0334,506.6595 155.8824,502.5335 C175.3464,493.4405 188.0184,476.6995 193.6124,452.6605 C201.1464,419.8965 195.9514,389.0425 178.0824,361.0545 C172.3754,352.0275 164.2704,344.4355 152.6254,337.1375 C135.2724,326.2565 115.6384,317.8245 88.8684,309.6925 C85.5004,308.6775 82.0764,307.6595 78.6514,306.6445 C67.0004,303.2945 54.9024,299.7055 43.4874,294.8625 C21.1114,285.3545 8.6094,268.6675 5.3004,243.7365 C-0.6966,199.4865 5.7554,163.3715 25.0514,133.2325 C38.8634,111.7085 57.2974,94.4855 79.7904,81.9885 C93.2634,74.3955 107.1344,66.9805 120.5474,59.7445 C130.1344,54.6025 139.8364,49.4595 149.4294,44.1385 C165.0714,35.3485 178.0824,26.3195 189.2694,16.4525 C191.2684,14.6595 193.0404,12.5655 194.6944,10.5925 C196.4064,8.5605 198.0604,6.6465 199.8904,5.0305 L199.8904,121.3945 C199.5434,121.6335 199.2064,121.7525 198.7494,121.7525 C198.0604,121.7525 197.2654,121.5145 196.4064,121.2745 L195.7814,121.1555 C192.1264,120.3175 188.5844,119.3615 184.9914,118.4645 C173.7454,115.5945 162.1014,112.6045 150.2894,111.5875 C144.4084,111.1085 138.9254,110.8715 133.5604,110.8715 C104.7904,110.8715 81.4454,118.7635 62.2674,134.9085 C42.0004,152.1285 31.2704,174.4935 30.3594,201.4005 C29.3304,234.2885 43.1424,258.0265 70.3164,270.1685 C90.7494,279.2555 111.6994,283.9215 132.6484,283.9215 C145.8334,283.9215 159.2494,282.0655 172.4884,278.4165 C177.3384,277.0455 182.0804,275.1895 186.6454,273.3955 C189.7314,272.2015 192.8114,271.0015 195.9514,269.9305 L196.6344,269.6855 C197.5454,269.3915 198.4054,269.0905 199.0884,269.0905 C199.3174,269.0905 199.5434,269.0905 199.8904,269.3295 L199.8904,344.6745 C199.8904,412.3575 199.8324,480.0505 199.9494,547.6185 C199.9494,549.6505 199.7734,550.2495 199.7204,550.3675 C199.7204,550.3675 199.3744,550.5505 197.9494,550.5505 L197.9494,552.9995 C201.7724,552.9995 202.2874,551.6835 202.2874,547.6185 C202.1684,454.5775 202.2284,361.4155 202.2284,268.2515" id="Fill-2" fill="#FFFFFF" mask="url(#mask-2)"></path>
                    </g>
                    <g id="Group-7">
                        <mask id="mask-4" fill="white">
                            <use xlink:href="#path-3"></use>
                        </mask>
                        <g id="Clip-6"></g>
                        <path d="M29.2504,18.6304 C45.5744,18.4514 61.2154,14.0264 75.3144,5.3554 C115.8424,-19.8786 134.1084,-60.4196 137.8754,-110.5286 C139.0744,-126.9116 139.3024,-143.4166 138.1604,-159.9206 C136.9624,-176.9606 136.9054,-194.0036 134.5644,-210.9846 C132.7384,-223.7226 130.2834,-236.1596 120.5804,-245.4276 C113.8444,-252.0646 105.9094,-254.9946 97.5754,-257.0876 C76.9134,-262.4696 55.7934,-264.6216 34.5584,-264.6826 C28.6794,-264.6826 22.8004,-264.7416 16.9204,-264.7416 C6.9884,-264.7416 -2.9436,-264.5616 -12.9326,-263.5456 L-12.9326,-221.6286 L-12.9326,-171.5196 L-12.9326,-64.9646 L-12.9326,-19.5776 L-12.9326,17.4354 C-2.9436,18.4514 7.0454,18.7504 17.0344,18.7504 C21.0874,18.7504 25.1974,18.6904 29.2504,18.6304 L29.2504,18.6304 Z M-10.5926,-169.0086 C-10.2356,-168.9986 -9.8856,-168.9986 -9.5316,-168.9916 C-8.1236,-168.5776 -6.5906,-168.5936 -5.0556,-168.5306 C-3.2286,-168.4706 -1.4026,-168.4706 0.4814,-168.4706 L3.2784,-168.4706 C9.3864,-168.4706 15.4934,-168.4116 21.5444,-167.3936 C53.2814,-161.4746 73.3164,-134.6266 72.2324,-98.8076 C71.5474,-76.9236 59.1034,-60.9576 40.0384,-57.6686 C37.9264,-57.3106 35.7574,-57.1306 33.5884,-57.1306 C30.7344,-57.1306 27.9374,-57.4296 25.0834,-57.8486 C14.6944,-59.4036 4.5914,-62.6316 -5.5116,-65.9806 C-6.8246,-66.3986 -8.1376,-66.9376 -9.3936,-66.9376 C-9.7306,-66.9376 -10.0586,-66.8996 -10.3806,-66.8196 C-10.4516,-66.8386 -10.5216,-66.8596 -10.5926,-66.8776 L-10.5926,-169.0086 Z M-10.5926,-64.0076 C-10.4776,-64.1116 -10.3666,-64.1946 -10.2596,-64.2586 C-8.7196,-63.8486 -7.2116,-63.4256 -5.6836,-62.9316 C7.5594,-58.6856 20.6884,-54.1416 34.6154,-54.1416 C35.3004,-54.1416 35.9854,-54.2016 36.6704,-54.2016 C53.1674,-54.7996 67.3804,-66.5196 72.5174,-83.8596 C83.0204,-120.2756 61.3294,-161.2356 27.5954,-169.1286 C18.4614,-171.2806 9.3284,-171.4006 0.1964,-171.4006 L-4.1426,-171.4006 C-5.8196,-171.4006 -7.5126,-171.4086 -9.2056,-171.4316 C-9.7356,-171.6236 -10.1876,-171.9116 -10.5926,-172.3566 L-10.5926,-219.1776 L-10.5356,-219.1776 L-9.5236,-219.1776 C-8.6336,-218.9176 -7.6886,-218.8186 -6.7106,-218.8186 L-4.4846,-218.8186 C4.0204,-218.8186 12.4684,-218.2206 21.0304,-217.7416 C34.6734,-216.9656 47.9724,-214.9316 60.7594,-209.4306 C78.1684,-202.1956 90.6124,-188.6216 97.9184,-169.6656 C105.6814,-149.4556 108.0224,-127.9886 107.6794,-106.0436 C107.3364,-89.3016 104.2544,-73.5746 96.9484,-59.1036 C83.0774,-31.5986 62.5284,-16.5896 33.5884,-16.4696 L32.8464,-16.4696 C19.8314,-16.4696 7.2174,-19.6396 -5.5696,-21.7316 C-6.4826,-21.8516 -7.3956,-21.9706 -8.2526,-21.9706 C-8.9506,-21.9706 -9.6296,-21.8826 -10.2816,-21.6586 C-10.3096,-21.6626 -10.3366,-21.6676 -10.3636,-21.6726 L-10.5926,-21.6726 L-10.5926,-64.0076 Z M-10.5926,-18.6826 C-10.4136,-18.8696 -10.2166,-19.0106 -10.0066,-19.1306 C-4.7776,-18.3316 0.4134,-17.5286 5.5614,-16.4696 C14.5234,-14.6166 23.5424,-13.1806 32.5604,-13.1806 C37.0704,-13.1806 41.5224,-13.5386 45.9744,-14.3766 C78.7964,-20.5966 97.9754,-44.3336 106.7094,-78.5976 C113.3874,-104.4896 111.2184,-130.7386 104.9394,-156.4526 C97.2334,-187.5456 79.9954,-207.8156 51.8544,-215.7686 C32.1044,-221.4496 12.0114,-221.6286 -8.1956,-221.6286 L-9.1926,-221.6286 C-9.7446,-221.8306 -10.2056,-222.1216 -10.5926,-222.5256 L-10.5926,-261.3336 C-0.9456,-262.1706 8.7004,-262.2896 16.9204,-262.2896 L25.7114,-262.2896 L34.5584,-262.2306 C57.3904,-262.1706 77.8254,-259.7196 97.0054,-254.6966 C104.4834,-252.8416 112.3604,-250.2116 118.9814,-243.6336 C128.1144,-234.9036 130.4544,-223.0636 132.2244,-210.6266 C133.8234,-199.4446 134.3364,-187.9046 134.9074,-176.8416 C135.1354,-171.1006 135.4204,-165.4216 135.8204,-159.7406 C136.9054,-144.1326 136.7904,-128.1086 135.5354,-110.7086 C131.5394,-57.2506 111.4474,-19.9966 74.1154,3.2624 C60.4734,11.6334 45.3464,15.9994 29.1934,16.1794 C25.1404,16.2384 21.0874,16.2984 17.0344,16.2984 C6.4174,16.2984 -2.4296,15.9394 -10.5926,15.2214 L-10.5926,-18.6826 Z" id="Fill-5" fill="#FFFFFF" mask="url(#mask-4)"></path>
                    </g>
                    <g id="Group-10" transform="translate(457.000000, 0.000000)">
                        <mask id="mask-6" fill="white">
                            <use xlink:href="#path-5"></use>
                        </mask>
                        <g id="Clip-9"></g>
                        <path d="M546.8544,59.8297 C556.6724,59.8297 566.3754,61.1457 575.9614,63.8357 C609.7594,73.5227 631.5614,99.2347 648.2314,131.7647 C664.5564,163.7547 669.8644,198.8557 672.4304,234.7917 C673.8034,253.9857 677.2294,272.5227 685.5584,289.7437 C693.3204,305.5307 704.6834,315.8157 719.9204,320.5377 C722.7804,321.4367 725.4044,321.7927 727.9124,321.7927 C737.6724,321.7927 745.1554,315.3937 749.4924,303.8557 C755.5414,287.7117 757.2534,270.3697 760.1074,253.4487 C765.8174,218.2287 777.9164,186.2977 797.7844,158.2527 C813.9344,135.5917 834.0304,117.2937 853.4944,98.3377 C868.3334,83.6877 881.9174,67.9027 894.8194,51.0997 C907.3794,34.7757 919.5894,18.3317 932.6074,2.4857 C950.4764,-19.2203 970.7354,-38.1753 991.2284,-56.6523 L991.2284,-141.5623 C989.3454,-145.0913 988.6624,-149.2763 986.2654,-152.7443 C979.5264,-162.7893 972.7344,-172.6553 966.2284,-182.8223 C948.8744,-209.7293 925.9854,-227.8483 897.8994,-238.3123 C884.1464,-243.3953 870.1584,-247.4003 856.4624,-252.3643 C836.6544,-259.5993 823.1234,-273.1133 819.3594,-296.8523 C818.7864,-300.0203 818.2714,-303.2503 815.8164,-305.4033 L768.7284,-305.4033 L632.8754,-305.4033 L583.6714,-305.4033 C586.4654,-298.7063 589.0894,-291.8883 592.1764,-285.3113 C603.8204,-260.3773 621.7424,-244.2323 646.4024,-237.2353 C665.4684,-231.7343 684.9914,-233.8863 704.2804,-232.8103 C719.1254,-231.7343 733.8504,-231.2553 748.2354,-227.5483 C768.3254,-222.4063 782.2014,-209.6703 788.3034,-187.4263 C792.4174,-172.4763 793.0424,-157.1093 791.9574,-141.8613 C791.1034,-129.2443 788.8184,-116.9263 783.1134,-105.7453 C767.5304,-75.7873 742.6414,-65.2633 713.4154,-65.2633 L713.1884,-65.2633 C696.0624,-65.4423 679.3974,-70.5243 664.0954,-79.8533 C648.1714,-89.6003 632.5314,-99.8843 616.4344,-109.3923 C605.9894,-115.5513 595.6024,-118.5413 585.2084,-118.5413 C572.9994,-118.5413 560.8944,-114.3563 548.9064,-106.1633 C534.5794,-96.4763 523.6204,-83.2013 514.1444,-68.0133 C501.3034,-47.5633 491.9394,-24.9003 482.0074,-2.5973 C479.0394,3.9207 475.8404,10.4387 471.9084,16.4777 C464.0864,28.3177 454.3844,37.0477 440.9124,39.7987 C435.3184,40.8747 429.8934,41.4127 424.5274,41.4127 C408.2604,41.4127 392.7894,36.5097 378.0054,27.2407 C362.4824,17.3747 349.2374,3.9207 335.8224,-9.1153 C319.2154,-25.3793 302.2014,-40.9853 285.1924,-56.6523 C268.5274,-72.0203 252.6584,-88.1653 239.6414,-107.7183 C227.4244,-126.1953 218.7514,-147.0643 207.9084,-166.4973 C193.5234,-192.0303 173.7724,-209.4303 148.0244,-218.2793 C142.9454,-220.0133 137.8664,-220.8513 132.8454,-220.8513 C117.5484,-220.8513 103.0474,-212.9593 93.0014,-198.9653 C85.4094,-188.5023 78.7314,-177.3793 72.2804,-166.3173 C59.6664,-144.9703 46.5374,-124.2813 31.1824,-105.2663 C24.8464,-97.4323 18.7384,-89.4203 13.6014,-80.4513 C2.4704,-61.0773 -1.4116,-40.0293 1.7284,-17.1283 C5.0964,7.8667 13.9444,29.7527 29.7554,47.9897 C42.3704,62.4607 58.4674,71.1907 75.3634,78.1267 C93.4584,85.5417 112.2944,89.9667 130.6184,96.7237 C151.0524,104.1987 166.5194,118.7887 178.8524,138.1007 C188.2104,152.6917 194.6044,169.3157 202.0274,185.2217 C208.1364,198.2567 215.5534,210.3357 224.9704,220.9797 C239.7584,237.8417 257.5684,250.5187 273.4374,265.8857 C286.7924,278.8617 299.1214,292.7947 310.7064,307.6247 C324.1214,324.6027 335.6534,343.3207 347.8694,361.5007 C354.4334,371.2487 361.9094,376.0917 370.5874,376.0917 C373.4414,376.0917 376.4114,375.6077 379.6084,374.5367 C399.4694,367.5997 416.3684,355.7017 429.1514,336.9837 C441.1394,319.4037 449.4164,299.5507 458.2654,280.0577 C475.7304,241.3097 484.7504,200.4097 484.3464,156.8177 C484.2354,139.2977 484.9774,121.5377 487.4914,104.0187 C490.7984,80.8777 500.9584,67.6627 521.3924,62.7597 C529.8444,60.7867 538.4084,59.8297 546.8544,59.8297 L546.8544,59.8297 Z M765.4724,-302.9503 C765.4094,-302.7753 765.3344,-302.6123 765.2714,-302.4393 C764.4974,-301.4903 763.8384,-300.4073 763.3044,-299.1243 C759.1954,-289.5563 752.5134,-282.9193 743.5534,-279.2723 C729.6244,-273.8903 715.5834,-271.0203 701.4274,-271.0203 C691.3784,-271.0203 681.2214,-272.5153 671.0624,-275.5643 C657.6484,-279.5713 645.9464,-286.9853 638.2424,-300.4993 C637.8514,-301.1623 637.3984,-301.7163 636.9114,-302.2153 C636.7864,-302.4623 636.6514,-302.7003 636.5294,-302.9503 L765.4724,-302.9503 Z M485.1474,103.6597 C482.9184,119.2667 481.8974,136.6667 482.0074,156.8777 C482.3534,199.6317 473.9014,239.5757 456.0974,278.9807 L452.8404,286.2757 C445.3654,303.0177 437.5974,320.3597 427.2094,335.5517 C415.3374,353.0077 399.4694,364.9667 378.8074,372.1417 C375.9554,373.2207 373.1554,373.6977 370.5874,373.6977 C362.7084,373.6977 355.9174,369.2157 349.8094,360.0607 C346.7294,355.4567 343.6434,350.8577 340.5624,346.1927 C331.7114,332.6807 322.5244,318.8047 312.4774,306.0677 C300.1494,290.2817 287.8754,276.5297 275.0334,264.0927 C268.7544,257.9927 262.0754,252.3117 255.6274,246.7507 C245.8074,238.2007 235.5904,229.4707 226.6824,219.3047 C217.9504,209.4387 210.5914,197.8967 204.1384,184.1457 C202.2554,180.0797 200.4264,175.9527 198.6024,171.8277 C193.2954,159.9867 187.8714,147.7877 180.7934,136.7267 C167.2094,115.4397 151.0524,101.6277 131.4184,94.3907 C123.3704,91.4607 115.0934,88.8907 107.1004,86.4387 C96.8824,83.2697 86.3234,79.9807 76.2194,75.8557 C62.4064,70.1747 44.8814,61.7427 31.4674,46.3167 C16.4564,29.0347 7.4944,8.1667 4.0684,-17.4863 C0.9294,-40.0893 4.7534,-60.2403 15.5994,-79.1953 C20.8504,-88.3443 27.0154,-96.3573 32.9524,-103.7113 C49.5624,-124.2213 63.1474,-146.2263 74.2784,-165.0623 C80.1014,-175.0483 87.0074,-186.6483 94.8844,-197.4713 C104.4174,-210.8053 118.2914,-218.4603 132.8454,-218.4603 C137.6964,-218.4603 142.5484,-217.6233 147.2824,-215.9493 C172.3464,-207.3373 191.5244,-190.7743 205.9094,-165.2413 C209.9604,-157.9453 213.7824,-150.3523 217.4944,-142.9373 C223.6604,-130.6803 230.0554,-117.9423 237.7594,-106.3433 C251.6294,-85.4733 268.6974,-68.6123 283.5964,-54.7993 L288.3314,-50.4933 C303.5164,-36.5013 319.2154,-22.0913 334.2264,-7.3203 L337.7094,-3.9133 C349.8094,7.9267 362.3654,20.1847 376.8674,29.3337 C392.1634,38.9607 408.2024,43.8637 424.5274,43.8637 C430.0634,43.8637 435.6574,43.3257 441.3674,42.1897 C454.0984,39.6187 464.7714,31.6647 473.8484,17.8517 C477.2744,12.5317 480.4134,6.5517 484.0664,-1.5803 L488.4034,-11.3273 C496.6794,-29.9833 505.1844,-49.3573 516.1434,-66.6983 C526.7064,-83.6803 537.4904,-95.5793 550.1624,-104.1293 C561.8644,-112.0233 573.6834,-116.0893 585.2084,-116.0893 C595.1994,-116.0893 605.3044,-113.1003 615.2934,-107.2393 C624.7694,-101.6783 634.3024,-95.6393 643.4324,-89.8983 C649.9444,-85.8333 656.4504,-81.7063 662.9554,-77.7603 C678.8254,-68.0133 695.7224,-62.9913 713.4154,-62.8123 C747.0954,-62.8123 770.4994,-76.4443 785.1654,-104.6083 C790.3614,-114.7143 793.2124,-126.4943 794.3594,-141.6823 C795.4994,-159.2013 794.3004,-174.3303 790.5874,-188.0843 C784.4214,-210.3273 770.3814,-224.3783 748.8084,-229.9403 C736.3644,-233.1083 723.6334,-233.9473 711.2484,-234.7843 L704.3974,-235.2623 C698.6864,-235.5613 692.7524,-235.6203 687.1014,-235.6203 C673.8564,-235.7403 660.1624,-235.8003 646.9744,-239.6273 C623.4014,-246.3253 605.6444,-262.0503 594.2284,-286.3873 C592.1194,-290.9323 590.1774,-295.7163 588.2944,-300.3203 C587.9514,-301.2173 587.6124,-302.0543 587.2674,-302.9503 L632.1344,-302.9503 C632.3624,-302.7713 632.6484,-302.5923 632.9294,-302.3533 C633.7504,-301.7793 634.4784,-301.2373 635.1114,-300.6223 C643.3024,-284.7483 656.8044,-276.5643 672.3194,-272.0373 C681.4494,-269.3463 690.4684,-268.2093 699.6044,-268.2093 C709.5354,-268.2093 719.4644,-269.5253 729.3964,-271.5583 C746.4724,-275.1123 760.2904,-283.0093 767.2494,-301.0793 C767.8484,-301.7663 768.5364,-302.3883 769.3534,-302.9503 L814.8464,-302.9503 C816.2194,-301.3363 816.6174,-298.9443 817.0204,-296.4343 C820.7264,-273.3523 833.3984,-258.2243 855.7204,-250.0323 C862.2854,-247.6393 868.9084,-245.4863 875.6414,-243.3343 C882.7194,-241.0033 890.0264,-238.6103 897.1044,-235.9793 C925.4704,-225.4553 947.4484,-207.5773 964.2884,-181.4463 C968.9124,-174.1513 973.7634,-167.0353 978.6144,-159.9203 L984.3764,-151.3093 C985.5764,-149.6343 986.2654,-147.6623 987.0064,-145.5683 C987.5754,-144.0143 988.0884,-142.4603 988.8904,-140.9643 L988.8904,-57.7893 C970.4554,-41.1653 949.3304,-21.5523 930.7784,0.8717 C921.0754,12.7107 911.7154,25.0277 902.5824,36.9867 C899.3834,41.1727 896.1864,45.3587 892.9954,49.5447 C879.5224,67.1247 866.0484,82.4917 851.8924,96.5447 L843.9024,104.2577 C827.2384,120.4027 809.9954,137.0257 795.8964,156.7587 C776.5474,184.0247 763.7594,216.4357 757.8274,253.0287 C757.2534,256.4977 756.6814,259.9657 756.1664,263.4337 C754.1724,276.6487 752.0044,290.3427 747.3244,302.9587 C744.4644,310.4337 738.8724,319.4037 727.9124,319.4037 C725.6314,319.4037 723.1194,318.9807 720.6054,318.2037 C705.9934,313.6607 695.1504,303.9757 687.6734,288.6687 C680.4194,273.7787 676.3704,256.6177 674.8274,234.6117 C672.4304,202.3227 667.7484,164.7707 650.2834,130.5687 C630.5334,92.1797 607.1274,70.2347 576.5934,61.4447 C566.9434,58.7527 556.9024,57.3777 546.8544,57.3777 C538.2914,57.3777 529.5584,58.3947 520.9364,60.3677 C500.0454,65.3907 488.6294,79.1437 485.1474,103.6597 L485.1474,103.6597 Z" id="Fill-8" fill="#FFFFFF" mask="url(#mask-6)"></path>
                    </g>
                    <g id="Group-13">
                        <mask id="mask-8" fill="white">
                            <use xlink:href="#path-7"></use>
                        </mask>
                        <g id="Clip-12"></g>
                        <path d="M78.5682,305.8892 C96.3202,318.0882 112.7602,332.4402 131.0262,343.7972 C150.4332,355.8182 170.8682,363.7732 192.9582,363.7732 C196.9542,363.7732 201.0072,363.5332 205.1172,362.9942 C221.3852,360.8392 235.5982,353.7852 246.2722,340.0932 C265.5662,315.5772 274.0142,285.7972 275.8972,253.6272 C277.1532,232.8782 273.5562,212.8472 268.8762,192.8752 C263.5682,170.1532 260.2002,147.0722 260.9992,123.3922 C261.5702,107.7262 262.9972,92.1192 265.2802,76.6322 C270.3032,42.9072 281.4342,12.2922 301.3552,-13.9588 C312.5432,-28.7878 323.9602,-43.5578 335.3192,-58.2068 C349.7032,-76.9228 364.3732,-94.9808 382.1822,-109.4518 C399.9342,-123.8628 415.5742,-140.1878 428.3032,-160.3378 C438.3502,-176.3038 449.1382,-191.4328 461.1252,-205.8428 C479.1632,-227.6088 500.6252,-244.5308 521.6882,-262.1698 C534.8742,-273.2338 544.4642,-287.2838 548.6882,-305.4028 L481.2752,-305.4028 L419.2282,-305.4028 L366.8272,-305.4028 L316.5392,-305.4028 C314.3132,-303.5488 313.1712,-300.9778 312.3722,-297.9878 C308.3192,-282.1418 300.3852,-268.9858 289.4262,-257.8658 C279.4362,-247.6998 267.6202,-240.8238 256.1472,-233.1098 C244.9592,-225.5748 234.0002,-217.7418 225.0952,-207.1588 C211.6242,-191.2528 204.2032,-171.6998 199.3512,-150.7708 C194.1572,-128.2288 192.1022,-104.9078 187.8782,-82.1858 C183.7112,-59.8818 176.3482,-39.2518 163.3332,-21.2538 C151.2322,-4.4498 137.4182,10.3192 123.0912,24.7292 C106.0242,41.8312 86.6162,55.2252 65.9532,66.1682 C41.6942,79.0832 17.5482,92.2392 -5.7978,107.1882 C-8.6518,109.0412 -11.1068,111.1942 -12.9328,114.3642 L-12.9328,202.7412 L-12.9328,270.8492 C-10.9918,271.3262 -8.9948,271.7452 -7.1108,272.1642 C22.9712,278.3832 52.1392,287.7712 78.5682,305.8892 L78.5682,305.8892 Z M414.7182,-302.9518 C414.4262,-302.5668 414.1092,-302.2068 413.8052,-301.8348 C412.4922,-300.7758 411.2182,-299.6478 409.9242,-298.5268 C405.1862,-294.0408 399.8202,-290.8128 393.5982,-288.9598 C391.6012,-288.3008 389.6592,-288.0018 387.7772,-288.0018 C381.2122,-288.0018 375.5032,-291.8298 372.2502,-299.1238 C371.8812,-299.9298 371.4772,-300.6538 371.0382,-301.3208 C370.9682,-301.5058 370.8912,-301.6928 370.8242,-301.8748 C370.7092,-302.2338 370.5372,-302.5918 370.4242,-302.9518 L414.7182,-302.9518 Z M-10.5928,115.0802 C-9.2228,112.8682 -7.3388,111.0752 -4.5988,109.2802 C19.4322,93.9122 45.0042,80.1002 66.9802,68.3802 C89.7562,56.3012 108.5932,42.6082 124.6892,26.5232 C137.5902,13.5482 152.4312,-2.0588 165.2172,-19.7578 C177.3752,-36.6208 185.5372,-56.8318 190.1612,-81.7078 C191.9312,-91.0948 193.3012,-100.6618 194.6712,-109.9308 C196.6122,-123.2648 198.6102,-137.0178 201.6352,-150.1728 C207.1712,-174.2108 215.2202,-191.7898 226.8652,-205.5438 C235.6552,-216.0078 246.7862,-223.9008 257.4032,-231.0768 C259.5722,-232.5118 261.7982,-233.9468 263.9672,-235.3818 C273.2142,-241.4208 282.8042,-247.6998 291.0242,-256.1308 C302.8972,-268.1508 310.6022,-281.6048 314.5982,-297.3298 C315.3402,-299.9618 316.1972,-301.6948 317.3952,-302.9518 L366.1422,-302.9518 C367.2712,-302.1878 368.1902,-301.3018 368.9602,-300.2018 C372.8252,-290.2478 379.3172,-284.9518 387.6052,-284.9518 C390.4022,-284.9518 393.3702,-285.5498 396.5102,-286.7458 C403.8322,-289.6048 410.3532,-293.8378 415.5322,-300.1558 C416.8832,-301.2258 418.2592,-302.1908 419.7412,-302.9518 L479.9622,-302.9518 C480.0382,-302.7338 480.0722,-302.5188 480.0832,-302.3028 C480.0412,-302.2208 480.0062,-302.1328 479.9622,-302.0538 C468.7172,-280.5278 453.2482,-263.0668 436.8662,-246.3838 C417.6302,-226.9498 395.9962,-212.6588 372.1932,-201.8958 C346.1072,-190.0558 327.6132,-169.6668 317.0532,-140.4258 C310.3742,-122.0098 303.8102,-103.4728 296.6182,-85.2348 C288.2272,-64.1868 276.0682,-45.7098 264.7092,-26.6348 C255.5192,-11.2678 248.7272,5.4142 245.4162,23.5332 C239.3652,56.8992 237.2532,90.9232 235.3692,124.8272 C233.7142,155.1442 236.5682,185.1012 243.4182,214.6412 C249.0122,239.1582 250.2112,263.5542 242.2772,288.1292 C233.4292,315.2772 215.1062,330.5242 192.6732,330.5242 C186.2222,330.5242 179.4302,329.2072 172.4092,326.6972 C152.1462,319.0422 135.8202,304.5732 119.9512,289.5052 C100.9442,271.6862 81.1362,255.3012 58.8752,242.7452 C36.7642,230.3322 14.0182,219.1482 -7.7768,205.9172 C-8.9288,204.8362 -9.8398,203.6072 -10.5928,202.1442 L-10.5928,115.0802 Z M-10.5928,268.8752 L-10.5928,207.0472 C-10.0758,207.3652 -9.5528,207.6742 -9.0338,207.9892 C-8.3038,208.6282 -7.5168,209.2112 -6.6548,209.7382 C3.6202,216.1962 14.1232,222.2942 24.8542,227.4962 C61.5572,245.4952 95.2932,268.3372 125.3172,298.2352 C139.9872,312.8272 156.4832,324.9632 175.7772,331.0012 C181.7702,332.7952 187.5932,333.7572 193.1862,333.7572 C207.0002,333.7572 219.5582,328.0132 230.2322,315.5162 C244.6172,298.8932 249.4692,277.6652 250.6112,255.4212 C251.3522,240.1142 248.6132,225.1652 245.2452,210.4542 C238.3952,180.9162 236.3972,150.7792 238.1102,120.4622 C239.4802,97.0222 241.6492,73.8222 244.0462,50.3232 C247.0722,21.3802 254.4352,-5.5868 269.6762,-29.7438 C280.5782,-46.9648 290.9672,-64.5458 298.9582,-83.8608 C305.6942,-99.8858 311.2872,-116.4488 316.9962,-133.0118 C327.1572,-162.7898 343.9952,-185.6918 370.9942,-198.0088 C377.6162,-201.0598 384.0092,-204.4668 390.5162,-207.8158 C418.4862,-222.6458 441.3752,-244.8298 462.1532,-270.1828 C468.8312,-278.1358 474.9392,-286.7458 479.9052,-296.1948 C480.7832,-297.8818 482.2192,-299.6698 482.4172,-301.7118 C482.6002,-302.1238 482.7692,-302.5448 482.9302,-302.9518 L545.6632,-302.9518 C541.4382,-287.6438 533.1042,-274.9068 520.2042,-264.0838 L512.6132,-257.7448 C494.3472,-242.4978 475.3962,-226.7708 459.3562,-207.4568 C447.7122,-193.4648 436.9232,-178.5168 426.3632,-161.7138 C414.7762,-143.3558 399.8782,-126.9128 380.7552,-111.3658 C362.1472,-96.2968 347.1922,-77.5808 333.4922,-59.7618 C322.1332,-45.1118 310.7172,-30.3428 299.5292,-15.4528 C280.3492,9.7802 268.4192,39.7982 262.9972,76.2732 C260.6572,91.7602 259.2302,107.5462 258.6582,123.2722 C257.9172,144.8002 260.4852,167.1032 266.5932,193.4732 C270.9892,212.1292 274.8692,232.2202 273.5562,253.5072 C271.5022,288.4292 262.0272,316.2942 244.4462,338.5382 C234.7992,350.9742 221.4422,358.3892 204.8312,360.5452 C200.8932,361.0782 196.8972,361.3772 192.9582,361.3772 C173.4932,361.3772 153.6302,354.9252 132.2242,341.7652 C121.7782,335.1902 111.6752,327.5352 101.9712,320.1202 C94.7792,314.6222 87.4152,309.0012 79.8242,303.8572 C56.5922,287.8902 29.8782,277.3662 -6.6548,269.7722 L-10.5358,268.9352 L-10.5928,268.8752 Z" id="Fill-11" fill="#FFFFFF" mask="url(#mask-8)"></path>
                    </g>
                    <g id="Group-16" transform="translate(1001.000000, 0.000000)">
                        <mask id="mask-10" fill="white">
                            <use xlink:href="#path-9"></use>
                        </mask>
                        <g id="Clip-15"></g>
                        <path d="M12.4403,7.5089 C19.6353,12.9509 27.3973,17.0149 35.5043,19.9459 C66.6113,31.4869 90.5303,53.5509 109.3693,82.9709 C122.1513,103.1209 133.8543,123.9909 145.0423,145.2789 C151.2613,157.1759 156.9713,169.3749 165.7633,179.2419 C169.5263,183.4869 172.9533,185.4609 176.8343,185.4609 C179.5163,185.4609 182.3163,184.5029 185.5713,182.8299 C195.6723,177.4479 202.0083,167.5209 208.8593,158.5529 C222.8463,140.0149 236.9973,121.6589 252.2413,104.3179 C275.4693,78.3069 299.7323,53.3119 319.9983,24.0119 C340.8883,-6.3041 363.8363,-34.6471 383.8143,-65.6811 C394.0323,-81.5271 401.5663,-98.9281 398.9943,-119.3791 C394.7743,-153.9401 375.0763,-184.7941 341.5133,-193.4051 C337.2943,-194.4811 333.0083,-195.0791 328.7893,-195.0791 C312.0603,-195.0791 296.3663,-185.9301 289.9713,-163.5671 C285.7463,-148.7981 282.8933,-133.9081 279.3573,-119.0791 C271.8163,-87.6861 256.5193,-62.8121 229.3513,-49.2981 C208.3443,-38.9521 186.4253,-34.8861 164.1683,-34.8861 C154.5173,-34.8861 144.8143,-35.6041 135.0523,-36.9801 C117.5873,-39.3711 101.3733,-46.9061 85.2233,-54.4401 C73.7503,-59.8821 61.9883,-64.5451 49.2583,-64.9641 C28.4843,-64.9641 7.0803,-46.6071 1.6553,-24.0041 C-1.3727,-11.5671 2.7953,0.1539 12.4403,7.5089 M3.8823,-23.4061 C9.0723,-44.9911 29.3963,-62.5131 49.2063,-62.5131 C61.7613,-62.0941 73.5213,-57.3111 84.2533,-52.2281 C100.2333,-44.7531 116.7873,-36.9801 134.7083,-34.5291 C144.9833,-33.1521 154.8613,-32.4351 164.1683,-32.4351 C188.5933,-32.4351 210.2853,-37.2191 230.3803,-47.0851 C256.4093,-60.0011 273.1903,-83.3821 281.6363,-118.4811 C282.8353,-123.5041 283.9803,-128.5271 285.0613,-133.5501 C287.2303,-143.1771 289.4573,-153.1631 292.1973,-162.8501 C299.6163,-188.7411 318.2853,-192.6281 328.7893,-192.6281 C332.7803,-192.6281 336.8903,-192.0901 340.9463,-191.0141 C370.8563,-183.3591 392.2603,-155.7931 396.7143,-119.0791 C398.7663,-102.2171 394.2013,-86.1921 381.8743,-67.0571 C370.2243,-48.9981 357.3243,-31.5391 344.8803,-14.6161 C335.9783,-2.5371 326.7903,9.9599 318.1093,22.5769 C302.0123,45.8369 283.0093,66.7059 264.7443,86.9779 C259.9443,92.1789 255.2633,97.3809 250.5283,102.6439 C234.8293,120.5229 220.4433,139.2979 207.0283,156.9969 L204.1193,160.8249 C198.5253,168.4189 192.7033,176.2519 184.4843,180.6769 C181.5153,182.2309 179.0073,182.9489 176.8343,182.9489 C173.6423,182.9489 170.7843,181.3349 167.4753,177.5669 C160.0523,169.1959 154.9143,159.2699 149.5543,148.8059 L147.0993,144.0819 C134.3693,119.8639 123.0053,100.0119 111.3103,81.5949 C90.9273,49.7239 66.3263,28.7959 36.2473,17.6139 C27.9703,14.6239 20.4363,10.5569 13.8133,5.5349 C4.8533,-1.2811 1.1413,-12.1031 3.8823,-23.4061" id="Fill-14" fill="#FFFFFF" mask="url(#mask-10)"></path>
                    </g>
                    <g id="Group-19" transform="translate(119.000000, 30.000000)">
                        <mask id="mask-12" fill="white">
                            <use xlink:href="#path-11"></use>
                        </mask>
                        <g id="Clip-18"></g>
                        <path d="M411.7074,119.7618 C397.3224,110.4928 382.4244,102.3618 367.7554,93.8108 C348.6334,82.8078 330.9944,69.5338 315.9254,52.1938 C305.9364,40.6528 296.1184,28.7538 285.7864,17.5118 C277.1104,8.0048 267.0074,1.2468 254.2204,0.5898 C253.4794,0.5298 252.7364,0.5298 252.0514,0.5298 C230.2474,0.5298 211.8094,20.2018 203.0754,41.6698 C194.2284,63.1948 193.3724,85.9768 197.3114,108.8798 C199.9934,124.6668 203.9894,140.2718 207.4144,155.9378 C210.2684,169.3328 211.2964,183.0858 209.9834,196.7778 C208.1564,215.6758 204.6174,234.1508 199.7654,252.2688 C192.0594,281.5118 184.9244,310.9878 172.2524,338.1988 C168.0284,347.2848 163.0624,355.9568 156.2694,362.7098 C145.9374,372.6968 133.7794,379.3348 120.4804,383.2838 C96.7344,390.2208 72.1894,389.8598 47.9864,392.7308 C37.1984,394.0488 26.3524,395.3588 16.2494,400.5008 C7.4594,404.9288 -0.8176,413.4218 0.6664,426.7518 C1.6944,436.6818 4.7194,445.5928 9.1144,454.1388 C16.6494,468.2538 25.6114,481.1048 34.9154,493.6648 C54.6654,520.6308 73.3874,548.0798 80.9794,582.8778 L142.9694,582.8778 C147.0224,562.4878 153.9294,543.4138 162.0344,524.7028 C172.4234,501.1398 183.8404,478.1178 196.1694,455.7558 C216.0904,419.3968 237.0394,383.8218 266.4934,355.7788 C281.7344,341.3028 298.0594,328.6298 315.6394,317.8648 C339.1004,303.3958 364.6154,295.3798 390.2454,287.4878 C411.4224,281.1508 425.5214,265.8428 433.9124,243.7188 C440.8184,225.5418 446.1844,206.8858 447.0984,186.7928 C447.8974,170.3498 445.5564,155.1008 435.8524,142.1858 C428.9454,133.2168 420.7834,125.6818 411.7074,119.7618 M444.7574,186.6738 C443.9584,203.8358 439.9634,221.1168 431.7424,242.8228 C423.2954,265.0058 409.1384,279.2398 389.5604,285.1558 C365.7004,292.5138 338.6444,300.7618 314.4414,315.7168 C296.9744,326.4728 280.3064,339.3318 264.8954,353.9838 C234.6414,382.8048 213.3504,419.4588 194.1714,454.5558 C181.7844,476.9238 170.3124,500.1248 159.9234,523.6848 C150.7324,544.9088 144.6824,563.0258 141.0864,580.4288 L82.8054,580.4288 C74.9294,546.1638 56.5494,519.1368 36.7414,492.2308 C28.0074,480.3278 18.8754,467.3528 11.1694,453.0068 C6.6024,444.0918 3.9204,435.4218 3.0074,426.4568 C1.4654,412.8828 11.2834,405.7668 17.2774,402.6568 C26.9244,397.7528 37.5984,396.4978 48.2724,395.1798 C55.7494,394.2858 63.4554,393.6868 70.8764,393.0868 C87.4304,391.7758 104.5544,390.4598 121.1084,385.6718 C135.3204,381.4898 147.7074,374.3128 157.8674,364.5038 C165.8024,356.6118 171.0534,346.3308 174.3644,339.2698 C185.9514,314.3988 193.0294,287.2498 199.9364,260.9398 L201.9914,252.9278 C207.1854,233.6738 210.5534,215.3758 212.3234,197.0178 C213.5794,183.6238 212.7224,169.6308 209.6974,155.4608 C208.6704,150.6778 207.5284,145.8928 206.4444,141.1088 C203.9894,130.4068 201.4784,119.3438 199.5944,108.4608 C195.3704,83.7058 197.1964,62.1788 205.2454,42.6258 C213.2364,22.8928 230.8174,2.9818 252.0514,2.9818 C252.7364,2.9818 253.4214,2.9818 254.1064,3.0408 C265.0084,3.5798 274.5414,8.7208 284.0734,19.1858 C291.2094,26.9598 298.2304,35.1508 305.0234,43.1048 C308.0484,46.6918 311.1304,50.2798 314.2134,53.8668 C328.1974,69.8928 345.3224,83.7058 366.6134,95.9638 C370.4374,98.1758 374.2624,100.3288 378.0864,102.5408 C388.8184,108.6998 399.8914,115.0388 410.4514,121.8548 C419.5284,127.7748 427.4624,135.1308 434.0264,143.7408 C442.2464,154.6238 445.6704,168.2568 444.7574,186.6738" id="Fill-17" fill="#FFFFFF" mask="url(#mask-12)"></path>
                    </g>
                    <g id="Group-22" transform="translate(975.000000, 145.000000)">
                        <mask id="mask-14" fill="white">
                            <use xlink:href="#path-13"></use>
                        </mask>
                        <g id="Clip-21"></g>
                        <path d="M145.41,312.0513 C150.094,311.0963 155.002,309.9023 159.112,307.2683 C171.159,299.3143 172.696,292.3773 167.845,280.2413 C166.074,275.8143 164.022,271.6323 161.223,267.9223 C153.401,257.6413 145.587,247.3543 137.765,236.9503 C121.213,214.8223 107.394,190.8453 99.007,163.2793 C91.929,139.7213 90.555,115.3243 91.297,94.9943 C91.297,81.9583 91.642,73.2283 91.297,64.4393 C90.613,50.2653 88.731,36.3943 82.512,23.5983 C78.859,16.0643 73.831,9.6653 67.555,5.1813 C62.872,1.8323 58.079,0.1583 53.455,0.1583 C44.15,0.1583 35.588,6.8553 30.678,20.3683 C26.229,32.7463 25.826,46.0803 25.201,59.0573 C24.172,78.3703 25.312,97.6243 24.172,117.0583 C22.459,144.8643 22.857,172.7263 22.857,200.5313 C22.805,215.5453 21.203,230.3143 18.924,245.0833 C16.181,263.3783 10.928,280.8963 6.876,298.8983 C4.082,311.2183 -0.144,323.1763 0.37,336.3283 C0.768,345.8993 5.794,351.5203 14.47,351.8753 C15.551,351.9973 16.638,351.9973 17.724,351.9973 C36.845,351.9973 54.427,344.9373 71.95,337.5233 C95.979,327.3583 120.183,317.9723 145.41,312.0513 M17.724,349.4883 L14.579,349.4883 C5.223,349.0663 2.936,342.0723 2.708,336.2123 C2.37,326.5263 4.649,317.6723 7.045,308.2233 C7.736,305.2963 8.531,302.3643 9.161,299.4923 C10.472,293.3933 11.955,287.4183 13.44,281.4353 C16.41,269.7773 19.378,257.7573 21.262,245.4383 C23.886,228.2193 25.142,213.9293 25.201,200.5313 L25.201,187.2573 C25.083,164.2393 25.083,140.4993 26.511,117.2383 C27.141,107.0723 27.082,96.7873 27.082,86.8623 C27.024,77.7733 27.024,68.3843 27.48,59.1763 L27.597,56.5453 C28.222,44.6463 28.854,32.4473 32.847,21.2063 C37.189,9.3663 44.723,2.6093 53.455,2.6093 C57.623,2.6093 62.072,4.2233 66.186,7.2143 C72.009,11.3403 76.802,17.2593 80.454,24.6753 C86.902,38.0083 88.333,52.3003 88.9,64.5573 C89.187,70.2393 89.129,75.8603 89.076,82.9143 C89.017,86.6223 89.017,90.5703 89.017,94.9353 C87.989,120.3483 90.613,143.6083 96.78,164.0013 C104.484,189.2343 117.273,213.5683 135.936,238.5063 C143.014,247.9543 150.094,257.1573 157.172,266.4893 L159.34,269.4153 C161.736,272.5873 163.678,276.2913 165.677,281.1973 C170.3,292.8003 168.587,298.1203 157.855,305.1743 C154.033,307.6303 149.181,308.8243 144.896,309.6623 C118.354,315.8783 92.671,326.1033 71.091,335.2513 C51.854,343.3823 35.704,349.4883 17.724,349.4883" id="Fill-20" fill="#FFFFFF" mask="url(#mask-14)"></path>
                    </g>
                    <g id="Group-25" transform="translate(341.000000, 105.000000)">
                        <mask id="mask-16" fill="white">
                            <use xlink:href="#path-15"></use>
                        </mask>
                        <g id="Clip-24"></g>
                        <path d="M158.7694,78.3077 C148.2094,66.1087 135.5384,57.2597 122.2954,49.4857 C103.7434,38.4837 84.9644,27.8997 67.4404,14.8647 C61.7314,10.5587 55.8524,6.5527 49.4594,3.3247 C45.8064,1.5297 42.3814,0.6337 39.2994,0.6337 C30.2804,0.6337 24.2294,7.9877 23.7154,21.0237 C23.3734,28.7967 24.1724,36.5097 25.4284,44.1047 C29.0814,69.2187 28.7394,93.9137 23.0874,118.6697 C17.7224,142.4087 9.8454,165.2507 4.7654,189.1697 C2.0254,202.3847 -0.2016,215.7217 0.1984,229.3497 C0.5984,242.6257 5.9074,249.5627 15.4964,249.5627 C17.6654,249.5627 20.0624,249.1457 22.6884,248.4237 C34.9614,244.8967 45.6344,237.4817 56.3094,230.3667 C76.9154,216.5537 97.2364,202.2067 117.5004,187.9137 C130.9714,178.5247 144.2144,168.9577 155.2884,155.8027 C165.6194,143.6047 172.0124,129.7917 171.3274,112.0327 C172.1844,98.8177 166.9894,87.8757 158.7694,78.3077 M153.5184,154.2497 C142.7874,166.9257 129.7724,176.4327 116.1874,185.8807 C96.3804,199.8727 75.8884,214.3437 55.0534,228.2727 L52.7694,229.8287 C43.1234,236.2877 33.1344,242.9247 22.0604,246.0987 C19.6634,246.6907 17.4364,247.0537 15.4964,247.0537 C7.2194,247.0537 2.8814,241.0707 2.5394,229.2337 C2.1394,215.5377 4.4794,202.1467 7.0484,189.7657 C9.7314,177.1497 13.2134,164.5927 16.6384,152.4547 C19.6634,141.6917 22.8024,130.4497 25.3714,119.2087 C30.8514,95.1707 31.6504,70.4737 27.7114,43.6857 C26.2844,35.0157 25.7704,27.8407 26.0564,21.0837 C26.5134,9.8417 31.4214,3.0857 39.2994,3.0857 C42.0964,3.0857 45.1784,3.9227 48.4324,5.5367 C53.9124,8.2877 59.3924,11.8147 66.0704,16.8377 C81.1964,28.0787 97.5214,37.7067 113.2194,46.9747 L121.1534,51.6397 C131.8844,57.9777 145.6984,66.8867 157.0574,79.9817 C165.7904,90.2067 169.7294,100.6117 168.9874,112.1517 C169.6154,127.5797 164.6494,140.9737 153.5184,154.2497" id="Fill-23" fill="#FFFFFF" mask="url(#mask-16)"></path>
                    </g>
                    <g id="Group-28" transform="translate(1314.000000, 213.000000)">
                        <mask id="mask-18" fill="white">
                            <use xlink:href="#path-17"></use>
                        </mask>
                        <g id="Clip-27"></g>
                        <path d="M54.4296,0.4449 C40.3896,0.4449 27.2566,3.9729 16.0156,14.0789 C5.9676,23.1079 -0.0804,34.5279 0.8306,49.1189 C1.9176,64.9649 10.3056,75.9069 23.0366,81.4089 C31.3136,85.1149 40.1046,86.9089 48.8956,86.9089 C70.3596,86.9089 92.0436,76.3839 107.2296,57.4899 C116.7046,45.5309 115.5646,30.5819 106.2596,20.8949 C91.8166,5.8869 74.9236,0.6849 55.9736,0.4449 L54.4296,0.4449 Z M105.4066,55.9349 C91.1326,73.7549 69.9546,84.3979 48.8956,84.3979 C40.1576,84.3979 31.7686,82.6649 23.9496,79.1359 C11.3346,73.6339 4.1386,63.2299 3.1696,48.9989 C2.3746,36.2019 7.0506,25.3799 17.5016,15.8719 C27.3156,7.1419 39.4206,2.8369 54.4296,2.8369 L55.9736,2.8369 C76.4086,3.1359 91.8746,9.4139 104.6056,22.6289 C113.5076,31.8979 113.8516,45.2919 105.4066,55.9349 L105.4066,55.9349 Z" id="Fill-26" fill="#FFFFFF" mask="url(#mask-18)"></path>
                    </g>
                    <g id="Group-31" transform="translate(42.000000, 28.000000)">
                        <mask id="mask-20" fill="white">
                            <use xlink:href="#path-19"></use>
                        </mask>
                        <g id="Clip-30"></g>
                        <path d="M25.3807,167.6251 C50.3817,187.8371 76.6387,205.8951 100.6127,227.6611 C111.0587,237.1091 122.1327,245.4801 135.0897,250.0241 C137.7157,250.9801 140.3417,251.4591 142.8527,251.4591 C150.3877,251.4591 157.0667,247.2741 161.7467,239.6211 C164.3157,235.4341 165.6287,230.6511 166.4277,225.8061 C169.4527,208.6451 166.3707,191.7841 164.9437,174.7411 C163.4027,157.6991 162.5457,140.5981 163.5157,123.4971 C164.7157,103.6441 166.1417,83.8521 166.5987,64.0001 C166.9417,47.5561 165.4567,31.4101 159.9767,15.9841 C156.3817,5.6991 150.3307,0.4371 142.0537,0.4371 C139.6567,0.4371 137.0877,0.8551 134.3477,1.7521 C125.3867,4.6221 117.2807,9.5261 109.5177,15.2671 C85.4867,33.2051 61.5127,51.0831 37.6527,69.2621 C29.2617,75.6591 20.9847,82.3571 14.2497,90.9071 C-0.9913,110.4611 -4.9303,130.0731 10.7097,152.1981 C14.9917,158.1771 19.9577,163.2001 25.3807,167.6251 M16.0757,92.4621 C22.8107,83.9121 31.0887,77.2741 39.0227,71.2351 C61.8547,53.8941 85.1437,36.4351 107.6907,19.6311 L110.8877,17.2391 C119.7357,10.7211 127.3847,6.5361 135.0337,4.0851 C137.5447,3.3081 139.8847,2.8891 142.0537,2.8891 C149.3597,2.8891 154.4977,7.4331 157.8087,16.8201 C162.6037,30.3941 164.6577,45.3441 164.2587,63.9391 C163.9157,79.9061 162.8887,96.1091 161.9187,111.8961 L161.1757,123.3771 C160.3197,138.3261 160.7767,154.7101 162.6037,174.9201 C162.9457,178.6281 163.2887,182.2171 163.6877,185.9231 C165.0577,198.8391 166.4277,212.2331 164.1437,225.3881 C163.2307,230.8301 161.8607,234.8961 159.7487,238.3051 C155.5817,245.2411 149.5317,249.0681 142.8527,249.0681 C140.5697,249.0681 138.2287,248.5881 135.8317,247.7511 C122.1327,242.9681 110.6587,233.5211 102.1547,225.8061 C86.8567,211.9941 70.4177,199.4371 54.5487,187.2401 C45.4157,180.3031 35.9397,173.0071 26.8067,165.6531 C21.1557,161.0491 16.4757,156.1451 12.5937,150.7631 C-1.1623,131.2101 -0.1353,113.2121 16.0757,92.4621" id="Fill-29" fill="#FFFFFF" mask="url(#mask-20)"></path>
                    </g>
                    <g id="Group-34" transform="translate(644.000000, 0.000000)">
                        <mask id="mask-22" fill="white">
                            <use xlink:href="#path-21"></use>
                        </mask>
                        <g id="Clip-33"></g>
                        <path d="M197.1727,146.4742 C187.5807,135.4712 177.0777,125.6652 167.0887,115.2012 C145.2277,92.1192 124.7927,67.3632 104.9847,42.1302 C90.7747,24.0122 75.5897,7.3902 56.6387,-4.3318 C45.6787,-11.2668 34.0357,-16.2908 21.3637,-17.1278 C20.6797,-17.1868 19.9377,-17.1868 19.2477,-17.1868 C13.0277,-17.1868 7.2647,-15.3338 3.2667,-9.0548 C-1.1283,-2.1788 1.0397,4.4582 3.9507,11.0962 C7.0897,18.3312 10.3457,25.3872 14.9687,31.4872 C35.4627,58.9322 51.6717,89.0702 63.0327,122.6152 C70.5687,144.3202 80.8377,164.3512 96.1407,180.4972 C110.8637,196.1042 127.4177,208.7822 145.5717,218.8862 C154.3627,223.6692 163.6097,227.3172 173.5407,227.9152 C174.0557,227.9752 174.5697,228.0352 175.0267,228.0352 C177.7677,228.0352 180.4437,227.1992 183.1267,226.4802 C204.7657,221.3382 218.6357,194.6692 211.6157,171.9462 C208.4717,162.2602 203.5677,153.8282 197.1727,146.4742 M205.7357,205.3132 C200.4227,215.0002 191.9767,221.8162 182.5607,224.0882 L181.6487,224.3282 C179.3627,224.9262 177.1937,225.5242 175.0267,225.5242 C174.5697,225.5242 174.2257,225.5242 173.7107,225.4642 C165.3227,224.9262 156.7007,222.1752 146.5947,216.7332 C128.4457,206.6282 112.0087,193.8322 97.7357,178.7632 C84.1517,164.4122 73.5307,145.7552 65.2017,121.7782 C54.1257,89.0702 37.8597,58.1552 16.7927,29.9922 C12.2857,24.0122 9.0297,16.8962 6.0677,10.0802 C2.9227,2.9042 1.7827,-2.2978 5.2077,-7.6788 C8.2877,-12.5238 12.7417,-14.7358 19.2477,-14.7358 C19.9377,-14.7358 20.5627,-14.7358 21.1887,-14.6758 C32.2647,-13.9588 43.1087,-10.0108 55.4987,-2.2378 C75.4777,10.1992 90.8267,27.9582 103.2177,43.6842 C126.6227,73.5832 146.3667,96.8432 165.4347,116.9352 C168.9767,120.6412 172.5127,124.2302 176.1657,127.8172 C182.5607,134.3942 189.2357,141.0922 195.4607,148.1482 C201.8557,155.4432 206.5307,163.7542 209.3897,172.7242 C212.6397,183.1882 211.2717,195.0872 205.7357,205.3132" id="Fill-32" fill="#FFFFFF" mask="url(#mask-22)"></path>
                    </g>
                </g>
            </g>
        </g>
    </g>
</svg>