<?xml version="1.0" encoding="UTF-8"?>
<svg width="172px" height="48px" viewBox="0 0 172 48" version="1.1" xmlns="http://www.w3.org/2000/svg" xmlns:xlink="http://www.w3.org/1999/xlink">
    <!-- Generator: sketchtool 62 (101010) - https://sketch.com -->
    <title>B66A44B2-866E-4CF0-B235-0337F4198CFB</title>
    <desc>Created with sketchtool.</desc>
    <g id="Page-1" stroke="none" stroke-width="1" fill="none" fill-rule="evenodd">
        <g id="1" transform="translate(-873.000000, -5872.000000)">
            <g id="Group-46" transform="translate(304.000000, 5802.000000)">
                <g id="Group" transform="translate(569.000000, 70.000000)">
                    <g id="Group-Copy-3" fill="#15AAC5" fill-rule="nonzero">
                        <rect id="Rectangle-16" x="0" y="0" width="172" height="48" rx="5"></rect>
                    </g>
                    <g id="Group-48" transform="translate(29.000000, 11.000000)" fill="#FFFFFF">
                        <text id="Download" font-family="SourceSansPro-Semibold, Source Sans Pro" font-size="18" font-weight="500">
                            <tspan x="35" y="20">Download</tspan>
                        </text>
                        <g id="playstore" fill-rule="nonzero">
                            <path d="M0.521881838,0.957504285 C0.203501094,1.36434939 0.0262582057,1.86482237 0.0262582057,2.40040587 L0.0262582057,23.5991974 C0.0262582057,24.0966949 0.179704595,24.5640411 0.456851764,24.954422 L12.3854623,12.923233 L0.521881838,0.957504285 Z" id="Path"></path>
                            <path d="M13.4776395,11.821518 L17.3474426,7.91850282 L3.74466633,0.324523926 C3.15426696,-0.00515744531 2.47688728,-0.0833129883 1.84484408,0.0884704844 L13.4776395,11.821518 Z" id="Path"></path>
                            <path d="M13.4776395,14.0247498 L1.72729759,25.8762207 C1.98064826,25.9585419 2.24282001,26 2.50519694,26 C2.93086708,26 3.35674235,25.8916931 3.74466633,25.6750793 L17.4452954,18.0263519 L13.4776395,14.0247498 Z" id="Path"></path>
                            <path d="M22.7305799,10.9239197 L18.7536925,8.70362853 L14.5700219,12.9230347 L18.8513403,17.2414246 L22.7305799,15.0756836 C23.5068381,14.6424561 23.9702544,13.8662567 23.9702544,12.9998016 C23.9702544,12.1331482 23.5068381,11.3571472 22.7305799,10.9239197 Z" id="Path"></path>
                        </g>
                    </g>
                </g>
            </g>
        </g>
    </g>
</svg>