<?xml version="1.0" encoding="UTF-8"?>
<svg width="160px" height="48px" viewBox="0 0 160 48" version="1.1" xmlns="http://www.w3.org/2000/svg" xmlns:xlink="http://www.w3.org/1999/xlink">
    <!-- Generator: sketchtool 62 (101010) - https://sketch.com -->
    <title>9F523E2B-8FB7-4DBF-AF16-D6EAAFA7E5D1</title>
    <desc>Created with sketchtool.</desc>
    <g id="Page-1" stroke="none" stroke-width="1" fill="none" fill-rule="evenodd">
        <g id="1" transform="translate(-135.000000, -16.000000)">
            <g id="Group" transform="translate(135.000000, 16.000000)">
                <g id="Group-13">
                    <path d="M18.3304704,47.2429824 C17.6673024,46.9031424 17.0886144,46.5924864 16.4968704,46.3083264 C16.1915904,46.1620224 16.1723904,45.9070464 16.2196224,45.6516864 C16.4016384,44.6721024 15.9481344,44.2589184 15.0480384,43.8929664 C10.1777664,41.9134464 5.3435904,39.8444544 0.4905984,37.8219264 C0.1123584,37.6641024 -0.0005376,37.4586624 0.000226513937,37.0604544 C0.0113664,29.4910464 0.0113664,21.9224064 0.0017664,14.3529984 C0.0013824,13.8768384 0.0440064,13.7013504 0.5831424,13.9378944 C2.3768064,14.7247104 4.1892864,15.4704384 6.0025344,16.2107904 C6.3527424,16.3540224 6.4763904,16.5425664 6.4706304,16.9223424 C6.4487424,18.4034304 6.4836864,19.8864384 6.4506624,21.3671424 C6.4372224,21.9389184 6.5197824,22.4319744 6.9540864,22.8305664 C7.0416384,22.9108224 7.1065344,23.0156544 7.1825664,23.1089664 C7.8968064,23.9894784 8.0315904,23.9956224 8.9831424,23.3243904 C9.2350464,23.1465984 9.2093184,22.9265664 9.2093184,22.6911744 C9.2112384,21.1697664 9.2281344,19.6475904 9.2004864,18.1261824 C9.1912704,17.6242944 9.3494784,17.6162304 9.7411584,17.7817344 C12.4829184,18.9456384 15.2296704,20.0984064 17.9783424,21.2457984 C18.2471424,21.3579264 18.3853824,21.4869504 18.3849992,21.8102784 C18.3753984,30.1799424 18.3769344,38.5496064 18.3750144,46.9196544 C18.3750144,46.9964544 18.3546624,47.0732544 18.3304704,47.2429824" id="Fill-1" fill="#15AAC5"></path>
                    <path d="M20.781504,32.2703616 C20.781504,28.5244416 20.793024,24.7785216 20.7672444,21.0329856 C20.76384,20.5422336 20.933568,20.3398656 21.359424,20.1624576 C26.288064,18.1092096 31.209024,16.0379136 36.132288,13.9700736 C36.750528,13.7104896 36.752448,13.7070336 36.752832,14.3398656 C36.7536,21.9111936 36.750144,29.4829056 36.7616683,37.0550016 C36.762432,37.4497536 36.66144,37.6567296 36.27936,37.8157056 C31.31424,39.8862336 26.356416,41.9748096 21.396288,44.0583936 C20.79072,44.3126016 20.782272,44.3076096 20.781888,43.6279296 C20.780736,39.8424576 20.781504,36.0562176 20.781504,32.2703616" id="Fill-3" fill="#15AAC5"></path>
                    <path d="M29.4259968,14.3674752 C29.3572608,14.5944192 29.1560448,14.6189952 29.0047488,14.6908032 C26.6577408,15.8028672 24.3068928,16.9080192 21.9575808,18.0154752 C21.1442688,18.3990912 20.3271168,18.7757952 19.5218688,19.1755392 C19.2488448,19.3114752 19.0192128,19.3337472 18.7339008,19.1978112 C15.5221248,17.6698752 12.3084288,16.1461632 9.0843648,14.6435712 C8.7195648,14.4734592 8.7836928,14.3332992 8.9445888,14.0740992 C10.9582848,10.8304512 13.8509568,8.8378752 17.6333568,8.4223872 C22.5462528,7.8820992 26.4135168,9.7852032 29.1621888,13.9128192 C29.2608768,14.0610432 29.3419008,14.2215552 29.4259968,14.3674752" id="Fill-5" fill="#F58930"></path>
                    <path d="M19.1536128,0.0001152 C19.3559808,1.7227392 19.5445248,3.4476672 19.7714688,5.1672192 C19.8306048,5.6145792 19.7553408,5.7543552 19.2734208,5.7255552 C18.4113408,5.6733312 18.3948288,5.7048192 18.4885248,4.8627072 C18.6678528,3.2418432 18.8659968,1.6236672 19.0560768,0.0043392 C19.0887168,0.0028032 19.1209728,0.0016512 19.1536128,0.0001152" id="Fill-7" fill="#F58D38"></path>
                    <path d="M5.5759872,5.724864 C6.1312512,6.16224 6.6872832,6.598848 7.2421632,7.036992 C7.9809792,7.620288 8.7155712,8.208192 9.4589952,8.78496 C9.6836352,8.959296 9.7838592,9.073344 9.5104512,9.327168 C8.7835392,10.001856 8.7988992,10.015296 8.1810432,9.231552 C7.3876992,8.225472 6.5908992,7.221312 5.7975552,6.214848 C5.6923392,6.0816 5.5990272,5.939136 5.4999552,5.800128 C5.5252992,5.775168 5.5510272,5.749824 5.5759872,5.724864" id="Fill-9" fill="#F58D38"></path>
                    <path d="M32.6866176,5.8651008 C31.6609536,7.1641728 30.6337536,8.4628608 29.6107776,9.7638528 C29.4875136,9.9209088 29.4022656,9.9358848 29.2263936,9.8037888 C28.3232256,9.1244928 28.3170816,9.1314048 29.2160256,8.4198528 C30.3399936,7.5308928 31.4643456,6.6423168 32.5886976,5.7533568 C32.6213376,5.7909888 32.6539776,5.8278528 32.6866176,5.8651008" id="Fill-11" fill="#F58D38"></path>
                </g>
                <text id="Gyanodaya" font-family="OpenSans-SemiBold, Open Sans" font-size="20" font-weight="600" fill="#212A39" fill-opacity="0.75">
                    <tspan x="53" y="32">Gyanodaya</tspan>
                </text>
            </g>
        </g>
    </g>
</svg>