<?xml version="1.0" encoding="UTF-8"?>
<svg width="64px" height="63px" viewBox="0 0 64 63" version="1.1" xmlns="http://www.w3.org/2000/svg" xmlns:xlink="http://www.w3.org/1999/xlink">
    <!-- Generator: sketchtool 62 (101010) - https://sketch.com -->
    <title>EB14FDDC-F0E7-47C6-A60F-33A33457C452</title>
    <desc>Created with sketchtool.</desc>
    <defs>
        <polygon id="path-1" points="0 0.0971428571 63.9010909 0.0971428571 63.9010909 62.5862857 0 62.5862857"></polygon>
    </defs>
    <g id="Page-1" stroke="none" stroke-width="1" fill="none" fill-rule="evenodd">
        <g id="1" transform="translate(-135.000000, -4860.000000)">
            <g id="Group-23" transform="translate(135.000000, 4860.000000)">
                <g id="tbi-logo">
                    <g id="Group" transform="translate(0.000000, 0.036571)">
                        <g id="Clipped">
                            <mask id="mask-2" fill="white">
                                <use xlink:href="#path-1"></use>
                            </mask>
                            <g id="a"></g>
                            <path d="M45.6378182,25.9474286 L37.4667636,25.9474286 L37.4667636,17.9862857 C37.4667636,8.10628571 29.2759273,0.0971428571 19.1744,0.0971428571 L18.2935273,0.0971428571 C8.18967273,0.0971428571 0,8.10628571 0,17.9862857 L0,62.5862857 L45.5784727,62.5862857 C55.6974545,62.5862857 63.9010909,54.5634286 63.9010909,44.6685714 L63.9010909,43.8068571 C63.9010909,33.944 55.7242182,25.9474286 45.6378182,25.9474286" id="Path" fill="#004697" fill-rule="nonzero" mask="url(#mask-2)"></path>
                        </g>
                    </g>
                    <path d="M12.6010182,37.2034286 C12.6010182,35.4457143 12.1541818,34.3634286 10.7019636,34.3634286 C9.24974545,34.3634286 8.80407273,35.4457143 8.80407273,37.2034286 C8.80407273,38.9611429 9.24974545,40.0434286 10.7019636,40.0434286 C12.1541818,40.0434286 12.6010182,38.9611429 12.6010182,37.2034286 M14.9981091,37.1931429 C14.9981091,40.4011429 13.5656727,41.7508571 11.3524364,41.7508571 C9.98167273,41.7508571 9.36261818,41.3382857 8.91461818,40.6731429 L8.91461818,41.6125714 L6.54894545,41.6125714 L6.54894545,30.6891429 L5.65178182,30.6891429 L5.65178182,28.9828571 L8.52596364,28.9828571 C8.74123636,28.9828571 8.91461818,29.1531429 8.91461818,29.3634286 L8.91461818,33.6102857 C9.3824,33.0434286 10.1434182,32.6274286 11.3722182,32.6274286 C13.5656727,32.6274286 14.9969455,33.9874286 14.9969455,37.1942857" id="Shape" fill="#59FFB9" fill-rule="nonzero"></path>
                    <path d="M31.3332364,40.0228571 L29.7309091,40.0228571 C28.6231273,39.8914286 28.6196364,39.0571429 28.6196364,38.2457143 L28.6196364,34.4628571 L30.9248,34.4628571 L30.9248,32.7542857 L28.6208,32.7542857 L28.6208,30.1337143 L26.2539636,30.1337143 L26.2539636,38.5737143 C26.2539636,39.4285714 26.2562909,41.6822857 29.3841455,41.728 C29.4178909,41.7291429 29.4493091,41.7314286 29.4830545,41.7314286 L31.4123636,41.7314286 L31.4123636,40.0228571 L31.3309091,40.0228571 L31.3332364,40.0228571 Z M37.4178909,40.0228571 L35.8167273,40.0228571 C34.7101091,39.8914286 34.7066182,39.0571429 34.7066182,38.2457143 L34.7066182,34.4628571 L37.0106182,34.4628571 L37.0106182,32.7542857 L34.7066182,32.7542857 L34.7066182,30.1337143 L32.3397818,30.1337143 L32.3397818,38.5737143 C32.3397818,39.4285714 32.3421091,41.6822857 35.4711273,41.728 C35.5037091,41.7291429 35.5351273,41.7314286 35.5688727,41.7314286 L37.4981818,41.7314286 L37.4981818,40.0228571 L37.4178909,40.0228571 Z M42.5250909,34.1942857 C41.2962909,34.1942857 40.7284364,34.8891429 40.7377455,36.4982857 L44.3124364,36.4982857 C44.3229091,34.8891429 43.7538909,34.1942857 42.5250909,34.1942857 M38.2813091,37.1931429 C38.2813091,34.2445714 39.6928,32.5862857 42.5960727,32.5862857 C45.1851636,32.5862857 46.7386182,33.8971429 46.7386182,37.2034286 C46.7386182,37.3531429 46.7386182,37.5074286 46.7362909,37.6457143 C46.7312091,37.9133597 46.5084855,38.1275277 46.2359273,38.1268571 L40.7586909,38.1268571 C40.7482182,39.4571429 41.7943273,40.0434286 43.4187636,40.0434286 C44.4136727,40.0434286 44.8802909,39.8171429 45.4690909,39.6285714 L45.4690909,41.3565714 C44.9815273,41.5542857 44.5265455,41.7908571 43.0836364,41.7908571 C40.2304,41.7908571 38.2813091,40.648 38.2813091,37.1931429 M20.6010182,34.1942857 C19.3722182,34.1942857 18.8043636,34.8891429 18.8136727,36.4982857 L22.3883636,36.4982857 C22.3988364,34.8891429 21.8298182,34.1942857 20.6010182,34.1942857 M16.3560727,37.1931429 C16.3560727,34.2445714 17.7675636,32.5862857 20.6731636,32.5862857 C23.2610909,32.5862857 24.8157091,33.8971429 24.8157091,37.2034286 C24.8157091,37.3531429 24.8133818,37.5074286 24.8122182,37.6457143 C24.8071364,37.9133597 24.5844128,38.1275277 24.3118545,38.1268571 L18.8346182,38.1268571 C18.8229818,39.4571429 19.8702545,40.0434286 21.4946909,40.0434286 C22.4896,40.0434286 22.9562182,39.8171429 23.5450182,39.6285714 L23.5450182,41.3565714 C23.0562909,41.5542857 22.6024727,41.7908571 21.1595636,41.7908571 C18.3063273,41.7908571 16.3560727,40.648 16.3560727,37.1931429 M53.5086545,32.5954286 C52.2519273,32.5977143 51.4909091,33.272 51.0650182,34.1748571 L51.0650182,33.1348571 C51.0643769,32.9244886 50.890558,32.7542848 50.6763636,32.7542857 L47.7463273,32.7542857 L47.7463273,34.4628571 L48.8017455,34.4628571 L48.8017455,41.6125714 L51.0522182,41.6125714 L51.0522182,37.5508571 C51.0522182,36.9451429 51.1569455,35.744 51.9493818,35.1085714 C52.2949818,34.8297143 52.7930182,34.6514286 53.4935273,34.6514286 L54.1940364,34.6514286 L54.1940364,32.5954286 L53.5086545,32.5954286 L53.5086545,32.5954286 Z" id="Shape" fill="#59FFB9" fill-rule="nonzero"></path>
                    <path d="M6.48494545,45.9577143 C6.48494545,45.2422857 7.02370909,44.7257143 7.75447273,44.7257143 C8.4864,44.7257143 9.024,45.2422857 9.024,45.9577143 C9.024,46.672 8.4864,47.1885714 7.75563636,47.1885714 C7.02370909,47.1885714 6.48494545,46.672 6.48494545,45.9577143 Z M8.95534545,57.1782857 L6.59781818,57.1782857 L6.59549091,48.3211429 L8.95418182,48.3211429 L8.95418182,57.1782857 L8.95534545,57.1782857 Z M31.6346182,45.9577143 C31.6346182,45.2422857 32.1733818,44.7257143 32.9029818,44.7257143 C33.6360727,44.7257143 34.1736727,45.2422857 34.1736727,45.9577143 C34.1736727,46.672 33.6349091,47.1885714 32.9041455,47.1885714 C32.1733818,47.1885714 31.6346182,46.672 31.6346182,45.9577143 L31.6346182,45.9577143 Z M34.1038545,57.1782857 L31.7486545,57.1782857 L31.7451636,48.3211429 L34.1038545,48.3211429 L34.1038545,57.1782857 Z M20.0494545,57.1782874 L17.2765091,57.1782874 C17.1734314,57.1785893 17.0744527,57.1386639 17.0013475,57.0672928 C16.9282423,56.9959217 16.8869991,56.8989513 16.8866909,56.7977143 L16.8866909,52.1142857 C16.8866909,51.3394286 16.8866909,49.92 15.4647273,49.92 C13.7797818,49.92 13.6727273,51.9257143 13.6727273,52.9977143 L13.6727273,57.1782874 L11.4141091,57.1782874 L11.4141091,50.0285714 L10.5169455,50.0285714 L10.5169455,48.3211429 L13.2514909,48.3211429 C13.4667636,48.3211429 13.6413091,48.4914286 13.6413091,48.7017143 L13.6413091,49.5222857 C13.9159273,48.9965714 14.5314909,48.1714286 16.2688,48.1714286 C19.2535273,48.1714286 19.2535273,50.624 19.2535273,51.8262857 L19.2535273,55.4708571 L20.0494545,55.4708571 L20.0494545,57.1782874 L20.0494545,57.1782874 Z M27.3733818,52.7588571 C27.3733818,50.992 26.9265455,49.8994286 25.4743273,49.8994286 C24.0221091,49.8994286 23.5752727,50.992 23.5752727,52.7588571 C23.5752727,54.5268571 24.0221091,55.6091429 25.4743273,55.6091429 C26.9265455,55.6091429 27.3733818,54.5268571 27.3733818,52.7588571 Z M29.6273455,57.1782857 L27.2570182,57.1782857 L27.2651636,56.2388571 C26.8194909,56.904 26.1946182,57.3177143 24.8250182,57.3177143 C22.6106182,57.3177143 21.1793455,55.9668571 21.1793455,52.7588571 C21.1793455,49.552 22.6106182,48.192 24.8040727,48.192 C26.0328727,48.192 26.7938909,48.6091429 27.2616727,49.1748571 L27.2616727,44.5474286 L29.6273455,44.5474286 L29.6273455,57.1782857 L29.6273455,57.1782857 Z M42.2050909,52.7691429 C42.2050909,51.0114286 41.7582545,49.9291429 40.3060364,49.9291429 C38.8549818,49.9291429 38.4081455,51.0114286 38.4081455,52.7691429 C38.4081455,54.5268571 38.8549818,55.6091429 40.3060364,55.6091429 C41.7582545,55.6091429 42.2050909,54.5268571 42.2050909,52.7691429 Z M44.4590545,57.1782857 L42.2760727,57.1782857 L42.2760727,56.1154286 C41.8187636,56.7908571 41.0170182,57.3177143 39.6357818,57.3177143 C37.4225455,57.3177143 36.0110545,55.9771429 36.0110545,52.7691429 C36.0110545,49.5725714 37.4225455,48.2205714 39.6462545,48.2205714 C41.0379636,48.2205714 41.8304,48.7474286 42.2667636,49.4125714 L42.2667636,48.3211429 L44.4590545,48.3211429 L44.4590545,57.1782857 L44.4590545,57.1782857 Z M11.6282182,24.4571429 L10.0282182,24.4571429 C8.91927273,24.3257143 8.91578182,23.4914286 8.91578182,22.68 L8.91578182,18.8971429 L11.2209455,18.8971429 L11.2209455,17.1885714 L8.91694545,17.1885714 L8.91694545,14.5668571 L6.54894545,14.5668571 L6.54894545,23.008 C6.54894545,23.8628571 6.55127273,26.1165714 9.67912727,26.1622857 L9.67912727,26.1657143 L11.7096727,26.1657143 L11.7096727,24.4571429 L11.6282182,24.4571429 Z M21.8903273,26.1657143 L19.0906182,26.1657143 C18.8764238,26.1657143 18.7026049,25.9955114 18.7019636,25.7851429 L18.7019636,21.1005714 C18.7019636,20.3268571 18.7019636,18.9062857 17.28,18.9062857 C15.5938909,18.9062857 15.5938909,20.912 15.5938909,21.9851429 L15.5938909,26.1657143 L13.2282182,26.1657143 L13.2282182,15.2422857 L12.3310545,15.2422857 L12.3310545,13.5348571 L15.2052364,13.5348571 C15.4193455,13.5348571 15.5938909,13.7051429 15.5938909,13.9154286 L15.5938909,18.2514286 C15.9394909,17.7542857 16.6097455,17.1588571 18.0817455,17.1588571 C21.0676364,17.1588571 21.0676364,19.6114286 21.0676364,20.8137143 L21.0676364,24.4571429 L21.8903273,24.4571429 L21.8903273,26.1657143 Z M27.0545455,18.6285714 C25.8257455,18.6285714 25.2567273,19.3234286 25.2660364,20.9325714 L28.8407273,20.9325714 C28.8512,19.3234286 28.2821818,18.6285714 27.0533818,18.6285714 M22.8096,21.6274286 C22.8096,18.6788571 24.2210909,17.0194286 27.1243636,17.0194286 C29.7146182,17.0194286 31.2669091,18.3302857 31.2669091,21.6365714 C31.2669091,21.7874286 31.2669091,21.9417143 31.2645818,22.08 C31.258874,22.3471972 31.0363325,22.5606818 30.7642182,22.56 L25.2858182,22.56 C25.2753455,23.8914286 26.3214545,24.4777143 27.9458909,24.4777143 C28.9419636,24.4777143 29.4074182,24.2502857 29.9962182,24.0617143 L29.9962182,25.7897143 C29.5086545,25.9885714 29.0536727,26.224 27.6107636,26.224 C24.7575273,26.224 22.8084364,25.0834286 22.8084364,21.6274286" id="Shape" fill="#FFFFFF" fill-rule="nonzero"></path>
                </g>
            </g>
        </g>
    </g>
</svg>