<?xml version="1.0" encoding="UTF-8"?>
<svg width="303px" height="301px" viewBox="0 0 303 301" version="1.1" xmlns="http://www.w3.org/2000/svg" xmlns:xlink="http://www.w3.org/1999/xlink">
    <!-- Generator: sketchtool 62 (101010) - https://sketch.com -->
    <title>1EA88174-FE2A-4F1C-ADBC-364CE2274054</title>
    <desc>Created with sketchtool.</desc>
    <defs>
        <polygon id="path-1" points="0.0888267205 0.314960526 201.875683 0.314960526 201.875683 66.6349826 0.0888267205 66.6349826"></polygon>
        <path d="M8.56525791,0.314960526 L295.73795,0.314960526 L295.73795,0.314960526 L295.73795,264.830173 L0.565257911,264.830173 L0.565257911,8.31496053 C0.565257911,3.89668253 4.14697991,0.314960526 8.56525791,0.314960526 Z" id="path-3"></path>
        <polygon id="path-5" points="0.496557164 0.314960526 57.7587166 0.314960526 57.7587166 258.491692 0.496557164 258.491692"></polygon>
        <polygon id="path-7" points="0.496557164 0.222067105 63.2625721 0.222067105 63.2625721 29.1029507 0.496557164 29.1029507"></polygon>
        <polygon id="path-9" points="0.299375431 0.0904016447 41.4004637 0.0904016447 41.4004637 3.18847697 0.299375431 3.18847697"></polygon>
        <polygon id="path-11" points="0.496557164 0.318449013 67.8344676 0.318449013 67.8344676 215.487819 0.496557164 215.487819"></polygon>
        <polygon id="path-13" points="0.350528332 0.0272316048 32.8942452 0.0272316048 32.8942452 29.3998921 0.350528332 29.3998921"></polygon>
        <polygon id="path-15" points="0.496557164 0.0886075658 36.940961 0.0886075658 36.940961 128.167904 0.496557164 128.167904"></polygon>
    </defs>
    <g id="Page-1" stroke="none" stroke-width="1" fill="none" fill-rule="evenodd">
        <g id="1" transform="translate(-134.000000, -1353.000000)">
            <g id="Group-29-Copy" transform="translate(286.500000, 1503.000000) scale(-1, 1) rotate(90.000000) translate(-286.500000, -1503.000000) translate(136.000000, 1351.000000)">
                <path d="M8.5,302.5 L300.5,302.5 L300.5,302.5 L300.5,1.5 L0.5,1.5 L0.5,294.5 C0.5,298.918278 4.081722,302.5 8.5,302.5 Z" id="Fill-1" fill="#C4E4EB"></path>
                <g id="Group-28" transform="translate(0.000000, 0.000000)">
                    <g id="Group-4" transform="translate(98.817927, 0.000000)">
                        <mask id="mask-2" fill="white">
                            <use xlink:href="#path-1"></use>
                        </mask>
                        <g id="Clip-3"></g>
                        <path d="M18.9599812,-54.8600438 C25.6471493,-47.5382082 31.6078175,-39.8465931 36.5565399,-31.201126 C42.4845008,-20.9559385 46.8425084,-9.91039243 52.2808501,0.703577961 C58.0145491,11.8717194 66.0090203,21.1321569 75.3791828,29.1317556 C87.9606133,39.8992194 101.719509,49.2822523 115.514085,58.3582984 C120.690767,61.8049234 126.162808,64.4192951 132.318729,65.7120286 C135.005688,66.296101 137.693638,66.6349826 140.314191,66.6349826 C145.948777,66.6349826 151.324677,65.1269595 156.303134,61.5886372 C161.28159,58.0812128 165.247109,53.5900352 168.752743,48.6054859 C177.073297,36.6379826 182.351075,23.1933543 187.886548,9.84142007 C192.603345,-1.51210954 197.320143,-12.8945438 203.479038,-23.5404089 C207.086758,-29.693103 208.361354,-36.2155766 207.05306,-43.2922214 C205.086654,-54.0915799 204.463232,-65.0743332 204.529638,-75.9962872 C204.59307,-79.226626 205.314614,-82.4878628 205.120352,-85.8108957 L164.592962,-85.8108957 C162.070531,-84.3028727 161.019931,-81.6257082 159.51341,-79.4110174 C155.581589,-73.5344122 151.61607,-67.5661095 149.127337,-60.8901424 C142.085344,-41.754297 140.675954,-21.9097905 142.477832,-1.66560296 C143.068547,5.13395625 143.984353,11.9634168 142.803915,18.824772 C141.427232,27.2230549 134.942255,32.6072852 126.880387,32.6072852 C126.095411,32.6072852 125.310434,32.5454891 124.488785,32.4537918 C113.613093,31.0384628 103.815753,26.823374 94.4455903,21.5009398 C88.5503368,18.0862095 83.3072482,13.8711207 78.6538832,8.88657138 C70.8566472,0.364696382 65.549135,-9.66420493 62.141623,-20.6798497 C55.9847106,-40.5233595 50.5126705,-60.5512609 46.3499158,-80.9798398 C45.9574275,-82.8875438 45.7621745,-84.8570438 43.6659302,-85.8108957 L0.0888267205,-85.8108957 C1.46848255,-79.5655076 3.66185781,-73.6271063 7.52628173,-68.3973661 C11.0666055,-63.6590043 14.9647279,-59.228626 18.9599812,-54.8600438 L18.9599812,-54.8600438 Z M43.3368743,-84.5490602 C44.3874743,-83.9649878 44.6154347,-82.9493398 44.9444905,-81.2569253 L45.0406304,-80.7336523 C48.842613,-62.1210799 54.0192957,-42.3692674 60.8333287,-20.3409681 C64.5034907,-8.55685954 70.1688016,1.56473586 77.6419373,9.71782796 C82.3924333,14.7940747 87.7960853,19.1317589 93.7577447,22.5783839 C104.865362,28.9154694 114.595305,32.4537918 124.327231,33.7146306 C125.179605,33.8073247 126.029005,33.8691207 126.880387,33.8691207 C135.728223,33.8691207 142.672094,27.8998214 144.115183,19.0400615 C145.1638,13.0408609 144.637509,7.04066349 144.081484,1.2567523 L143.818834,-1.75829704 C141.85441,-23.8483924 143.984353,-43.0769319 150.405898,-60.4595635 C152.831198,-66.9511391 156.72932,-72.8576457 160.627443,-78.734251 C161.019931,-79.288422 161.382685,-79.9033924 161.741475,-80.4874648 C162.69098,-82.0881819 163.577052,-83.5643102 165.019149,-84.5490602 L203.808093,-84.5490602 C203.808093,-83.0719352 203.643566,-81.5958069 203.479038,-80.180478 C203.349199,-78.765149 203.21837,-77.4116161 203.153946,-75.9962872 C203.08754,-63.7208003 203.938923,-52.9523398 205.707102,-43.0769319 C206.954938,-36.3700668 205.840905,-30.1864747 202.302564,-24.1553793 C196.273507,-13.7875964 191.621134,-2.58855691 187.101571,8.24169967 L186.641686,9.37994309 L185.396824,12.4248937 C180.414403,24.4850911 175.237721,36.9768641 167.638711,47.8978214 C163.70689,53.4674398 159.8722,57.4971405 155.518157,60.5729891 C150.928224,63.8043247 145.983467,65.373147 140.314191,65.373147 C137.891864,65.373147 135.301045,65.0651635 132.614086,64.4800944 C127.143037,63.3119497 121.771101,60.9736668 116.265363,57.312749 C102.963379,48.5745878 88.9101178,39.0071635 76.2622815,28.2088016 C66.2042733,19.5942326 58.7995257,10.4244957 53.4920135,0.149406908 C51.3323367,-4.03478388 49.3322322,-8.37246809 47.3995247,-12.5566589 C44.4172083,-18.9565372 41.3714595,-25.5707082 37.7340048,-31.7861951 C33.1817352,-39.784797 27.3469407,-47.5990076 19.9768827,-55.6903036 C16.4375501,-59.5675076 12.3104762,-64.1822773 8.64031417,-69.1050306 C5.52716836,-73.3201194 3.26936951,-78.3654681 1.75987538,-84.5490602 L43.3368743,-84.5490602 Z" id="Fill-2" fill="#FEFEFE" mask="url(#mask-2)"></path>
                    </g>
                    <g id="Group-7" transform="translate(4.955660, 0.000000)">
                        <mask id="mask-4" fill="white">
                            <use xlink:href="#path-3"></use>
                        </mask>
                        <g id="Clip-6"></g>
                        <path d="M314.052584,102.108209 C319.689152,102.108209 325.258323,102.784976 330.759106,104.169407 C350.158534,109.152959 362.672567,122.382298 372.239965,139.120058 C381.610127,155.578739 384.655876,173.639134 386.12969,192.128114 C386.91764,202.005515 388.884046,211.542041 393.664276,220.402798 C398.119414,228.525989 404.641063,233.817525 413.387804,236.246509 C415.029118,236.709979 416.534648,236.892377 417.974763,236.892377 C423.576641,236.892377 427.871216,233.600242 430.36094,227.663834 C433.832876,219.357249 434.816079,210.434696 436.453429,201.72843 C439.731103,183.607236 446.674974,167.177459 458.077948,152.748081 C467.348007,141.088561 478.882802,131.67463 490.053851,121.920821 C498.57164,114.383696 506.368876,106.261502 513.773624,97.6160349 C520.983118,89.2167553 527.991413,80.7566763 535.462567,72.6035842 C545.718801,61.4344461 557.346763,51.6826303 569.109518,42.1760053 L569.109518,-1.51181053 C568.028193,-3.32781711 567.636696,-5.48071184 566.261004,-7.26482368 C562.392616,-12.4337645 558.494493,-17.5100112 554.759908,-22.740748 C544.800022,-36.5850572 531.661575,-45.9072908 515.540812,-51.2915211 C507.647436,-53.9068895 499.619267,-55.9680868 491.758598,-58.5216592 C480.388331,-62.244373 472.62182,-69.1974257 470.462144,-81.4111164 C470.133088,-83.0417349 469.83773,-84.7032513 468.428341,-85.8105967 L441.40116,-85.8105967 L363.426819,-85.8105967 L335.18451,-85.8105967 C336.788162,-82.3649684 338.294683,-78.8565474 340.065836,-75.4727151 C346.749039,-62.6440539 357.035999,-54.3374684 371.189365,-50.73735 C382.133445,-47.9066921 393.339184,-49.0140375 404.410129,-48.4608632 C412.931883,-47.9066921 421.382275,-47.6605046 429.639396,-45.7537974 C441.170227,-43.1075309 449.133973,-36.5541592 452.636633,-25.1099289 C454.998501,-17.4173171 455.357291,-9.51140921 454.733869,-1.66630066 C454.243258,4.825275 452.931991,11.1633572 449.65729,16.9163704 C440.713315,32.3304987 426.428128,37.745627 409.653218,37.745627 L409.52338,37.745627 C399.693332,37.6539296 390.128907,35.0375645 381.345495,30.2384033 C372.206266,25.2239526 363.228592,19.9324164 353.989259,15.0405612 C347.993901,11.8710217 342.032242,10.3330974 336.067609,10.3330974 C329.059314,10.3330974 322.111478,12.4869888 315.230049,16.7020776 C307.007617,21.6856303 300.717893,28.5160875 295.27856,36.330298 C287.908502,46.8525711 282.533593,58.5130875 276.833592,69.9882158 C275.129836,73.3421467 273.29426,76.6950809 271.036461,79.8028243 C266.546633,85.8937224 260.978453,90.3858967 253.24564,91.8012257 C250.034372,92.3553967 246.921227,92.6324822 243.840788,92.6324822 C234.504324,92.6324822 225.624772,90.1088112 217.13969,85.340548 C208.229413,80.2633046 200.62743,73.3421467 192.927325,66.6342849 C183.396599,58.2659033 173.629984,50.2364033 163.867333,42.1760053 C154.301918,34.2691007 145.194405,25.9625151 137.72226,15.9017191 C130.710992,6.39509408 125.732536,-4.34246842 119.509218,-14.3404717 C111.252096,-27.4781132 99.9165189,-36.4315638 85.1377487,-40.9845375 C82.2228293,-41.8765934 79.3069188,-42.3081691 76.4256979,-42.3081691 C67.6452589,-42.3081691 59.322723,-38.2465737 53.5563166,-31.0473336 C49.198309,-25.6631033 45.3656013,-19.9409882 41.6627319,-14.2487743 C34.4235033,-3.26602105 26.8879262,7.37884737 18.0747799,17.1625579 C14.4373252,21.1932553 10.9316911,25.31565 7.98307321,29.9304197 C1.59423592,39.8995184 -0.633828955,50.7287783 1.16804914,62.5118901 C3.10174779,75.3724461 8.18030849,86.6322849 17.2551137,96.0163145 C24.4963245,103.460745 33.7346665,107.95292 43.4319026,111.52214 C53.8189666,115.337548 64.6302352,117.614035 75.1471375,121.090561 C86.8761944,124.93587 95.7537643,132.443094 102.832429,142.380298 C108.203374,149.887522 111.873536,158.440295 116.133422,166.624285 C119.640047,173.33115 123.896959,179.54564 129.302594,185.022564 C137.789657,193.697933 148.012193,200.221403 157.120697,208.127311 C164.786113,214.803278 171.861804,221.972617 178.511309,229.602436 C186.211414,238.338604 192.830194,247.968821 199.842454,257.322949 C203.609747,262.338397 207.900357,264.830173 212.881787,264.830173 C214.519137,264.830173 216.224876,264.580995 218.05847,264.029814 C229.458471,260.460594 239.15868,254.338798 246.49504,244.708581 C253.375479,235.663433 258.126966,225.448147 263.205526,215.419245 C273.229836,195.483041 278.40751,174.438495 278.175585,152.009518 C278.111162,142.995268 278.537348,133.857426 279.980437,124.844173 C281.879446,112.937469 287.710276,106.13791 299.438341,103.615236 C304.288942,102.600584 309.204957,102.108209 314.052584,102.108209 L314.052584,102.108209 Z M439.532876,-84.5487612 C439.496204,-84.4590572 439.453586,-84.3753336 439.416914,-84.2856296 C438.972887,-83.7982382 438.595265,-83.2400803 438.288014,-82.5802579 C435.930111,-77.6575046 432.09443,-74.2427743 426.951446,-72.3659684 C418.956975,-69.5971066 410.89808,-68.1199816 402.772779,-68.1199816 C397.005382,-68.1199816 391.175543,-68.8894421 385.344713,-70.4582645 C377.644608,-72.5204586 370.928697,-76.3348697 366.507257,-83.2879224 C366.28227,-83.6287974 366.022593,-83.9138566 365.742103,-84.1710079 C365.670742,-84.2975901 365.593433,-84.4201855 365.524054,-84.5487612 L439.532876,-84.5487612 Z M278.63547,124.658785 C277.35691,132.689282 276.77016,141.642732 276.833592,152.040416 C277.030828,174.037818 272.180227,194.589989 261.960665,214.865074 L260.093372,218.618686 C255.80177,227.232259 251.342667,236.154811 245.381007,243.971015 C238.566975,252.95337 229.458471,259.106064 217.599576,262.798877 C215.962226,263.352051 214.3556,263.598239 212.881787,263.598239 C208.359251,263.598239 204.46212,261.291851 200.955495,256.581397 C199.187315,254.213213 197.416162,251.847022 195.647983,249.446943 C190.568431,242.494887 185.294617,235.355449 179.528211,228.801081 C172.452519,220.679884 165.407552,213.603239 158.036503,207.204357 C154.433738,204.066713 150.599048,201.143361 146.898161,198.281805 C141.261593,193.882324 135.398056,189.39015 130.284805,184.16041 C125.272651,179.084163 121.049437,173.145762 117.345576,166.070114 C116.264251,163.978018 115.214642,161.855025 114.168007,159.732032 C111.121267,153.640137 108.008121,147.363851 103.946462,141.672634 C96.149226,130.719782 86.8761944,123.613236 75.6060317,119.890522 C70.9873563,118.382499 66.2358691,117.059864 61.6489099,115.799025 C55.7833904,114.168407 49.723609,112.475992 43.9244952,110.352999 C35.9954387,107.430643 25.9374305,103.091963 18.2383167,95.1551566 C9.62240564,86.263502 4.47843023,75.5259395 2.51103308,62.3274987 C0.710146124,50.6978803 2.90451251,40.3300974 9.12981301,30.5762882 C12.1438456,25.8698211 15.6821871,21.7474263 19.0896991,17.9629164 C28.6233984,7.40974539 36.4206344,-3.91188947 42.8104628,-13.6029059 C46.1525601,-18.7409487 50.1160973,-24.7092513 54.6366506,-30.277873 C60.1086907,-37.1392283 68.0714457,-41.0772316 76.4256979,-41.0772316 C79.2097879,-41.0772316 81.994869,-40.6466526 84.7115619,-39.784498 C99.0978439,-35.3541197 110.105357,-26.8322447 118.361487,-13.6946033 C120.686682,-9.94099145 122.881049,-6.03488289 125.010992,-2.219475 C128.550324,4.08770921 132.220486,10.6410809 136.641926,16.6093836 C144.60369,27.3469461 154.40004,36.0223145 162.951527,43.1298572 L165.669211,45.344548 C174.385227,52.5437882 183.396599,59.9583178 192.011519,67.5572388 L194.011624,69.3114493 C200.955495,75.4033441 208.162016,81.7105283 216.486534,86.4169954 C225.264991,91.3706467 234.471617,93.8933211 243.840788,93.8933211 C247.018358,93.8933211 250.228634,93.6162355 253.506308,93.0321632 C260.813925,91.7085316 266.940112,87.6170349 272.150493,80.5094921 C274.115908,77.7715283 275.917786,74.6956796 278.015022,70.5114888 L280.503754,65.4960414 C285.25425,55.8977191 290.135576,45.9296171 296.426291,37.0070645 C302.489046,28.2689033 308.678666,22.1471072 315.951593,17.747627 C322.667504,13.6870283 329.451803,11.5939362 336.067609,11.5939362 C341.801308,11.5939362 347.601413,13.1328572 353.335112,16.1479066 C358.773454,19.0094625 364.245494,22.1162092 369.485609,25.0704592 C373.223168,27.1615579 376.957753,29.285548 380.690357,31.3158474 C389.799852,36.330298 399.498079,38.9147684 409.653218,39.0064658 C428.985249,39.0064658 442.418062,31.9926138 450.835746,17.5014395 C453.818063,12.3016007 455.455413,6.24060395 456.112534,-1.57360658 C456.766681,-10.5878566 456.078835,-18.3711691 453.947901,-25.4478138 C450.408568,-36.8930408 442.350665,-44.1221822 429.967461,-46.9837382 C422.825363,-48.6143566 415.518738,-49.0449355 408.409347,-49.4755145 L404.477526,-49.7226987 C401.199853,-49.8761921 397.794323,-49.9060934 394.550348,-49.9060934 C386.948365,-49.9678895 379.087696,-49.9987875 371.518421,-51.9672908 C357.988477,-55.4139158 347.796666,-63.5052118 341.244292,-76.0268862 C340.03412,-78.3651691 338.919096,-80.8270441 337.838762,-83.196225 C337.641527,-83.6567053 337.447265,-84.0882809 337.248047,-84.5487612 L363.001623,-84.5487612 C363.132452,-84.4570638 363.295989,-84.3643697 363.457544,-84.2417743 C363.928331,-83.9457513 364.345598,-83.6676691 364.709343,-83.3507151 C369.411274,-75.1836691 377.160936,-70.9725671 386.065266,-68.6432546 C391.305381,-67.2588237 396.483055,-66.6737546 401.726144,-66.6737546 C407.426144,-66.6737546 413.126145,-67.3515178 418.826145,-68.3970671 C428.62745,-70.2260309 436.558489,-74.288623 440.552751,-83.5869355 C440.896674,-83.9397711 441.291145,-84.2597151 441.75995,-84.5487612 L467.871324,-84.5487612 C468.659274,-83.7185013 468.888226,-82.4885605 469.11916,-81.195827 C471.24712,-69.3200211 478.519056,-61.5367086 491.33142,-57.3216197 C495.099704,-56.0906822 498.901687,-54.9823401 502.76512,-53.8749947 C506.828761,-52.675952 511.022241,-51.4450145 515.084891,-50.0914816 C531.366218,-44.6763533 543.980356,-35.4777118 553.645875,-22.0330836 C556.300127,-18.2794717 559.085208,-14.6185539 561.868307,-10.9576362 L565.176706,-6.52725789 C565.864551,-5.66510329 566.261004,-4.65045197 566.687191,-3.57300789 C567.012282,-2.77364605 567.30764,-1.9732875 567.766534,-1.20482368 L567.766534,41.5909362 C557.186199,50.1447059 545.060689,60.2354033 534.412958,71.7723276 C528.843787,77.8642224 523.471851,84.2023046 518.228762,90.3549987 C516.392195,92.5088901 514.5586,94.6627816 512.725997,96.8156763 C504.993185,105.861821 497.260372,113.767729 489.13408,120.998864 L484.548112,124.966768 C474.983688,133.274351 465.087234,141.826127 456.995632,151.979617 C445.889997,166.008318 438.548682,182.684282 435.145135,201.512143 C434.816079,203.296255 434.487023,205.081364 434.191666,206.866472 C433.047899,213.665035 431.803037,220.710782 429.116078,227.202357 C427.475755,231.047666 424.264487,235.663433 417.974763,235.663433 C416.665477,235.663433 415.22338,235.445153 413.780292,235.045472 C405.393332,232.708186 399.170014,227.724634 394.879403,219.849624 C390.715658,212.18791 388.391453,203.359048 387.50439,192.036416 C386.12969,175.423245 383.442731,156.102012 373.41743,138.504091 C362.081852,118.752278 348.648048,107.461541 331.122851,102.938469 C325.583414,101.554038 319.819981,100.846374 314.052584,100.846374 C309.138551,100.846374 304.125405,101.369647 299.176682,102.384298 C287.186958,104.968768 280.633593,112.045413 278.63547,124.658785 L278.63547,124.658785 Z" id="Fill-5" fill="#FEFEFE" mask="url(#mask-4)"></path>
                    </g>
                    <g id="Group-10">
                        <mask id="mask-6" fill="white">
                            <use xlink:href="#path-5"></use>
                        </mask>
                        <g id="Clip-9"></g>
                        <path d="M-212.075006,228.709982 C-201.886168,234.987264 -192.4496,242.370896 -181.966396,248.21461 C-170.827062,254.398202 -159.098006,258.491692 -146.418453,258.491692 C-144.124974,258.491692 -141.798787,258.369097 -139.439892,258.092011 C-130.102437,256.982672 -121.944429,253.353649 -115.818242,246.308899 C-104.744323,233.694531 -99.8957052,218.3721 -98.8143801,201.819728 C-98.0938271,191.144959 -100.158355,180.837975 -102.844323,170.561889 C-105.891063,158.871472 -107.823771,146.995666 -107.365868,134.811876 C-107.037803,126.751478 -106.219128,118.720982 -104.908851,110.753278 C-102.025648,93.4005474 -95.6368107,77.6485342 -84.2021201,64.1431066 C-77.7805754,56.5122908 -71.2282013,48.9133697 -64.7085346,41.3762447 C-56.4524045,31.7460276 -48.0327377,22.4546921 -37.8102015,15.0092645 C-27.6213639,7.59473487 -18.6446808,-0.803548026 -11.3390464,-11.1723276 C-5.5716489,-19.3872158 0.619953106,-27.171525 7.50039189,-34.5850579 C17.8527663,-45.7840974 30.1715467,-54.4913605 42.2613756,-63.5664099 C49.8296601,-69.2586237 55.3344076,-76.4887618 57.7587166,-85.8109954 L19.0649208,-85.8109954 L-16.5474454,-85.8109954 L-46.6233479,-85.8109954 L-75.4870958,-85.8109954 C-76.7646651,-84.8571434 -77.4207945,-83.5335118 -77.8796886,-81.9955875 C-80.2058756,-73.8424954 -84.7591363,-67.0738342 -91.0498515,-61.3517191 C-96.7835505,-56.1209822 -103.565867,-52.5836566 -110.150949,-48.6147553 C-116.572493,-44.7375513 -122.862217,-40.7078507 -127.973485,-35.2618243 C-135.705307,-27.0778342 -139.965192,-17.0180349 -142.749282,-6.24957434 C-145.730607,5.34914605 -146.910055,17.3475474 -149.334364,29.0379651 C-151.725965,40.5150868 -155.952152,51.1290572 -163.423306,60.3894947 C-170.368168,69.0349618 -178.297225,76.6338829 -186.520648,84.0484125 C-196.316006,92.847373 -207.455339,99.7386296 -219.315225,105.369047 C-233.23964,112.014116 -247.098639,118.782778 -260.497754,126.474393 C-262.136095,127.428245 -263.545485,128.53559 -264.593111,130.166209 L-264.593111,175.638136 L-264.593111,210.681482 C-263.479079,210.926672 -262.33333,211.141962 -261.252005,211.358248 C-243.985494,214.557689 -227.244282,219.387748 -212.075006,228.709982 L-212.075006,228.709982 Z M-19.1352912,-84.5491599 C-19.3037836,-84.3518112 -19.4861519,-84.166423 -19.6596001,-83.9750546 C-20.4138516,-83.4298539 -21.1443159,-82.8487717 -21.8876649,-82.272673 C-24.6063402,-79.9642914 -27.6867786,-78.3037717 -31.2578275,-77.3499197 C-32.4045673,-77.0110382 -33.5185997,-76.8575447 -34.5989337,-76.8575447 C-38.3672178,-76.8575447 -41.6439004,-78.8270447 -43.5111932,-82.5796599 C-43.7232954,-82.9942914 -43.9542292,-83.3670612 -44.2069679,-83.7109263 C-44.2466132,-83.8056138 -44.2912141,-83.901298 -44.3298683,-83.9949888 C-44.395283,-84.180377 -44.4943962,-84.3637717 -44.5588198,-84.5491599 L-19.1352912,-84.5491599 Z M-263.250127,130.534991 C-262.46416,129.396748 -261.382835,128.474791 -259.809908,127.55084 C-246.017314,119.643936 -231.339639,112.537389 -218.725502,106.507291 C-205.653461,100.292801 -194.841201,93.2470539 -185.602859,84.9713664 C-178.198112,78.2953993 -169.680323,70.2658993 -162.34099,61.1589553 C-155.36342,52.4825901 -150.678339,42.0829125 -148.024087,29.2851493 C-147.008177,24.4550901 -146.222209,19.5323368 -145.436241,14.763077 C-144.322209,7.90271842 -143.174478,0.827070395 -141.438014,-5.94159079 C-138.261436,-18.3097717 -133.640779,-27.3549197 -126.957575,-34.4305678 C-121.912713,-39.8157947 -115.522884,-43.8763934 -109.429404,-47.5682092 C-108.184543,-48.3067717 -106.906973,-49.0453342 -105.662112,-49.7838967 C-100.354599,-52.8906434 -94.850843,-56.1209822 -90.1320632,-60.4596632 C-83.3170391,-66.6432553 -78.8946079,-73.5654099 -76.6011283,-81.6577026 C-76.1759326,-83.0112355 -75.6843311,-83.9032914 -74.9964855,-84.5491599 L-47.0168273,-84.5491599 C-46.369618,-84.1564559 -45.8413447,-83.6999625 -45.3992998,-83.1348276 C-43.1811462,-78.0127322 -39.4544896,-75.2877257 -34.6980469,-75.2877257 C-33.0924129,-75.2877257 -31.3886569,-75.5967059 -29.5867788,-76.2106796 C-25.3843789,-77.6818243 -21.6408731,-79.8596368 -18.668468,-83.1109066 C-17.8934027,-83.6610908 -17.1034705,-84.1574526 -16.2530792,-84.5491599 L18.3116604,-84.5491599 C18.3552703,-84.4375283 18.3750929,-84.3268934 18.3820308,-84.2152618 C18.3572525,-84.1734 18.3374299,-84.128548 18.3116604,-84.0876829 C11.8583996,-73.0112388 2.97884742,-64.0278868 -6.42402247,-55.4442158 C-17.4642425,-45.4452158 -29.8821362,-38.0924822 -43.5439005,-32.5537618 C-58.5159415,-26.4628638 -69.1309659,-15.9714888 -75.1927296,-0.927140132 C-79.0264284,8.54858684 -82.7937214,18.0861099 -86.9217864,27.4701395 C-91.7376971,38.2993993 -98.716258,47.8060243 -105.235925,57.6206329 C-110.51073,65.5275375 -114.408852,74.1102118 -116.309843,83.4334421 C-119.78277,100.599788 -120.994925,118.106011 -122.07625,135.550439 C-123.026745,151.148959 -121.388404,166.56209 -117.456583,181.760929 C-114.245315,194.375297 -113.55747,206.92787 -118.111721,219.572139 C-123.190282,233.540041 -133.707184,241.385149 -146.58199,241.385149 C-150.284859,241.385149 -154.182982,240.707386 -158.212925,239.415649 C-169.843859,235.477646 -179.214022,228.032218 -188.322526,220.279804 C-199.231916,211.112061 -210.601192,202.681883 -223.377876,196.221205 C-236.069322,189.834284 -249.124513,184.080274 -261.633591,177.272741 C-262.295667,176.716577 -262.817994,176.083666 -263.250127,175.331149 L-263.250127,130.534991 Z M-263.250127,209.665834 L-263.250127,177.85482 C-262.953779,178.018281 -262.653466,178.176758 -262.355135,178.339222 C-261.936877,178.667139 -261.484921,178.967149 -260.990346,179.238255 C-255.092119,182.561287 -249.064054,185.698932 -242.90516,188.3751 C-221.838648,197.636534 -202.4749,209.388748 -185.243078,224.771978 C-176.82242,232.280199 -167.354136,238.52459 -156.280217,241.631337 C-152.839998,242.554291 -149.4979,243.048659 -146.288615,243.048659 C-138.359558,243.048659 -131.152046,240.093413 -125.024868,233.663633 C-116.768737,225.11086 -113.983656,214.188906 -113.328518,202.743679 C-112.902331,194.867672 -114.474267,187.176057 -116.407965,179.607037 C-120.339786,164.409195 -121.486526,148.90337 -120.503323,133.303853 C-119.716364,121.244653 -118.472493,109.308047 -117.095811,97.2159553 C-115.359348,82.3251 -111.133161,68.4498928 -102.385429,56.0209125 C-96.1284122,47.1601559 -90.1647706,38.1150079 -85.5788025,28.1768072 C-81.7123963,19.9320178 -78.5021196,11.4091461 -75.225437,2.88826776 C-69.3936159,-12.4331664 -59.7290871,-24.217275 -44.2317462,-30.5543605 C-40.4307547,-32.1241796 -36.7615838,-33.8773934 -33.0269982,-35.6007059 C-16.9736322,-43.230525 -3.83518552,-54.6448539 8.09011547,-67.6888046 C11.9228232,-71.781298 15.4294484,-76.2106796 18.2799442,-81.0726336 C18.7834393,-81.9407684 19.6070701,-82.8607322 19.7210502,-83.9112651 C19.8261102,-84.1235645 19.9232412,-84.3398507 20.0154165,-84.5491599 L56.0222532,-84.5491599 C53.5969531,-76.6731533 48.8137497,-70.1197816 41.4090021,-64.5511599 L37.0519855,-61.289923 C26.5687817,-53.4448145 15.6911073,-45.3535184 6.48448153,-35.4163145 C-0.198721979,-28.2160776 -6.39131511,-20.5254592 -12.4520877,-11.8799921 C-19.1025838,-2.43516316 -27.6540713,6.0259125 -38.6298678,14.0245145 C-49.3103069,21.7779257 -57.8935106,31.4071461 -65.7571524,40.5758862 C-72.2768191,48.1140079 -78.8291931,55.7129289 -85.2507378,63.3736461 C-96.2592416,76.3567974 -103.106973,91.800827 -106.219128,110.568886 C-107.562112,118.53659 -108.380787,126.658784 -108.708851,134.75008 C-109.135038,145.826524 -107.660234,157.301653 -104.1546,170.869873 C-101.631177,180.469192 -99.4050948,190.806077 -100.158355,201.758929 C-101.336811,219.725633 -106.775153,234.063314 -116.865868,245.508541 C-122.403323,251.906426 -130.06973,255.72283 -139.60442,256.831172 C-141.864201,257.105268 -144.158672,257.259758 -146.418453,257.259758 C-157.591485,257.259758 -168.991486,253.938718 -181.27855,247.169061 C-187.273908,243.785228 -193.073022,239.847225 -198.642193,236.032814 C-202.770258,233.203153 -206.996445,230.310699 -211.353461,227.663436 C-224.689143,219.448547 -240.020965,214.033419 -260.990346,210.126314 L-263.218411,209.696732 L-263.250127,209.665834 Z" id="Fill-8" fill="#FEFEFE" mask="url(#mask-6)"></path>
                    </g>
                    <g id="Group-13" transform="translate(0.000000, 273.098684)">
                        <mask id="mask-8" fill="white">
                            <use xlink:href="#path-7"></use>
                        </mask>
                        <g id="Clip-12"></g>
                        <path d="M55.8578244,48.6791428 C54.7774905,38.6791461 52.6465565,28.8934421 47.831637,19.9120836 C40.8530761,6.62094868 28.8940766,0.222067105 16.1828079,0.222067105 C11.3996045,0.222067105 6.54999536,1.11312632 1.79949938,2.86833355 C-11.0108826,7.66649803 -20.5445819,16.4973533 -28.178281,27.6963928 C-33.8138579,35.973077 -38.5306554,44.8946329 -43.5447926,53.5401 C-49.0475578,62.9859257 -54.7485494,72.3380605 -60.2205895,81.8117941 C-65.8878827,91.8107941 -69.9178256,102.364962 -72.4075494,113.562008 L-55.8625818,113.562008 C-54.7485494,106.550149 -52.1934109,100.028672 -48.7204842,94.0573796 C-38.8914275,76.7684388 -29.7829238,59.1695211 -20.4454687,41.6632974 C-16.1865742,33.6646954 -10.6174031,26.5571526 -2.62293189,21.8187908 C2.1929788,18.9891296 7.40236893,17.5110079 12.4145238,17.5110079 C20.0809303,17.5110079 27.3875559,20.9267349 32.5315313,28.2206625 C38.525898,36.7106428 40.0007025,46.4923599 40.5250114,56.4614586 C41.114735,67.7232908 39.2474422,78.9512349 39.3455642,90.1831658 L39.3455642,113.562008 L63.2625721,113.562008 C61.8541734,103.843084 60.1167189,94.149077 59.0363849,84.4261658 C57.7588157,72.5214553 57.1026863,60.5838533 55.8578244,48.6791428 M61.7223528,112.302166 L40.6885482,112.302166 L40.6885482,90.1502743 C40.6568319,85.2265243 40.9839055,80.1831691 41.3446776,75.2903171 C41.7708644,69.137623 42.19606,62.7387414 41.8679953,56.4006592 C41.3446776,46.7415375 40.0007025,36.5242579 33.6455637,27.5428993 C28.5015883,20.2499684 20.9660112,16.2202678 12.4145238,16.2202678 C7.13971894,16.2202678 1.7013773,17.7880934 -3.3434849,20.7443368 C-10.6828178,25.1109257 -16.6791668,31.7858961 -21.6576232,41.079225 C-23.9520939,45.4468105 -26.2782809,49.7844947 -28.5707693,54.1231757 C-35.4194919,67.1053303 -42.5288822,80.4881625 -49.8999313,93.4434059 C-53.4709802,99.5961 -55.8625818,105.934182 -57.0093216,112.302166 L-70.7374919,112.302166 C-68.246777,101.747998 -64.3159472,91.7200934 -59.0411424,82.4287579 C-56.1252318,77.3226099 -53.1102081,72.3071625 -50.129874,67.2608171 C-47.5083297,62.9221362 -44.9204839,58.5545507 -42.3643543,54.1231757 C-41.086785,51.9712776 -39.8419232,49.7565868 -38.5970613,47.5379092 C-34.9596066,41.1400243 -31.225021,34.5278467 -27.0315412,28.3711658 C-18.8408259,16.3109684 -9.24171182,8.34326447 2.29110088,4.037475 C6.87806007,2.34605724 11.5631413,1.48190921 16.1828079,1.48190921 C29.1884428,1.48190921 40.2960599,8.40705395 46.6194824,20.4662546 C50.7475475,28.156873 53.2699786,37.1701263 54.5148405,48.8017382 C55.1372714,54.5866461 55.5961655,60.3695605 56.0550597,66.1544684 C56.5456701,72.1835704 57.0372716,78.4289586 57.693401,84.5497579 C58.413954,91.0732283 59.4625717,97.6873993 60.4447836,104.057376 C60.8709704,106.79534 61.3298645,109.564202 61.7223528,112.302166" id="Fill-11" fill="#FEFEFE" mask="url(#mask-8)"></path>
                    </g>
                    <g id="Group-16" transform="translate(168.492451, 299.013158)">
                        <mask id="mask-10" fill="white">
                            <use xlink:href="#path-9"></use>
                        </mask>
                        <g id="Clip-15"></g>
                        <path d="M35.5841189,4.70317796 C33.8159393,1.56553322 31.5204775,0.0904016447 28.8037845,0.0904016447 C27.3943947,0.0904016447 25.820477,0.518987171 24.1504194,1.25954309 C16.7129644,4.64237862 11.3380552,10.3036944 7.0801519,17.0713589 C3.40998987,22.9469674 0.692305747,29.1933523 0.330542543,36.2072043 C0.136280659,38.7308753 0.887558763,41.0681615 1.54567045,43.5001352 C3.67164873,51.2216516 13.7009141,59.2212503 22.9382649,59.2212503 C25.7243372,59.2212503 28.4410301,58.4836845 30.7999245,56.8201747 C34.4026895,54.3602931 36.6347189,51.1299543 38.2046721,47.3155431 C41.6121841,39.1305562 42.0720694,30.671474 40.6299723,21.9961056 C39.6477604,16.0248128 38.6972647,9.99571086 35.5841189,4.70317796 M36.9598102,46.8520727 C35.2887616,50.8538655 33.0943952,53.6835266 30.0149479,55.7746253 C27.9811449,57.2198556 25.5925166,57.9295135 22.9382649,57.9295135 C14.6821348,57.9295135 4.91750174,50.790076 2.82026629,43.1911549 L2.65871176,42.4854839 C2.06799705,40.3913951 1.51197196,38.3630891 1.64181026,36.269997 C1.97086611,30.3006977 4.06711042,24.3931944 8.26158132,17.749122 C12.911973,10.332599 18.2868821,5.32014178 24.7411341,2.42868454 C26.2466638,1.72002336 27.5896477,1.38213849 28.8037845,1.38213849 C31.0625745,1.38213849 32.8961688,2.67387533 34.4026895,5.32014178 C37.3522985,10.3036944 38.3047764,16.1175069 39.2532898,21.7509148 L39.3177134,22.1785036 C40.8272075,31.2864444 40.0392576,39.344849 36.9598102,46.8520727" id="Fill-14" fill="#FEFEFE" mask="url(#mask-10)"></path>
                    </g>
                    <g id="Group-19" transform="translate(0.000000, 86.713816)">
                        <mask id="mask-12" fill="white">
                            <use xlink:href="#path-11"></use>
                        </mask>
                        <g id="Clip-18"></g>
                        <path d="M47.4380584,61.6659819 C39.1809372,56.896722 30.6304409,52.713528 22.210774,48.3140477 C11.2359686,42.6527319 1.11155461,35.8222747 -7.53805491,26.9007187 C-13.2707628,20.9623174 -18.9063397,14.8405214 -24.8362828,9.0566102 C-29.8157303,4.16475493 -35.614844,0.687231908 -42.954177,0.349347039 C-43.3793726,0.318449013 -43.8065505,0.318449013 -44.1990388,0.318449013 C-56.7140634,0.318449013 -67.2973716,10.4400444 -72.3095264,21.4855905 C-77.3880871,32.5610378 -77.8786975,44.2833503 -75.6179253,56.0664622 C-74.0786972,64.189653 -71.7852176,72.2181562 -69.8198027,80.279551 C-68.1814614,87.1708076 -67.5917378,94.2474523 -68.3449982,101.291206 C-69.3936159,111.014117 -71.4244455,120.520742 -74.2095266,129.842975 C-78.632949,144.889317 -82.7283067,160.054268 -90.0012338,174.055061 C-92.4255428,178.73063 -95.2760386,183.191906 -99.1751522,186.666439 C-105.105095,191.805479 -112.083656,195.220209 -119.716364,197.252502 C-133.346412,200.821722 -147.434363,200.635337 -161.32607,202.113459 C-167.517673,202.790225 -173.742973,203.464998 -179.542087,206.110268 C-184.586949,208.389745 -189.338436,212.758327 -188.486062,219.617689 C-187.895348,224.726827 -186.159875,229.311696 -183.637444,233.709183 C-179.312144,240.971215 -174.168169,247.583393 -168.827949,254.045067 C-157.492372,267.919278 -146.746518,282.042666 -142.38851,299.946577 L-106.808851,299.946577 C-104.482664,289.456199 -100.518136,279.642587 -95.8657622,270.01536 C-89.9031117,257.891373 -83.3497465,246.046465 -76.2740547,234.540439 C-64.8393641,215.833179 -52.815941,197.529587 -35.9102014,183.100209 C-27.1624698,175.652788 -17.7923072,169.131311 -7.7015917,163.59259 C5.76392852,156.14816 20.4088959,152.024768 35.119278,147.964169 C47.2745216,144.702933 55.3671149,136.826926 60.1830256,125.443495 C64.1465628,116.09136 67.2270012,106.492041 67.7513101,96.1541595 C68.2102042,87.6940806 66.8662291,79.848972 61.2960669,73.2029062 C57.3315387,68.5881365 52.6474485,64.7119293 47.4380584,61.6659819 M66.407335,96.0933602 C65.949432,104.923219 63.6559524,113.814873 58.9371726,124.983015 C54.0885546,136.396347 45.9632539,143.720176 34.7267897,146.763133 C21.0313268,150.549637 5.50226965,154.79363 -8.38943736,162.487238 C-18.4147382,168.022969 -27.982136,174.638137 -36.8269985,182.177255 C-54.1926234,197.006314 -66.4122906,215.865074 -77.4207945,233.923475 C-84.5301848,245.432492 -91.1142751,257.369097 -97.0779167,269.49109 C-102.352722,280.411051 -105.825648,289.733285 -107.889185,298.686735 L-141.340884,298.686735 C-145.861437,281.056919 -156.411047,267.150814 -167.780322,253.307502 C-172.793468,247.182715 -178.034575,240.507745 -182.457997,233.126107 C-185.07855,228.538248 -186.617779,224.077969 -187.142087,219.465192 C-188.027168,212.481242 -182.392583,208.820324 -178.952363,207.220604 C-173.414908,204.695936 -167.28773,204.051064 -161.161543,203.373301 C-156.869941,202.912821 -152.447509,202.604837 -148.187624,202.295857 C-138.686632,201.621084 -128.857575,200.944317 -119.356583,198.480449 C-111.199566,196.329548 -104.089185,192.636735 -98.258355,187.589393 C-93.703112,183.528794 -90.6890794,178.239252 -88.7890793,174.606242 C-82.1385831,161.809475 -78.0759328,147.840577 -74.1114045,134.304252 L-72.9319574,130.181857 C-69.9506321,120.274554 -68.0179246,110.860623 -67.0020142,101.414798 C-66.2804701,94.5235411 -66.7730627,87.324301 -68.508535,80.0333635 C-69.0982585,77.5724852 -69.754388,75.1106102 -70.3758278,72.6497319 C-71.7852176,67.1429063 -73.2263236,61.4506924 -74.3076487,55.8511727 C-76.7319577,43.1142089 -75.6843311,32.0377648 -71.0646646,21.9779655 C-66.4777054,11.825472 -56.3869898,1.58028454 -44.1990388,1.58028454 C-43.8065505,1.58028454 -43.4130711,1.58028454 -43.0195917,1.61118257 C-36.762575,1.88727138 -31.2905348,4.53353783 -25.8194858,9.91776809 C-21.7241281,13.9175674 -17.6941852,18.1316595 -13.7950716,22.224153 C-12.0586083,24.0700609 -10.2904287,25.9159687 -8.52026679,27.7618766 C-0.494079334,36.0076628 9.33497735,43.1142089 21.5556357,49.4213931 C23.7509932,50.5596365 25.9453596,51.6669819 28.1407171,52.8052253 C34.3006029,55.9737681 40.6557417,59.2360016 46.7165143,62.7424293 C51.9268955,65.7883766 56.4811474,69.5728865 60.2484403,74.0032648 C64.966229,79.6027845 66.9316439,86.6166365 66.407335,96.0933602" id="Fill-17" fill="#FEFEFE" mask="url(#mask-12)"></path>
                    </g>
                    <g id="Group-22" transform="translate(91.184150, 272.801743)">
                        <mask id="mask-14" fill="white">
                            <use xlink:href="#path-13"></use>
                        </mask>
                        <g id="Clip-21"></g>
                        <path d="M17.6498816,0.0272316048 L16.4724167,0.0272316048 C8.08545715,0.0272316048 2.41519061,5.56296187 1.13663025,11.7784487 C-0.727689161,20.9780869 0.580605163,29.6225573 6.60867038,37.1935704 C8.73960431,39.8996395 11.7219207,41.3139717 14.801368,41.3139717 C16.9620359,41.3139717 19.1266683,40.6083007 21.0920832,39.1899816 C28.3660014,33.9293434 31.9687665,26.5477053 32.7874416,17.8085474 C33.7706446,6.73409674 27.9061162,0.0272316048 17.6498816,0.0272316048 M31.4454488,17.71685 C30.6267737,26.5477053 26.8594807,33.4379652 20.2734081,38.1753303 C18.6023595,39.4082612 16.7340755,40.0222349 14.801368,40.0222349 C12.0807105,40.0222349 9.49385581,38.7304981 7.69296885,36.4211198 C2.22092873,29.5627546 0.516181579,21.5631559 2.4488891,12.0236395 C3.52922305,6.8257941 8.37982337,1.25517897 16.4724167,1.25517897 C16.8312065,1.25517897 17.1939608,1.25517897 17.6498816,1.31896845 C21.9741908,1.31896845 25.5145145,2.61070529 27.9061162,5.01178095 C30.6902061,7.90323818 31.9360591,12.269827 31.4454488,17.71685" id="Fill-20" fill="#FEFEFE" mask="url(#mask-14)"></path>
                    </g>
                    <g id="Group-25" transform="translate(0.000000, 125.585526)">
                        <mask id="mask-16" fill="white">
                            <use xlink:href="#path-15"></use>
                        </mask>
                        <g id="Clip-24"></g>
                        <path d="M29.6804408,40.0537095 C23.6196682,33.7774234 16.3467411,29.2244497 8.74574933,25.2246503 C-1.90297356,19.5633345 -12.6815348,14.1183049 -22.7395429,7.4114398 C-26.0162255,5.1957523 -29.3910302,3.13455493 -33.0602011,1.47303849 C-35.1564454,0.550084539 -37.1218603,0.0886075658 -38.8920222,0.0886075658 C-44.0677138,0.0886075658 -47.5416317,3.87311743 -47.8359979,10.5799826 C-48.0322421,14.5797819 -47.5733479,18.5476865 -46.8527949,22.4557885 C-44.7565506,35.3781405 -44.9527948,48.0842062 -48.19677,60.8201734 C-51.2762173,73.0348609 -55.7967707,84.7870747 -58.7126812,97.0944562 C-60.2856078,103.893019 -61.5641682,110.755371 -61.3342255,117.768226 C-61.1042829,124.598683 -58.0575429,128.167904 -52.5537866,128.167904 C-51.3089247,128.167904 -49.9332334,127.953611 -48.4257215,127.581838 C-41.3817459,125.767825 -35.2555586,121.95142 -29.1283802,118.291499 C-17.3012013,111.183956 -5.63755918,103.801321 5.99337559,96.4485878 C13.7251968,91.6175319 21.3261886,86.6947786 27.6823185,79.9261174 C33.6122617,73.650828 37.2814326,66.5432852 36.8879532,57.4064398 C37.3805458,50.6058839 34.3982294,44.9764628 29.6804408,40.0537095 M26.6664082,79.1277523 C20.5075135,85.650226 13.0373512,90.5410845 5.24011522,95.4020418 C-6.12816955,102.600285 -17.8909249,110.04671 -29.8489332,117.214055 L-31.160201,118.013417 C-36.6966647,121.337446 -42.4293725,124.752177 -48.7855025,126.384788 C-50.1621849,126.689782 -51.4397541,126.876167 -52.5537866,126.876167 C-57.3042825,126.876167 -59.7940063,123.798325 -59.9902504,117.708423 C-60.2201931,110.660683 -58.8772091,103.770423 -57.4024046,97.4014431 C-55.8621854,90.9098674 -53.8640632,84.4491898 -51.8986483,78.2038016 C-50.1621849,72.666078 -48.3603068,66.8821668 -46.8855023,61.0982556 C-43.7406402,48.7310714 -43.2817461,36.0230122 -45.5425183,22.240499 C-46.3611934,17.7792227 -46.6565508,14.0874069 -46.4920229,10.6108806 C-46.230364,4.82696941 -43.4135667,1.35044309 -38.8920222,1.35044309 C-37.2853971,1.35044309 -35.5172175,1.78201875 -33.6489336,2.61227862 C-30.5040715,4.02760757 -27.3582184,5.84261743 -23.5255107,8.42708783 C-14.8441849,14.2100023 -5.47402239,19.1646503 3.5363592,23.9329135 L8.08961991,26.3329924 C14.2495057,29.5932326 22.1785622,34.1771043 28.6982289,40.9148674 C33.7103838,46.1765023 35.971156,51.5298345 35.5449692,57.4672391 C35.9057413,65.4050418 33.0552455,72.2962984 26.6664082,79.1277523" id="Fill-23" fill="#FEFEFE" mask="url(#mask-16)"></path>
                    </g>
                    <path d="M225.634683,146.687682 C220.128945,141.027363 214.10088,135.981018 208.367181,130.597784 C195.819449,118.720982 184.091383,105.984018 172.721116,93.0008664 C164.56509,83.6796296 155.850066,75.1268566 144.973383,69.0957612 C138.682667,65.5275375 131.999464,62.9430671 124.726537,62.5124882 C124.334048,62.4815901 123.907862,62.4815901 123.511409,62.4815901 C119.941351,62.4815901 116.633943,63.4354421 114.339473,66.6657809 C111.817042,70.2041033 113.060912,73.6188336 114.731961,77.0335638 C116.533839,80.7562776 118.402123,84.3862974 121.055384,87.5249388 C132.818139,101.646334 142.121896,117.152159 148.642553,134.412195 C152.967854,145.57934 158.862116,155.886324 167.645529,164.193906 C176.096912,172.223406 185.597904,178.74588 196.017675,183.945718 C201.063528,186.406597 206.370049,188.282406 212.07005,188.590389 C212.365407,188.621288 212.661756,188.653182 212.923415,188.653182 C214.497332,188.653182 216.032596,188.222603 217.572815,187.852824 C229.9917,185.206557 237.954455,171.484843 233.924512,159.793429 C232.11966,154.809876 229.304845,150.472192 225.634683,146.687682 M230.549707,176.961768 C227.500985,181.94532 222.652367,185.453741 217.247724,186.621886 L216.724406,186.744482 C215.413138,187.053462 214.168276,187.360449 212.923415,187.360449 C212.661756,187.360449 212.463529,187.360449 212.168172,187.329551 C207.354244,187.053462 202.405521,185.638133 196.605416,182.838373 C186.187627,177.638534 176.754032,171.054264 168.561335,163.300853 C160.76509,155.917222 154.668636,146.317903 149.888406,133.98062 C143.531285,117.152159 134.19383,101.246653 122.10301,86.756475 C119.516156,83.6796296 117.64688,80.0177151 115.947089,76.5102908 C114.142237,72.818475 113.48809,70.1423072 115.453505,67.3734454 C117.221685,64.8806724 119.777814,63.7424289 123.511409,63.7424289 C123.907862,63.7424289 124.266651,63.7424289 124.625441,63.773327 C130.982562,64.1431066 137.206872,66.1734059 144.319235,70.1722086 C155.785642,76.5720868 164.595815,85.7099289 171.708179,93.8002283 C185.141983,109.184455 196.473596,121.151959 207.417676,131.48984 C209.450488,133.396547 211.480326,135.243452 213.577562,137.088363 C217.247724,140.473192 221.078449,143.91882 224.652471,147.54884 C228.322633,151.302452 231.006619,155.579337 232.645952,160.194107 C234.512253,165.578337 233.726286,171.700133 230.549707,176.961768" id="Fill-26" fill="#FEFEFE"></path>
                </g>
            </g>
        </g>
    </g>
</svg>