<?xml version="1.0" encoding="UTF-8"?>
<svg width="370px" height="433px" viewBox="0 0 370 433" version="1.1" xmlns="http://www.w3.org/2000/svg" xmlns:xlink="http://www.w3.org/1999/xlink">
    <!-- Generator: Sketch 62 (91390) - https://sketch.com -->
    <title>Group 29</title>
    <desc>Created with Sketch.</desc>
    <defs>
        <polygon id="path-1" points="0.127651645 0.384605263 290.112737 0.384605263 290.112737 81.3694507 0.127651645 81.3694507"></polygon>
        <path d="M8.81232428,0.384605263 L425.000895,0.384605263 L425.000895,0.384605263 L425.000895,323.38998 L0.812324283,323.38998 L0.812324283,8.38460526 C0.812324283,3.96632726 4.39404628,0.384605263 8.81232428,0.384605263 Z" id="path-3"></path>
        <polygon id="path-5" points="0.713595395 0.384605263 83.0042484 0.384605263 83.0042484 315.649921 0.713595395 315.649921"></polygon>
        <polygon id="path-7" points="0.713595395 0.271171053 90.9137625 0.271171053 90.9137625 35.5382566 0.713595395 35.5382566"></polygon>
        <polygon id="path-9" points="0.430228268 0.110391447 59.4960306 0.110391447 59.4960306 3.89351974 0.430228268 3.89351974"></polygon>
        <polygon id="path-11" points="0.713595395 0.388865132 97.48397 0.388865132 97.48397 263.136941 0.713595395 263.136941"></polygon>
        <polygon id="path-13" points="0.503739392 0.0332531147 47.2718622 0.0332531147 47.2718622 35.9008584 0.503739392 35.9008584"></polygon>
        <polygon id="path-15" points="0.713595395 0.108200658 53.0873412 0.108200658 53.0873412 156.508661 0.713595395 156.508661"></polygon>
    </defs>
    <g id="Page-1" stroke="none" stroke-width="1" fill="none" fill-rule="evenodd">
        <g id="1" transform="translate(-87.000000, -2954.000000)">
            <g id="Group-29" transform="translate(272.000000, 3171.000000) scale(-1, 1) rotate(90.000000) translate(-272.000000, -3171.000000) translate(55.000000, 2986.000000)">
                <path d="M9.5,368.5 L432.5,368.5 L432.5,368.5 L432.5,0.5 L1.5,0.5 L1.5,360.5 C1.5,364.918278 5.081722,368.5 9.5,368.5 Z" id="Fill-1" fill="#C4E4EB"></path>
                <g id="Group-28">
                    <g id="Group-4" transform="translate(142.009868, 0.000000)">
                        <mask id="mask-2" fill="white">
                            <use xlink:href="#path-1"></use>
                        </mask>
                        <g id="Clip-3"></g>
                        <path d="M27.2471253,-66.9908125 C36.8571615,-58.0499572 45.4231549,-48.6575559 52.5348951,-38.1003849 C61.0538852,-25.5897599 67.3167174,-12.1017993 75.1320826,0.859154605 C83.3719016,14.4968191 94.8606451,25.8049441 108.326375,35.5734309 C126.406974,48.7218191 146.179691,60.179648 166.003685,71.2626086 C173.443023,75.4713586 181.306816,78.6638257 190.153405,80.2424112 C194.014796,80.9556349 197.877612,81.3694507 201.643573,81.3694507 C209.740958,81.3694507 217.466589,79.5279704 224.62106,75.2072467 C231.77553,70.9242533 237.474323,65.439977 242.512221,59.3532336 C254.469573,44.7394507 262.054194,28.3219178 270.009145,12.0175757 C276.787589,-1.84647039 283.566033,-15.7458125 292.416895,-28.7457138 C297.6015,-36.2589046 299.433204,-44.2236414 297.553073,-52.8650888 C294.727178,-66.0524243 293.831267,-79.4637072 293.926698,-92.8007467 C294.017856,-96.7453849 295.054777,-100.727753 294.775606,-104.785582 L236.534257,-104.785582 C232.909306,-102.944102 231.399504,-99.6749572 229.234504,-96.9705493 C223.584138,-89.7944967 217.885346,-82.5064704 214.308823,-74.3542993 C204.188872,-50.9870954 202.163458,-26.7545296 204.752912,-2.03390461 C205.601819,6.2691875 206.917912,14.6087928 205.22152,22.9873454 C203.243109,33.2426743 193.923638,39.817477 182.33804,39.817477 C181.209961,39.817477 180.081882,39.7420164 178.901102,39.6300428 C163.271796,37.9017533 149.192175,32.7546151 135.726444,26.255273 C127.254458,22.0854704 119.719688,16.9383322 113.032402,10.8515888 C101.827102,0.445338816 94.1997503,-11.8011743 89.3028622,-25.2526217 C80.454849,-49.4839704 72.5910562,-73.9404836 66.6088194,-98.886273 C66.0447799,-101.215813 65.7641845,-103.620813 62.751701,-104.785582 L0.127651645,-104.785582 C2.11033586,-97.1592007 5.26240493,-89.9076875 10.8159148,-83.5215362 C15.9036648,-77.7354178 21.5056023,-72.3253849 27.2471253,-66.9908125 L27.2471253,-66.9908125 Z M62.2788194,-103.244727 C63.788622,-102.531503 64.1162207,-101.291273 64.5891023,-99.2246283 L64.7272635,-98.585648 C70.1910398,-75.8574243 77.6303786,-51.7380493 87.4227306,-24.8388059 C92.6970694,-10.4489704 100.838609,1.91073355 111.578148,11.8666546 C118.40502,18.0653717 126.170533,23.3622138 134.737951,27.5709638 C150.700553,35.3093191 164.683319,39.6300428 178.668935,41.1696809 C179.893869,41.2828717 181.11453,41.3583322 182.33804,41.3583322 C195.053142,41.3583322 205.032083,34.0690888 207.105925,23.2502401 C208.612879,15.9244836 207.856553,8.59750987 207.057497,1.53464803 L206.680046,-2.14709539 C203.857,-29.1217993 206.917912,-52.6021941 216.146224,-73.8285099 C219.631589,-81.7555164 225.233527,-88.9680822 230.835464,-96.1441349 C231.399504,-96.8208454 231.920813,-97.5717993 232.436425,-98.285023 C233.800944,-100.239694 235.074306,-102.042227 237.146724,-103.244727 L292.889777,-103.244727 C292.889777,-101.440977 292.653336,-99.6384441 292.416895,-97.9101546 C292.230306,-96.1818651 292.042293,-94.5290362 291.949711,-92.8007467 C291.85428,-77.8108783 293.07779,-64.661273 295.618816,-52.6021941 C297.412063,-44.4122928 295.811102,-36.8613717 290.726201,-29.4966678 C282.061928,-16.8363388 275.376066,-3.16094408 268.881066,10.0641217 L268.220171,11.4540559 L266.431198,15.1723125 C259.27103,29.8992862 251.831691,45.1532664 240.91126,58.4890888 C235.260895,65.290273 229.750115,70.2110296 223.492981,73.9670164 C216.896852,77.9128717 209.79081,79.8285954 201.643573,79.8285954 C198.162481,79.8285954 194.43925,79.4525099 190.577859,78.7380691 C182.71549,77.3116217 174.995556,74.4562928 167.083336,69.9858651 C147.96724,59.3155033 127.771494,47.6325099 109.595464,34.4463914 C95.1412405,23.9269507 84.4999806,12.7295822 76.8726286,0.182444079 C73.7689872,-4.92696382 70.8946648,-10.2238059 68.1171977,-15.3332138 C63.8313523,-23.1482467 59.454349,-31.2249572 54.2270135,-38.8148257 C47.6850102,-48.5820954 39.2999082,-58.1242007 28.7085003,-68.0046612 C23.6221747,-72.7392007 17.6912141,-78.374398 12.4168753,-84.3856809 C7.94301678,-89.5328191 4.69836546,-95.6938059 2.52909243,-103.244727 L62.2788194,-103.244727 Z" id="Fill-2" fill="#FEFEFE" mask="url(#mask-2)"></path>
                    </g>
                    <g id="Group-7" transform="translate(7.121711, 0.000000)">
                        <mask id="mask-4" fill="white">
                            <use xlink:href="#path-3"></use>
                        </mask>
                        <g id="Clip-6"></g>
                        <path d="M451.3206,124.686592 C459.420834,124.686592 467.424212,125.513007 475.329311,127.203566 C503.207959,133.289092 521.191702,149.44373 534.940877,169.882579 C548.406607,189.980638 552.78361,212.034586 554.901607,234.611888 C556.033959,246.673401 558.859854,258.318664 565.729456,269.13873 C572.131873,279.058138 581.504044,285.51975 594.073863,288.485836 C596.432574,289.051789 598.59615,289.27452 600.665719,289.27452 C608.7161,289.27452 614.887775,285.254421 618.465722,278.005342 C623.455192,267.861987 624.86814,256.966461 627.221153,246.335046 C631.931452,224.206855 641.910393,204.144092 658.297449,186.524059 C671.619321,172.286362 688.195814,160.790803 704.249574,148.880211 C716.49037,139.676461 727.695669,129.75827 738.336929,119.201099 C748.697594,108.944553 758.769117,98.6137632 769.505808,88.6578421 C784.2449,75.0189605 800.955281,63.1108026 817.859373,51.5020526 L817.859373,-1.84610526 C816.305416,-4.06367105 815.742801,-6.69261842 813.765814,-8.87123684 C808.206607,-15.1831447 802.604669,-21.3818618 797.237748,-27.7692303 C782.924535,-44.6748224 764.043456,-56.0584079 740.876531,-62.6332105 C729.533071,-65.8268947 717.9959,-68.3438684 706.699442,-71.4620921 C690.35939,-76.0079803 679.198245,-84.4985066 676.094604,-99.4129145 C675.621722,-101.404099 675.197268,-103.433013 673.171854,-104.785217 L634.331469,-104.785217 L522.275627,-104.785217 L481.688998,-104.785217 C483.993584,-100.577684 486.158584,-96.2934737 488.703883,-92.1614013 C498.308222,-76.4960395 513.091469,-66.3526842 533.431074,-61.9565 C549.15866,-58.4999211 565.262271,-59.852125 581.172173,-59.1766316 C593.418666,-58.4999211 605.562607,-58.1992961 617.428801,-55.8709737 C633.999597,-52.6395592 645.444186,-44.6370921 650.477811,-30.6622895 C653.872018,-21.2686711 654.38763,-11.6145921 653.491719,-2.03475658 C652.786669,5.89225 650.902265,13.6318224 646.196238,20.6569539 C633.342975,39.4794868 612.813933,46.0920197 588.706942,46.0920197 L588.520354,46.0920197 C574.393729,45.9800461 560.648827,42.7851447 548.026308,36.9247829 C534.892449,30.8015263 521.990758,24.3399145 508.713041,18.3663618 C500.097196,14.4959671 491.529778,12.6179737 482.958087,12.6179737 C472.886564,12.6179737 462.901926,15.2481382 453.012719,20.3952763 C441.196377,26.4808026 432.157502,34.821625 424.340712,44.3637303 C413.749304,57.2127105 406.025097,71.451625 397.833706,85.4641579 C395.385262,89.5597171 392.74738,93.6540592 389.502729,97.4489934 C383.050459,104.886724 375.048505,110.372217 363.935788,112.100507 C359.320919,112.777217 354.847061,113.115572 350.420206,113.115572 C337.002903,113.115572 324.242222,110.033862 312.048429,104.21123 C299.243594,98.0112961 288.31889,89.5597171 277.253176,81.3685987 C263.556702,71.1497829 249.521235,61.3447829 235.491465,51.5020526 C221.74514,41.8467566 208.65686,31.7034013 197.918745,19.4179408 C187.842949,7.80919079 180.688479,-5.30268421 171.745035,-17.5114671 C159.87884,-33.5541316 143.58864,-44.4873882 122.350275,-50.047125 C118.161285,-51.1364342 113.97087,-51.6634408 109.830308,-51.6634408 C97.2120609,-51.6634408 85.2518602,-46.7037368 76.9650378,-37.9125855 C70.7022056,-31.3377829 65.1942747,-24.3503816 59.8729326,-17.3994934 C49.4695378,-3.98821053 38.6402648,9.01047368 25.9750148,20.9575789 C20.7476793,25.8795526 15.7097813,30.9135 11.4723635,36.5486974 C2.29105428,48.7221842 -0.910866776,61.9460329 1.67858717,76.3346513 C4.45747862,92.0389605 11.7558076,105.788599 24.7970839,117.247645 C35.2033273,126.338204 48.4796201,131.823697 62.4153832,136.182151 C77.3424885,140.84123 92.8792122,143.621099 107.992906,147.866362 C124.848571,152.561954 137.606403,161.729191 147.779054,173.86373 C155.497564,183.030967 160.771903,193.474947 166.893725,203.468599 C171.933048,211.6585 178.050597,219.247151 185.818959,225.935145 C198.0156,236.528829 212.706265,244.494783 225.795969,254.148862 C236.811831,262.301033 246.980209,271.055671 256.53612,280.372612 C267.601834,291.040539 277.11359,302.800211 287.190811,314.222743 C292.604735,320.347217 298.770712,323.38998 305.929456,323.38998 C308.282469,323.38998 310.733762,323.085704 313.368794,322.412645 C329.751577,318.054191 343.691613,310.57873 354.234594,298.819059 C364.122377,287.773829 370.950673,275.299717 378.249002,263.053204 C392.654798,238.708664 400.095561,213.010704 399.762265,185.622184 C399.669683,174.614684 400.28215,163.456263 402.355992,152.44998 C405.085031,137.910441 413.464436,129.607349 430.318676,126.526855 C437.289406,125.287842 444.354143,124.686592 451.3206,124.686592 L451.3206,124.686592 Z M631.646584,-103.244362 C631.593883,-103.134822 631.532637,-103.032586 631.479936,-102.923046 C630.841831,-102.327882 630.299156,-101.646303 629.85761,-100.840579 C626.4691,-94.8292961 620.956896,-90.6594934 613.565985,-88.3676842 C602.077242,-84.9865658 590.495916,-83.1828158 578.81916,-83.1828158 C570.530913,-83.1828158 562.152933,-84.1224211 553.773528,-86.0381447 C542.707814,-88.5563355 533.056472,-93.2141974 526.702482,-101.704724 C526.379156,-102.120974 526.005979,-102.469066 525.60289,-102.783079 C525.500337,-102.937651 525.389238,-103.087355 525.289535,-103.244362 L631.646584,-103.244362 Z M400.42316,152.223599 C398.585758,162.029816 397.742548,172.963072 397.833706,185.659914 C398.11715,212.521428 391.146419,237.618138 376.460028,262.376493 L373.776567,266.960112 C367.609166,277.478336 361.201051,288.373862 352.633633,297.918401 C342.841281,308.886954 329.751577,316.400145 312.709324,320.90952 C310.356311,321.585013 308.047452,321.885638 305.929456,321.885638 C299.430183,321.885638 293.829669,319.069257 288.790347,313.317217 C286.249321,310.425375 283.704021,307.535967 281.162995,304.605178 C273.863242,296.115868 266.284317,287.397743 257.997495,279.394059 C247.829117,269.477086 237.704893,260.835638 227.112061,253.021822 C221.934577,249.190375 216.423798,245.620605 211.105304,242.126296 C203.005071,236.753993 194.578663,231.2685 187.230482,224.882349 C180.027584,218.683632 173.958462,211.432118 168.635696,202.791888 C167.081738,200.237184 165.57336,197.64475 164.069255,195.052316 C159.690827,187.613368 155.216969,179.949257 149.380015,172.999586 C138.174715,159.624816 124.848571,150.946855 108.652377,146.400967 C102.014942,144.559487 95.1866464,142.944388 88.5947911,141.40475 C80.1655345,139.413566 71.4571069,137.346921 63.1232813,134.754487 C51.7285444,131.185934 37.2743207,125.887875 26.2100313,116.196066 C13.8282253,105.33827 6.4358898,92.2263947 3.60857072,76.1094868 C1.02054112,61.9083026 4.17403454,49.2479737 13.1203273,37.3373816 C17.4517516,31.5902105 22.536653,26.5562632 27.4335411,21.9349145 C41.1342878,9.04820395 52.3395872,-4.77689474 61.5223207,-16.6108092 C66.3252023,-22.8849868 72.0211464,-30.1730132 78.5175707,-36.9729803 C86.3813635,-45.3515329 97.824528,-50.1603158 109.830308,-50.1603158 C113.831285,-50.1603158 117.833686,-49.6345263 121.737808,-48.5817303 C142.412133,-43.1716974 158.230877,-32.7654474 170.095646,-16.7227829 C173.437153,-12.1391645 176.590646,-7.36932895 179.651558,-2.71025 C184.737883,4.99159211 190.012222,12.9940592 196.366212,20.2820855 C207.807952,33.3939605 221.88615,43.9876447 234.175373,52.6668224 L238.080919,55.3712303 C250.606584,64.1623816 263.556702,73.2164276 275.937084,82.4956382 L278.811406,84.6377434 C288.790347,92.0766908 299.146738,99.7785329 311.109788,105.525704 C323.725186,111.574717 336.9559,114.655211 350.420206,114.655211 C354.986646,114.655211 359.60009,114.316855 364.31039,113.603632 C374.812064,111.987316 383.615923,106.991099 391.103689,98.3119211 C393.92816,94.9685329 396.517613,91.2125461 399.531521,86.1031382 L403.108044,79.9786645 C409.934916,68.2579408 416.949801,56.0856711 425.9901,45.1901447 C434.702801,34.5197829 443.597817,27.0443224 454.04964,21.6720197 C463.700982,16.7135329 473.450604,14.1576118 482.958087,14.1576118 C491.197906,14.1576118 499.533156,16.0368224 507.772975,19.7185658 C515.58834,23.212875 523.452133,27.0065921 530.98263,30.6140921 C536.353824,33.1675789 541.720745,35.7612303 547.084817,38.2404737 C560.175946,44.3637303 574.113133,47.5196842 588.706942,47.6316579 C616.488735,47.6316579 635.792844,39.0668882 647.889781,21.3713947 C652.175627,15.0217566 654.52864,7.62053947 655.472979,-1.92156579 C656.413044,-12.9290658 655.424551,-22.4334408 652.362215,-31.0748882 C647.27589,-45.0509079 635.695988,-53.8785724 617.900258,-57.3728816 C607.636449,-59.3640658 597.136199,-59.8898553 586.919393,-60.4156447 L581.269028,-60.7174868 C576.558729,-60.9049211 571.664689,-60.9414342 567.002817,-60.9414342 C556.078113,-61.0168947 544.781656,-61.054625 533.903956,-63.4584079 C514.460262,-67.6671579 499.813752,-77.5476184 490.397426,-92.8381118 C488.658304,-95.6934408 487.055919,-98.6996908 485.503387,-101.59275 C485.219942,-102.155053 484.940771,-102.682059 484.654479,-103.244362 L521.664584,-103.244362 C521.852597,-103.132388 522.087613,-103.019197 522.319781,-102.869493 C522.996344,-102.508013 523.595992,-102.168441 524.118725,-101.781401 C530.875804,-91.8084408 542.012735,-86.6661711 554.809025,-83.8217961 C562.339521,-82.1312368 569.780285,-81.4167961 577.315054,-81.4167961 C585.506446,-81.4167961 593.697837,-82.2444276 601.889229,-83.5211711 C615.974548,-85.7545592 627.372133,-90.7154803 633.112232,-102.069855 C633.606479,-102.500711 634.173367,-102.891401 634.847081,-103.244362 L672.371373,-103.244362 C673.503725,-102.230513 673.832748,-100.728605 674.16462,-99.1500197 C677.222683,-84.6482105 687.673081,-75.1438355 706.085551,-69.9966974 C711.5009,-68.4935724 716.964676,-67.1401513 722.516762,-65.7879474 C728.356564,-64.3237697 734.382956,-62.8206447 740.221334,-61.1678158 C763.619002,-54.5552829 781.746604,-43.3226184 795.636788,-26.9050855 C799.451176,-22.3214671 803.453577,-17.8510395 807.45313,-13.3806118 L812.207584,-7.97057895 C813.196077,-6.91778289 813.765814,-5.67876974 814.378281,-4.36307895 C814.845465,-3.38696053 815.269919,-2.409625 815.92939,-1.47123684 L815.92939,50.7876118 C800.724538,61.2328092 783.299137,73.5547829 767.997429,87.6427763 C759.994051,95.0817237 752.274117,102.821296 744.739347,110.334487 C742.100041,112.964651 739.465008,115.594816 736.8314,118.223763 C725.718683,129.270211 714.605965,138.924289 702.927785,147.754388 L696.337354,152.599684 C682.592452,162.744257 668.370396,173.18702 656.742067,185.585671 C640.782314,202.716428 630.232212,223.079816 625.341021,246.070934 C624.86814,248.249553 624.395258,250.429388 623.970804,252.609224 C622.327113,260.911099 620.53814,269.514816 616.676748,277.441822 C614.319462,282.137414 609.704594,287.773829 600.665719,287.773829 C598.784163,287.773829 596.711745,287.507283 594.637903,287.019224 C582.58512,284.165112 573.641676,278.079586 567.475699,268.463237 C561.492038,259.107349 558.151956,248.32623 556.877169,234.499914 C554.901607,214.213204 551.040215,190.619618 536.632995,169.130408 C520.342794,145.011033 501.037262,131.223664 475.852044,125.700441 C467.891396,124.009882 459.608847,123.145737 451.3206,123.145737 C444.258712,123.145737 437.05439,123.784717 429.94265,125.02373 C412.712383,128.179684 403.294633,136.821132 400.42316,152.223599 L400.42316,152.223599 Z" id="Fill-5" fill="#FEFEFE" mask="url(#mask-4)"></path>
                    </g>
                    <g id="Group-10">
                        <mask id="mask-6" fill="white">
                            <use xlink:href="#path-5"></use>
                        </mask>
                        <g id="Clip-9"></g>
                        <path d="M-304.770041,279.282816 C-290.127804,286.948145 -276.566643,295.964461 -261.501377,303.100349 C-245.493196,310.65127 -228.637531,315.649921 -210.415923,315.649921 C-207.119995,315.649921 -203.777064,315.500217 -200.38713,315.161862 C-186.968403,313.807224 -175.244643,309.375743 -166.440785,300.773243 C-150.52661,285.369559 -143.558729,266.659 -142.004771,246.446533 C-140.969275,233.411336 -143.936179,220.82525 -147.796146,208.276895 C-152.174574,194.001467 -154.952041,179.499658 -154.293995,164.621763 C-153.822538,154.779033 -152.646031,144.972816 -150.763051,135.243276 C-146.61964,114.053474 -137.438331,94.8183421 -121.005696,78.3265658 C-111.777383,69.0084079 -102.361058,59.7291974 -92.9917352,50.5254474 C-81.1269655,38.7657763 -69.0271793,27.4199211 -54.3365148,18.3281447 C-39.694278,9.27409868 -26.7940115,-0.981230263 -16.2951859,-13.6427763 C-8.00693914,-23.6741579 0.890925987,-33.17975 10.7787089,-42.2325789 C25.6559622,-55.9079737 43.3591102,-66.5406053 60.7332352,-77.6223487 C71.6095115,-84.5732368 79.5203076,-93.4021184 83.0042484,-104.785704 L27.3979326,-104.785704 L-23.7801036,-104.785704 L-67.0017648,-104.785704 L-108.481456,-104.785704 C-110.317433,-103.620934 -111.260347,-102.004618 -111.919817,-100.126625 C-115.262748,-90.1707039 -121.806176,-81.9053421 -130.846475,-74.9179408 C-139.086294,-68.5305724 -148.833067,-64.2110658 -158.296396,-59.3645526 C-167.524709,-54.6300132 -176.563584,-49.7092566 -183.908916,-43.0589934 C-195.020209,-33.0653421 -201.142031,-20.7810987 -205.143008,-7.63149342 C-209.427429,6.53196053 -211.122396,21.1834737 -214.606337,35.4589013 C-218.043275,49.4738684 -224.116669,62.4348224 -234.85336,73.7429474 C-244.833725,84.3001184 -256.228462,93.5793289 -268.046229,102.633375 C-282.123002,113.37798 -298.131183,121.793046 -315.17486,128.668474 C-335.185442,136.782914 -355.102018,145.048276 -374.357699,154.440678 C-376.712137,155.605447 -378.737551,156.957651 -380.243081,158.948836 L-380.243081,214.475612 L-380.243081,257.267816 C-378.64212,257.567224 -376.995581,257.830118 -375.441623,258.09423 C-350.62816,262.001138 -326.569597,267.89923 -304.770041,279.282816 L-304.770041,279.282816 Z M-27.4990609,-103.244849 C-27.741199,-103.003862 -28.003278,-102.77748 -28.2525378,-102.543796 C-29.3364622,-101.878039 -30.3862023,-101.168467 -31.4544589,-100.46498 C-35.3614293,-97.6461645 -39.7882845,-95.6184671 -44.9201891,-94.4536974 C-46.568153,-94.0398816 -48.1691135,-93.8524474 -49.7216464,-93.8524474 C-55.1369951,-93.8524474 -59.8458701,-96.2574474 -62.5293306,-100.839849 C-62.8341398,-101.346164 -63.1660115,-101.801362 -63.5292187,-102.221263 C-63.5861924,-102.336888 -63.6502878,-102.45373 -63.7058372,-102.568138 C-63.7998437,-102.79452 -63.942278,-103.018467 -64.0348602,-103.244849 L-27.4990609,-103.244849 Z M-378.313097,159.399164 C-377.183594,158.00923 -375.629637,156.883408 -373.369206,155.755151 C-353.548061,146.099855 -332.454979,137.421895 -314.327377,130.058408 C-295.541729,122.469757 -280.003581,113.866039 -266.727288,103.760414 C-256.086028,95.6082434 -243.845232,85.8032434 -233.297979,74.6825526 C-223.27061,64.0876513 -216.537745,51.388375 -212.723357,35.7607434 C-211.263406,29.8626513 -210.133903,23.8513684 -209.0044,18.0275197 C-207.403439,9.65018421 -205.754051,1.00995395 -203.258604,-7.25540789 C-198.693587,-22.3584671 -192.053304,-33.4036974 -182.448965,-42.0439276 C-175.199064,-48.6199474 -166.016331,-53.5784342 -157.259475,-58.0865921 C-155.470502,-58.9884671 -153.634525,-59.8903421 -151.845551,-60.7922171 C-144.218199,-64.5859342 -136.308827,-68.5305724 -129.527535,-73.8286316 C-119.733758,-81.3795526 -113.378344,-89.8323487 -110.082416,-99.7140263 C-109.471373,-101.366855 -108.7649,-102.456164 -107.776406,-103.244849 L-67.5672286,-103.244849 C-66.6371332,-102.765309 -65.8779589,-102.207875 -65.2427023,-101.517776 C-62.0550247,-95.2630724 -56.6994984,-91.9355066 -49.8640806,-91.9355066 C-47.5566464,-91.9355066 -45.1082023,-92.3128092 -42.5187484,-93.0625461 C-36.4795378,-94.8589934 -31.0997977,-97.5183684 -26.8281957,-101.488566 C-25.7143602,-102.160408 -24.5791595,-102.766526 -23.357074,-103.244849 L26.3154326,-103.244849 C26.3781036,-103.108533 26.4065905,-102.973434 26.4165609,-102.837118 C26.3809523,-102.786 26.3524655,-102.73123 26.3154326,-102.681329 C17.0415411,-89.1556382 4.2808602,-78.1858684 -9.23187336,-67.7041579 C-25.0976201,-55.4941579 -42.9432023,-46.5155724 -62.5763339,-39.7521184 C-84.0924457,-32.3143882 -99.3471497,-19.5031382 -108.058426,-1.13215132 C-113.567781,10.4388684 -118.981706,22.0853487 -124.91409,33.5443947 C-131.834969,46.7682434 -141.863762,58.3769934 -151.233084,70.3618289 C-158.813433,80.017125 -164.41537,90.4976184 -167.147258,101.882421 C-172.138153,122.844625 -173.880123,144.221862 -175.434081,165.523638 C-176.800025,184.571336 -174.445587,203.392651 -168.795222,221.952289 C-164.180354,237.355974 -163.19186,252.684197 -169.736712,268.124395 C-177.035041,285.180908 -192.148735,294.760743 -210.650939,294.760743 C-215.972281,294.760743 -221.574219,293.933112 -227.365594,292.355743 C-244.080248,287.546961 -257.545979,278.455184 -270.635683,268.988539 C-286.313416,257.793605 -302.652044,247.499329 -321.013238,239.610053 C-339.251939,231.810842 -358.013373,224.784493 -375.989995,216.471664 C-376.941456,215.79252 -377.692084,215.019658 -378.313097,214.100743 L-378.313097,159.399164 Z M-378.313097,256.027586 L-378.313097,217.182454 C-377.887219,217.382059 -377.455643,217.575579 -377.026916,217.773967 C-376.425844,218.174395 -375.776344,218.540743 -375.065597,218.871796 C-366.589337,222.929625 -357.926488,226.761072 -349.075627,230.029 C-318.801235,241.338342 -290.973863,255.68923 -266.210252,274.474033 C-254.109041,283.642487 -240.502301,291.267651 -224.588127,295.061368 C-219.644235,296.188408 -214.841354,296.792092 -210.229334,296.792092 C-198.834597,296.792092 -188.476781,293.183375 -179.671498,285.331829 C-167.806729,274.887849 -163.804327,261.550809 -162.862837,247.574789 C-162.25037,237.957224 -164.509377,228.564822 -167.288268,219.322125 C-172.938633,200.763704 -174.586597,181.829197 -173.17365,162.780283 C-172.042722,148.054526 -170.255173,133.478474 -168.276762,118.712553 C-165.781314,100.529 -159.707919,83.5856776 -147.136676,68.408375 C-138.144804,57.5883092 -129.574538,46.5430789 -122.984107,34.4073224 C-117.427748,24.3394276 -112.814304,13.9319605 -108.105429,3.52692763 C-99.7246003,-15.1824145 -85.8358405,-29.57225 -63.5648273,-37.3106053 C-58.1024753,-39.2275461 -52.8295609,-41.3684342 -47.4626398,-43.4728092 C-24.3925707,-52.78975 -5.51149178,-66.7280395 11.6261924,-82.6562961 C17.1341234,-87.6537303 22.1734457,-93.0625461 26.2698536,-98.9995855 C26.9934194,-100.059684 28.1770477,-101.183072 28.340847,-102.465901 C28.4918273,-102.725145 28.6314128,-102.989257 28.7638766,-103.244849 L80.508801,-103.244849 C77.0234359,-93.6272829 70.1495609,-85.6248158 59.508301,-78.8248487 L53.2468931,-74.8424803 C38.1816266,-65.2626447 22.549472,-55.3821842 9.31875822,-43.2476447 C-0.285580592,-34.4552763 -9.18487007,-25.0640921 -17.894722,-14.5069211 C-27.4520576,-2.97363158 -39.7412812,7.358375 -55.5144457,17.1256447 C-70.8631562,26.5935066 -83.1979589,38.3519605 -94.4986891,49.5481118 C-103.868012,58.7530789 -113.284337,68.0322895 -122.51265,77.3869605 C-138.332817,93.2409737 -148.173597,112.10002 -152.646031,135.018112 C-154.576015,144.747651 -155.752521,154.665842 -156.223979,164.546303 C-156.836446,178.071993 -154.717025,192.084526 -149.679127,208.65298 C-146.052752,220.374921 -142.853679,232.99752 -143.936179,246.372289 C-145.629722,268.311829 -153.445087,285.819888 -167.946314,299.795908 C-175.904113,307.608507 -186.9214,312.268803 -200.623571,313.622224 C-203.871071,313.956928 -207.168423,314.145579 -210.415923,314.145579 C-226.472531,314.145579 -242.855314,310.090184 -260.512883,301.823605 C-269.128729,297.691533 -277.462554,292.88275 -285.465933,288.224888 C-291.398317,284.769526 -297.471712,281.237487 -303.73312,278.004855 C-322.897643,267.973474 -344.930791,261.360941 -375.065597,256.589888 L-378.267518,256.065316 L-378.313097,256.027586 Z" id="Fill-8" fill="#FEFEFE" mask="url(#mask-6)"></path>
                    </g>
                    <g id="Group-13" transform="translate(0.000000, 333.486842)">
                        <mask id="mask-8" fill="white">
                            <use xlink:href="#path-7"></use>
                        </mask>
                        <g id="Clip-12"></g>
                        <path d="M80.2725026,59.4431776 C78.7199697,47.2319605 75.6576342,35.2824211 68.7381803,24.3150855 C58.7093875,8.08498684 41.5232757,0.271171053 23.2560882,0.271171053 C16.3822132,0.271171053 9.41290724,1.35926316 2.58603553,3.50258553 C-15.8235862,9.36173026 -29.5243329,20.1452829 -40.4946158,33.8206776 C-48.593425,43.9275197 -55.3718691,54.8218289 -62.5776158,65.379 C-70.4855632,76.9135066 -78.6783789,88.3336053 -86.5421717,99.9021908 C-94.6865599,112.112191 -100.477935,125.000118 -104.055882,138.673079 L-80.2793395,138.673079 C-78.6783789,130.110743 -75.006425,122.147224 -70.0155303,114.855546 C-55.8903296,93.7436382 -42.8006257,72.2532105 -29.3818987,50.8759737 C-23.2615007,41.1087039 -15.2581224,32.4295263 -3.76937895,26.6434079 C3.15149934,23.1880461 10.6378414,21.3830789 17.8407395,21.3830789 C28.8580257,21.3830789 39.3582757,25.5540987 46.7506112,34.460875 C55.3650322,44.8281776 57.4844533,56.7728487 58.2379303,68.9463355 C59.0854138,82.6984079 56.4019533,96.4090987 56.5429632,110.124658 L56.5429632,138.673079 L90.9137625,138.673079 C88.8897724,126.805086 86.3929007,114.96752 84.8403678,103.094658 C83.0043908,88.5575526 82.0614763,73.9802829 80.2725026,59.4431776 M88.7003349,137.134658 L58.4729467,137.134658 L58.4729467,110.084493 C58.4273678,104.071993 58.8974007,97.9134408 59.4158612,91.9386711 C60.0283283,84.4254803 60.6393711,76.6116645 60.1679138,68.8720921 C59.4158612,57.077125 57.4844533,44.6005789 48.3515717,33.6332434 C40.9592362,24.7276842 30.1299632,19.8069276 17.8407395,19.8069276 C10.2603908,19.8069276 2.44502566,21.7214342 -4.80487566,25.3313684 C-15.3521289,30.6635066 -23.9693987,38.8144605 -31.1238691,50.16275 C-34.4212211,55.4961053 -37.764152,60.7929474 -41.0586553,66.0910066 C-50.9008592,81.9438026 -61.1176651,98.285875 -71.7104974,114.105809 C-76.842402,121.619 -80.2793395,129.358572 -81.9273033,137.134658 L-101.655866,137.134658 C-98.0764941,124.24673 -92.4275533,112.001434 -84.8472046,100.655579 C-80.6567901,94.4203487 -76.3239414,88.295875 -72.0409447,82.1336711 C-68.2735599,76.8356118 -64.5546026,71.5022566 -60.8812243,66.0910066 C-59.0452474,63.4632763 -57.2562737,60.7588684 -55.4673,58.0495921 C-50.2399645,50.2369934 -44.8730434,42.1627171 -38.846652,34.6446579 C-27.0758888,19.9176842 -13.2811355,10.1881447 3.29250921,4.93025 C9.88436447,2.86482237 16.6172296,1.80959211 23.2560882,1.80959211 C41.9463053,1.80959211 57.9089072,10.2660395 66.9962099,24.9917961 C72.9285947,34.3829803 76.5535454,45.3892632 78.3425191,59.5928816 C79.2370059,66.6569605 79.8964763,73.7186053 80.5559467,80.7826842 C81.2609961,88.1449539 81.9674697,95.7713355 82.9103842,103.245579 C83.9458809,111.211533 85.4528349,119.288243 86.8643579,127.066763 C87.476825,130.410151 88.1362954,133.79127 88.7003349,137.134658" id="Fill-11" fill="#FEFEFE" mask="url(#mask-8)"></path>
                    </g>
                    <g id="Group-16" transform="translate(242.138158, 365.131579)">
                        <mask id="mask-10" fill="white">
                            <use xlink:href="#path-9"></use>
                        </mask>
                        <g id="Clip-15"></g>
                        <path d="M51.1374424,5.74315461 C48.5964161,1.91170724 45.2976398,0.110391447 41.3935181,0.110391447 C39.3681036,0.110391447 37.1062484,0.633746711 34.7062319,1.53805592 C24.0179688,5.66891118 16.2937615,12.5820691 10.1747878,20.8462138 C4.90044901,28.0210493 0.994902961,35.648648 0.475018092,44.2134178 C0.195847039,47.2951283 1.27549836,50.1492401 2.22126151,53.118977 C5.27647533,62.5478914 19.6893931,72.3163783 32.9642615,72.3163783 C36.9680872,72.3163783 40.8722089,71.4157204 44.2621431,69.3843717 C49.4396266,66.3805559 52.6472451,62.4359178 54.903403,57.7780559 C59.8002911,47.7831875 60.4611859,37.4536151 58.3887681,26.8599309 C56.9772451,19.5682533 55.611301,12.2059836 51.1374424,5.74315461 M53.1144293,57.212102 C50.7129885,62.0987796 47.5594951,65.5541414 43.1340641,68.1076283 C40.2113141,69.8724309 36.7786497,70.7390099 32.9642615,70.7390099 C21.0994918,70.7390099 7.06687336,62.0208849 4.05296546,52.7416743 L3.8207977,51.8799638 C2.9718898,49.3228257 2.17283388,46.8460164 2.3594227,44.2900954 C2.83230428,37.000852 5.84478783,29.7870691 11.8726036,21.6738454 C18.5556168,12.6173651 26.279824,6.49654276 35.5551398,2.96572039 C37.7187155,2.10035855 39.648699,1.68775987 41.3935181,1.68775987 C44.6395938,1.68775987 47.2746266,3.26512829 49.4396266,6.49654276 C53.6784688,12.5820691 55.0472615,19.6814441 56.4103569,26.560523 L56.5029391,27.0826612 C58.6722122,38.2045691 57.5398602,48.0448651 53.1144293,57.212102" id="Fill-14" fill="#FEFEFE" mask="url(#mask-10)"></path>
                    </g>
                    <g id="Group-19" transform="translate(0.000000, 105.888158)">
                        <mask id="mask-12" fill="white">
                            <use xlink:href="#path-11"></use>
                        </mask>
                        <g id="Clip-18"></g>
                        <path d="M68.172574,75.3016941 C56.3063799,69.4778454 44.0185806,64.3696546 31.9187944,58.997352 C16.1470543,52.0841941 1.59739967,43.7433717 -10.8328339,32.8490625 C-19.0712286,25.5975493 -27.1700378,18.1220888 -35.6918766,11.059227 C-42.8477714,5.08567434 -51.181597,0.839194079 -61.7288503,0.426595395 C-62.3398931,0.388865132 -62.9537845,0.388865132 -63.517824,0.388865132 C-81.5029918,0.388865132 -96.7121168,12.7485691 -103.915015,26.2365296 C-111.213344,39.7610033 -111.918393,54.0753783 -108.669469,68.4639967 C-106.457465,78.3834046 -103.161538,88.1871875 -100.337067,98.0311349 C-97.9826299,106.446201 -97.1351464,115.087648 -98.2176464,123.688931 C-99.7246003,135.561793 -102.643077,147.170543 -106.645479,158.554128 C-113.002317,176.927549 -118.887699,195.445806 -129.339521,212.542484 C-132.823462,218.251924 -136.91987,223.699688 -142.523232,227.942516 C-151.045071,234.217911 -161.073863,238.387714 -172.042722,240.869391 C-191.630275,245.227845 -211.875873,245.000247 -231.839452,246.805214 C-240.737317,247.631628 -249.68361,248.455609 -258.017436,251.685806 C-265.267337,254.469326 -272.095633,259.803898 -270.870699,268.180016 C-270.021791,274.418898 -267.527768,280.017582 -263.902817,285.387451 C-257.686988,294.25528 -250.294653,302.329556 -242.620298,310.220049 C-226.330097,327.162155 -210.88738,344.408536 -204.624548,366.271398 L-153.493515,366.271398 C-150.150584,353.461365 -144.453215,341.477747 -137.767354,329.721727 C-129.198512,314.916859 -119.780762,300.45278 -109.612383,286.402516 C-93.1797484,263.558668 -75.9010543,241.207747 -51.606051,223.587714 C-39.0348076,214.493503 -25.5690773,206.529984 -11.0678503,199.76653 C8.28326151,190.67597 29.3293405,185.640806 50.469426,180.682319 C67.9375576,176.699951 79.5673109,167.082385 86.4881891,153.181826 C92.1841332,141.761727 96.6109885,130.039786 97.3644655,117.41597 C98.0239359,107.085181 96.092528,97.5053454 88.0877253,89.3896875 C82.3903569,83.7544901 75.6589161,79.0211678 68.172574,75.3016941 M95.4330576,117.341727 C94.7750115,128.124063 91.4790839,138.981859 84.6977911,152.619523 C77.7299095,166.556595 66.053153,175.499885 49.9053865,179.215707 C30.2238273,183.83949 7.9072352,189.021924 -12.0563437,198.41676 C-26.4635641,205.176563 -40.2127385,213.25449 -52.9235674,222.460674 C-77.8794655,240.568766 -95.4401793,263.597615 -111.260347,285.649128 C-121.477153,299.703043 -130.939058,314.279095 -139.509324,329.08153 C-147.089673,342.416135 -152.080567,353.79972 -155.046048,364.732977 L-203.119018,364.732977 C-209.615442,343.204819 -224.77614,326.223766 -241.114768,309.319391 C-248.31909,301.84028 -255.851012,293.689326 -262.20785,284.675444 C-265.973811,279.073109 -268.185814,273.626563 -268.939291,267.993799 C-270.211229,259.465543 -262.113844,254.995115 -257.169952,253.041661 C-249.212153,249.958734 -240.40687,249.171266 -231.603012,248.343635 C-225.43561,247.781332 -219.080196,247.405247 -212.958373,247.027944 C-199.30463,246.203964 -185.179429,245.377549 -171.525686,242.368865 C-159.80335,239.742352 -149.58512,235.232977 -141.205715,229.069556 C-134.659439,224.111069 -130.328015,217.651891 -127.597551,213.215543 C-118.040215,197.589128 -112.201837,180.531398 -106.504469,164.001891 L-104.809502,158.967944 C-100.525081,146.869918 -97.7476135,135.374359 -96.2876628,123.839852 C-95.2507418,115.424786 -95.9586398,106.633635 -98.4526628,97.7305099 C-99.3001464,94.725477 -100.243061,91.719227 -101.136123,88.7141941 C-103.161538,81.9896875 -105.232531,75.0387993 -106.786488,68.201102 C-110.270429,52.6477138 -108.7649,39.122023 -102.126041,26.8377796 C-95.5341859,14.4403454 -81.0329589,1.92972039 -63.517824,1.92972039 C-62.9537845,1.92972039 -62.3883207,1.92972039 -61.8228569,1.96745066 C-52.8309852,2.30458882 -44.9671924,5.53600329 -37.104824,12.1108059 C-31.2194424,16.9950493 -25.4280674,22.1409704 -19.8247056,27.1384046 C-17.3292582,29.3924836 -14.7882319,31.6465625 -12.2443569,33.9006414 C-0.710034539,43.9697533 13.4151661,52.6477138 30.9773043,60.3495559 C34.132222,61.7394901 37.2857155,63.0916941 40.4406332,64.4816283 C49.2929194,68.3508059 58.425801,72.3343914 67.135653,76.6161678 C74.6234194,80.3356414 81.1682714,84.9569901 86.5821957,90.367023 C93.3620641,97.2047204 96.1865345,105.76949 95.4330576,117.341727" id="Fill-17" fill="#FEFEFE" mask="url(#mask-12)"></path>
                    </g>
                    <g id="Group-22" transform="translate(131.039474, 333.124240)">
                        <mask id="mask-14" fill="white">
                            <use xlink:href="#path-13"></use>
                        </mask>
                        <g id="Clip-21"></g>
                        <path d="M25.3643993,0.0332531147 L23.6722809,0.0332531147 C11.619498,0.0332531147 3.47083684,6.79305575 1.63343553,14.3829242 C-1.04575197,25.6168057 0.834379605,36.1727597 9.49722829,45.4178913 C12.5595638,48.7223321 16.8454092,50.4494044 21.2708401,50.4494044 C24.3759059,50.4494044 27.4866691,49.5876939 30.3111395,47.8557531 C40.7643862,41.4318715 45.9418697,32.41799 47.1183763,21.746411 C48.5313237,8.22315443 40.1034914,0.0332531147 25.3643993,0.0332531147 M45.1898171,21.6344373 C44.0133105,32.41799 38.5993862,40.8318386 29.1346329,46.61674 C26.7331921,48.1222992 24.0483072,48.872036 21.2708401,48.872036 C17.3610211,48.872036 13.6434882,47.2946676 11.0554586,44.4746347 C3.19166579,36.0997334 0.741797368,26.3312465 3.51926447,14.6823321 C5.07179737,8.33512811 12.0425276,1.5327268 23.6722809,1.5327268 C24.1878928,1.5327268 24.709202,1.5327268 25.3643993,1.61062154 C31.5788039,1.61062154 36.6665539,3.18798996 40.1034914,6.11999654 C44.1044684,9.6508189 45.8948664,14.9829571 45.1898171,21.6344373" id="Fill-20" fill="#FEFEFE" mask="url(#mask-14)"></path>
                    </g>
                    <g id="Group-25" transform="translate(0.000000, 153.355263)">
                        <mask id="mask-16" fill="white">
                            <use xlink:href="#path-15"></use>
                        </mask>
                        <g id="Clip-24"></g>
                        <path d="M42.6533487,48.9104704 C33.9434967,41.2463586 23.4916743,35.6866217 12.5683947,30.8023783 C-2.73473684,23.8892204 -18.2244572,17.2401743 -32.6786809,9.05027303 C-37.3875559,6.34464803 -42.2374408,3.82767434 -47.5103553,1.79875987 C-50.5228388,0.671720395 -53.3473092,0.108200658 -55.8911842,0.108200658 C-63.3290987,0.108200658 -68.3214178,4.72954934 -68.7444474,12.9194507 C-69.0264671,17.8036941 -68.3669967,22.6489901 -67.3315,27.4212599 C-64.3190164,43.2010296 -64.6010362,58.7166875 -69.2629079,74.2688586 C-73.6883388,89.1844836 -80.1847632,103.535372 -84.3751776,118.564188 C-86.6356086,126.866063 -88.4730099,135.245832 -88.1425625,143.809385 C-87.8121151,152.150207 -83.4336875,156.508661 -75.5243158,156.508661 C-73.7353421,156.508661 -71.7583553,156.246984 -69.5919309,155.793003 C-59.4691316,153.577872 -50.665273,148.917576 -41.8599901,144.448365 C-24.8633158,135.769188 -8.10165789,126.754089 8.61299671,117.775503 C19.7242895,111.876194 30.6475691,105.864911 39.781875,97.5995493 C48.3037138,89.9366546 53.5766283,81.257477 53.0111645,70.100273 C53.7190625,61.7959638 49.4332171,54.9217533 42.6533487,48.9104704 M38.3219243,96.624648 C29.4710625,104.589385 18.7357961,110.56172 7.53049671,116.497543 C-8.80670724,125.287477 -25.7107993,134.38047 -42.8954868,143.132674 L-44.7798914,144.108793 C-52.7362664,148.167839 -60.9746612,152.337641 -70.1089671,154.33126 C-72.0873783,154.703694 -73.9233553,154.931293 -75.5243158,154.931293 C-82.3511875,154.931293 -85.9291349,151.172872 -86.2111546,143.736359 C-86.541602,135.130207 -84.6116184,126.716359 -82.4921974,118.939056 C-80.2787697,111.012049 -77.4072961,103.122773 -74.5828257,95.4963914 C-72.0873783,88.7341546 -69.4979243,81.6712928 -67.3785033,74.6084309 C-62.8590658,59.5065888 -62.1995954,43.9884967 -65.4485197,27.1583651 C-66.6250263,21.710602 -67.0494803,17.2024441 -66.8130395,12.9571809 C-66.4370132,5.89431908 -62.3890329,1.64905592 -55.8911842,1.64905592 C-53.5823257,1.64905592 -51.0412993,2.1760625 -48.3564145,3.18991118 C-43.836977,4.91820066 -39.3161151,7.13454934 -33.8081842,10.2905033 C-21.3323717,17.352148 -7.86664145,23.4023783 5.08205263,29.2250099 L11.6254803,32.1557993 C20.4777664,36.1369507 31.8725033,41.7344178 41.2418257,49.9620493 C48.4447237,56.387148 51.693648,62.9242204 51.0811809,70.1745164 C51.5996414,79.8675428 47.5032336,88.2826086 38.3219243,96.624648" id="Fill-23" fill="#FEFEFE" mask="url(#mask-16)"></path>
                    </g>
                    <path d="M324.256465,179.123572 C316.344245,172.211632 307.681396,166.049428 299.441577,159.475842 C281.409406,144.972816 264.555166,129.419428 248.215113,113.565414 C236.494202,102.183046 223.969962,91.7390658 208.339232,84.3743618 C199.298933,80.017125 189.694594,76.8611711 179.242771,76.3353816 C178.678732,76.2976513 178.066265,76.2976513 177.496528,76.2976513 C172.366048,76.2976513 167.613018,77.4624211 164.315666,81.4070592 C160.690715,85.7277829 162.478265,89.8975855 164.879706,94.0673882 C167.46916,98.6132763 170.154044,103.045974 173.967008,106.878638 C190.8711,124.122586 204.2414,143.057092 213.612146,164.133704 C219.827975,177.770151 228.298538,190.356237 240.921058,200.500809 C253.066423,210.305809 266.720166,218.270546 281.694275,224.620184 C288.9456,227.625217 296.571528,229.915809 304.762919,230.291895 C305.187373,230.329625 305.613252,230.368572 305.989278,230.368572 C308.251133,230.368572 310.457439,229.842783 312.670867,229.391237 C330.517873,226.159822 341.961038,209.403934 336.169663,195.127289 C333.575936,189.041763 329.530804,183.744921 324.256465,179.123572 M331.319778,216.091928 C326.938502,222.177454 319.97062,226.461664 312.203683,227.888112 L311.45163,228.037816 C309.567225,228.415118 307.778252,228.789987 305.989278,228.789987 C305.613252,228.789987 305.328383,228.789987 304.903929,228.752257 C297.9859,228.415118 290.87416,226.686829 282.53891,223.26798 C267.56765,216.918342 254.010762,208.878145 242.23715,199.410283 C231.033275,190.393967 222.272146,178.672026 215.402544,163.606697 C206.266814,143.057092 192.848087,123.634526 175.472538,105.94025 C171.755005,102.183046 169.068696,97.7114013 166.625949,93.4284079 C164.032222,88.92025 163.092156,85.6523224 165.916627,82.2712039 C168.457653,79.2272237 172.131031,77.8372895 177.496528,77.8372895 C178.066265,77.8372895 178.581877,77.8372895 179.097488,77.8750197 C188.233219,78.3265658 197.178087,80.8058092 207.399166,85.6888355 C223.87738,93.5038684 236.538357,104.662289 246.759436,114.541533 C266.064969,133.327553 282.349472,147.941336 298.077058,160.565151 C300.998383,162.893474 303.915436,165.14877 306.929344,167.401632 C312.203683,171.534921 317.708765,175.742454 322.844942,180.175151 C328.119281,184.75877 331.9764,189.981368 334.332262,195.616566 C337.014298,202.191368 335.884794,209.666829 331.319778,216.091928" id="Fill-26" fill="#FEFEFE"></path>
                </g>
            </g>
        </g>
    </g>
</svg>