<?xml version="1.0" encoding="UTF-8"?>
<svg width="1440px" height="469px" viewBox="0 0 1440 469" version="1.1" xmlns="http://www.w3.org/2000/svg" xmlns:xlink="http://www.w3.org/1999/xlink">
    <!-- Generator: Sketch 62 (91390) - https://sketch.com -->
    <title>Group 53</title>
    <desc>Created with Sketch.</desc>
    <defs>
        <polygon id="path-1" points="0.3802 0.207301286 361.837659 0.207301286 361.837659 126.165158 0.3802 126.165158"></polygon>
        <polygon id="path-3" points="0.75798518 0.323974703 193.46 0.323974703 193.46 296.523893 0.75798518 296.523893"></polygon>
        <polygon id="path-5" points="0.46 0.207301286 139.906249 0.207301286 139.906249 144.678691 0.46 144.678691"></polygon>
        <polygon id="path-7" points="0.677816882 0.207301286 982.46 0.207301286 982.46 382.106568 0.677816882 382.106568"></polygon>
        <polygon id="path-9" points="0.46 0.207301286 549.6882 0.207301286 549.6882 373.921888 0.46 373.921888"></polygon>
        <polygon id="path-11" points="0.9048 0.394736199 237.2778 0.394736199 237.2778 75.9340625 0.9048 75.9340625"></polygon>
        <polygon id="path-13" points="0.210242846 0.540710855 133.940958 0.540710855 133.940958 71.9474993 0.210242846 71.9474993"></polygon>
        <polygon id="path-15" points="0.138208543 0.468155405 71.7464246 0.468155405 71.7464246 42.7127025 0.138208543 42.7127025"></polygon>
        <polygon id="path-17" points="0.492887556 0.35201353 447.243144 0.35201353 447.243144 316.456709 0.492887556 316.456709"></polygon>
        <polygon id="path-19" points="0.811 0.013753643 53.0034195 0.013753643 53.0034195 26.7664497 0.811 26.7664497"></polygon>
        <polygon id="path-21" points="0.667479649 0.207301286 33.6497195 0.207301286 33.6497195 20.6024922 0.667479649 20.6024922"></polygon>
        <polygon id="path-23" points="0.318 0.00591340208 93.4037037 0.00591340208 93.4037037 20.1221777 0.318 20.1221777"></polygon>
    </defs>
    <g id="Page-1" stroke="none" stroke-width="1" fill="none" fill-rule="evenodd">
        <g id="1" transform="translate(0.000000, -4178.000000)">
            <g id="Group-26" transform="translate(0.000000, 4178.000000)">
                <g id="Group-53">
                    <polygon id="Fill-1" fill="#C4E4EB" points="0 468.982684 1440 468.982684 1440 0 0 0"></polygon>
                    <g id="Group-52" opacity="0.35">
                        <g id="Group-4" transform="translate(621.000000, 0.000000)">
                            <mask id="mask-2" fill="white">
                                <use xlink:href="#path-1"></use>
                            </mask>
                            <g id="Clip-3"></g>
                            <path d="M33.2582,-30.7286949 C44.9082,-21.2732314 55.2942,-11.3400448 63.9162,-0.176338979 C74.2442,13.0543999 81.8372,27.3169941 91.3122,41.0241273 C101.3012,55.4455196 115.2302,67.4045448 131.5552,77.7343945 C153.4752,91.6395269 177.4462,103.75735 201.4812,115.477846 C210.5002,119.927515 220.0332,123.304798 230.7582,124.972511 C235.4412,125.727964 240.1232,126.165158 244.6882,126.165158 C254.5072,126.165158 263.8722,124.218386 272.5452,119.64912 C281.2192,115.11972 288.1282,109.31927 294.2372,102.882964 C308.7322,87.4283873 317.9272,70.0662402 327.5712,52.8230255 C335.7902,38.1631037 344.0072,23.4633164 354.7392,9.71698203 C361.0232,1.77109714 363.2442,-6.65184647 360.9642,-15.7903782 C357.5392,-29.7353762 356.4522,-43.9195681 356.5692,-58.0226999 C356.6802,-62.1946382 357.9362,-66.4057778 357.5972,-70.6966487 L286.9892,-70.6966487 C282.5932,-68.749877 280.7632,-65.2935267 278.1392,-62.4325032 C271.2892,-54.8447446 264.3792,-47.1367246 260.0422,-38.5151173 C247.7742,-13.8044053 245.3192,11.8218874 248.4582,37.9651044 C249.4872,46.7455099 251.0832,55.5644521 249.0252,64.4245888 C246.6282,75.2713628 235.3302,82.2239291 221.2842,82.2239291 C219.9162,82.2239291 218.5482,82.1435334 217.1172,82.0252653 C198.1672,80.1974261 181.0992,74.7537741 164.7732,67.8816035 C154.5032,63.4711358 145.3682,58.0281482 137.2602,51.5911774 C123.6762,40.5862697 114.4292,27.6352548 108.4912,13.4111973 C97.7652,-12.214431 88.2312,-38.079253 80.9782,-64.4590061 C80.2942,-66.9220378 79.9552,-69.4654651 76.3022,-70.6966487 L0.3802,-70.6966487 C2.7822,-62.6318313 6.6052,-54.963677 13.3382,-48.2097745 C19.5052,-42.0917289 26.2972,-36.3703463 33.2582,-30.7286949 L33.2582,-30.7286949 Z M75.7292,-69.0681376 C77.5592,-68.3133483 77.9562,-67.0024335 78.5292,-64.816468 L78.6982,-64.1414099 C85.3212,-40.1050916 94.3402,-14.5983958 106.2112,13.8483904 C112.6062,29.0657665 122.4782,42.1363784 135.4962,52.6642274 C143.7722,59.2201306 153.1882,64.8219163 163.5752,69.2722497 C182.9282,77.4559995 199.8792,82.0252653 216.8352,83.653112 C218.3202,83.7733733 219.7992,83.8524401 221.2842,83.8524401 C236.6982,83.8524401 248.7962,76.1444202 251.3102,64.7023194 C253.1392,56.9550982 252.2222,49.2078771 251.2512,41.7383865 L250.7952,37.8455075 C247.3712,9.31899013 251.0832,-15.5126476 262.2702,-37.9596561 C266.4962,-46.3427341 273.2882,-53.9703584 280.0802,-61.5587814 C280.7632,-62.2743695 281.3952,-63.0690244 282.0202,-63.8238137 C283.6742,-65.8895179 285.2172,-67.796424 287.7312,-69.0681376 L355.3122,-69.0681376 C355.3122,-67.1612316 355.0262,-65.2536611 354.7392,-63.4264863 C354.5112,-61.598647 354.2842,-59.8505391 354.1722,-58.0226999 C354.0552,-42.1707957 355.5402,-28.2649989 358.6212,-15.5126476 C360.7942,-6.8505102 358.8542,1.13457589 352.6882,8.92166267 C342.1842,22.3111996 334.0772,36.7724576 326.2042,50.7579857 L325.4032,52.2276987 L323.2342,56.1604433 C314.5542,71.7346169 305.5352,87.8655804 292.2962,101.969377 C285.4462,109.160472 278.7642,114.36493 271.1772,118.337541 C263.1812,122.509479 254.5662,124.535982 244.6882,124.535982 C240.4672,124.535982 235.9552,124.13799 231.2732,123.383201 C221.7402,121.874287 212.3812,118.854465 202.7902,114.126401 C179.6142,102.843098 155.1282,90.4874102 133.0932,76.5424121 C115.5692,65.4179075 102.6692,53.5778148 93.4222,40.3085392 C89.6582,34.9047527 86.1742,29.3036315 82.8072,23.9005095 C77.6112,15.636364 72.3042,7.09448787 65.9682,-0.931128278 C58.0362,-11.260978 47.8712,-21.3516338 35.0292,-31.8010804 C28.8632,-36.8068749 21.6732,-42.7667869 15.2792,-49.1233619 C9.8542,-54.567014 5.9212,-61.0823871 3.2912,-69.0681376 L75.7292,-69.0681376 Z" id="Fill-2" fill="#FFFFFF" mask="url(#mask-2)"></path>
                        </g>
                        <g id="Group-7" transform="translate(1247.000000, 172.086645)">
                            <mask id="mask-4" fill="white">
                                <use xlink:href="#path-3"></use>
                            </mask>
                            <g id="Clip-6"></g>
                            <path d="M202.2279,178.233659 C201.2569,177.440333 200.1759,177.159945 199.0889,177.159945 C197.8319,177.159945 196.5229,177.518071 195.2069,177.835668 C187.4469,179.583776 179.8529,181.891331 171.9209,183.40091 C158.6759,185.861948 145.6059,187.0134 132.6479,187.0134 C111.7569,187.0134 91.2639,183.954378 71.2269,177.997788 C43.4879,169.772179 31.7859,153.999342 32.7549,133.896432 C33.6149,115.93763 44.6849,101.63517 63.7509,90.9079926 C84.8109,79.0678999 108.6709,75.2547522 133.5599,75.2547522 C139.0419,75.2547522 144.5189,75.4534159 150.1139,75.7703477 C165.4109,76.6453983 180.2499,79.7037567 195.2069,82.0877215 C196.4069,82.247184 197.6039,82.5249146 198.7489,82.5249146 C199.9999,82.5249146 201.1459,82.247184 202.2279,81.3727978 L202.2279,0.323974703 C196.1779,2.4295445 192.7529,6.72041536 187.7319,9.70037135 C175.5149,16.8509369 162.2179,22.691252 148.2899,27.8963746 C125.1709,36.3585195 101.7679,44.3841356 78.6509,53.0456086 C56.5029,61.228694 37.5479,72.6315936 23.1119,87.5705747 C1.3619,110.137845 -2.4601,135.56348 2.9569,162.183756 C6.4989,179.824963 20.4269,191.187332 42.5759,197.42431 C57.4739,201.594255 72.9399,204.259273 88.2379,207.318296 C110.0439,211.765307 131.5079,217.090691 151.4279,225.353508 C160.9609,229.365319 169.8649,234.214309 176.1409,240.809413 C193.4369,258.808082 198.8619,278.7502 191.3279,300.36601 C186.0789,315.341534 174.5449,326.345778 154.9129,332.423293 C146.6879,334.967385 138.2429,337.115478 129.6209,338.741996 C114.6099,341.565811 99.1969,343.590986 85.0399,348.360244 C73.7419,352.289666 64.3759,358.131975 59.9289,367.346916 L128.8769,367.346916 C151.8269,367.346916 174.7729,367.346916 197.7209,367.427976 L197.9499,367.427976 L197.7209,365.800794 C174.7729,365.719733 151.8269,365.678539 128.8769,365.678539 L94.4039,365.719733 L63.3479,365.719733 C67.4629,358.924636 74.8799,353.680977 86.0679,349.869158 C96.8579,346.211486 108.6709,344.144453 120.1449,342.119279 C123.5109,341.525281 126.8839,340.967827 130.2509,340.333299 C138.6989,338.741996 147.0339,336.638419 155.8819,333.896993 C175.3459,327.855356 188.0179,316.73218 193.6129,300.760015 C201.1459,278.990722 195.9519,258.490485 178.0819,239.893832 C172.3759,233.896713 164.2699,228.852381 152.6259,224.003392 C135.2719,216.773759 115.6379,211.170645 88.8689,205.768187 C85.5009,205.093793 82.0769,204.417407 78.6509,203.742349 C67.0009,201.517182 54.9019,199.132553 43.4879,195.914732 C21.1119,189.597358 8.6089,178.510061 5.2999,161.945227 C-0.6971,132.544323 5.7559,108.548535 25.0509,88.5233634 C38.8639,74.2215679 57.2979,62.7788026 79.7899,54.4754559 C93.2629,49.4304602 107.1339,44.5037325 120.5479,39.6959373 C130.1339,36.2794526 139.8369,32.8623035 149.4289,29.3268864 C165.0719,23.4865713 178.0819,17.4874581 189.2689,10.9315549 C191.2679,9.74023698 193.0399,8.34892642 194.6949,7.03801156 C196.4069,5.68789549 198.0599,4.41618183 199.8899,3.34246747 L199.8899,80.6585386 C199.5439,80.8166723 199.2069,80.8957391 198.7489,80.8957391 C198.0599,80.8957391 197.2649,80.7376054 196.4069,80.5774785 L195.7819,80.4990761 C192.1269,79.9422861 188.5849,79.3064292 184.9919,78.7111025 C173.7459,76.8041964 162.1009,74.8182235 150.2899,74.1418366 C144.4089,73.823576 138.9249,73.6654423 133.5599,73.6654423 C104.7899,73.6654423 81.4459,78.9097662 62.2669,89.6362789 C42.0009,101.07838 31.2699,115.93763 30.3589,133.816037 C29.3309,155.667718 43.1419,171.439891 70.3159,179.507366 C90.7489,185.545016 111.6999,188.645234 132.6479,188.645234 C145.8339,188.645234 159.2489,187.412057 172.4889,184.987562 C177.3389,184.075968 182.0809,182.843455 186.6449,181.651473 C189.7309,180.858147 192.8109,180.060834 195.9519,179.349233 L196.6339,179.186448 C197.5459,178.991106 198.4059,178.791114 199.0889,178.791114 C199.3169,178.791114 199.5439,178.791114 199.8899,178.949912 L199.8899,229.011179 C199.8899,273.981606 199.8319,318.958676 199.9499,363.852693 C199.9499,365.202809 199.7729,365.600801 199.7199,365.678539 C199.7199,365.678539 199.3749,365.800794 197.9499,365.800794 L197.9499,367.427976 C201.7719,367.427976 202.2879,366.55359 202.2879,363.852693 C202.1689,302.033722 202.2279,240.134355 202.2279,178.233659" id="Fill-5" fill="#FFFFFF" mask="url(#mask-4)"></path>
                        </g>
                        <g id="Group-10">
                            <mask id="mask-6" fill="white">
                                <use xlink:href="#path-5"></use>
                            </mask>
                            <g id="Clip-9"></g>
                            <path d="M30.2504,144.599624 C46.5744,144.480691 62.2154,141.540601 76.3144,135.779353 C116.8424,119.013197 135.1084,92.0766536 138.8754,58.782871 C140.0744,47.8975602 140.3024,36.9311893 139.1604,25.9654828 C137.9624,14.6429788 137.9054,3.3198105 135.5644,-7.96282778 C133.7384,-16.4263014 131.2834,-24.6897825 121.5804,-30.8476938 C114.8444,-35.2574971 106.9094,-37.2042688 98.5754,-38.594915 C77.9134,-42.1708622 56.7934,-43.6007095 35.5584,-43.6412396 C29.6794,-43.6412396 23.8004,-43.6804408 17.9204,-43.6804408 C7.9884,-43.6804408 -1.9436,-43.5608439 -11.9326,-42.8857858 L-11.9326,-15.0349909 L-11.9326,18.2587917 L-11.9326,89.0568319 L-11.9326,119.213189 L-11.9326,143.805633 C-1.9436,144.480691 8.0454,144.678691 18.0344,144.678691 C22.0874,144.678691 26.1974,144.639489 30.2504,144.599624 L30.2504,144.599624 Z M-9.5926,19.9271684 C-9.2356,19.9338126 -8.8856,19.9338126 -8.5316,19.9384636 C-7.1236,20.2135365 -5.5906,20.2029057 -4.0556,20.2447646 C-2.2286,20.2846302 -0.4026,20.2846302 1.4814,20.2846302 L4.2784,20.2846302 C10.3864,20.2846302 16.4934,20.3238314 22.5444,21.0002183 C54.2814,24.9329629 74.3164,42.7715044 73.2324,66.5706222 C72.5474,81.1109471 60.1034,91.7191917 41.0384,93.9044928 C38.9264,94.1416933 36.7574,94.2612902 34.5884,94.2612902 C31.7344,94.2612902 28.9374,94.0632909 26.0834,93.7848959 C15.6944,92.7517116 5.5914,90.6069406 -4.5116,88.3817739 C-5.8246,88.1040433 -7.1376,87.7459171 -8.3936,87.7459171 C-8.7306,87.7459171 -9.0586,87.7711653 -9.3806,87.8243195 C-9.4516,87.8116954 -9.5216,87.7977424 -9.5926,87.7857827 L-9.5926,19.9271684 Z M-9.5926,89.6926888 C-9.4776,89.6229239 -9.3666,89.5684409 -9.2596,89.5259176 C-7.7196,89.7983327 -6.2116,90.0793854 -4.6836,90.4076124 C8.5594,93.2287703 21.6884,96.2479275 35.6154,96.2479275 C36.3004,96.2479275 36.9854,96.2080619 37.6704,96.2080619 C54.1674,95.8107344 68.3804,88.0236477 73.5174,76.50248 C84.0204,52.3066991 62.3294,25.091761 28.5954,19.8474371 C19.4614,18.4175898 10.3284,18.3378585 1.1964,18.3378585 L-3.1426,18.3378585 C-4.8196,18.3378585 -6.5126,18.3325431 -8.2056,18.3172613 C-8.7356,18.1896912 -9.1876,17.9983362 -9.5926,17.7020017 L-9.5926,-13.4064798 L-9.5356,-13.4064798 L-8.5236,-13.4064798 C-7.6336,-13.2337288 -6.6886,-13.1679505 -5.7106,-13.1679505 L-3.4846,-13.1679505 C5.0204,-13.1679505 13.4684,-12.770623 22.0304,-12.4523624 C35.6734,-11.9367669 48.9724,-10.5853219 61.7594,-6.93030791 C79.1684,-2.12317712 91.6124,6.89575769 98.9184,19.4906397 C106.6814,32.9187134 109.0224,47.1819721 108.6794,61.762827 C108.3364,72.8866672 105.2544,83.3361138 97.9484,92.9510398 C84.0774,111.22611 63.5284,121.198498 34.5884,121.278229 L33.8464,121.278229 C20.8314,121.278229 8.2174,119.171995 -4.5696,117.782013 C-5.4826,117.702282 -6.3956,117.622551 -7.2526,117.622551 C-7.9506,117.622551 -8.6296,117.681685 -9.2816,117.830516 C-9.3096,117.827859 -9.3366,117.823872 -9.3636,117.821214 L-9.5926,117.821214 L-9.5926,89.6926888 Z M-9.5926,119.807852 C-9.4136,119.683604 -9.2166,119.589919 -9.0066,119.510188 C-3.7776,120.041066 1.4134,120.574601 6.5614,121.278229 C15.5234,122.509413 24.5424,123.462866 33.5604,123.462866 C38.0704,123.462866 42.5224,123.225665 46.9744,122.668211 C79.7964,118.536138 98.9754,102.76463 107.7094,79.9986959 C114.3874,62.7953469 112.2184,45.3547973 105.9394,28.2697163 C98.2334,7.61068136 80.9954,-5.85725798 52.8544,-11.1414475 C33.1044,-14.9167229 13.0114,-15.0349909 -7.1956,-15.0349909 L-8.1926,-15.0349909 C-8.7446,-15.1692052 -9.2056,-15.3625535 -9.5926,-15.6309821 L-9.5926,-41.4160729 C0.0544,-41.9721984 9.7004,-42.0512653 17.9204,-42.0512653 L26.7114,-42.0512653 L35.5584,-42.0120641 C58.3904,-41.9721984 78.8254,-40.3436874 98.0054,-37.0062695 C105.4834,-35.7744215 113.3604,-34.0263135 119.9814,-29.6563759 C129.1144,-23.855262 131.4544,-15.9891084 133.2244,-7.72496284 C134.8234,-0.29533789 135.3364,7.37148757 135.9074,14.7227101 C136.1354,18.5371867 136.4204,22.3104687 136.8204,26.0850797 C137.9054,36.4554594 137.7904,47.1022408 136.5354,58.6632741 C132.5394,94.1822234 112.4474,118.93413 75.1154,134.388707 C61.4734,139.950627 46.3464,142.851516 30.1934,142.971113 C26.1404,143.010314 22.0874,143.050179 18.0344,143.050179 C7.4174,143.050179 -1.4296,142.81165 -9.5926,142.334591 L-9.5926,119.807852 Z" id="Fill-8" fill="#FFFFFF" mask="url(#mask-6)"></path>
                        </g>
                        <g id="Group-13" transform="translate(458.000000, 0.000000)">
                            <mask id="mask-8" fill="white">
                                <use xlink:href="#path-7"></use>
                            </mask>
                            <g id="Clip-12"></g>
                            <path d="M546.8539,171.973493 C556.6729,171.973493 566.3759,172.847879 575.9619,174.635188 C609.7589,181.071494 631.5609,198.155247 648.2309,219.769063 C664.5559,241.02409 669.8649,264.345484 672.4299,288.223005 C673.8029,300.97602 677.2289,313.292507 685.5579,324.734608 C693.3199,335.22392 704.6829,342.057554 719.9209,345.194979 C722.7809,345.792299 725.4049,346.028835 727.9129,346.028835 C737.6729,346.028835 745.1559,341.777166 749.4929,334.111005 C755.5409,323.384492 757.2539,311.861995 760.1069,300.619223 C765.8169,277.218097 777.9159,256.002272 797.7849,237.369076 C813.9339,222.311826 834.0309,210.154137 853.4949,197.559255 C868.3339,187.825397 881.9179,177.337414 894.8189,166.173043 C907.3799,155.326934 919.5899,144.401093 932.6069,133.872579 C950.4759,119.449858 970.7349,106.856305 991.2279,94.5796837 L991.2279,38.1631702 C989.3449,35.8184066 988.6629,33.0377788 986.2649,30.7335452 C979.5259,24.059374 972.7339,17.5041353 966.2279,10.7489039 C948.8749,-7.12950318 925.9849,-19.1675952 897.8989,-26.1201614 C884.1459,-29.4974449 870.1589,-32.1584758 856.4629,-35.4566924 C836.6549,-40.2638232 823.1239,-49.2428924 819.3589,-65.0157297 C818.7869,-67.1212995 818.2709,-69.2667349 815.8159,-70.6972467 L768.7279,-70.6972467 L632.8759,-70.6972467 L583.6719,-70.6972467 C586.4659,-66.2475777 589.0899,-61.7175131 592.1759,-57.3475754 C603.8199,-40.7807476 621.7429,-30.0535704 646.4019,-25.4045733 C665.4679,-21.7495593 684.9919,-23.1794066 704.2809,-22.464483 C719.1259,-21.7495593 733.8499,-21.4312987 748.2349,-18.968267 C768.3259,-15.5517824 782.2019,-7.08963755 788.3029,7.68988108 C792.4179,17.6230677 793.0429,27.8333205 791.9579,37.9645064 C791.1029,46.34692 788.8179,54.5319987 783.1139,61.9609592 C767.5309,81.8658693 742.6409,88.8583011 713.4159,88.8583011 L713.1879,88.8583011 C696.0619,88.7393686 679.3969,85.3627496 664.0949,79.1643083 C648.1719,72.6881363 632.5319,65.8545026 616.4339,59.5377932 C605.9899,55.4455861 595.6019,53.4589487 585.2089,53.4589487 C572.9999,53.4589487 560.8939,56.2395766 548.9069,61.6832286 C534.5799,68.1195349 523.6209,76.939806 514.1439,87.0311263 C501.3029,100.617998 491.9389,115.676576 482.0079,130.495296 C479.0399,134.826032 475.8409,139.156769 471.9089,143.169245 C464.0869,151.035398 454.3839,156.836512 440.9129,158.664352 C435.3179,159.378611 429.8929,159.736737 424.5269,159.736737 C408.2599,159.736737 392.7899,156.478386 378.0059,150.320475 C362.4819,143.765236 349.2369,134.826032 335.8229,126.16456 C319.2159,115.358316 302.2019,104.9886 285.1919,94.5796837 C268.5269,84.3687665 252.6579,73.6415894 239.6409,60.6500443 C227.4239,48.373423 218.7509,34.5074917 207.9079,21.5956779 C193.5229,4.63085825 173.7719,-6.93017502 148.0239,-12.8096913 C142.9449,-13.9618081 137.8659,-14.5185981 132.8449,-14.5185981 C117.5479,-14.5185981 103.0469,-9.27493861 93.0009,0.0223911966 C85.4089,6.97495742 78.7309,14.3647167 72.2799,21.7152748 C59.6669,35.8988023 46.5369,49.6451366 31.1819,62.2792198 C24.8459,67.4843425 18.7379,72.8077332 13.6009,78.7669808 C2.4699,91.6395934 -1.4121,105.624457 1.7289,120.840504 C5.0959,137.447862 13.9439,151.989516 29.7549,164.106675 C42.3699,173.720936 58.4669,179.52205 75.3629,184.130517 C93.4579,189.057245 112.2939,191.997335 130.6179,196.48687 C151.0519,201.452799 166.5189,211.147456 178.8519,223.978874 C188.2099,233.673531 194.6039,244.718305 202.0269,255.287348 C208.1359,263.948157 215.5529,271.973773 224.9699,279.045936 C239.7579,290.249508 257.5679,298.672451 273.4369,308.882704 C286.7929,317.504311 299.1219,326.761111 310.7069,336.615231 C324.1219,347.895876 335.6529,360.332624 347.8699,372.411911 C354.4329,378.888747 361.9099,382.106568 370.5879,382.106568 C373.4409,382.106568 376.4119,381.784985 379.6079,381.073384 C399.4689,376.464252 416.3689,368.558897 429.1509,356.122149 C441.1389,344.441519 449.4159,331.250646 458.2649,318.298966 C475.7299,292.553741 484.7499,265.378669 484.3459,236.414958 C484.2349,224.774194 484.9769,212.973966 487.4919,201.333866 C490.7989,185.958357 500.9579,177.177951 521.3919,173.920265 C529.8439,172.60935 538.4089,171.973493 546.8539,171.973493 L546.8539,171.973493 Z M765.4719,-69.0674068 C765.4099,-68.951132 765.3349,-68.8428304 765.2709,-68.7278845 C764.4979,-68.097343 763.8389,-67.3777684 763.3039,-66.5253083 C759.1949,-60.1680688 752.5129,-55.7582655 743.5529,-53.3350995 C729.6249,-49.7591523 715.5839,-47.8522463 701.4269,-47.8522463 C691.3789,-47.8522463 681.2209,-48.8455649 671.0619,-50.8714035 C657.6479,-53.5337632 645.9469,-58.4598265 638.2429,-67.4388957 C637.8509,-67.8794109 637.3979,-68.2475036 636.9119,-68.5790528 C636.7869,-68.7431663 636.6509,-68.9013 636.5299,-69.0674068 L765.4719,-69.0674068 Z M485.1469,201.095337 C482.9189,211.465052 481.8969,223.026086 482.0079,236.454824 C482.3529,264.861744 473.9009,291.401624 456.0969,317.583378 L452.8409,322.430375 C445.3659,333.554215 437.5969,345.076047 427.2099,355.170689 C415.3379,366.76893 399.4689,374.714815 378.8069,379.48208 C375.9559,380.198997 373.1559,380.515929 370.5879,380.515929 C362.7089,380.515929 355.9179,377.537966 349.8089,371.455135 C346.7289,368.396113 343.6429,365.340412 340.5619,362.240859 C331.7119,353.262454 322.5239,344.042862 312.4769,335.580718 C300.1489,325.09207 287.8749,315.954867 275.0339,307.691386 C268.7549,303.63838 262.0749,299.863769 255.6269,296.168889 C245.8069,290.488037 235.5899,284.687587 226.6819,277.933021 C217.9499,271.377782 210.5909,263.708963 204.1379,254.57176 C202.2549,251.870199 200.4259,249.128773 198.6019,246.38801 C193.2949,238.520528 187.8709,230.41518 180.7929,223.065951 C167.2089,208.922289 151.0519,199.745221 131.4179,194.936761 C123.3699,192.98999 115.0929,191.282412 107.0999,189.653236 C96.8819,187.547666 86.3229,185.362365 76.2189,182.621603 C62.4059,178.846992 44.8809,173.244542 31.4669,162.995088 C16.4559,151.512457 7.4939,137.64719 4.0679,120.602639 C0.9289,105.584591 4.7529,92.1957189 15.5989,79.6015014 C20.8499,73.5226569 27.0149,68.1986017 32.9519,63.3117397 C49.5619,49.6850023 63.1469,35.0636173 74.2779,22.549131 C80.1009,15.914161 87.0069,8.20680544 94.8839,1.01570986 C104.4169,-7.84376242 118.2919,-12.9299526 132.8449,-12.9299526 C137.6959,-12.9299526 142.5479,-12.3738271 147.2819,-11.2615759 C172.3459,-5.53952889 191.5239,5.46537882 205.9089,22.4301985 C209.9599,27.2778594 213.7819,32.3228551 217.4939,37.2495828 C223.6599,45.393467 230.0549,53.8569406 237.7589,61.5636317 C251.6289,75.4302274 268.6979,86.6331344 283.5959,95.8108673 L288.3319,98.6718908 C303.5159,107.968556 319.2159,117.542952 334.2259,127.357206 L337.7099,129.62091 C349.8089,137.487728 362.3659,145.632276 376.8679,151.710457 C392.1639,158.107562 408.2029,161.365248 424.5269,161.365248 C430.0629,161.365248 435.6579,161.007786 441.3679,160.252997 C454.0979,158.544755 464.7709,153.259901 473.8479,144.082168 C477.2739,140.547415 480.4139,136.573476 484.0659,131.171018 L488.4029,124.694847 C496.6789,112.299293 505.1839,99.4266801 516.1429,87.9048481 C526.7069,76.6215454 537.4909,68.7155261 550.1629,63.0346736 C561.8649,57.7896852 573.6829,55.0881242 585.2089,55.0881242 C595.1999,55.0881242 605.3039,57.0740971 615.2939,60.968305 C624.7689,64.6631846 634.3019,68.6756605 643.4319,72.490137 C649.9439,75.1910336 656.4509,77.9331247 662.9559,80.5549544 C678.8259,87.0311263 695.7219,90.3678797 713.4159,90.4868122 C747.0949,90.4868122 770.4999,81.4293406 785.1659,62.7164129 C790.3609,56.0017116 793.2129,48.1747592 794.3589,38.0834389 C795.4999,26.4426744 794.2999,16.3912197 790.5879,7.25268799 C784.4219,-7.52683065 770.3819,-16.8620328 748.8079,-20.5575769 C736.3649,-22.6631467 723.6329,-23.2199367 711.2489,-23.7760622 L704.3969,-24.0943229 C698.6859,-24.2923222 692.7529,-24.3315234 687.1009,-24.3315234 C673.8559,-24.4112547 660.1629,-24.4511203 646.9739,-26.9938832 C623.4009,-31.4442166 605.6439,-41.8929987 594.2279,-58.062499 C592.1199,-61.0823207 590.1769,-64.2609404 588.2949,-67.3199632 C587.9519,-67.9159544 587.6129,-68.47208 587.2669,-69.0674068 L632.1339,-69.0674068 C632.3629,-68.9484743 632.6479,-68.8295418 632.9289,-68.6707437 C633.7509,-68.2893625 634.4779,-67.9299074 635.1109,-67.5206202 C643.3019,-56.9735029 656.8039,-51.5358307 672.3189,-48.5279687 C681.4499,-46.7399951 690.4679,-45.9845414 699.6039,-45.9845414 C709.5359,-45.9845414 719.4649,-46.8589276 729.3959,-48.2097081 C746.4719,-50.5717468 760.2909,-55.818064 767.2499,-67.8249279 C767.8479,-68.280725 768.5369,-68.6939987 769.3529,-69.0674068 L814.8459,-69.0674068 C816.2189,-67.9950213 816.6179,-66.4057114 817.0199,-64.7379991 C820.7259,-49.4016905 833.3979,-39.3502358 855.7199,-33.9072482 C862.2859,-32.3172739 868.9089,-30.8874266 875.6409,-29.4569148 C882.7189,-27.908135 890.0259,-26.3181607 897.1039,-24.5700528 C925.4699,-17.5776209 947.4489,-5.69899142 964.2889,11.6631557 C968.9129,16.5101522 973.7629,21.2382161 978.6149,25.9656156 L984.3769,31.6869983 C985.5769,32.7999138 986.2649,34.1101643 987.0069,35.5014748 C987.5759,36.5339947 988.0889,37.5665146 988.8899,38.5604976 L988.8899,93.82423 C970.4559,104.869668 949.3309,117.901078 930.7779,132.800194 C921.0759,140.666348 911.7159,148.850097 902.5829,156.795982 C899.3829,159.577275 896.1859,162.358567 892.9959,165.139859 C879.5219,176.820489 866.0489,187.030742 851.8919,196.367937 L843.9019,201.492664 C827.2389,212.219842 809.9959,223.264615 795.8959,236.375757 C776.5479,254.492029 763.7589,276.026114 757.8279,300.340163 C757.2539,302.645061 756.6809,304.949295 756.1669,307.253528 C754.1729,316.033934 752.0049,325.1326 747.3249,333.515013 C744.4649,338.481607 738.8729,344.441519 727.9129,344.441519 C725.6319,344.441519 723.1199,344.160466 720.6049,343.644206 C705.9939,340.625713 695.1499,334.190736 687.6739,324.020349 C680.4199,314.127028 676.3709,302.724793 674.8279,288.103408 C672.4299,266.649718 667.7489,241.699148 650.2839,218.974409 C630.5339,193.467713 607.1279,178.886193 576.5929,173.045878 C566.9429,171.257905 556.9019,170.344317 546.8539,170.344317 C538.2909,170.344317 529.5579,171.02004 520.9359,172.330955 C500.0459,175.668372 488.6299,184.80624 485.1469,201.095337 L485.1469,201.095337 Z" id="Fill-11" fill="#FFFFFF" mask="url(#mask-8)"></path>
                        </g>
                        <g id="Group-16">
                            <mask id="mask-10" fill="white">
                                <use xlink:href="#path-9"></use>
                            </mask>
                            <g id="Clip-15"></g>
                            <path d="M79.5682,335.461519 C97.3202,343.567531 113.7602,353.10339 132.0262,360.64929 C151.4332,368.635705 171.8682,373.921888 193.9582,373.921888 C197.9542,373.921888 202.0072,373.762425 206.1172,373.404299 C222.3852,371.972458 236.5982,367.284925 247.2722,358.188252 C266.5662,341.899155 275.0142,322.112513 276.8972,300.73789 C278.1532,286.95169 274.5562,273.642548 269.8762,260.372608 C264.5682,245.275493 261.2002,229.939849 261.9992,214.206213 C262.5702,203.797297 263.9972,193.427581 266.2802,183.137597 C271.3032,160.72979 282.4342,140.388351 302.3552,122.946473 C313.5432,113.093682 324.9602,103.280092 336.3192,93.5468981 C350.7032,81.1108142 365.3732,69.1132522 383.1822,59.4983262 C400.9342,49.9232658 416.5742,39.0764918 429.3032,25.6876193 C439.3502,15.0800391 450.1382,5.02791995 462.1252,-4.546476 C480.1632,-19.0090629 501.6252,-30.2518355 522.6882,-41.9723313 C535.8742,-49.3228894 545.4642,-58.6580916 549.6882,-70.696848 L482.2752,-70.696848 L420.2282,-70.696848 L367.8272,-70.696848 L317.5392,-70.696848 C315.3132,-69.465 314.1712,-67.7567577 313.3722,-65.7701203 C309.3192,-55.2416069 301.3852,-46.5010671 290.4262,-39.1119722 C280.4362,-32.3574053 268.6202,-27.7888039 257.1472,-22.6634125 C245.9592,-17.6569535 235.0002,-12.4524953 226.0952,-5.4208622 C212.6242,5.14751685 205.2032,18.1390619 200.3512,32.0448588 C195.1572,47.0223767 193.1022,62.5174834 188.8782,77.6145983 C184.7112,92.4339825 177.3482,106.141116 164.3332,118.099476 C152.2322,129.264511 138.4182,139.077436 124.0912,148.651832 C107.0242,160.014866 87.6162,168.914204 66.9532,176.185031 C42.6942,184.766108 18.5482,193.507313 -4.7978,203.439835 C-7.6518,204.671018 -10.1068,206.10153 -11.9328,208.207764 L-11.9328,266.927847 L-11.9328,312.180655 C-9.9918,312.497587 -7.9948,312.775982 -6.1108,313.054377 C23.9712,317.186449 53.1392,323.424092 79.5682,335.461519 L79.5682,335.461519 Z M415.7182,-69.068337 C415.4262,-68.8125325 415.1092,-68.5733387 414.8052,-68.3261718 C413.4922,-67.6225434 412.2182,-66.8730695 410.9242,-66.1282466 C406.1862,-63.1476262 400.8202,-61.0028552 394.5982,-59.7716716 C392.6012,-59.333814 390.6592,-59.1351503 388.7772,-59.1351503 C382.2122,-59.1351503 376.5032,-61.6785776 373.2502,-66.5249096 C372.8812,-67.0611024 372.4772,-67.5414832 372.0382,-67.9853206 C371.9682,-68.1075752 371.8912,-68.2318231 371.8242,-68.3527489 C371.7092,-68.5912782 371.5372,-68.8291432 371.4242,-69.068337 L415.7182,-69.068337 Z M-9.5928,208.683494 C-8.2228,207.213117 -6.3388,206.021799 -3.5988,204.829817 C20.4322,194.618899 46.0042,185.441831 67.9802,177.654744 C90.7562,169.629128 109.5932,160.531126 125.6892,149.843815 C138.5902,141.222872 153.4312,130.853156 166.2172,119.093459 C178.3752,107.889224 186.5372,94.4604855 191.1612,77.9321945 C192.9312,71.6952163 194.3012,65.3386413 195.6712,59.1800656 C197.6122,50.3205933 199.6102,41.182726 202.6352,32.4421862 C208.1712,16.4706852 216.2202,4.79071944 227.8652,-4.34781227 C236.6552,-11.3003785 247.7862,-16.5447024 258.4032,-21.312632 C260.5722,-22.266085 262.7982,-23.219538 264.9672,-24.1729911 C274.2142,-28.1861313 283.8042,-32.3574053 292.0242,-37.959191 C303.8972,-45.945606 311.6022,-54.8848095 315.5982,-65.3335917 C316.3402,-67.0816996 317.1972,-68.2338164 318.3952,-69.068337 L367.1422,-69.068337 C368.2712,-68.5607146 369.1902,-67.9720321 369.9602,-67.2411622 C373.8252,-60.6274538 380.3172,-57.1093118 388.6052,-57.1093118 C391.4022,-57.1093118 394.3702,-57.5066392 397.5102,-58.3006298 C404.8322,-60.2002271 411.3532,-63.0127475 416.5322,-67.2105985 C417.8832,-67.9215356 419.2592,-68.5627079 420.7412,-69.068337 L480.9622,-69.068337 C481.0382,-68.9234918 481.0722,-68.78064 481.0832,-68.6371237 C481.0412,-68.5833051 481.0062,-68.5241711 480.9622,-68.4716813 C469.7172,-54.1692214 454.2482,-42.5676581 437.8662,-31.4836835 C418.6302,-18.5705409 396.9962,-9.07587622 373.1932,-1.92398184 C347.1072,5.9428362 328.6132,19.4898424 318.0532,38.9183581 C311.3742,51.1544494 304.8102,63.4709365 297.6182,75.5887597 C289.2272,89.5736234 277.0682,101.84958 265.7092,114.524194 C256.5192,124.734446 249.7272,135.818421 246.4162,147.857177 C240.3652,170.026455 238.2532,192.632262 236.3692,215.159002 C234.7142,235.303106 237.5682,255.207351 244.4182,274.834531 C250.0122,291.123628 251.2112,307.333658 243.2772,323.661957 C234.4292,341.699826 216.1062,351.830348 193.6732,351.830348 C187.2222,351.830348 180.4302,350.955297 173.4092,349.287585 C153.1462,344.201395 136.8202,334.587798 120.9512,324.575544 C101.9442,312.73678 82.1362,301.850141 59.8752,293.506928 C37.7642,285.260058 15.0182,277.829104 -6.7768,269.038068 C-7.9288,268.319822 -8.8398,267.503241 -9.5928,266.531184 L-9.5928,208.683494 Z M-9.5928,310.869075 L-9.5928,269.788871 C-9.0758,270.000158 -8.5528,270.205466 -8.0338,270.414761 C-7.3038,270.83933 -6.5168,271.226027 -5.6548,271.576844 C4.6202,275.867715 15.1232,279.919392 25.8542,283.375742 C62.5572,295.334768 96.2932,310.510949 126.3172,330.376658 C140.9872,340.07198 157.4832,348.135468 176.7772,352.14728 C182.7702,353.339262 188.5932,353.977777 194.1862,353.977777 C208.0002,353.977777 220.5582,350.161971 231.2322,341.858624 C245.6172,330.813851 250.4692,316.709391 251.6112,301.929872 C252.3522,291.759485 249.6132,281.826298 246.2452,272.052574 C239.3952,252.426723 237.3972,232.402881 239.1102,212.258777 C240.4802,196.685268 242.6492,181.270557 245.0462,165.656518 C248.0722,146.426666 255.4352,128.509057 270.6762,112.457825 C281.5782,101.015724 291.9672,89.3350941 299.9582,76.5016827 C306.6942,65.8542368 312.2872,54.8493291 317.9962,43.8444214 C328.1572,24.0591082 344.9952,8.84173208 371.9942,0.658646683 C378.6162,-1.3685207 385.0092,-3.6328886 391.5162,-5.85739087 C419.4862,-15.7108462 442.3752,-30.4504992 463.1532,-47.295722 C469.8312,-52.5799116 475.9392,-58.3006298 480.9052,-64.5788024 C481.7832,-65.6996911 483.2192,-66.8876869 483.4172,-68.2444472 C483.6002,-68.5181912 483.7692,-68.7979151 483.9302,-69.068337 L546.6632,-69.068337 C542.4382,-58.8972854 534.1042,-50.4344761 521.2042,-43.2433805 L513.6132,-39.0315765 C495.3472,-28.901055 476.3962,-18.4516084 460.3562,-5.61952593 C448.7122,3.67713945 437.9232,13.6096617 427.3632,24.7740319 C415.7762,36.970922 400.8782,47.8967629 381.7552,58.2266126 C363.1472,68.238866 348.1922,80.6742855 334.4922,92.5137138 C323.1332,102.247572 311.7172,112.060498 300.5292,121.953819 C281.3492,138.71931 269.4192,158.664086 263.9972,182.899068 C261.6572,193.189052 260.2302,203.6777 259.6582,214.126482 C258.9172,228.429606 261.4852,243.24899 267.5932,260.769936 C271.9892,273.16549 275.8692,286.514496 274.5562,300.658158 C272.5022,323.861285 263.0272,342.375549 245.4462,357.155067 C235.7992,365.417884 222.4422,370.344612 205.8312,371.777117 C201.8932,372.131257 197.8972,372.32992 193.9582,372.32992 C174.4932,372.32992 154.6302,368.043036 133.2242,359.299174 C122.7782,354.930565 112.6752,349.844375 102.9712,344.917647 C95.7792,341.264627 88.4152,337.529217 80.8242,334.111403 C57.5922,323.502494 30.8782,316.510727 -5.6548,311.465067 L-9.5358,310.908941 L-9.5928,310.869075 Z" id="Fill-14" fill="#FFFFFF" mask="url(#mask-10)"></path>
                        </g>
                        <g id="Group-19" transform="translate(322.000000, 392.676475)">
                            <mask id="mask-12" fill="white">
                                <use xlink:href="#path-11"></use>
                            </mask>
                            <g id="Clip-18"></g>
                            <path d="M224.3768,62.969161 C222.4938,50.0560184 218.7828,37.4206063 210.3928,25.8210363 C198.2348,8.65755286 177.3998,0.394736199 155.2528,0.394736199 C146.9188,0.394736199 138.4698,1.54618854 130.1938,3.81122086 C107.8748,10.0076689 91.2638,21.411233 77.9648,35.8738198 C68.1458,46.5624602 59.9268,58.0829634 51.1928,69.2473336 C41.6038,81.4442237 31.6718,93.5221814 22.1388,105.755615 C12.2638,118.668758 5.2428,132.298153 0.9048,146.756753 L29.7308,146.756753 C31.6718,137.701275 36.1238,129.27966 42.1748,121.569647 C59.2988,99.2428996 75.1678,76.5168316 91.4358,53.9090317 C98.8558,43.5798465 108.5598,34.4021136 122.4878,28.2827391 C130.8788,24.6297183 139.9548,22.7221478 148.6878,22.7221478 C162.0448,22.7221478 174.7738,27.1312867 183.7358,36.5495423 C194.1808,47.5139199 196.7498,60.1453454 197.6628,73.0186224 C198.6908,87.5629338 195.4378,102.062729 195.6088,116.565846 L195.6088,146.756753 L237.2778,146.756753 C234.8238,134.206388 231.7978,121.68725 229.9138,109.132898 C227.6888,93.758053 226.5468,78.3440064 224.3768,62.969161 M234.5948,145.129571 L197.9488,145.129571 L197.9488,116.524651 C197.8918,110.166083 198.4628,103.652703 199.0908,97.3353291 C199.8328,89.3894442 200.5748,81.1266275 200.0038,72.9408844 C199.0908,60.4669282 196.7498,47.2733973 185.6768,35.6751561 C176.7148,26.2569005 163.5868,21.0531067 148.6878,21.0531067 C139.4978,21.0531067 130.0228,23.0789452 121.2318,26.8960795 C108.4458,32.5330799 97.9998,41.1546872 89.3238,53.1555713 C85.3278,58.7952294 81.2748,64.3976795 77.2798,70.0001297 C65.3488,86.7649568 52.9628,104.047373 40.1198,120.776321 C33.8978,128.722206 29.7308,136.907284 27.7328,145.129571 L3.8158,145.129571 C8.1548,131.50084 15.0038,118.55049 24.1938,106.554256 C29.2738,99.9591521 34.5258,93.4816513 39.7198,86.9649494 C44.2868,81.3631636 48.7958,75.7235056 53.2478,70.0001297 C55.4748,67.2201663 57.6438,64.361136 59.8118,61.4967904 C66.1488,53.2346381 72.6558,44.6947553 79.9618,36.7442195 C94.2328,21.1713747 110.9568,10.8820551 131.0498,5.32079946 C139.0408,3.13616283 147.2038,2.02191841 155.2528,2.02191841 C177.9128,2.02191841 197.2638,10.9637797 208.2808,26.5372888 C215.4728,36.4678177 219.8678,48.1072534 222.0368,63.1279591 C223.1218,70.5974497 223.9208,78.0669403 224.7198,85.5370953 C225.5758,93.3235177 226.4318,101.386342 227.5738,109.292361 C228.8298,117.716633 230.6568,126.257181 232.3688,134.482789 C233.1108,138.017542 233.9098,141.594818 234.5948,145.129571" id="Fill-17" fill="#FFFFFF" mask="url(#mask-12)"></path>
                        </g>
                        <g id="Group-22" transform="translate(1253.000000, 396.663038)">
                            <mask id="mask-14" fill="white">
                                <use xlink:href="#path-13"></use>
                            </mask>
                            <g id="Clip-21"></g>
                            <path d="M113.4027,80.5570141 C142.9727,64.462594 138.1217,37.9253717 114.6597,20.2442995 C104.1557,12.299079 90.4617,7.77034322 76.1297,4.67079033 C65.8587,2.44495921 55.4667,0.540710855 44.9097,0.540710855 C40.9697,0.540710855 36.9717,0.817776998 32.9797,1.41177491 C14.5387,4.27479172 8.9447,8.0068793 3.6957,21.3585439 C1.1817,27.7948502 0.0437,34.5480882 0.4997,42.0182432 C-0.4123,46.1476583 1.0717,50.8378499 1.6377,55.5659138 C2.6087,63.5516644 4.4967,71.5380793 8.0327,79.166368 C12.0307,87.7062508 19.7347,91.7572634 31.6647,92.8715078 C36.2887,93.271493 40.8527,93.4661702 45.3657,93.4661702 C59.8617,93.4661702 74.0767,91.5619218 88.1757,89.0563669 C97.3047,87.4697147 105.8687,84.6093556 113.4027,80.5570141 M45.3657,91.8383235 C40.7957,91.8383235 36.3467,91.6396598 32.0097,91.2815335 C20.5897,90.2111413 13.8547,86.3548059 10.3177,78.6494436 C7.1207,71.814481 5.0637,64.2267224 3.9237,55.4476458 C3.8067,54.0563352 3.5787,52.6650247 3.3507,51.3142442 C2.7837,48.0552288 2.2127,44.9962059 2.8947,41.9365187 C2.3817,34.9467445 3.4097,28.348318 5.9757,21.7538781 C10.9437,9.08059366 15.8537,5.78503474 33.4887,3.0017492 C37.1417,2.44495921 40.9117,2.20975198 44.9097,2.20975198 C54.6667,2.20975198 64.1987,3.79573971 75.4447,6.26142905 C92.1737,9.83671181 104.1027,14.6046414 112.9467,21.3585439 C126.0217,31.2119993 132.8137,43.4460973 131.4407,54.9666005 C130.3017,64.5436542 123.5677,72.9293899 112.0347,79.2839716 C104.8397,83.1363205 96.6217,85.879076 87.6017,87.4697147 C76.1867,89.4948888 61.1187,91.8383235 45.3657,91.8383235" id="Fill-20" fill="#FFFFFF" mask="url(#mask-14)"></path>
                        </g>
                        <g id="Group-25" transform="translate(743.000000, 425.897835)">
                            <mask id="mask-16" fill="white">
                                <use xlink:href="#path-15"></use>
                            </mask>
                            <g id="Clip-24"></g>
                            <path d="M61.6127,6.42474525 C58.5317,2.37173933 54.5337,0.468155405 49.7997,0.468155405 C47.3437,0.468155405 44.6037,1.02095884 41.6927,1.977734 C28.7337,6.34700727 19.3697,13.6576997 11.9517,22.3962463 C5.5567,29.9833405 0.8227,38.05148 0.1927,47.1076227 C-0.1463,50.3666381 1.1617,53.3857953 2.3087,56.5258783 C6.0127,66.4969372 23.4857,76.8267869 39.5817,76.8267869 C44.4337,76.8267869 49.1677,75.8746627 53.2777,73.7265696 C59.5537,70.5499432 63.4427,66.3786692 66.1767,61.4519415 C72.1157,50.8828981 72.9167,39.9590505 70.4037,28.755479 C68.6917,21.0461302 67.0367,13.2590434 61.6127,6.42474525 M64.0087,60.8546215 C61.0977,66.0218718 57.2757,69.6748925 51.9097,72.3764535 C48.3667,74.2428295 44.2057,75.1590747 39.5817,75.1590747 C25.1967,75.1590747 8.1817,65.9401473 4.5297,56.1272219 L4.2487,55.2162922 C3.2187,52.5100803 2.2497,49.8909082 2.4777,47.1886828 C3.0497,39.479334 6.7027,31.8510453 14.0087,23.2706325 C22.1117,13.6942432 31.4757,7.22139346 42.7197,3.48664817 C45.3447,2.57173192 47.6837,2.1365321 49.7997,2.1365321 C53.7337,2.1365321 56.9297,3.80424438 59.5537,7.22139346 C64.6937,13.6576997 66.3527,21.1643983 68.0067,28.4385472 L68.1177,28.9920151 C70.7477,40.7523765 69.3747,51.1592998 64.0087,60.8546215" id="Fill-23" fill="#FFFFFF" mask="url(#mask-16)"></path>
                        </g>
                        <path d="M1014.4408,137.21013 C1021.6348,140.825943 1029.3978,143.526175 1037.5038,145.473611 C1068.6118,153.141766 1092.5308,167.801687 1111.3688,187.348471 C1124.1518,200.737344 1135.8548,214.603939 1147.0418,228.747601 C1153.2618,236.652956 1158.9718,244.758968 1167.7638,251.314206 C1171.5268,254.1347 1174.9528,255.446279 1178.8338,255.446279 C1181.5168,255.446279 1184.3168,254.809758 1187.5718,253.698171 C1197.6718,250.122224 1204.0078,243.526455 1210.8598,237.567208 C1224.8468,225.250721 1238.9968,213.054495 1254.2408,201.532663 C1277.4698,184.250247 1301.7328,167.642889 1321.9978,148.175172 C1342.8888,128.032397 1365.8358,109.200537 1385.8148,88.5807034 C1396.0318,78.05219 1403.5668,66.4898279 1400.9938,52.9022916 C1396.7748,29.9390232 1377.0758,9.43878636 1343.5138,3.71673931 C1339.2938,3.00248007 1335.0078,2.60515261 1330.7888,2.60515261 C1314.0608,2.60515261 1298.3658,8.68399706 1291.9718,23.5425825 C1287.7458,33.3555078 1284.8938,43.2488289 1281.3578,53.1016198 C1273.8168,73.9599829 1258.5198,90.4869451 1231.3518,99.4660142 C1210.3448,106.340178 1188.4248,109.041739 1166.1678,109.041739 C1156.5178,109.041739 1146.8148,108.56468 1137.0528,107.650428 C1119.5868,106.061783 1103.3728,101.055324 1087.2238,96.0495296 C1075.7498,92.4337167 1063.9888,89.3354927 1051.2578,89.0570977 C1030.4848,89.0570977 1009.0798,101.253988 1003.6558,116.272036 C1000.6278,124.535517 1004.7948,132.323268 1014.4408,137.21013 M1005.8818,116.669363 C1011.0728,102.327702 1031.3968,90.6856088 1051.2058,90.6856088 C1063.7618,90.9640038 1075.5218,94.1419591 1086.2528,97.5192425 C1102.2338,102.485836 1118.7868,107.650428 1136.7078,109.27894 C1146.9838,110.193856 1156.8618,110.669586 1166.1678,110.669586 C1190.5928,110.669586 1212.2848,107.49163 1232.3798,100.936392 C1258.4088,92.3546499 1275.1908,76.8196776 1283.6368,53.4989473 C1284.8348,50.1615294 1285.9808,46.8241116 1287.0618,43.4866938 C1289.2308,37.0902531 1291.4568,30.4552831 1294.1978,24.0189768 C1301.6158,6.8162922 1320.2848,4.23366367 1330.7888,4.23366367 C1334.7808,4.23366367 1338.8908,4.59112551 1342.9468,5.30604918 C1372.8568,10.3922394 1394.2598,28.7078396 1398.7138,53.1016198 C1400.7668,64.3051912 1396.2008,74.9526371 1383.8738,87.6664516 C1372.2248,99.664678 1359.3238,111.265577 1346.8798,122.509678 C1337.9788,130.535295 1328.7898,138.838641 1320.1098,147.221719 C1304.0128,162.676296 1285.0088,176.542227 1266.7438,190.010831 C1261.9448,193.466517 1257.2638,196.923531 1252.5288,200.420412 C1236.8288,212.299041 1222.4438,224.774326 1209.0288,236.534023 L1206.1188,239.077451 C1200.5258,244.123111 1194.7028,249.327569 1186.4848,252.26766 C1183.5158,253.300179 1181.0068,253.777903 1178.8338,253.777903 C1175.6428,253.777903 1172.7838,252.705517 1169.4758,250.201291 C1162.0528,244.639371 1156.9138,238.043602 1151.5548,231.0917 L1149.0998,227.952946 C1136.3688,211.861848 1125.0048,198.671639 1113.3108,186.434884 C1092.9278,165.258924 1068.3258,151.353792 1038.2468,143.924167 C1029.9708,141.93753 1022.4368,139.235304 1015.8138,135.898551 C1006.8538,131.369151 1003.1418,124.17872 1005.8818,116.669363" id="Fill-26" fill="#FFFFFF"></path>
                        <g id="Group-30" transform="translate(120.000000, 152.153829)">
                            <mask id="mask-18" fill="white">
                                <use xlink:href="#path-17"></use>
                            </mask>
                            <g id="Clip-29"></g>
                            <path d="M411.7074,79.5729974 C397.3224,73.4144217 382.4244,68.0119641 367.7554,62.3304472 C348.6334,55.0197547 330.9944,46.200148 315.9254,34.6789804 C305.9364,27.0108261 296.1184,19.1041424 285.7864,11.6353162 C277.1104,5.31860685 267.0074,0.828407833 254.2204,0.391879162 C253.4794,0.35201353 252.7364,0.35201353 252.0514,0.35201353 C230.2474,0.35201353 211.8094,13.4226254 203.0754,27.6865485 C194.2284,41.988344 193.3724,57.1253245 197.3114,72.3427006 C199.9934,82.8320128 203.9894,93.2003993 207.4144,103.609316 C210.2684,112.509318 211.2964,121.647185 209.9834,130.744523 C208.1564,143.300868 204.6174,155.57616 199.7654,167.614252 C192.0594,187.044097 184.9244,206.628753 172.2524,224.708482 C168.0284,230.745467 163.0624,236.50738 156.2694,240.994257 C145.9374,247.629891 133.7794,252.039695 120.4804,254.663518 C96.7344,259.273313 72.1894,259.033455 47.9864,260.941026 C37.1984,261.816741 26.3524,262.686476 16.2494,266.103625 C7.4594,269.045709 -0.8176,274.688689 0.6664,283.545504 C1.6944,290.143266 4.7194,296.063976 9.1144,301.742171 C16.6494,311.120561 25.6114,319.659115 34.9154,328.004321 C54.6654,345.921265 73.3874,364.159127 80.9794,387.279865 L142.9694,387.279865 C147.0224,373.732194 153.9294,361.05891 162.0344,348.626812 C172.4234,332.970914 183.8404,317.674471 196.1694,302.81655 C216.0904,278.658641 237.0394,255.021644 266.4934,236.389112 C281.7344,226.771528 298.0594,218.350578 315.6394,211.198019 C339.1004,201.583757 364.6154,196.258373 390.2454,191.01405 C411.4224,186.804239 425.5214,176.633187 433.9124,161.9334 C440.8184,149.855442 446.1844,137.460553 447.0984,124.110217 C447.8974,113.184376 445.5564,103.05319 435.8524,94.472113 C428.9454,88.5128654 420.7834,83.505742 411.7074,79.5729974 M444.7574,124.03115 C443.9584,135.43405 439.9634,146.915352 431.7424,161.338073 C423.2954,176.077062 409.1384,185.534518 389.5604,189.46527 C365.7004,194.354125 338.6444,199.834321 314.4414,209.770165 C296.9744,216.917408 280.3064,225.461278 264.8954,235.196465 C234.6414,254.345921 213.3504,278.699836 194.1714,302.019237 C181.7844,316.881145 170.3124,332.29652 159.9234,347.950425 C150.7324,362.052228 144.6824,374.089656 141.0864,385.652682 L82.8054,385.652682 C74.9294,362.886084 56.5494,344.927946 36.7414,327.051532 C28.0074,319.142855 18.8754,310.521912 11.1694,300.99004 C6.6024,295.066007 3.9204,289.306087 3.0074,283.349497 C1.4654,274.330563 11.2834,269.602499 17.2774,267.53613 C26.9244,264.277779 37.5984,263.443923 48.2724,262.568208 C55.7494,261.97421 63.4554,261.575554 70.8764,261.177562 C87.4304,260.306498 104.5544,259.431447 121.1084,256.250834 C135.3204,253.4722 147.7074,248.703606 157.8674,242.186239 C165.8024,236.94258 171.0534,230.111604 174.3644,225.420083 C185.9514,208.895114 193.0294,190.85658 199.9364,173.375501 L201.9914,168.05211 C207.1854,155.259229 210.5534,143.10154 212.3234,130.903985 C213.5794,122.004647 212.7224,112.707317 209.6974,103.292384 C208.6704,100.114429 207.5284,96.9351446 206.4444,93.7565249 C203.9894,86.6451605 201.4784,79.2952669 199.5944,72.0643056 C195.3704,55.6164103 197.1964,41.313286 205.2454,28.3217409 C213.2364,15.210599 230.8174,1.9805246 252.0514,1.9805246 C252.7364,1.9805246 253.4214,1.9805246 254.1064,2.02039023 C265.0084,2.37785206 274.5414,5.79433672 284.0734,12.7475674 C291.2094,17.9128244 298.2304,23.3551476 305.0234,28.6400016 C308.0484,31.0233019 311.1304,33.4072667 314.2134,35.7905671 C328.1974,46.4386774 345.3224,55.6164103 366.6134,63.7609589 C370.4374,65.2306719 374.2624,66.6611837 378.0864,68.1308966 C388.8184,72.2231037 399.8914,76.4349078 410.4514,80.9636436 C419.5284,84.8970526 427.4624,89.7845791 434.0264,95.5052973 C442.2464,102.736258 445.6704,111.794394 444.7574,124.03115" id="Fill-28" fill="#FFFFFF" mask="url(#mask-18)"></path>
                        </g>
                        <path d="M638.6757,392.436152 L636.6237,392.436152 C622.0117,392.436152 612.1327,399.58406 609.9057,407.611005 C606.6557,419.490963 608.9357,430.654669 619.4397,440.430386 C623.1507,443.924609 628.3477,445.751784 633.7127,445.751784 C637.4777,445.751784 641.2477,444.840854 644.6727,443.009028 C657.3447,436.215924 663.6227,426.683387 665.0487,415.398091 C666.7617,401.097625 656.5437,392.436152 638.6757,392.436152 M662.7107,415.279823 C661.2847,426.683387 654.7207,435.581396 643.2467,441.700107 C640.3357,443.290081 637.0797,444.084071 633.7127,444.084071 C628.9727,444.084071 624.4657,442.415695 621.3277,439.433081 C611.7937,430.576931 608.8247,420.247081 612.1907,407.927272 C614.0737,401.215893 622.5257,394.022804 636.6237,394.022804 C637.2497,394.022804 637.8807,394.022804 638.6757,394.103864 C646.2097,394.103864 652.3767,395.772241 656.5437,398.872458 C661.3957,402.606539 663.5647,408.245533 662.7107,415.279823" id="Fill-31" fill="#FFFFFF"></path>
                        <path d="M1121.4105,435.898395 C1126.0935,435.263867 1131.0025,434.470541 1135.1125,432.720439 C1147.1595,427.435585 1148.6965,422.826454 1143.8445,414.762301 C1142.0745,411.821546 1140.0215,409.042912 1137.2225,406.577887 C1129.4015,399.746911 1121.5865,392.911948 1113.7645,385.999248 C1097.2125,371.296802 1083.3935,355.365167 1075.0065,337.049567 C1067.9285,321.397655 1066.5545,305.187625 1067.2965,291.67982 C1067.2965,283.018347 1067.6415,277.217898 1067.2965,271.378247 C1066.6135,261.96132 1064.7305,252.744386 1058.5115,244.242376 C1054.8595,239.236581 1049.8315,234.984911 1043.5545,232.00562 C1038.8725,229.780453 1034.0795,228.667538 1029.4555,228.667538 C1020.1505,228.667538 1011.5875,233.117871 1006.6775,242.096276 C1002.2285,250.320556 1001.8265,259.180028 1001.2015,267.8023 C1000.1715,280.634382 1001.3115,293.427263 1000.1715,306.339742 C998.4595,324.814804 998.8565,343.327075 998.8565,361.801473 C998.8045,371.777183 997.2035,381.590109 994.9235,391.403034 C992.1815,403.55873 986.9275,415.198165 982.8765,427.159184 C980.0825,435.344927 975.8555,443.290147 976.3705,452.028694 C976.7675,458.387927 981.7945,462.122672 990.4695,462.358543 C991.5505,462.439604 992.6375,462.439604 993.7235,462.439604 C1012.8445,462.439604 1030.4265,457.748748 1047.9505,452.822684 C1071.9785,446.068782 1096.1825,439.832468 1121.4105,435.898395 M993.7235,460.772556 L990.5795,460.772556 C981.2225,460.492167 978.9355,455.845164 978.7085,451.95162 C978.3705,445.515314 980.6485,439.63314 983.0455,433.354967 C983.7365,431.410189 984.5315,429.462088 985.1615,427.553189 C986.4715,423.501512 987.9555,419.531559 989.4395,415.556292 C992.4105,407.810399 995.3785,399.823984 997.2615,391.638906 C999.8855,380.198134 1001.1415,370.702805 1001.2015,361.801473 L1001.2015,352.981202 C1001.0835,337.688081 1001.0835,321.91458 1002.5105,306.459339 C1003.1405,299.704772 1003.0825,292.871138 1003.0825,286.276698 C1003.0235,280.237055 1003.0235,273.999412 1003.4795,267.881367 L1003.5975,266.132594 C1004.2225,258.227904 1004.8535,250.121892 1008.8465,242.653066 C1013.1885,234.785583 1020.7225,230.296713 1029.4555,230.296713 C1033.6235,230.296713 1038.0725,231.369099 1042.1855,233.3564 C1048.0085,236.097163 1052.8015,240.030572 1056.4545,244.957964 C1062.9025,253.816772 1064.3335,263.312765 1064.9005,271.456649 C1065.1865,275.231925 1065.1285,278.96667 1065.0765,283.653539 C1065.0165,286.117235 1065.0165,288.740394 1065.0165,291.639954 C1063.9895,308.525707 1066.6135,323.980284 1072.7805,337.529948 C1080.4845,354.295439 1093.2735,370.462946 1111.9355,387.033096 C1119.0145,393.310604 1126.0935,399.424664 1133.1715,405.625763 L1135.3395,407.569877 C1137.7365,409.67744 1139.6775,412.138478 1141.6765,415.398158 C1146.2995,423.107507 1144.5865,426.642259 1133.8545,431.329129 C1130.0335,432.960962 1125.1815,433.754288 1120.8955,434.311078 C1094.3535,438.441158 1068.6705,445.234926 1047.0905,451.313106 C1027.8535,456.715563 1011.7045,460.772556 993.7235,460.772556" id="Fill-33" fill="#FFFFFF"></path>
                        <path d="M500.7694,254.015369 C490.2094,245.910686 477.5384,240.03117 464.2954,234.865913 C445.7434,227.55522 426.9644,220.523587 409.4404,211.862114 C403.7314,209.00109 397.8524,206.34006 391.4594,204.194624 C387.8064,203.002642 384.3814,202.406651 381.2994,202.406651 C372.2804,202.406651 366.2294,207.293513 365.7154,215.954986 C365.3734,221.118914 366.1724,226.244305 367.4284,231.289965 C371.0814,247.97639 370.7394,264.38442 365.0874,280.832979 C359.7224,296.606481 351.8454,311.782663 346.7654,327.675097 C344.0254,336.455503 341.7984,345.316304 342.1984,354.372446 C342.5984,363.192717 347.9074,367.802513 357.4964,367.802513 C359.6654,367.802513 362.0624,367.525447 364.6884,367.045066 C376.9614,364.702296 387.6344,359.775568 398.3094,355.048169 C418.9154,345.869772 439.2364,336.337234 459.5004,326.840577 C472.9714,320.602934 486.2144,314.245695 497.2884,305.505155 C507.6194,297.401136 514.0124,288.222739 513.3274,276.423841 C514.1844,267.643435 508.9894,260.372608 500.7694,254.015369 M495.5184,304.472635 C484.7874,312.895578 471.7724,319.212952 458.1874,325.489796 C438.3804,334.786461 417.8884,344.401387 397.0534,353.656194 L394.7694,354.690043 C385.1234,358.981578 375.1344,363.391381 364.0604,365.500273 C361.6634,365.894278 359.4364,366.134801 357.4964,366.134801 C349.2194,366.134801 344.8814,362.160198 344.5394,354.295373 C344.1394,345.194713 346.4794,336.297369 349.0484,328.07176 C351.7314,319.689347 355.2134,311.34547 358.6384,303.280652 C361.6634,296.130087 364.8024,288.660596 367.3714,281.191106 C372.8514,265.219605 373.6504,248.810911 369.7114,231.01157 C368.2844,225.251651 367.7704,220.483721 368.0564,215.994187 C368.5134,208.524696 373.4214,204.035826 381.2994,204.035826 C384.0964,204.035826 387.1784,204.591952 390.4324,205.664337 C395.9124,207.492176 401.3924,209.835611 408.0704,213.173693 C423.1964,220.642519 439.5214,227.039625 455.2194,233.197536 L463.1534,236.296424 C473.8844,240.507564 487.6984,246.42761 499.0574,255.12762 C507.7904,261.921388 511.7294,268.835418 510.9874,276.502907 C511.6154,286.753026 506.6494,295.652364 495.5184,304.472635" id="Fill-35" fill="#FFFFFF"></path>
                        <g id="Group-39" transform="translate(198.000000, 441.844088)">
                            <mask id="mask-20" fill="white">
                                <use xlink:href="#path-19"></use>
                            </mask>
                            <g id="Clip-38"></g>
                            <path d="M39.683,0.966542248 C35.801,0.330685417 31.92,0.013753643 28.039,0.013753643 C22.73,0.013753643 17.478,0.571872491 12.227,1.52333224 C5.777,2.79703918 0.811,7.56496877 0.811,12.1701137 C0.811,17.0968414 1.895,18.5698765 9.944,24.5264663 C15.823,28.8585317 22.502,30.9255647 28.894,30.9255647 C37.8,30.9255647 46.134,26.8732232 50.928,19.1638744 C56.122,10.7422596 51.271,2.87411274 39.683,0.966542248 M48.759,18.5293464 C44.535,25.3636446 37.285,29.2943959 28.894,29.2943959 C22.844,29.2943959 16.908,27.2685574 11.656,23.4162085 C3.665,17.4961621 3.151,16.5035079 3.151,12.1701137 C3.151,8.19949675 7.489,4.14781968 12.798,3.11397096 C18.163,2.15786022 23.129,1.68279477 28.039,1.68279477 C31.806,1.68279477 35.573,1.96318305 39.17,2.55718096 C43.736,3.27343349 47.16,5.09927943 49.101,7.7244313 C51.327,10.7422596 51.213,14.595273 48.759,18.5293464" id="Fill-37" fill="#FFFFFF" mask="url(#mask-20)"></path>
                        </g>
                        <g id="Group-42" transform="translate(773.000000, 0.000000)">
                            <mask id="mask-22" fill="white">
                                <use xlink:href="#path-21"></use>
                            </mask>
                            <g id="Clip-41"></g>
                            <path d="M12.6625,19.3706441 C14.6615,20.1652991 16.5435,20.6024922 18.3665,20.6024922 C20.8805,20.6024922 23.2765,19.7679716 25.6735,18.0597293 C33.6105,12.4180779 36.2945,2.16729508 30.6425,-4.90420361 C27.7305,-8.6781501 23.5055,-12.2142317 16.7125,-12.6514248 C13.5735,-12.5723579 10.8325,-11.8169042 8.3245,-10.3863924 C-5.9475,-2.63917128 2.2185,15.1595045 12.6625,19.3706441 M9.7515,-9.11600763 C11.9785,-10.3471912 14.2055,-10.942518 16.4845,-11.0229137 C21.3365,-10.7046531 25.1645,-8.52001643 28.5845,-4.10888425 C33.6105,2.12809388 31.5545,11.5436917 23.9605,16.9474781 C22.1385,18.2982586 20.2555,18.9733167 18.3665,18.9733167 C16.9995,18.9733167 15.5165,18.6158548 13.8035,17.979998 C8.4365,15.7953614 3.6435,9.24012263 3.0705,3.04168128 C2.7305,0.0225240821 3.2455,-5.57992607 9.7515,-9.11600763" id="Fill-40" fill="#FFFFFF" mask="url(#mask-22)"></path>
                        </g>
                        <path d="M1369.4301,274.03961 C1355.3901,274.03961 1342.2571,276.383709 1331.0161,283.09841 C1320.9681,289.097524 1314.9201,296.685282 1315.8301,306.37994 C1316.9181,316.908453 1325.3061,324.178615 1338.0361,327.833629 C1346.3131,330.296661 1355.1041,331.488643 1363.8951,331.488643 C1385.3591,331.488643 1407.0441,324.495547 1422.2291,311.94186 C1431.7041,303.995975 1430.5641,294.063453 1421.2601,287.627146 C1406.8161,277.654758 1389.9241,274.198408 1370.9741,274.03961 L1369.4301,274.03961 Z M1420.4061,310.908675 C1406.1331,322.748768 1384.9541,329.820267 1363.8951,329.820267 C1355.1571,329.820267 1346.7691,328.668814 1338.9491,326.324051 C1326.3351,322.668372 1319.1391,315.755672 1318.1701,306.300208 C1317.3751,297.797533 1322.0511,290.607102 1332.5021,284.289728 C1342.3151,278.489279 1354.4211,275.62892 1369.4301,275.62892 L1370.9741,275.62892 C1391.4081,275.827584 1406.8751,279.998858 1419.6051,288.779263 C1428.5081,294.937839 1428.8521,303.837177 1420.4061,310.908675 L1420.4061,310.908675 Z" id="Fill-43" fill="#FFFFFF"></path>
                        <g id="Group-47" transform="translate(390.000000, 448.488360)">
                            <mask id="mask-24" fill="white">
                                <use xlink:href="#path-23"></use>
                            </mask>
                            <g id="Clip-46"></g>
                            <path d="M83.599,2.43040825 C80.403,0.798575052 77.149,0.00591340208 73.839,0.00591340208 C69.443,0.00591340208 64.991,1.47429751 60.824,4.25691863 C53.517,9.18364631 49.18,15.5787581 45.241,22.132668 C38.391,33.7362246 33.025,45.8919203 24.635,57.0190826 C16.186,68.2233184 6.883,79.028898 0.318,90.9453998 L77.264,90.9453998 C78.176,84.98881 78.919,79.106636 80.118,73.2284485 C82.686,59.7206436 88.565,46.7257764 91.591,33.2598303 C93.132,26.7836584 94.502,20.188554 92.104,13.6339797 C90.62,9.4201824 88.85,5.04958028 83.599,2.43040825 M89.307,33.0199721 C87.88,39.2197423 85.825,45.4168548 83.885,51.4172968 C81.601,58.447601 79.204,65.6805555 77.777,72.9872615 C76.921,77.3605213 76.293,81.730459 75.608,86.0997323 L75.151,89.3182176 L3.743,89.3182176 C8.48,81.1730046 14.531,73.4271123 20.411,65.9170916 C22.523,63.2155306 24.635,60.5139696 26.689,57.7306841 C32.397,50.2611935 36.736,42.157175 40.96,34.3700882 C43.015,30.4772092 45.126,26.5843303 47.41,22.7711826 C51.063,16.6524725 55.287,10.2168306 62.422,5.40770654 C66.246,2.90613813 70.071,1.63309561 73.839,1.63309561 C76.692,1.63309561 79.489,2.34868371 82.229,3.78052432 C86.739,6.00569102 88.337,9.74110073 89.821,14.0286495 C92.047,20.0709504 90.906,26.1896605 89.307,33.0199721" id="Fill-45" fill="#FFFFFF" mask="url(#mask-24)"></path>
                        </g>
                        <path d="M68.3807,262.199982 C93.3817,275.628721 119.6387,287.626947 143.6127,302.088869 C154.0587,308.366378 165.1327,313.928298 178.0897,316.947455 C180.7157,317.582647 183.3417,317.901572 185.8527,317.901572 C193.3877,317.901572 200.0667,315.12028 204.7467,310.035419 C207.3157,307.253462 208.6287,304.074842 209.4277,300.857021 C212.4527,289.454786 209.3707,278.251215 207.9437,266.927382 C206.4027,255.604214 205.5457,244.242508 206.5157,232.879475 C207.7157,219.688601 209.1417,206.538923 209.5987,193.348049 C209.9417,182.422873 208.4567,171.695031 202.9767,161.444913 C199.3817,154.611279 193.3307,151.115728 185.0537,151.115728 C182.6567,151.115728 180.0877,151.392794 177.3477,151.988785 C168.3867,153.896356 160.2807,157.154042 152.5177,160.968519 C128.4867,172.887014 104.5127,184.766308 80.6527,196.844265 C72.2617,201.095271 63.9847,205.54494 57.2497,211.226456 C42.0087,224.218002 38.0697,237.249412 53.7097,251.9492 C57.9917,255.922474 62.9577,259.259892 68.3807,262.199982 M59.0757,212.258976 C65.8107,206.578124 74.0887,202.16832 82.0227,198.155845 C104.8547,186.634013 128.1437,175.033114 150.6907,163.868743 L153.8877,162.278769 C162.7357,157.948033 170.3847,155.168069 178.0337,153.538894 C180.5447,153.022634 182.8847,152.744239 185.0537,152.744239 C192.3597,152.744239 197.4977,155.763396 200.8087,162.000374 C205.6037,171.019973 207.6577,180.952496 207.2587,193.307519 C206.9157,203.916428 205.8887,214.682807 204.9187,225.172119 L204.1757,232.800408 C203.3197,242.732265 203.7767,253.618241 205.6037,267.046979 C205.9457,269.51001 206.2887,271.89464 206.6877,274.357007 C208.0577,282.939413 209.4277,291.838087 207.1437,300.579291 C206.2307,304.194439 204.8607,306.896665 202.7487,309.161697 C198.5817,313.7695 192.5317,316.312262 185.8527,316.312262 C183.5697,316.312262 181.2287,315.994002 178.8317,315.437876 C165.1327,312.259921 153.6587,305.983077 145.1547,300.857021 C129.8567,291.679288 113.4177,283.33674 97.5487,275.232058 C88.4157,270.622926 78.9397,265.77593 69.8067,260.889068 C64.1557,257.830045 59.4757,254.572358 55.5937,250.995747 C41.8377,238.004201 42.8647,226.045841 59.0757,212.258976" id="Fill-48" fill="#FFFFFF"></path>
                        <path d="M842.1732,229.54219 C832.5812,222.232162 822.0782,215.716124 812.0892,208.764222 C790.2272,193.427914 769.7932,176.979354 749.9842,160.213198 C735.7742,148.17577 720.5892,137.130997 701.6392,129.343246 C690.6792,124.734779 679.0362,121.397361 666.3642,120.841235 C665.6802,120.80137 664.9382,120.80137 664.2482,120.80137 C658.0282,120.80137 652.2652,122.032553 648.2672,126.205156 C643.8722,130.773757 646.0402,135.183561 648.9512,139.593364 C652.0902,144.401159 655.3462,149.088693 659.9692,153.141699 C680.4622,171.377568 696.6712,191.401411 708.0332,213.689621 C715.5682,228.111013 725.8382,241.420155 741.1402,252.148661 C755.8632,262.517711 772.4182,270.94132 790.5712,277.655356 C799.3622,280.833312 808.6102,283.256478 818.5412,283.65447 C819.0552,283.693671 819.5692,283.733536 820.0262,283.733536 C822.7672,283.733536 825.4442,283.178075 828.1272,282.700352 C849.7652,279.284532 863.6362,261.564258 856.6152,246.466479 C853.4712,240.030837 848.5672,234.429052 842.1732,229.54219 M850.7362,268.636422 C845.4232,275.072728 836.9762,279.601464 827.5602,281.111707 L826.6482,281.270505 C824.3622,281.668497 822.1942,282.06516 820.0262,282.06516 C819.5692,282.06516 819.2252,282.06516 818.7112,282.025294 C810.3222,281.668497 801.7012,279.840657 791.5952,276.224845 C773.4452,269.510143 757.0092,261.008133 742.7352,250.995879 C729.1522,241.461349 718.5312,229.065131 710.2022,213.133495 C699.1262,191.401411 682.8592,170.861308 661.7932,152.14838 C657.2862,148.17577 654.0302,143.447042 651.0672,138.918306 C647.9232,134.150376 646.7832,130.694026 650.2082,127.118743 C653.2882,123.900258 657.7422,122.430545 664.2482,122.430545 C664.9382,122.430545 665.5632,122.430545 666.1892,122.469746 C677.2652,122.946805 688.1082,125.569299 700.4992,130.733892 C720.4782,138.998037 735.8272,150.7976 748.2182,161.246382 C771.6232,181.111427 791.3672,196.566003 810.4342,209.915675 C813.9762,212.378042 817.5122,214.762671 821.1662,217.145971 C827.5602,221.516573 834.2352,225.966242 840.4612,230.654441 C846.8552,235.501437 851.5302,241.024156 854.3892,246.983404 C857.6392,253.936634 856.2712,261.841989 850.7362,268.636422" id="Fill-50" fill="#FFFFFF"></path>
                    </g>
                </g>
            </g>
        </g>
    </g>
</svg>