<?xml version="1.0" encoding="UTF-8"?>
<svg width="334px" height="433px" viewBox="0 0 334 433" version="1.1" xmlns="http://www.w3.org/2000/svg" xmlns:xlink="http://www.w3.org/1999/xlink">
    <!-- Generator: Sketch 62 (91390) - https://sketch.com -->
    <title>Group 29</title>
    <desc>Created with Sketch.</desc>
    <defs>
        <polygon id="path-1" points="0.431219674 0.191264638 94.6472922 0.191264638 94.6472922 133.486779 0.431219674 133.486779"></polygon>
        <polygon id="path-3" points="0.103194009 0.191264638 35.0966262 0.191264638 35.0966262 352.54744 0.103194009 352.54744"></polygon>
        <polygon id="path-5" points="0.431219674 0.191264638 333.397736 0.191264638 333.397736 344.995307 0.431219674 344.995307"></polygon>
        <polygon id="path-7" points="0.296953548 0.363893234 122.075594 0.363893234 122.075594 70.059869 0.296953548 70.059869"></polygon>
        <polygon id="path-9" points="0.159722996 0.325395095 251.318991 0.325395095 251.318991 291.975891 0.159722996 291.975891"></polygon>
        <polygon id="path-11" points="0.605790138 0.0129961869 33.966619 0.0129961869 33.966619 24.6958203 0.605790138 24.6958203"></polygon>
        <polygon id="path-13" points="0.509929515 0.00508812979 60.0097931 0.00508812979 60.0097931 18.5655435 0.509929515 18.5655435"></polygon>
    </defs>
    <g id="Page-1" stroke="none" stroke-width="1" fill="none" fill-rule="evenodd">
        <g id="1" transform="translate(-301.000000, -3648.000000)">
            <g id="Group-27" transform="translate(300.000000, 3540.000000)">
                <g id="Group-18" transform="translate(0.000000, 108.000000)">
                    <g id="Group-29" transform="translate(167.500000, 217.000000) scale(-1, 1) translate(-167.500000, -217.000000) ">
                        <path d="M329.091997,433 L4.90800251,433 C2.19755812,433 0,430.799907 0,428.086337 L0,4.91366336 C0,2.19947856 2.19755812,0 4.90800251,0 L329.091997,0 C331.802442,0 334,2.19947856 334,4.91366336 L334,428.086337 C334,430.799907 331.802442,433 329.091997,433" id="Fill-1" fill="#F9C396"></path>
                        <g id="Group-28">
                            <g id="Group-5">
                                <mask id="mask-2" fill="white">
                                    <use xlink:href="#path-1"></use>
                                </mask>
                                <g id="Clip-4"></g>
                                <path d="M24.5560003,133.413215 C34.9904139,133.303483 44.988095,130.590836 54.0002187,125.275886 C79.9052505,109.806132 91.5806457,84.9539897 93.9884931,54.2357854 C94.7547655,44.1919398 94.9005472,34.0745309 94.1704139,23.9571219 C93.4047539,13.5105172 93.3686148,3.06268632 91.872209,-7.34713681 C90.7053433,-15.1552704 89.1360467,-22.7801088 82.9335887,-28.4610364 C78.6281298,-32.5303141 73.5563984,-34.3264852 68.2292428,-35.6095522 C55.0219153,-38.9082542 41.5224119,-40.2281028 27.9487926,-40.2648844 C24.1909337,-40.2648844 20.4336873,-40.3010531 16.6746033,-40.3010531 C10.3263636,-40.3010531 3.978124,-40.1913211 -2.40686731,-39.568485 L-2.40686731,-13.8722035 L-2.40686731,16.8460008 L-2.40686731,82.1671658 L-2.40686731,109.990653 L-2.40686731,132.680647 C3.978124,133.303483 10.3631153,133.486779 16.7474941,133.486779 C19.3384873,133.486779 21.9656196,133.45061 24.5560003,133.413215 L24.5560003,133.413215 Z M-0.911074066,18.3859263 C-0.68321367,18.3920566 -0.459028442,18.3920566 -0.23300563,18.3963478 C0.666797922,18.6495282 1.64684263,18.6403328 2.6281124,18.6789536 C3.79559067,18.7151222 4.96306893,18.7151222 6.16729887,18.7151222 L7.95465542,18.7151222 C11.8589085,18.7151222 15.7631617,18.7519039 19.6300506,19.375353 C39.9169761,23.0038639 52.7230979,39.4630442 52.0303288,61.4204699 C51.5923713,74.8359677 43.6380834,84.6235678 31.4518399,86.6404288 C30.1018283,86.8592797 28.7156776,86.9696247 27.3289143,86.9696247 C25.5048061,86.9696247 23.716837,86.7863294 21.8927288,86.5294708 C15.2523134,85.5768258 8.79443123,83.5973594 2.3365491,81.5443297 C1.49677329,81.2880841 0.657610002,80.9582752 -0.144801606,80.9582752 C-0.360411443,80.9582752 -0.569896001,80.9815703 -0.77570539,81.0299995 C-0.821032458,81.0183519 -0.865746998,81.0054784 -0.911074066,80.9950569 L-0.911074066,18.3859263 Z M-0.911074066,82.7544463 C-0.838183241,82.6900784 -0.766517471,82.6391971 -0.698526869,82.5999634 C0.285805539,82.8519177 1.24992453,83.1106154 2.22629407,83.4134511 C10.6914303,86.0169797 19.0830631,88.8025775 27.9855443,88.8025775 C28.4228892,88.8025775 28.8608467,88.7657958 29.2988042,88.7657958 C39.8434728,88.3992053 48.9284873,81.2145208 52.2122496,70.5846207 C58.9255559,48.2599915 45.0609858,23.1509905 23.4981646,18.312363 C17.6601607,16.9931274 11.8221569,16.9189511 5.98476554,16.9189511 L3.21123901,16.9189511 C2.1393151,16.9189511 1.05759075,16.9146599 -0.024746129,16.9005603 C-0.363474083,16.7822459 -0.652587273,16.606307 -0.911074066,16.3328966 L-0.911074066,-12.3696726 L-0.874934917,-12.3696726 L-0.228105407,-12.3696726 C0.340933055,-12.2102854 0.944885609,-12.1489827 1.57027664,-12.1489827 L2.99256653,-12.1489827 C8.42936458,-12.1489827 13.8294109,-11.7823921 19.3017356,-11.4893649 C28.022296,-11.0130424 36.5229588,-9.76614406 44.6965317,-6.39387876 C55.8243269,-1.95923648 63.7786148,6.36261435 68.4485278,17.9825541 C73.4106167,30.3724567 74.9070225,43.531709 74.6877375,56.9852146 C74.4684525,67.247911 72.4985626,76.8889974 67.8286496,85.7607341 C58.961695,102.622061 45.8272583,111.82238 27.3289143,111.896556 L26.8548177,111.896556 C18.5354631,111.896556 10.4727578,109.953259 2.29979742,108.670192 C1.71544576,108.597241 1.13231916,108.523678 0.584719177,108.523678 C0.138186305,108.523678 -0.295483481,108.577625 -0.712615012,108.714943 C-0.730378322,108.712491 -0.747529105,108.709426 -0.764679887,108.706973 L-0.911074066,108.706973 L-0.911074066,82.7544463 Z M-0.911074066,110.539313 C-0.797143868,110.42529 -0.670963112,110.33824 -0.536819491,110.264677 C2.80574551,110.755099 6.12380939,111.24736 9.41430951,111.896556 C15.1426709,113.032497 20.9077839,113.912191 26.6716719,113.912191 C29.5548409,113.912191 32.4006457,113.692728 35.245838,113.17901 C56.2255327,109.365978 68.484667,94.81454 74.0678592,73.8097594 C78.3359539,57.9378596 76.9498032,41.8458828 72.9359076,26.083102 C68.0105704,7.02161911 56.9924177,-5.40445208 39.0043095,-10.2798613 C26.3807211,-13.7624715 13.5372351,-13.8722035 0.620858326,-13.8722035 L-0.0161707378,-13.8722035 C-0.368986834,-13.9960351 -0.663612776,-14.1738131 -0.911074066,-14.4220893 L-0.911074066,-38.2118547 C5.25524476,-38.7249589 11.4209511,-38.7985222 16.6746033,-38.7985222 L22.2939346,-38.7985222 L27.9487926,-38.7617406 C42.5428834,-38.7249589 55.6050419,-37.222428 67.8647887,-34.14319 C72.6443443,-33.0066366 77.6799365,-31.3943738 81.9118921,-27.3618777 C87.7492834,-22.010146 89.2450767,-14.7518982 90.3764158,-7.12705987 C91.3987249,-0.27279732 91.7264274,6.80154217 92.091494,13.5834675 C92.2372757,17.1028594 92.4191965,20.5848567 92.6752332,24.0674669 C93.3686148,33.63499 93.2951114,43.4587587 92.4926998,54.1254404 C89.9384583,86.8966744 77.0961974,109.733795 53.2333337,123.992819 C44.5139984,129.124473 34.8446322,131.800339 24.5198612,131.910684 C21.928868,131.946853 19.3384873,131.984248 16.7474941,131.984248 C9.96129697,131.984248 4.30643897,131.764171 -0.911074066,131.324017 L-0.911074066,110.539313 Z" id="Fill-3" fill="#FFFFFF" mask="url(#mask-2)"></path>
                            </g>
                            <g id="Group-8" transform="translate(298.301109, 0.000000)">
                                <mask id="mask-4" fill="white">
                                    <use xlink:href="#path-3"></use>
                                </mask>
                                <g id="Clip-7"></g>
                                <path d="M349.216147,158.670078 C355.492721,158.670078 361.694567,159.47621 367.821684,161.125867 C389.424932,167.063654 403.360555,182.825821 414.016091,202.768225 C424.450505,222.378981 427.843297,243.896252 429.483647,265.926628 C430.3614,277.693082 432.551187,289.056163 437.87528,299.613113 C442.836144,309.291594 450.0995,315.596584 459.839919,318.490687 C461.66709,319.042412 463.344192,319.260037 464.947177,319.260037 C471.186387,319.260037 475.969005,315.337273 478.741307,308.264772 C482.607583,298.36744 483.702783,287.736927 485.526279,277.363273 C489.176333,255.772438 496.909498,236.197851 509.60904,219.006102 C519.932586,205.113669 532.777297,193.897101 545.218965,182.276549 C554.704572,173.29508 563.387156,163.618438 571.63362,153.318347 C579.662636,143.31067 587.466855,133.230656 595.787434,123.516006 C607.209243,110.209627 620.158084,98.5903001 633.257606,87.2633876 L633.257606,35.2112068 C632.053989,33.0478321 631.617256,30.4823112 630.085324,28.3557182 C625.777415,22.1978551 621.435817,16.149724 617.277365,9.9176845 C606.185096,-6.57766446 591.554254,-17.6845001 573.602285,-24.0998348 C564.811284,-27.2152415 555.870213,-29.6710304 547.116576,-32.7134868 C534.455011,-37.1493551 525.805504,-45.4331982 523.400107,-59.9858625 C523.033815,-61.9285472 522.704275,-63.9086266 521.134978,-65.2278622 L491.03658,-65.2278622 L404.200943,-65.2278622 L372.750084,-65.2278622 C374.535603,-61.1224158 376.213317,-56.9434061 378.185657,-52.91091 C385.628484,-37.6256776 397.083981,-27.7283457 412.846775,-23.4389909 C425.033631,-20.0673387 437.512663,-21.3859612 449.841626,-20.7269565 C459.331521,-20.0673387 468.743013,-19.7736984 477.93767,-17.5012048 C490.779318,-14.3484034 499.648723,-6.5408828 503.548689,7.09530504 C506.178884,16.2594559 506.578864,25.6798523 505.884258,35.0272985 C505.338495,42.7618688 503.878229,50.3131438 500.231237,57.1680194 C490.27092,75.5331028 474.362344,81.9846062 455.680855,81.9846062 L455.535686,81.9846062 C444.589199,81.8748742 433.936725,78.7588545 424.155879,73.0399192 C413.978115,67.0653514 403.980433,60.7603616 393.691189,54.9316944 C387.014634,51.1566699 380.375444,49.3237171 373.732578,49.3237171 C365.927747,49.3237171 358.190294,51.889238 350.52757,56.9117738 C341.369664,62.850173 334.364795,70.9875025 328.308119,80.29878 C320.100244,92.8345832 314.114621,106.72763 307.766994,120.399986 C305.869382,124.396314 303.825377,128.391415 301.310949,132.093489 C296.312109,139.351737 290.109651,144.704082 281.498733,146.390521 C277.922795,147.049526 274.455274,147.379948 271.02573,147.379948 C260.628068,147.379948 250.738805,144.37366 241.289336,138.691506 C231.366996,132.643375 222.900634,124.396314 214.325856,116.404885 C203.711359,106.434602 192.835313,96.8670793 181.963554,87.2633876 C171.311081,77.8423781 161.167618,67.9450461 152.847651,55.9579028 C145.038532,44.6316032 139.494542,31.8383285 132.563788,19.9253615 C123.369131,4.27292557 110.744318,-6.39375615 94.2863042,-11.8190512 C91.039906,-12.8820412 87.7935079,-13.3957584 84.5838615,-13.3957584 C74.8060779,-13.3957584 65.537305,-8.55774388 59.1161746,0.0209655468 C54.2631157,6.43568725 49.9944084,13.2537812 45.8714828,20.0350934 C37.8087775,33.1213954 29.4165321,45.8043252 19.6013843,57.4616597 C15.551962,62.2635055 11.6477089,67.1750834 8.36394659,72.6733287 C1.2494345,84.5507401 -1.23252873,97.4531338 0.774725346,111.492694 C2.92776107,126.815321 8.5832316,140.231432 18.6893302,151.411218 C26.752648,160.282341 37.0418925,165.634073 47.8419852,169.886033 C59.4077379,174.432246 71.4475872,177.144894 83.1603466,181.287122 C96.2218925,185.868891 106.108094,194.812965 113.991328,206.652368 C119.973276,215.596442 124.060063,225.787415 128.804704,235.538846 C132.70957,243.529049 137.450536,250.93381 143.469848,257.458877 C152.922379,267.79575 164.306211,275.567102 174.449674,284.988111 C182.986476,292.942145 190.866648,301.48346 198.271498,310.574661 C206.846277,320.982645 214.217438,332.457297 222.025945,343.60214 C226.221761,349.578547 231.000091,352.54744 236.547757,352.54744 C238.371865,352.54744 240.270089,352.250122 242.313483,351.594182 C255.008737,347.340996 265.810055,340.047806 273.981177,328.573154 C281.643902,317.796127 286.934306,305.625688 292.590389,293.675327 C303.754323,269.92173 309.519436,244.84951 309.261562,218.125795 C309.190509,207.386163 309.664605,196.498791 311.271879,185.758546 C313.386325,171.572472 319.879734,163.471311 332.94128,160.46625 C338.343776,159.256133 343.817939,158.670078 349.216147,158.670078 L349.216147,158.670078 Z M488.955823,-63.7247183 C488.915396,-63.6174385 488.868231,-63.5169019 488.827192,-63.4114612 C488.332269,-62.8296979 487.912075,-62.1651759 487.569672,-61.3786614 C484.943152,-55.5138255 480.671995,-51.4451608 474.944859,-49.2088358 C466.041765,-45.9101338 457.067618,-44.1501313 448.01813,-44.1501313 C441.595775,-44.1501313 435.102978,-45.0666077 428.608957,-46.9363421 C420.034791,-49.392131 412.555212,-53.9377313 407.6311,-62.2221875 C407.380576,-62.6286248 407.091463,-62.9682422 406.780299,-63.2735299 C406.700058,-63.4255608 406.614304,-63.5714614 406.5359,-63.7247183 L488.955823,-63.7247183 Z M309.773023,185.538469 C308.349508,195.105992 307.695941,205.773287 307.766994,218.163189 C307.987504,244.372575 302.585007,268.859353 291.204851,293.015096 L289.123481,297.487746 C284.34515,307.750442 279.379386,318.381568 272.740196,327.694685 C265.151587,338.396309 255.008737,345.727507 241.801409,350.125981 C239.978526,350.786825 238.188719,351.079852 236.547757,351.079852 C231.511552,351.079852 227.170567,348.331649 223.265701,342.71938 C221.297649,339.897614 219.324696,337.077687 217.355419,334.218526 C211.698723,325.934682 205.825805,317.42831 199.40345,309.620177 C191.52389,299.943535 183.678633,291.512565 175.469533,283.88834 C171.456862,280.149484 167.18693,276.666873 163.06523,273.257826 C156.788656,268.015827 150.257883,262.664095 144.563823,256.432669 C138.982468,250.383924 134.278866,243.308359 130.154103,234.878615 C128.950486,232.386045 127.78117,229.856079 126.615529,227.32734 C123.223349,220.068479 119.756441,212.590768 115.231697,205.809455 C106.549114,192.759935 96.2218925,184.292797 83.6718074,179.856928 C78.5277977,178.060757 73.2367813,176.484663 68.1282982,174.981519 C61.5963002,173.038834 54.8474673,171.022586 48.3889727,168.493847 C39.5593823,165.01185 28.3580838,159.842187 19.7839176,150.385622 C10.1886673,139.791891 4.46030599,126.998616 2.27051859,111.27323 C0.263877039,97.4169651 2.70847607,85.0638442 9.64106736,73.4432914 C12.9977205,67.8353142 16.9381128,62.9231233 20.7327234,58.4143047 C31.3502828,45.8411069 40.033479,32.3514327 47.1486036,20.8050562 C50.8703234,14.6833617 55.2848123,7.57224058 60.319792,0.937441937 C66.41322,-7.23728225 75.2813996,-11.9293962 84.5838615,-11.9293962 C87.684478,-11.9293962 90.7863195,-11.416292 93.8122075,-10.3900836 C109.832876,-5.11068921 122.091398,5.04288835 131.286055,20.6953242 C133.87521,25.1673612 136.318584,29.8226934 138.690905,34.3676807 C142.632522,41.8821741 146.719921,49.6903077 151.644646,56.8014289 C160.509763,69.5947036 171.419498,79.9315765 180.943083,88.3993279 L183.969583,91.0384121 C193.675701,99.6158954 203.711359,108.450237 213.305384,117.505269 L215.532536,119.593855 C223.265701,126.852102 231.291655,134.365983 240.561653,139.974573 C250.338824,145.876191 260.590704,148.882478 271.02573,148.882478 C274.564304,148.882478 278.13963,148.552056 281.789071,147.85627 C289.927117,146.279563 296.749454,141.404154 302.551318,132.935789 C304.741106,129.674482 306.747747,126.008576 309.082704,121.024048 L311.854393,115.048254 C317.144797,103.612223 322.580982,91.7354245 329.585852,81.1049114 C336.337747,70.6944753 343.231137,63.3994458 351.330594,58.1580591 C358.810785,53.3194316 366.365092,50.826248 373.732578,50.826248 C380.118182,50.826248 386.577289,52.6592008 392.962281,56.251543 C399.018957,59.661203 405.112385,63.3632772 410.948551,66.8820561 C415.110679,69.3746267 419.269131,71.9039789 423.426971,74.3229862 C433.571046,80.29878 444.371751,83.3774051 455.680855,83.487137 C477.208762,83.487137 492.168532,75.1297306 501.543272,57.8650319 C504.864399,51.6697741 506.687282,44.448308 507.419865,35.1370305 C508.148773,24.3973984 507.382501,15.1229026 505.009568,6.69193282 C501.068563,-6.94425502 492.093803,-15.557907 478.303962,-18.967567 C470.349674,-20.9096387 462.21224,-21.4233559 454.295929,-21.9364601 L449.916967,-22.2301004 C446.2663,-22.4133956 442.473527,-22.4489512 438.86145,-22.4489512 C430.395089,-22.5231276 421.642064,-22.5592962 413.212455,-24.9053532 C398.144267,-29.0114126 386.794737,-38.651886 379.497691,-53.5711408 C378.149517,-56.3567386 376.907923,-59.289463 375.704918,-62.1118425 C375.485021,-62.6617283 375.268186,-63.1748325 375.047676,-63.7247183 L403.726847,-63.7247183 C403.872016,-63.6149864 404.055162,-63.5052544 404.234633,-63.3587408 C404.760182,-63.0068629 405.224478,-62.6746019 405.629359,-62.2969768 C410.865248,-52.5663884 419.495766,-47.5487568 429.412594,-44.7741935 C435.24876,-43.123923 441.01326,-42.4275235 446.853102,-42.4275235 C453.200729,-42.4275235 459.547744,-43.2336549 465.895983,-44.4805532 C476.811231,-46.6592536 485.643272,-51.5003332 490.09145,-62.5777435 C490.47428,-62.9982805 490.914075,-63.3795837 491.436561,-63.7247183 L520.5151,-63.7247183 C521.392853,-62.7352916 521.647052,-61.2689294 521.904926,-59.7296169 C524.273572,-45.5797119 532.373641,-36.305829 546.641255,-31.2839062 C550.837684,-29.817544 555.071477,-28.4976954 559.375098,-27.1784598 C563.899229,-25.7488793 568.569755,-24.282517 573.093886,-22.6696412 C591.225326,-16.2181378 605.273655,-5.25781585 616.037608,10.7605976 C618.993056,15.2332476 622.094285,19.5949395 625.194901,23.9572446 L628.878032,29.2354129 C629.644916,30.2622343 630.085324,31.4717379 630.559421,32.7548049 C630.92265,33.7074499 631.250965,34.6607079 631.763038,35.5771843 L631.763038,86.5663751 C619.979226,96.7573473 606.476659,108.780046 594.618118,122.526579 C588.416273,129.784827 582.433713,137.334876 576.595096,144.666074 C574.550478,147.232821 572.507085,149.798342 570.467367,152.365089 C561.855836,163.142115 553.243693,172.561899 544.194818,181.17739 L539.08756,185.905672 C528.435699,195.802391 517.414484,205.992751 508.40236,218.089626 C496.035421,234.805052 487.860623,254.673279 484.069075,277.105801 C483.702783,279.232394 483.336491,281.358987 483.007564,283.484967 C481.733506,291.586128 480.347355,299.980929 477.355156,307.714274 C475.527985,312.297269 471.95266,317.796127 464.947177,317.796127 C463.489973,317.796127 461.883313,317.536203 460.276652,317.059881 C450.936826,314.274896 444.006072,308.338336 439.227742,298.954721 C434.590905,289.826126 432.001749,279.305958 431.015579,265.81567 C429.483647,246.021619 426.490835,223.001204 415.327514,202.034431 C402.703313,178.501524 387.74293,165.048018 368.22534,159.659505 C362.056571,158.009848 355.638503,157.166322 349.216147,157.166322 C343.742598,157.166322 338.160631,157.789771 332.649717,158.999274 C319.296607,162.079125 311.999562,170.509482 309.773023,185.538469 L309.773023,185.538469 Z" id="Fill-6" fill="#FFFFFF" mask="url(#mask-4)"></path>
                            </g>
                            <g id="Group-11">
                                <mask id="mask-6" fill="white">
                                    <use xlink:href="#path-5"></use>
                                </mask>
                                <g id="Clip-10"></g>
                                <path d="M56.0799348,309.510812 C67.427015,316.98975 77.9355444,325.787924 89.6109396,332.750079 C102.015856,340.118672 115.077401,344.995307 129.197396,344.995307 C131.751637,344.995307 134.34263,344.84818 136.96915,344.517758 C147.368037,343.197297 156.452439,338.872387 163.275388,330.479424 C175.608026,315.449825 181.008072,297.194473 182.211077,277.47276 C183.014101,264.753048 180.715284,252.473491 177.723697,240.230102 C174.330905,226.300887 172.177869,212.151595 172.688717,197.635712 C173.053784,188.03202 173.965838,178.463884 175.42488,168.969924 C178.635751,148.296179 185.750876,129.527723 198.484107,113.435133 C205.635371,104.344546 212.933028,95.2907399 220.193935,86.3104973 C229.387979,74.8364582 238.76517,63.7664042 250.148389,54.8952806 C261.494857,46.0609386 271.491925,36.0538747 279.628134,23.7007538 C286.050489,13.9131537 292.946329,4.63927092 300.607828,-4.19445803 C312.138055,-17.5382317 325.85623,-27.9118862 339.319595,-38.7250815 C347.747979,-45.5070068 353.878159,-54.1206588 356.57757,-65.2281074 L313.488066,-65.2281074 L273.828107,-65.2281074 L240.333241,-65.2281074 L208.189612,-65.2281074 C206.76671,-64.0909411 206.036576,-62.5154599 205.525728,-60.6825071 C202.935347,-50.9684704 197.864228,-42.9034782 190.859359,-36.0859973 C184.473755,-29.8545709 176.920673,-25.6393925 169.587488,-20.910497 C162.436225,-16.2907203 155.431355,-11.4894875 149.739133,-5.00120246 C141.128828,4.7496159 136.384799,16.7355332 133.28357,29.5655896 C129.963668,43.3850727 128.650408,57.6814914 125.950385,71.6100934 C123.286501,85.2830629 118.580449,97.9298241 110.261094,108.963096 C102.526091,119.264414 93.696501,128.318833 84.5385957,137.152561 C73.629473,147.635948 61.2239445,155.846841 48.0166169,162.555203 C32.510472,170.472455 17.0759928,178.538061 2.153587,187.702211 C0.329478782,188.837539 -1.23981781,190.158 -2.40668355,192.101298 L-2.40668355,246.278846 L-2.40668355,288.030322 C-1.16631446,288.32335 0.110193777,288.580208 1.31442372,288.837067 C20.5422885,292.648873 39.1864141,298.40459 56.0799348,309.510812 L56.0799348,309.510812 Z M270.944938,-63.7249635 C270.758117,-63.4895609 270.555982,-63.2682579 270.361811,-63.0408246 C269.522035,-62.3916283 268.707986,-61.6995201 267.881073,-61.0129291 C264.852122,-58.2628869 261.422578,-56.2834205 257.445434,-55.1474802 C256.168926,-54.7441079 254.927332,-54.5608127 253.724327,-54.5608127 C249.527898,-54.5608127 245.879069,-56.9068696 243.799537,-61.3789066 C243.564326,-61.8730069 243.305839,-62.3168389 243.025301,-62.7257284 C242.979974,-62.8391385 242.930972,-62.9531617 242.888095,-63.0647327 C242.814592,-63.2854227 242.704949,-63.5048866 242.632671,-63.7249635 L270.944938,-63.7249635 Z M-0.910890308,192.539613 C-0.0355878736,191.183596 1.16864207,190.084437 2.91985946,188.984665 C18.2808353,179.563043 34.6261435,171.096517 48.6726344,163.91122 C63.2311986,156.506459 75.2716604,148.112883 85.5602923,138.252333 C93.8061435,130.297686 103.292976,120.730776 111.465324,109.880186 C119.236466,99.543313 124.453979,87.1527974 127.409427,71.9037337 C128.540766,66.1492428 129.416681,60.2837939 130.292596,54.6022533 C131.532965,46.4275292 132.810085,37.9971724 134.743836,29.9321802 C138.28241,15.1962207 143.427032,4.41980701 150.870472,-4.01116275 C156.489191,-10.4264975 163.604315,-15.265125 170.390513,-19.6635986 C171.776663,-20.5432934 173.199566,-21.4229881 174.585716,-22.3032959 C180.496611,-26.0053701 186.626178,-29.8545709 191.880443,-35.0230073 C199.469664,-42.3916001 204.395001,-50.6386615 206.949243,-60.2791349 C207.42334,-61.8926238 207.97094,-62.9550008 208.7366,-63.7249635 L239.895284,-63.7249635 C240.616841,-63.2572234 241.204256,-62.7134679 241.696728,-62.0391374 C244.167053,-55.9376728 248.31693,-52.6910782 253.614684,-52.6910782 C255.402654,-52.6910782 257.299653,-53.0576688 259.306907,-53.7908499 C263.98662,-55.542883 268.154873,-58.1384422 271.465586,-62.0109381 C272.328638,-62.6674908 273.208228,-63.2590625 274.155809,-63.7249635 L312.648903,-63.7249635 C312.697293,-63.5919365 312.718731,-63.4601356 312.726081,-63.3277216 C312.69913,-63.2774533 312.677079,-63.2235069 312.648903,-63.1744647 C305.460887,-49.9784307 295.573461,-39.2749673 285.101684,-29.0478265 C272.80641,-17.1342464 258.977979,-8.37346776 243.763398,-1.77545078 C227.089162,5.48279701 215.267985,17.9824315 208.517927,35.907361 C204.248607,47.1968789 200.053403,58.5611861 195.456381,69.7415851 C190.093086,82.6439788 182.320719,93.9708913 175.060426,105.664394 C169.18567,115.085404 164.844685,125.311932 162.7284,136.41938 C158.860286,156.873662 157.510275,177.730703 156.306045,198.514794 C155.248209,217.100567 157.072317,235.465037 161.45128,253.573875 C165.026605,268.602862 165.792878,283.558285 160.721759,298.624054 C155.066288,315.266529 143.354142,324.613363 129.014862,324.613363 C124.891937,324.613363 120.550339,323.805392 116.062346,322.266693 C103.110443,317.574579 92.6754169,308.704681 82.5319541,299.466967 C70.3824623,288.543427 57.7215097,278.498968 43.4924855,270.801792 C29.3590157,263.192893 14.8200524,256.336178 0.888716796,248.225209 C0.152458206,247.562526 -0.430055871,246.809728 -0.910890308,245.912255 L-0.910890308,192.539613 Z M-0.910890308,286.820206 L-0.910890308,248.918543 C-0.580737745,249.113486 -0.246910015,249.302298 0.0850801316,249.496015 C0.551826426,249.887127 1.05471187,250.244522 1.60598702,250.567587 C8.17351165,254.527133 14.8874305,258.265376 21.7459059,261.454346 C45.2069512,272.488231 66.770385,286.490397 85.9614981,304.819312 C95.3386884,313.764612 105.882744,321.204316 118.215382,324.905777 C122.046132,326.004935 125.767852,326.594668 129.343177,326.594668 C138.172768,326.594668 146.199946,323.073437 153.022895,315.41243 C162.217552,305.222684 165.318781,292.208719 166.048914,278.573144 C166.522399,269.188916 164.771794,260.024766 162.618758,251.006515 C158.240408,232.898904 156.963287,214.424701 158.058487,195.838928 C158.93379,181.470172 160.320553,167.24793 161.852485,152.841779 C163.786849,135.099532 168.492901,118.567401 178.235158,103.758491 C185.203276,93.2015416 191.844304,82.4245148 196.951562,70.5838851 C201.257633,60.7601164 204.832346,50.6065389 208.481788,40.4529613 C214.976422,22.1982229 225.73915,8.15804983 242.997125,0.607387831 C247.229693,-1.26295964 251.315867,-3.35154496 255.474932,-5.40396165 C273.353398,-14.4957753 287.98424,-28.0951814 301.265071,-43.6372723 C305.533778,-48.5126815 309.438031,-53.7908499 312.612151,-59.5827355 C313.173227,-60.6169132 314.091406,-61.7130067 314.218199,-62.9648092 C314.335192,-63.2179896 314.442997,-63.4760743 314.545902,-63.7249635 L354.644431,-63.7249635 C351.943796,-54.3407357 346.61664,-46.5332151 338.370789,-39.8984165 L333.518955,-36.012434 C321.84356,-26.6656009 309.730207,-17.0245145 299.477714,-5.18449774 C292.034887,3.39298563 285.138435,12.5571365 278.388377,22.8578407 C270.982302,34.1111899 261.45933,44.1918172 249.236335,53.7225586 C237.341655,62.9596598 227.782543,74.4330859 219.025844,85.3566263 C211.764938,94.3374819 204.467892,103.391901 197.317241,112.519883 C185.056882,127.988411 177.431521,146.389663 173.965838,168.75046 C172.470045,178.243807 171.557991,187.921062 171.192312,197.562149 C170.718828,210.758796 172.35979,224.431765 176.264043,240.597305 C179.074321,252.033337 181.554447,264.350289 180.715284,277.399809 C179.402024,298.807349 173.34596,315.889366 162.108522,329.526166 C155.941591,337.149779 147.404176,341.694766 136.786617,343.016454 C134.269127,343.343197 131.714886,343.527106 129.197396,343.527106 C116.755728,343.527106 104.059249,339.571238 90.3765995,331.504407 C83.6994324,327.47375 77.2415503,322.78041 71.0390923,318.235422 C66.4420701,314.864383 61.7347928,311.418555 56.8829589,308.26514 C42.0328314,298.476927 24.9573899,292.026037 1.60598702,287.370705 L-0.874751159,286.8576 L-0.910890308,286.820206 Z" id="Fill-9" fill="#FFFFFF" mask="url(#mask-6)"></path>
                            </g>
                            <g id="Group-14" transform="translate(211.322141, 362.299362)">
                                <mask id="mask-8" fill="white">
                                    <use xlink:href="#path-7"></use>
                                </mask>
                                <g id="Clip-13"></g>
                                <path d="M143.139083,58.0982276 C141.935466,46.1834215 139.563757,34.525474 134.200463,23.8238497 C126.429321,7.98750553 113.111738,0.363893234 98.9556047,0.363893234 C93.6284491,0.363893234 88.2277902,1.42627021 82.9379989,3.51669462 C68.6716105,9.23317779 58.0540511,19.754572 49.5533883,33.0989586 C43.277427,42.960122 38.0237748,53.590022 32.4405825,63.8907262 C26.3116279,75.1440754 19.9633883,86.2870797 13.8699603,97.5747585 C7.55785981,109.488952 3.06986756,122.063375 0.296953548,135.403471 L18.7224067,135.403471 C19.9633883,127.04913 22.8085806,119.279004 26.6766946,112.16543 C37.6219564,91.5658611 47.7654192,70.5978621 58.1636936,49.7389821 C62.90711,40.2088537 69.109568,31.7404893 78.0120492,26.0951173 C83.3759564,22.7240781 89.1772086,20.9640756 94.7591757,20.9640756 C103.297203,20.9640756 111.433411,25.0327403 117.161773,33.7217947 C123.837715,43.8385906 125.479902,55.49286 126.063641,67.3702714 C126.720884,80.7894474 124.641352,94.1669376 124.750382,107.548719 L124.750382,135.403471 L151.385547,135.403471 C149.816863,123.824604 147.882499,112.273936 146.678269,100.690778 C145.25598,86.5053175 144.526459,72.2836883 143.139083,58.0982276 M149.670468,133.902166 L126.246175,133.902166 L126.246175,107.510711 C126.210036,101.644036 126.575102,95.6339128 126.976308,89.8052456 C127.451017,82.4740475 127.925114,74.8504352 127.560047,67.2979341 C126.976308,55.7895654 125.479902,43.6166746 118.402142,32.9150503 C112.673781,24.2253829 104.282148,19.4247631 94.7591757,19.4247631 C88.8850327,19.4247631 82.8289689,21.2932714 77.2096376,24.8151155 C69.0366772,30.0166554 62.35951,37.9706896 56.813682,49.0438087 C54.2594405,54.2471877 51.6690598,59.4156241 49.1154308,64.5846736 C41.4894579,80.0525881 33.5725342,95.9980512 25.3634347,111.433475 C21.3862907,118.764673 18.7224067,126.316561 17.4452859,133.902166 L2.15781345,133.902166 C4.93133998,121.328355 9.30907721,109.37922 15.1832202,98.3110047 C18.4302308,92.2260919 21.7874965,86.250298 25.107398,80.2371095 C28.0267062,75.068673 30.9086502,69.865294 33.754455,64.5846736 C35.1779699,62.0203788 36.5641207,59.3819076 37.9502714,56.7391452 C42.0009187,49.116146 46.1599835,41.2369011 50.8298965,33.9020249 C59.9516627,19.533269 70.6415004,10.0405352 83.4849864,4.90949352 C88.5928569,2.89385849 93.8103699,1.86581106 98.9556047,1.86581106 C113.43944,1.86581106 125.80883,10.1159377 132.850451,24.4846936 C137.447473,33.6470054 140.257139,44.3860244 141.64329,58.2447412 C142.336671,65.1363985 142.84752,72.0280557 143.358368,78.919713 C143.905355,86.1037844 144.452955,93.5434884 145.182476,100.837292 C145.9855,108.60987 147.153591,116.489728 148.247566,124.07901 C148.721663,127.340931 149.232511,130.640859 149.670468,133.902166" id="Fill-12" fill="#FFFFFF" mask="url(#mask-8)"></path>
                            </g>
                            <g id="Group-17" transform="translate(82.078745, 140.383340)">
                                <mask id="mask-10" fill="white">
                                    <use xlink:href="#path-9"></use>
                                </mask>
                                <g id="Clip-16"></g>
                                <path d="M263.00584,73.4172991 C253.811183,67.7351454 244.288211,62.7512304 234.912246,57.5086176 C222.689251,50.764087 211.414449,42.6255314 201.782447,31.9962444 C195.398068,24.9212919 189.122107,17.6262624 182.517831,10.7352182 C176.972003,4.90655099 170.514121,0.763709891 162.34116,0.361563729 C161.867676,0.325395095 161.392355,0.325395095 160.95501,0.325395095 C147.017549,0.325395095 135.231898,12.3842627 129.649319,25.544741 C123.994461,38.740162 123.447473,52.7067717 125.965576,66.7463318 C127.679429,76.4235868 130.23367,85.9904969 132.422845,95.5948016 C134.247566,103.805081 134.904196,112.236664 134.065033,120.630852 C132.896942,132.214623 130.635489,143.541536 127.533647,154.648372 C122.60831,172.573914 118.047427,190.644744 109.94797,207.325228 C107.247334,212.895197 104.073214,218.211373 99.7316163,222.350536 C93.12734,228.473457 85.356198,232.542121 76.8555352,234.962968 C61.6770927,239.216767 45.9878019,238.994851 30.5171835,240.755466 C23.6219565,241.562211 16.6893652,242.36589 10.231483,245.518078 C4.6127642,248.232565 -0.677639666,253.439009 0.270553594,261.610668 C0.927796079,267.698646 2.8615468,273.16011 5.67059996,278.399657 C10.4869072,287.052543 16.2158811,294.931175 22.1629149,302.629577 C34.7871159,319.161094 46.7534618,335.988091 51.6065207,357.320229 L91.230341,357.320229 C93.8207217,344.821207 98.2358231,333.127704 103.416584,321.65673 C110.057,307.212572 117.354658,293.098835 125.235442,279.39031 C137.968673,257.10185 151.359147,235.29339 170.185806,218.102254 C179.928063,209.228679 190.362476,201.458553 201.599914,194.859923 C216.595823,185.990025 232.904992,181.075995 249.287665,176.237981 C262.82392,172.353224 271.836043,162.968996 277.199338,149.405759 C281.613214,138.262755 285.043371,126.82611 285.627723,114.509158 C286.138571,104.429144 284.642165,95.0816975 278.439095,87.1638319 C274.024606,81.6655866 268.807093,77.046423 263.00584,73.4172991 M284.131317,114.436208 C283.620468,124.956989 281.066839,135.550107 275.811962,148.857099 C270.413141,162.455892 261.363653,171.182341 248.849707,174.8084 C233.598374,179.319671 216.30426,184.37531 200.834254,193.542526 C189.669095,200.137478 179.014784,208.019788 169.164722,217.002483 C149.826602,234.670554 136.217456,257.139857 123.958322,278.65529 C116.040173,292.367493 108.707601,306.590349 102.067185,321.033894 C96.1924299,334.04418 92.3249284,345.151016 90.0267236,355.818924 L52.7733864,355.818924 C47.7396318,334.81353 35.9907333,318.244618 23.3297806,301.751721 C17.7472009,294.454239 11.9098096,286.500205 6.9844724,277.70571 C4.06516422,272.239955 2.3506985,266.925005 1.76695936,261.429212 C0.7814019,253.107974 7.05736323,248.746282 10.888113,246.840379 C17.0550444,243.832865 23.8773806,243.063516 30.7003294,242.256771 C35.4792724,241.708111 40.4052222,241.340908 45.1486386,240.972478 C55.7300588,240.169412 66.6753207,239.362054 77.256741,236.427491 C86.3411429,233.864422 94.2586791,229.464722 100.7527,223.450921 C105.825044,218.612906 109.181085,212.310369 111.297369,207.982393 C118.704057,192.735782 123.228188,176.091467 127.64329,159.963935 L128.95655,155.051744 C132.276451,143.247896 134.429487,132.031328 135.560826,120.777979 C136.36385,112.566473 135.81625,103.988377 133.882499,95.3017744 C133.225869,92.369663 132.495736,89.4369385 131.802967,86.5042141 C130.23367,79.9429788 128.628847,73.1610535 127.424617,66.4894732 C124.724594,51.3139728 125.89146,38.1173258 131.036695,26.1307955 C136.144565,14.0345332 147.382003,1.82792595 160.95501,1.82792595 C161.392355,1.82792595 161.830312,1.82792595 162.268269,1.86409459 C169.237,2.19390348 175.330428,5.34609184 181.423243,11.7614266 C185.984126,16.5271038 190.472119,21.5484136 194.814329,26.4244358 C196.747468,28.6233661 198.717357,30.8229094 200.688472,33.0218397 C209.62648,42.8462214 220.572967,51.3139728 234.182113,58.8284662 C236.626712,60.1844834 239.071311,61.503719 241.51591,62.8603493 C248.37561,66.6353738 255.453371,70.5213563 262.202816,74.700366 C268.005294,78.3294899 273.076412,82.8389216 277.272229,88.1170899 C282.526494,94.7880572 284.715056,103.146077 284.131317,114.436208" id="Fill-15" fill="#FFFFFF" mask="url(#mask-10)"></path>
                            </g>
                            <path d="M325.308998,234.365204 C318.55894,226.88688 310.460095,221.462198 301.994959,216.697134 C290.137031,209.95199 278.133321,203.464318 266.932022,195.472889 C263.282581,192.833192 259.525334,190.377403 255.438548,188.39855 C253.103591,187.298165 250.914416,186.748279 248.944526,186.748279 C243.179413,186.748279 239.311912,191.257711 238.982984,199.248527 C238.764312,204.013591 239.27516,208.741873 240.078184,213.397819 C242.413141,228.793396 242.194468,243.932115 238.581779,259.108228 C235.152847,273.660892 230.117867,287.663057 226.870857,302.326067 C225.119027,310.427228 223.695512,318.603178 223.951549,326.958745 C224.206973,335.096075 227.600378,339.349874 233.729945,339.349874 C235.116096,339.349874 236.648028,339.094241 238.326967,338.650409 C246.171612,336.489487 252.993949,331.943273 259.81751,327.581581 C272.988698,319.11383 285.977353,310.318109 298.930482,301.556104 C307.540787,295.801613 316.005923,289.936164 323.084296,281.871785 C329.687348,274.394073 333.774134,265.926322 333.336177,255.039563 C333.883777,246.938402 330.563263,240.230653 325.308998,234.365204 M321.952957,280.91914 C315.093257,288.690492 306.774515,294.518546 298.090706,300.309819 C285.430366,308.887302 272.332068,317.758426 259.014486,326.297901 L257.554219,327.251772 C251.388513,331.210705 245.004134,335.279983 237.925149,337.22512 C236.393216,337.588645 234.969701,337.810561 233.729945,337.810561 C228.439541,337.810561 225.666627,334.14343 225.447954,326.887634 C225.191918,318.490381 226.687711,310.28194 228.329898,302.692657 C230.044977,294.958087 232.270291,287.260298 234.460078,279.818755 C236.393216,273.221964 238.399858,266.329694 240.041433,259.438037 C243.54448,244.70269 244.055328,229.562746 241.537226,213.14096 C240.625784,207.82601 240.296857,203.426923 240.47939,199.284695 C240.771566,192.393038 243.908934,188.251423 248.944526,188.251423 C250.732496,188.251423 252.702385,188.76514 254.781918,189.754567 C258.284965,191.440393 261.788012,193.603155 266.05672,196.682393 C275.724861,203.573437 286.159274,209.475667 296.193707,215.157208 L301.265438,218.016982 C308.124526,221.902352 316.954117,227.363815 324.21441,235.391413 C329.79699,241.659008 332.31448,248.038787 331.840383,255.112513 C332.241589,264.569692 329.067469,272.781197 321.952957,280.91914" id="Fill-18" fill="#FFFFFF"></path>
                            <g id="Group-22" transform="translate(131.693508, 407.663411)">
                                <mask id="mask-12" fill="white">
                                    <use xlink:href="#path-11"></use>
                                </mask>
                                <g id="Clip-21"></g>
                                <path d="M25.4523737,0.89146486 C22.971023,0.305410393 20.4902848,0.0129961869 18.0095467,0.0129961869 C14.6161418,0.0129961869 11.2588762,0.527326415 7.90283555,1.40518206 C3.77990995,2.58096916 0.605790138,6.98005583 0.605790138,11.2289507 C0.605790138,15.773938 1.29855924,17.1336334 6.44318146,22.6288136 C10.2010404,26.6263671 14.4703602,28.5328832 18.5559216,28.5328832 C24.2487563,28.5328832 29.5759119,24.7940273 32.6397766,17.6816801 C35.9602906,9.9109412 32.8590616,2.65208037 25.4523737,0.89146486 M31.2536259,17.0962387 C28.5536027,23.4018415 23.9198288,27.0279002 18.5559216,27.0279002 C14.6890327,27.0279002 10.894422,25.1593918 7.5377689,21.6044443 C2.42989836,16.1429806 2.10097085,15.2265043 2.10097085,11.2289507 C2.10097085,7.56549727 4.87388486,3.82725445 8.26728968,2.87338337 C11.6968336,1.99123653 14.8709535,1.55230871 18.0095467,1.55230871 C20.417394,1.55230871 22.8252414,1.81100639 25.1240587,2.35905314 C28.0427544,3.01989698 30.2313168,4.70511009 31.4722984,7.12656945 C32.8952008,9.9109412 32.82231,13.4665018 31.2536259,17.0962387" id="Fill-20" fill="#FFFFFF" mask="url(#mask-12)"></path>
                            </g>
                            <g id="Group-25" transform="translate(254.199097, 413.793688)">
                                <mask id="mask-14" fill="white">
                                    <use xlink:href="#path-13"></use>
                                </mask>
                                <g id="Clip-24"></g>
                                <path d="M53.7428957,2.24202615 C51.700115,0.737043186 49.6199701,0.00508812979 47.5042986,0.00508812979 C44.6946329,0.00508812979 41.848828,1.36049234 39.184944,3.92723926 C34.5144184,8.47345258 31.7427295,14.373844 29.2246271,20.4201361 C24.8462773,31.1260516 21.4161208,42.3420061 16.0534387,52.6077678 C10.6527798,62.9452536 4.70635847,72.9155359 0.509929515,83.9101874 L49.6934734,83.9101874 C50.2766,78.4137812 50.7513092,72.9866471 51.5175817,67.5631912 C53.1591565,55.1003383 56.9170155,43.1113559 58.8513787,30.6871238 C59.8363237,24.7113299 60.7116261,18.6264171 59.1790812,12.579512 C58.2308879,8.69107741 57.0989363,4.65919432 53.7428957,2.24202615 M57.3917247,30.4652078 C56.479058,36.1859821 55.1657981,41.9030783 53.925429,47.4399444 C52.4657749,53.9257773 50.9338425,60.5998097 50.0211759,67.3412752 C49.4741884,71.3762234 49.0729826,75.4074934 48.6350251,79.4393765 L48.3428493,82.4082696 L2.69910439,82.4082696 C5.72683003,74.8937762 9.594944,67.7464865 13.3534155,60.8174345 C14.7034271,58.324864 16.0534387,55.8322934 17.366086,53.2643204 C21.014915,46.3726632 23.7884416,38.8961775 26.4878522,31.71088 C27.8017247,28.1197638 29.1511237,24.5274216 30.6107778,21.0098687 C32.9457343,15.3644968 35.6457575,9.42671063 40.2066406,4.98900321 C42.6512396,2.68095398 45.0958387,1.50639293 47.5042986,1.50639293 C49.3277942,1.50639293 51.1157633,2.16723678 52.8669807,3.48769841 C55.7495372,5.54134116 56.7712338,8.9877828 57.7200396,12.9436505 C59.1423295,18.5185242 58.4134213,24.1638962 57.3917247,30.4652078" id="Fill-23" fill="#FFFFFF" mask="url(#mask-14)"></path>
                            </g>
                            <path d="M48.9287935,241.916112 C64.9090351,254.306627 81.6929134,265.376681 97.016525,278.719842 C103.693692,284.511114 110.772065,289.642769 119.054055,292.428367 C120.732994,293.015034 122.411321,293.308675 124.016144,293.308675 C128.832452,293.308675 133.101771,290.743154 136.093358,286.051653 C137.734933,283.484906 138.574708,280.552182 139.084944,277.583288 C141.018695,267.06312 139.048805,256.726248 138.136751,246.278417 C137.151806,235.830586 136.604206,225.348425 137.224084,214.864426 C137.990969,202.693987 138.902411,190.560943 139.194587,178.391118 C139.413872,168.311104 138.464453,158.412546 134.962019,148.95598 C132.663814,142.650991 128.796312,139.425852 123.505296,139.425852 C121.973364,139.425852 120.331176,139.681485 118.579959,140.23137 C112.85221,141.99076 107.670836,144.996435 102.708747,148.51644 C87.3483839,159.51293 72.0241597,170.472639 56.7728264,181.616869 C51.4095317,185.538408 46.1191279,189.644467 41.8136689,194.885854 C32.0720245,206.872997 29.5545346,218.895696 39.5509907,232.458934 C42.2883781,236.124226 45.4624979,239.203464 48.9287935,241.916112 M42.9811472,195.839112 C47.2859936,190.597725 52.5776225,186.528447 57.6487414,182.826373 C72.2428322,172.19586 87.1290989,161.49301 101.541269,151.192305 L103.58405,149.72533 C109.240133,145.729616 114.129331,143.164095 119.018529,141.661564 C120.623352,141.185241 122.119145,140.928383 123.505296,140.928383 C128.175209,140.928383 131.459584,143.713981 133.575868,149.468472 C136.640958,157.790322 137.953605,166.954473 137.698794,178.353723 C137.479509,188.141936 136.823491,198.074824 136.203,207.752692 L135.728291,214.790863 C135.180691,223.955014 135.47348,233.998859 136.640958,246.388149 C136.85963,248.661255 137.078915,250.861412 137.333727,253.133292 C138.209642,261.051158 139.084944,269.262051 137.62529,277.327043 C137.042164,280.661914 136.166249,283.155097 134.816237,285.244908 C132.152966,289.496869 128.285464,291.842312 124.016144,291.842312 C122.557103,291.842312 121.060697,291.549285 119.528765,291.036181 C110.772065,288.10407 103.438268,282.312184 98.0020824,277.583288 C88.2236863,269.114924 77.7163819,261.417748 67.5729192,253.940037 C61.7349153,249.688077 55.678239,245.21604 49.8402351,240.706608 C46.2281578,237.884842 43.2371839,234.878554 40.7552206,231.579239 C31.9629945,219.592709 32.6190119,208.559436 42.9811472,195.839112" id="Fill-26" fill="#FFFFFF"></path>
                        </g>
                    </g>
                </g>
            </g>
        </g>
    </g>
</svg>