<?xml version="1.0" encoding="UTF-8"?>
<svg width="327px" height="552px" viewBox="0 0 327 552" version="1.1" xmlns="http://www.w3.org/2000/svg" xmlns:xlink="http://www.w3.org/1999/xlink">
    <!-- Generator: sketchtool 62 (101010) - https://sketch.com -->
    <title>D5122F52-5BBF-4457-9404-CE91A027A2ED</title>
    <desc>Created with sketchtool.</desc>
    <defs>
        <polygon id="path-1" points="0.0927702531 0.75423609 127.956289 0.75423609 127.956289 301.2 0.0927702531 301.2"></polygon>
    </defs>
    <g id="Page-1" stroke="none" stroke-width="1" fill="none" fill-rule="evenodd">
        <g id="1" transform="translate(-210.000000, -1997.000000)">
            <g id="Group-114" transform="translate(210.000000, 1997.000000)">
                <path d="M190.05696,20.78784 L190.10016,20.32824 C190.10016,20.32824 190.04256,20.61744 190.05696,20.78784" id="Fill-1" fill="#11A8C8"></path>
                <path d="M264.58596,29.80356 C263.11236,29.06676 262.37676,29.80356 262.00956,28.69836 C261.64116,27.59436 262.00956,26.48916 261.64116,25.01676 C261.27156,23.54436 260.16756,21.70356 260.16756,21.70356 L263.11236,18.75756 L265.68996,16.18116 L265.95276,14.34756 L252.77556,7.90596 C252.77556,7.90596 246.56436,3.38796 244.30716,2.25876 C242.04876,1.12956 240.91836,0.00036 240.91836,0.00036 C240.91836,0.00036 238.65996,0.56556 236.96556,1.12956 C235.27116,1.69476 234.14316,2.82396 230.75556,4.51836 C227.36676,6.21156 227.36676,9.03516 227.36676,9.03516 C227.36676,9.03516 227.36676,11.29356 226.23756,16.93956 C226.23756,16.93956 218.89716,12.98796 216.07356,11.85756 C213.25116,10.72836 213.25116,9.03516 213.25116,9.03516 C213.25116,9.03516 204.21636,9.03516 200.82876,7.90596 C197.43996,6.77676 200.82876,7.90596 200.26356,5.64756 C199.69836,3.38796 199.13436,3.38796 197.43996,1.69476 C195.74676,0.00036 197.43996,1.69476 195.18156,2.82396 C192.92316,3.95316 195.18156,6.21156 195.18156,9.60036 C195.18156,12.98796 195.18156,9.60036 192.35916,16.37556 C190.44156,20.97636 190.08756,21.15036 190.05756,20.78796 L187.84116,44.60796 C187.84116,44.60796 188.40636,46.30236 188.40636,47.99556 L188.40636,50.25396 L187.84116,52.51356 L183.32436,59.85396 C178.80756,67.19436 183.32436,59.85396 181.62996,64.37076 C179.93556,68.88756 180.50076,66.06516 178.24236,69.45276 C175.98396,72.84036 177.11196,71.14716 175.98396,74.53476 C174.85476,77.92236 174.85476,78.48756 175.41876,84.69876 C175.98396,90.90996 175.98396,92.03916 177.67716,93.73236 C179.37156,95.42676 175.41876,98.81436 173.16036,102.76716 L176.59356,104.90916 C176.59356,104.90916 175.85796,103.80396 178.43556,104.54076 C181.01196,105.27756 180.27636,104.54076 182.11596,105.64596 C183.95796,106.74996 185.79876,108.95916 185.79876,108.95916 L184.69356,111.90396 L186.16596,113.37756 C186.16596,113.37756 186.53436,114.11316 187.63956,114.84996 L188.74356,115.58556 C188.74356,115.58556 187.63956,117.79476 190.21596,115.58556 C192.79356,113.37756 191.68836,114.84996 193.16076,114.84996 C194.63436,114.84996 199.05276,119.63556 200.52516,117.05796 C201.99756,114.48156 227.40156,74.35116 227.40156,74.35116 C227.40156,74.35116 228.13716,76.19196 229.61076,75.82476 C231.08316,75.45516 233.29236,75.45516 233.29236,75.45516 L234.76356,76.92876 L235.50156,78.40116 L236.60556,80.61036 C238.44636,81.34716 236.23716,82.81956 238.44636,81.34716 L240.65556,79.87356 L242.12796,79.50516 L243.96756,79.50516 L257.22276,84.66036 C257.22276,84.66036 259.43196,87.60516 260.16756,83.18676 L260.90436,78.76956 C260.90436,78.76956 262.00956,79.13796 259.06236,78.03276 C256.11756,76.92876 258.32676,78.76956 256.11756,76.92876 C253.90956,75.08796 252.06756,75.08796 252.06756,73.61556 C252.06756,72.14196 251.70036,68.46036 251.70036,68.46036 C251.70036,68.46036 252.06756,67.72476 251.33196,66.61956 C250.59636,65.51556 250.22676,64.41036 250.22676,64.41036 L248.01756,64.04316 L242.49636,64.04316 C239.91876,61.83396 240.28716,63.30636 239.91876,61.83396 C239.55036,60.36036 238.07796,64.04316 239.55036,60.36036 L241.02276,56.67876 C241.02276,56.67876 241.45476,54.68556 242.49636,55.20636 C244.70556,56.31156 244.70556,58.15236 246.54636,55.20636 C248.38596,52.26156 248.01756,54.10236 248.38596,52.26156 C248.75556,50.42076 248.38596,50.42076 248.75556,49.31556 C249.12276,48.21156 246.91356,48.57996 250.22676,48.21156 C253.54116,47.84316 252.43596,47.84316 254.64516,47.47596 C256.85436,47.10636 256.11756,50.78916 256.85436,47.10636 C257.59116,43.42596 257.59116,45.26676 257.59116,43.42596 C257.59116,41.58396 256.85436,42.32076 257.95956,40.47996 L259.06236,38.63916 L260.53596,38.27076 C260.53596,38.27076 263.48076,41.21676 263.85036,39.37596 L264.21756,37.53396 C264.21756,34.95756 264.21756,35.69436 264.95436,33.48516 L265.68996,31.27596 C266.05956,30.17196 266.05956,30.53916 264.58596,29.80356" id="Fill-3" fill="#6AC2BE"></path>
                <path d="M260.90388,78.7692 L260.16828,83.1876 C259.43148,87.6048 257.22348,84.66 257.22348,84.66 L255.15948,83.8572 L259.79988,89.0784 L263.48028,90.9192 L272.31708,100.4916 L274.15788,103.068 L281.15388,117.4272 L295.68948,92.0388 C295.68948,92.0388 303.02988,82.44 304.16028,80.1816 C305.28828,77.922 308.67708,75.0996 311.49948,69.4524 C314.32428,63.8064 311.49948,69.4524 311.49948,67.194 C311.49948,64.9356 312.06468,63.8064 312.06468,63.8064 L305.85348,45.738 C305.85348,45.738 303.02988,40.656 299.07828,36.138 C295.12548,31.6212 299.07828,36.138 297.94788,32.7504 C296.81988,29.3628 297.94788,29.9268 297.94788,29.9268 L297.94788,26.5392 L293.99508,25.41 L291.17268,24.8448 L285.52668,23.7156 C285.52668,23.7156 282.70308,22.5864 281.00868,22.5864 C279.31548,22.5864 278.18508,20.328 278.18508,20.328 L265.95228,14.3472 L265.68948,16.1808 L263.11308,18.7584 L260.16828,21.7032 C260.16828,21.7032 261.27228,23.544 261.64068,25.0176 C262.00908,26.49 261.64068,27.594 262.00908,28.698 C262.37748,29.8032 263.11308,29.0676 264.58548,29.8032 C266.05908,30.54 266.05908,30.1716 265.68948,31.2756 L264.95388,33.4848 C264.21828,35.694 264.21828,34.9572 264.21828,37.5348 L263.84988,39.3756 C263.48028,41.2164 260.53548,38.2704 260.53548,38.2704 L259.06308,38.64 L257.95908,40.4796 C256.85388,42.3204 257.59068,41.5848 257.59068,43.4256 C257.59068,45.2664 257.59068,43.4256 256.85388,47.1072 C256.11828,50.7888 256.85388,47.1072 254.64468,47.4756 C252.43548,47.844 253.54068,47.844 250.22748,48.2112 C246.91428,48.5796 249.12348,48.2112 248.75508,49.3164 C248.38548,50.4204 248.75508,50.4204 248.38548,52.2612 C248.01828,54.102 248.38548,52.2612 246.54588,55.2072 C244.70508,58.152 244.70508,56.3112 242.49588,55.2072 C241.45428,54.6864 241.02348,56.6796 241.02348,56.6796 L239.54988,60.3612 C238.07868,64.0428 239.54988,60.3612 239.91948,61.8336 C240.28668,63.306 239.91948,61.8336 242.49588,64.0428 L248.01828,64.0428 L250.22748,64.4112 C250.22748,64.4112 250.59588,65.5152 251.33148,66.6192 C252.06828,67.7244 251.69988,68.4612 251.69988,68.4612 C251.69988,68.4612 252.06828,72.1428 252.06828,73.6152 C252.06828,75.0876 253.90908,75.0876 256.11828,76.9284 C258.32748,78.7692 256.11828,76.9284 259.06308,78.0336 C262.00908,79.1376 260.90388,78.7692 260.90388,78.7692" id="Fill-5" fill="#73BE8C"></path>
                <polygon id="Fill-7" fill="#73BE8C" points="253.77888 8.3964 253.77888 8.3964 259.58568 11.2344"></polygon>
                <path d="M135.26244,99.30924 C135.32724,98.82084 135.32844,98.81484 135.32844,98.81484 C135.32844,98.81484 135.04404,99.24204 135.26244,99.30924" id="Fill-9" fill="#A3C858"></path>
                <path d="M205.67928,145.40736 C206.04768,142.83096 203.10288,133.25736 203.10288,133.25736 L200.52528,124.05456 L200.52528,117.05856 C199.05288,119.63616 194.63448,114.84936 193.16088,114.84936 C191.68848,114.84936 192.79368,113.37696 190.21608,115.58616 C187.63968,117.79536 188.74368,115.58616 188.74368,115.58616 L187.63968,114.84936 C186.53448,114.11256 186.16608,113.37696 186.16608,113.37696 L184.69368,111.90456 L185.79888,108.95856 C185.79888,108.95856 183.95688,106.75056 182.11608,105.64536 C180.27648,104.54136 181.01208,105.27696 178.43448,104.54136 C175.85808,103.80456 176.59368,104.90856 176.59368,104.90856 L173.16048,102.76776 L162.43128,102.76776 C159.04368,102.76776 158.47968,102.20256 158.47968,102.20256 C158.47968,102.20256 156.78528,101.07336 156.22008,98.81496 C155.65608,96.55656 156.22008,98.81496 154.52688,95.42736 C152.83248,92.03856 152.83248,94.29816 147.75048,91.47456 C142.66848,88.65096 147.75048,91.47456 147.18648,93.73296 C146.62128,95.99136 142.10448,94.86216 138.15168,97.68576 C136.18608,99.08976 135.47928,99.37536 135.26208,99.30936 C135.15888,100.08456 134.89248,102.08736 134.19888,107.28456 C134.19888,107.28456 130.24728,107.28456 127.98768,106.71936 C125.72928,106.15536 123.47088,105.02616 121.77648,104.46096 C120.08208,103.89696 117.82488,106.15536 117.82488,106.15536 L115.00128,106.15536 L113.87208,108.41376 C112.74288,110.67216 112.17768,112.36656 111.04848,116.31936 C109.91928,120.27216 108.79008,117.44856 102.57888,119.70696 C96.36768,121.96536 100.88448,119.70696 96.36768,121.40136 C91.85088,123.09456 96.36768,121.40136 93.54408,124.78896 C90.72048,128.17656 91.85088,127.04736 89.59128,129.30696 C87.33288,131.56416 88.46208,132.69456 88.46208,132.69456 L84.69888,141.93216 L86.39328,145.03896 C90.44328,143.19816 91.54848,142.83096 91.54848,142.83096 C91.54848,142.83096 93.38808,142.83096 93.75648,143.93496 C94.12488,145.03896 91.91568,144.30336 94.12488,145.03896 C96.33408,145.77576 95.96568,147.24816 97.43808,145.03896 L98.91048,142.83096 C98.91048,142.83096 98.54328,142.46136 100.38408,142.83096 C102.22488,143.19816 103.32888,143.19816 103.32888,143.19816 C103.32888,143.19816 104.80248,145.77576 104.80248,142.46136 C104.80248,139.14816 104.06568,139.51656 104.80248,139.14816 C105.53808,138.78096 105.90648,138.04416 106.64328,139.14816 L107.37888,140.25336 L109.21968,140.62176 C112.90128,139.51656 114.00528,138.78096 114.00528,138.78096 L119.16048,143.56656 C119.16048,143.56656 121.36968,143.93496 122.47368,144.67056 L124.68288,146.14416 C124.68288,146.14416 126.52368,147.24816 126.52368,148.72056 C126.52368,150.19416 126.89208,151.29816 126.89208,151.29816 L127.99608,155.71656 C130.57368,156.82056 131.67768,157.18896 131.67768,157.18896 L133.88688,157.18896 C133.88688,157.18896 136.83168,159.02976 135.35928,159.02976 C133.88688,159.02976 135.35928,157.92576 133.88688,159.02976 C132.41448,160.13376 136.09608,159.76536 132.41448,160.13376 C128.73288,160.50216 130.94208,161.97456 128.73288,160.50216 C126.52368,159.02976 124.68288,158.29296 124.68288,158.29296 L125.05128,164.18376 L124.68288,166.39296 L125.05128,168.97056 C125.05128,168.97056 125.78688,171.17976 126.89208,170.81016 C127.99608,170.44296 127.99608,170.07456 129.46848,170.81016 C130.94208,171.54696 128.73288,169.33776 130.94208,171.54696 C133.15128,173.75616 134.99088,174.86016 136.46448,175.59696 C137.93688,176.33256 141.61848,177.80616 141.61848,177.80616 L150.45408,182.59176 C150.45408,182.59176 148.61328,184.80096 149.71848,185.90616 C150.82248,187.01016 151.92768,189.58776 151.92768,189.58776 L151.55808,191.06016 L154.87248,192.16416 C154.87248,192.16416 155.97768,193.63656 157.81728,193.63656 C159.65808,193.63656 163.33968,195.84576 163.33968,195.84576 L175.48968,197.68656 L182.48448,197.68656 L186.16608,197.68656 L189.47928,197.68656 L190.95288,196.95096 L192.42528,196.95096 L193.16088,198.79176 C193.16088,198.79176 195.37128,199.15896 195.73848,200.26416 L196.10688,201.36816 C196.10688,201.36816 201.62928,194.00616 201.99768,192.53256 C202.36608,191.06016 205.31088,184.43256 205.31088,184.43256 L205.31088,180.75216 C205.31088,174.49296 204.57528,177.80616 205.31088,173.01936 C206.04768,168.23376 205.67928,170.81016 206.04768,168.23376 C206.41488,165.65736 206.78448,165.28776 206.78448,163.07976 L206.78448,160.87056 C206.78448,159.39816 205.31088,147.98496 205.67928,145.40736" id="Fill-11" fill="#A3C85A"></path>
                <path d="M173.16036,102.76752 C173.44356,102.27072 173.75436,101.78352 174.07716,101.30712 C173.75436,101.78352 173.44356,102.27072 173.16036,102.76752" id="Fill-13" fill="#A3C858"></path>
                <path d="M174.09252,101.28444 C174.40812,100.81884 174.73572,100.36284 175.06092,99.92124 C174.73572,100.36284 174.40812,100.81884 174.09252,101.28444" id="Fill-15" fill="#A3C858"></path>
                <path d="M176.9244,97.36692 L176.9244,97.36692 L176.9244,97.36692 Z" id="Fill-17" fill="#A3C858"></path>
                <path d="M175.36752,99.50784 C175.47432,99.36384 175.57872,99.22224 175.68432,99.08184 C175.57872,99.22224 175.47432,99.36384 175.36752,99.50784" id="Fill-19" fill="#A3C858"></path>
                <path d="M90.23376,128.66292 C90.20616,128.69052 90.17376,128.72412 90.14256,128.75412 C90.17136,128.72532 90.20736,128.68932 90.23376,128.66292" id="Fill-21" fill="#CDB858"></path>
                <path d="M90.68196,128.20824 C90.66276,128.22744 90.64476,128.24664 90.62436,128.26704 C90.64356,128.24784 90.66396,128.22744 90.68196,128.20824" id="Fill-23" fill="#CDB858"></path>
                <path d="M90.99192,127.88424 C90.98352,127.89384 90.97512,127.90344 90.96552,127.91304 C90.97392,127.90344 90.98352,127.89384 90.99192,127.88424" id="Fill-25" fill="#CDB858"></path>
                <path d="M133.88676,157.18872 L131.67756,157.18872 C131.67756,157.18872 130.57356,156.82032 127.99596,155.71632 L126.89196,151.29792 C126.89196,151.29792 126.52356,150.19392 126.52356,148.72032 C126.52356,147.24792 124.68276,146.14392 124.68276,146.14392 L122.47356,144.67032 C121.36956,143.93472 119.16036,143.56632 119.16036,143.56632 L114.00636,138.78072 C114.00636,138.78072 112.90116,139.51632 109.21956,140.62152 L107.37876,140.25312 L106.64316,139.14792 C105.90636,138.04392 105.53796,138.78072 104.80236,139.14792 C104.06556,139.51632 104.80236,139.14792 104.80236,142.46232 C104.80236,145.77552 103.32876,143.19792 103.32876,143.19792 C103.32876,143.19792 102.22476,143.19792 100.38396,142.83072 C98.54316,142.46232 98.91156,142.83072 98.91156,142.83072 L97.43796,145.03872 C95.96556,147.24792 96.33396,145.77552 94.12476,145.03872 C91.91556,144.30312 94.12476,145.03872 93.75756,143.93472 C93.38796,142.83072 91.54836,142.83072 91.54836,142.83072 C91.54836,142.83072 90.44316,143.19792 86.39316,145.03872 L84.69876,141.93192 L88.46196,132.69432 L82.25076,147.93912 L77.73396,149.63352 C77.73396,149.63352 74.91156,150.76272 69.82836,156.40992 C64.74636,162.05592 70.95876,162.61992 70.95876,168.26712 C70.95876,173.91432 70.95876,168.26712 70.39356,172.21992 C69.82836,176.17152 78.29916,176.73672 78.86316,178.99512 C79.42836,181.25472 78.29916,182.38392 77.73396,190.85352 C77.16876,199.32312 77.16876,194.24112 76.60476,198.75792 C76.03956,203.27592 75.47556,201.58152 74.91156,203.27592 C74.34636,204.96912 74.34636,206.66352 75.47556,213.43872 C76.60476,220.21512 75.47556,213.43872 77.16876,215.69832 C78.86316,217.95672 77.73396,217.39152 79.42836,220.21512 C81.12156,223.03872 80.55756,225.86232 80.55756,225.86232 L84.55236,229.71672 C84.55236,229.71672 88.97076,231.55872 90.44316,231.19032 C91.91556,230.82192 91.91556,232.29432 93.75756,230.45352 C95.59716,228.61272 94.86156,230.08512 95.59716,228.61272 C96.33396,227.14032 95.22996,232.29432 96.33396,227.14032 C97.43796,221.98632 97.80636,220.51392 97.80636,220.51392 L97.80636,217.93632 L101.11956,215.35872 L104.06556,215.35872 C104.06556,215.35872 102.22476,217.19952 104.43396,217.56792 C106.64316,217.93632 104.06556,216.46392 106.64316,217.93632 C109.21956,219.40872 108.48396,219.77712 110.32476,219.77712 C112.16436,219.77712 109.95636,219.40872 112.16436,219.77712 L114.37356,220.14552 C114.37356,220.14552 115.47876,201.36792 116.58276,199.89552 C117.68796,198.42312 117.31956,199.89552 118.79196,196.58232 C120.26436,193.26912 118.05636,194.74152 120.26436,193.26912 C122.47356,191.79672 122.10636,192.53232 123.94596,191.42832 C125.78676,190.32312 125.05116,191.05992 126.89196,190.32312 C128.73276,189.58752 129.10116,189.58752 129.83676,188.48232 C130.57356,187.37832 130.94196,187.00992 130.94196,185.90592 C130.94196,184.80072 130.20516,188.48232 131.31036,183.32832 C132.41436,178.17432 132.41436,177.06912 132.41436,177.06912 C132.41436,177.06912 133.15116,178.17432 132.04596,174.86112 L130.94196,171.54672 C128.73276,169.33872 130.94196,171.54672 129.46836,170.81112 C127.99596,170.07432 127.99596,170.44272 126.89196,170.81112 C125.78676,171.17952 125.05116,168.97032 125.05116,168.97032 L124.68276,166.39272 L125.05116,164.18352 L124.68276,158.29272 C124.68276,158.29272 126.52356,159.02952 128.73276,160.50192 C130.94196,161.97432 128.73276,160.50192 132.41436,160.13472 C136.09596,159.76512 132.41436,160.13472 133.88676,159.02952 C135.36036,157.92552 133.88676,159.02952 135.36036,159.02952 C136.83276,159.02952 133.88676,157.18872 133.88676,157.18872" id="Fill-27" fill="#F8B133"></path>
                <path d="M92.62968,125.8956 C92.42568,126.1452 92.25648,126.354 92.11128,126.5352 C92.25648,126.354 92.42568,126.1452 92.62968,125.8956" id="Fill-29" fill="#CDB858"></path>
                <path d="M92.09352,126.55656 C91.93872,126.74856 91.81272,126.90696 91.70472,127.04136 C91.81272,126.90576 91.93752,126.74976 92.09352,126.55656" id="Fill-31" fill="#CDB858"></path>
                <path d="M91.4742,127.32708 C91.4598,127.34508 91.4478,127.35948 91.4334,127.37628 C91.4466,127.36068 91.461,127.34388 91.4742,127.32708" id="Fill-33" fill="#CDB858"></path>
                <path d="M91.2228,127.62816 C91.2216,127.62936 91.2192,127.63176 91.218,127.63416 C91.2192,127.63176 91.2216,127.62936 91.2228,127.62816" id="Fill-35" fill="#CDB858"></path>
                <path d="M201.9978,192.53256 C201.6294,194.00616 196.107,201.36816 196.107,201.36816 L195.7386,200.26416 C195.3714,199.15896 193.161,198.79176 193.161,198.79176 L192.4254,196.95096 L190.9518,196.95096 L189.4794,197.68656 L186.1662,197.68656 L182.4846,197.68656 L175.4898,197.68656 L163.3398,195.84576 C163.3398,195.84576 159.6582,193.63656 157.8174,193.63656 C155.9766,193.63656 154.8726,192.16416 154.8726,192.16416 L151.5582,191.06016 L151.9266,189.58776 C151.9266,189.58776 150.8226,187.01016 149.7186,185.90616 C148.6134,184.80096 150.4542,182.59176 150.4542,182.59176 L141.6186,177.80616 C141.6186,177.80616 137.937,176.33256 136.4646,175.59696 C134.991,174.86016 133.1502,173.75616 130.9422,171.54696 L132.0462,174.86016 C133.1502,178.17456 132.4146,177.06936 132.4146,177.06936 C132.4146,177.06936 132.4146,178.17456 131.3094,183.32856 C130.2054,188.48256 130.9422,184.80096 130.9422,185.90616 C130.9422,187.01016 130.5726,187.37856 129.837,188.48256 C129.1002,189.58776 128.733,189.58776 126.8922,190.32336 C125.0502,191.06016 125.787,190.32336 123.9462,191.42856 C122.1054,192.53256 122.4738,191.79696 120.2646,193.26936 C118.0554,194.74176 120.2646,193.26936 118.7922,196.58256 C117.3198,199.89576 117.6882,198.42336 116.583,199.89576 C115.479,201.36816 114.3738,220.14576 114.3738,220.14576 L112.1646,219.77736 C109.9554,219.40896 112.1646,219.77736 110.3238,219.77736 C108.483,219.77736 109.2198,219.40896 106.6434,217.93656 C104.0658,216.46296 106.6434,217.93656 104.4342,217.56816 C102.2238,217.19976 104.0658,215.35896 104.0658,215.35896 L101.1198,215.35896 L97.8066,217.93656 L97.8066,220.51296 C97.8066,220.51296 97.4382,221.98536 96.3342,227.14056 C95.229,232.29456 96.3342,227.14056 95.5974,228.61296 C94.8618,230.08536 95.5974,228.61296 93.7566,230.45376 C91.9158,232.29456 91.9158,230.82216 90.4434,231.19056 C88.971,231.55776 84.5526,229.71696 84.5526,229.71696 L80.5566,225.86136 L76.6038,229.81416 L73.7814,232.07256 C70.9578,234.33216 73.7814,232.07256 73.2162,234.33216 C72.6522,236.59056 73.2162,237.15456 73.7814,241.10736 C74.3466,245.06016 75.4746,243.36576 75.4746,243.36576 L77.7342,246.18936 C77.7342,246.18936 78.8634,248.44776 79.4274,250.70616 C79.7982,252.18936 80.1726,252.94776 80.703,253.92936 L83.4474,254.75256 L88.971,255.85776 L92.6526,257.69856 L94.8618,260.27496 L96.7014,262.85256 C96.7014,262.85256 97.071,263.58816 98.175,263.58816 C99.279,263.58816 97.071,265.43016 99.279,263.58816 C101.4882,261.74856 102.2238,260.64336 102.2238,260.64336 C103.329,260.64336 103.6974,262.85256 103.6974,262.85256 L106.6434,262.48416 L108.1158,263.58816 C108.1158,263.58816 106.6434,265.43016 108.8514,265.79736 C111.0606,266.16576 108.483,266.90256 111.0606,266.16576 C113.6382,265.43016 110.6922,266.16576 113.6382,265.43016 L116.583,264.69336 C116.583,264.69336 114.7422,270.21576 118.4238,265.43016 L122.1054,260.64336 C124.683,261.01176 122.8422,259.90776 124.683,261.01176 C126.5238,262.11576 127.6278,262.85256 127.6278,262.85256 C129.711,261.55056 130.8738,260.61576 131.3754,260.18136 C131.583,260.00136 131.6778,259.90776 131.6778,259.90776 C131.6778,259.90776 131.3094,263.22096 133.5186,263.22096 C135.7278,263.22096 135.7278,263.22096 137.2002,263.95776 C138.6726,264.69336 138.3042,263.95776 140.1462,265.43016 C141.987,266.90256 143.091,268.00656 143.091,268.00656 C143.091,268.00656 143.9934,268.90896 144.9318,269.84736 L147.141,272.05656 L146.7726,266.90256 C146.7726,266.90256 147.5094,266.90256 148.9818,265.43016 C150.4542,263.95776 147.5094,264.32496 150.4542,263.95776 C153.399,263.58816 150.8226,262.11576 153.399,263.58816 L155.9766,265.06056 C155.9766,265.06056 153.7674,265.79736 154.5042,266.90256 C155.241,268.00656 156.7134,270.21576 156.7134,270.21576 L159.291,270.21576 C159.291,270.21576 160.0266,270.58416 161.1306,270.21576 C162.2358,269.84736 160.7634,270.58416 162.2358,269.84736 L163.7082,269.11056 L165.549,270.21576 L167.0226,271.68816 C169.2306,273.52896 167.0226,272.05656 169.2306,273.52896 C171.4398,275.00256 172.545,275.00256 172.545,275.00256 C172.545,275.00256 173.649,277.57896 174.3846,275.00256 L175.1214,272.42496 C175.8582,269.84736 176.2254,270.58416 176.5938,268.37496 C176.9622,266.16576 174.753,267.63816 176.9622,266.16576 C179.1714,264.69336 182.1162,263.95776 182.1162,263.95776 C182.1162,263.95776 185.0622,261.74856 186.1662,262.85256 C187.2714,263.95776 188.3754,264.69336 188.3754,264.69336 L190.5846,265.79736 C190.5846,265.79736 190.5846,266.16576 192.7938,266.16576 L195.0018,266.16576 L196.8438,267.26976 L199.0518,216.09576 L200.8938,208.73256 C200.8938,208.73256 200.5242,204.68256 201.6294,203.20896 C202.7334,201.73656 203.1018,199.15896 203.1018,199.15896 L203.1018,196.58256 C203.1018,195.11016 202.7334,194.00616 202.7334,194.00616 L201.9978,192.53256 Z" id="Fill-37" fill="#7A9DC7"></path>
                <path d="M74.96424,210.18792 L74.96424,210.18792 C75.02424,210.60672 75.09384,211.06272 75.16824,211.54032 C75.09384,211.06272 75.02424,210.60672 74.96424,210.18792" id="Fill-39" fill="#7A9DC7"></path>
                <path d="M75.4752,213.43932 C75.3816,212.88012 75.3,212.36652 75.222,211.87452 C75.3,212.36772 75.3816,212.88012 75.4752,213.43932" id="Fill-41" fill="#7A9DC7"></path>
                <path d="M75.39672,243.46332 C75.41712,243.44052 75.43272,243.42252 75.44472,243.40692 C75.43272,243.42132 75.41592,243.44172 75.39672,243.46332" id="Fill-43" fill="#CA7CB0"></path>
                <path d="M75.45696,243.39072 C75.46776,243.37632 75.47496,243.36552 75.47496,243.36552 C75.47496,243.36552 75.46656,243.37872 75.45696,243.39072" id="Fill-45" fill="#CA7CB0"></path>
                <path d="M178.13556,416.63484 C178.26876,416.65884 178.19076,416.26044 178.43556,417.48204 C178.67076,418.66284 178.15116,416.66484 178.13556,416.63484 M200.15676,336.85404 C200.15676,334.64484 200.52516,334.27644 200.15676,332.80404 L198.68436,326.91324 C198.31596,325.44084 199.05276,325.44084 198.31596,323.60004 C197.58036,321.75924 198.31596,325.07244 197.58036,321.75924 C196.84356,318.44604 196.84356,321.39084 196.84356,316.97244 C196.84356,312.55524 198.68436,315.86724 196.47516,311.45004 C194.26596,307.03164 194.63436,311.08164 194.26596,307.03164 C193.89756,302.98284 192.05796,307.76844 193.89756,301.87764 C195.73836,295.98684 196.10676,299.30124 195.73836,295.98684 C195.37116,292.67364 195.37116,295.98684 195.37116,290.46444 C195.37116,284.94204 195.00276,287.15124 195.37116,282.73284 C195.73836,278.31444 195.37116,279.78804 196.10676,277.21044 C196.84356,274.63404 196.84356,273.52884 196.84356,273.52884 L196.84356,270.21564 L196.84356,268.74324 L196.84356,267.26964 L195.00276,266.16564 L192.79356,266.16564 C190.58436,266.16564 190.58436,265.79724 190.58436,265.79724 L188.37516,264.69324 C188.37516,264.69324 187.27116,263.95764 186.16596,262.85244 C185.06196,261.74844 182.11596,263.95764 182.11596,263.95764 C182.11596,263.95764 179.17116,264.69324 176.96196,266.16564 C174.75396,267.63804 176.96196,266.16564 176.59356,268.37484 C176.22636,270.58404 175.85796,269.84724 175.12116,272.42484 L174.38556,275.00244 C173.64876,277.57884 172.54476,275.00244 172.54476,275.00244 C172.54476,275.00244 171.43956,275.00244 169.23156,273.52884 C167.02236,272.05644 169.23156,273.52884 167.02236,271.68804 L165.54876,270.21564 L163.70916,269.11044 L162.23556,269.84724 C160.76316,270.58404 162.23556,269.84724 161.13156,270.21564 C160.02636,270.58404 159.29076,270.21564 159.29076,270.21564 L156.71316,270.21564 C156.71316,270.21564 155.24076,268.00644 154.50396,266.90244 C153.76716,265.79724 155.97756,265.06044 155.97756,265.06044 L153.39996,263.58804 C150.82236,262.11564 153.39996,263.58804 150.45516,263.95764 C147.50916,264.32484 150.45516,263.95764 148.98156,265.43004 C147.50916,266.90244 146.77236,266.90244 146.77236,266.90244 L147.14076,272.05644 L144.93156,269.84724 C143.99316,268.90884 143.09076,268.00644 143.09076,268.00644 C143.09076,268.00644 141.98676,266.90244 140.14596,265.43004 C138.30516,263.95764 138.67356,264.69324 137.19996,263.95764 C135.72756,263.22084 135.72756,263.22084 133.51836,263.22084 C131.31036,263.22084 131.67756,259.90764 131.67756,259.90764 C131.67756,259.90764 131.58396,260.00124 131.37636,260.18124 C130.87356,260.61564 129.71076,261.55044 127.62876,262.85244 C127.62876,262.85244 126.52356,262.11564 124.68276,261.01164 C122.84196,259.90764 124.68276,261.01164 122.10636,260.64324 L118.42356,265.43004 C114.74196,270.21564 116.58276,264.69324 116.58276,264.69324 L113.63796,265.43004 C110.69196,266.16564 113.63796,265.43004 111.06036,266.16564 C108.48396,266.90244 111.06036,266.16564 108.85236,265.79724 C106.64316,265.43004 108.11556,263.58804 108.11556,263.58804 L106.64316,262.48404 L103.69716,262.85244 C103.69716,262.85244 103.32876,260.64324 102.22476,260.64324 C102.22476,260.64324 101.48796,261.74844 99.27996,263.58804 C97.07076,265.43004 99.27996,263.58804 98.17476,263.58804 C97.07076,263.58804 96.70236,262.85244 96.70236,262.85244 L94.86156,260.27484 L92.65236,257.69844 L88.97076,255.85764 L83.44836,254.75244 L80.70396,253.92924 C80.57076,253.68444 80.44836,253.45284 80.33316,253.22124 C80.68836,253.93524 81.11436,254.64564 81.68676,255.78804 C82.81596,258.04644 81.68676,255.78804 79.99236,261.43524 C78.29916,267.08124 79.99236,261.43524 77.73396,265.38684 C75.47556,269.33964 75.47556,267.08124 73.21596,271.59804 C70.95876,276.11604 73.21596,271.59804 74.34636,274.42164 C75.47556,277.24524 76.03956,275.55084 78.86316,276.11604 C81.68676,276.68004 77.16876,277.81044 75.47556,278.93964 C73.78116,280.06764 75.47556,278.93964 70.39356,278.37444 C65.31156,277.81044 70.39356,278.37444 68.13516,277.24524 C65.87676,276.11604 68.13516,277.24524 65.87676,277.24524 C63.61716,277.24524 63.61716,278.93964 63.61716,278.93964 L62.48796,282.32724 C62.48796,282.32724 60.22956,282.32724 55.14756,281.19804 C50.06556,280.06764 53.45436,281.19804 49.50156,281.19804 L46.67796,286.27884 L43.29036,293.61924 C43.29036,293.61924 41.03196,298.13724 39.90276,300.96084 C38.77236,303.78324 37.64316,304.34844 37.64316,304.34844 C37.64316,304.34844 34.82076,305.47764 30.30276,306.04284 C25.78596,306.60804 24.65676,308.86524 24.65676,313.94724 C24.65676,319.02924 32.56116,320.72364 32.56116,320.72364 L36.51396,320.72364 L38.77236,320.15964 C39.40116,320.00244 39.67116,319.93764 39.73476,320.02884 L40.00476,319.91724 L42.58236,316.97244 L45.15876,315.13164 C45.15876,315.13164 45.15876,315.86724 46.26276,313.29084 C47.36796,310.71324 47.36796,310.34604 47.36796,308.87244 C47.36796,307.40124 46.63236,308.13684 47.73636,306.29604 C48.84036,304.45524 51.04956,302.24604 51.04956,302.24604 C51.04956,302.24604 50.68116,300.77364 52.15476,300.03684 C53.62716,299.30124 51.41796,299.66844 53.62716,299.30124 C55.83516,298.93284 52.89036,297.82764 55.83516,298.93284 C58.78116,300.03684 58.78116,300.40524 59.88516,300.77364 L60.99036,301.14204 C60.99036,301.14204 62.09436,303.35124 61.72596,304.82244 C61.35876,306.29604 62.83116,304.82244 61.35876,306.29604 C59.88516,307.76844 62.46276,311.45004 62.46276,311.45004 C62.46276,311.45004 58.78116,310.71324 63.19956,312.92244 L67.61676,315.13164 C67.61676,315.13164 67.24956,315.13164 70.19436,316.60524 C73.13916,318.07764 70.19436,316.97244 73.13916,318.07764 C76.08516,319.18164 77.92596,319.91724 77.92596,319.91724 C77.92596,319.91724 79.02996,321.39084 80.13516,321.39084 C81.23916,321.39084 79.39836,322.86324 81.23916,321.39084 C83.07996,319.91724 84.55236,321.75924 84.18516,318.07764 C83.81676,314.39604 83.81676,318.81324 83.81676,314.39604 C83.81676,309.97764 82.71156,312.18684 83.81676,309.97764 C84.92076,307.76844 81.23916,311.81844 84.92076,307.76844 L88.60236,303.71844 C88.60236,303.71844 90.81156,301.14204 91.17996,302.61324 C91.54836,304.08684 90.44316,302.61324 91.54836,304.08684 C92.65236,305.56044 93.75756,305.92764 93.75756,305.92764 C93.75756,305.92764 94.86156,307.03164 94.86156,308.13684 C94.86156,309.24084 93.38796,308.87244 93.75756,310.34604 C94.12476,311.81844 94.49316,314.02764 94.49316,314.02764 C94.49316,314.02764 94.49316,314.76324 94.12476,316.23684 C93.75756,317.70924 95.22996,320.28564 95.22996,320.28564 C95.22996,320.28564 101.85636,324.70404 101.85636,326.17644 C101.85636,327.65004 102.96036,330.59484 103.32876,331.70004 C103.69716,332.80404 104.06556,332.80404 104.80236,333.90924 C105.53796,335.01204 103.32876,332.06724 105.53796,335.01204 C107.74716,337.95924 108.48396,339.43044 108.48396,339.43044 C108.48396,339.43044 106.27476,343.48044 109.21956,341.63964 L112.16436,339.79884 L114.74196,340.16724 L116.21436,340.16724 C116.21436,340.16724 116.58276,342.74484 118.05636,343.11204 C119.52876,343.48044 119.89716,342.74484 121.00116,343.48044 C122.10636,344.21604 121.73676,343.84884 123.21036,344.95404 C124.68276,346.05804 124.31436,345.32124 125.78676,347.89884 C127.26036,350.47524 126.52356,349.73964 127.62876,351.58044 C128.73276,353.42124 129.46836,354.89364 129.46836,354.89364 C129.46836,354.89364 128.73276,354.89364 129.83676,356.36604 C130.94196,357.83964 124.68276,355.63044 130.94196,357.83964 L137.19996,360.04884 L140.88276,364.46604 L141.24996,366.30804 L141.61836,368.88444 C141.61836,368.88444 141.24996,369.25284 141.98676,370.72524 C142.72236,372.19764 141.24996,371.09364 142.72236,372.19764 C144.19596,373.30284 144.56316,372.56484 145.66836,373.67004 L146.77236,374.77404 C146.77236,374.77404 147.50916,375.87924 148.61316,375.51084 L149.71836,375.14364 L153.39996,378.08844 C155.60916,379.56084 156.71316,380.66484 156.71316,380.66484 C156.71316,380.66484 156.34476,380.66484 157.08156,382.13844 C157.81716,383.61084 158.18556,383.97924 158.92236,385.08324 C159.65916,386.18844 160.39476,387.29244 160.39476,387.29244 C160.39476,387.29244 160.76316,388.39764 161.86716,388.39764 L162.97236,388.39764 L164.44476,388.76484 L166.28556,392.07804 L168.12636,394.65564 C168.12636,394.65564 167.75796,395.76084 168.86196,396.86484 L169.96716,397.96884 L171.80796,400.91364 C172.91196,402.75564 174.75396,407.90964 174.75396,407.90964 C174.75396,407.90964 174.01716,410.11884 175.12116,411.59124 C176.22636,413.06364 176.96196,414.53724 177.69876,416.00964 C177.94476,416.50284 178.06596,416.62164 178.13436,416.63484 C178.14156,416.67804 178.30116,417.31524 178.80276,419.32284 L180.27636,425.21244 C180.27636,425.21244 178.80276,427.05444 181.38036,427.42164 C183.95796,427.79124 185.43036,428.52684 185.43036,428.52684 C185.43036,428.52684 185.79876,429.63084 186.16596,430.73604 C186.53436,431.84124 182.85276,430.00044 186.53436,431.84124 L190.21596,433.68084 L192.79356,435.52164 C192.79356,435.52164 194.26596,435.89004 195.73836,437.36244 C197.21076,438.83604 195.73836,436.62684 197.21076,438.83604 C198.68436,441.04524 198.68436,440.67684 199.41996,442.14924 C200.15676,443.62164 199.41996,441.78084 200.15676,443.62164 C200.89356,445.46244 199.05276,443.99004 200.89356,445.46244 C202.73436,446.93484 201.62916,445.83084 202.73436,446.93484 C203.83836,448.04004 204.20676,447.30444 204.20676,449.14404 C204.20676,450.98484 204.57516,453.19404 204.57516,453.19404 C205.67916,455.77044 203.10276,454.66644 205.67916,455.77044 C208.25676,456.87564 208.25676,456.87564 209.36076,457.61124 L210.46476,458.34924 L216.35676,465.34404 L217.82916,463.50324 L219.66876,465.71124 L222.24756,468.65724 L223.71876,471.60324 C228.50556,473.44284 226.66476,474.54804 228.50556,473.44284 C230.34636,472.33884 228.87396,473.44284 230.34636,472.33884 L231.81876,471.23484 L208.25676,375.87924 C208.25676,375.87924 200.15676,339.06204 200.15676,336.85404" id="Fill-47" fill="#C87AAE"></path>
                <path d="M74.5998,243.58584 C74.541,243.53304 74.481,243.46824 74.421,243.37704 C74.481,243.46824 74.541,243.53304 74.5998,243.58584" id="Fill-49" fill="#CA7CB0"></path>
                <path d="M75.37848,243.48324 C75.35208,243.51204 75.31968,243.54444 75.28248,243.57444 C75.31968,243.54324 75.35208,243.51204 75.37848,243.48324" id="Fill-51" fill="#CA7CB0"></path>
                <path d="M74.99652,243.71652 C75.04332,243.70812 75.08532,243.69252 75.12732,243.67332 C75.08652,243.69252 75.04212,243.70812 74.99652,243.71652" id="Fill-53" fill="#CA7CB0"></path>
                <path d="M79.96584,252.3966 C79.89504,252.2214 79.82664,252.033 79.75944,251.835 C79.82664,252.0318 79.89504,252.2214 79.96584,252.3966" id="Fill-55" fill="#CA7CB0"></path>
                <path d="M80.33088,253.21692 C80.22888,253.01052 80.13288,252.80052 80.04048,252.58212 C80.13288,252.79932 80.22888,253.01052 80.33088,253.21692" id="Fill-57" fill="#CA7CB0"></path>
                <path d="M79.68456,251.61204 C79.59816,251.33724 79.51176,251.04564 79.42776,250.70604 C79.51296,251.04564 79.59816,251.33724 79.68456,251.61204" id="Fill-59" fill="#CA7CB0"></path>
                <path d="M75.16116,243.65616 C75.19956,243.63456 75.23556,243.61176 75.26676,243.58536 C75.23556,243.61056 75.19956,243.63456 75.16116,243.65616" id="Fill-61" fill="#CA7CB0"></path>
                <path d="M74.64252,243.6192 C74.69052,243.654 74.73612,243.6804 74.78292,243.6972 C74.73612,243.6804 74.69052,243.654 74.64252,243.6192" id="Fill-63" fill="#CA7CB0"></path>
                <path d="M74.97888,243.7212 C74.92728,243.7284 74.87328,243.7248 74.81688,243.7104 C74.87328,243.7248 74.92728,243.7284 74.97888,243.7212" id="Fill-65" fill="#CA7CB0"></path>
                <g id="Group-69" transform="translate(193.000000, 250.334400)">
                    <mask id="mask-2" fill="white">
                        <use xlink:href="#path-1"></use>
                    </mask>
                    <g id="Clip-68"></g>
                    <path d="M96.19532,79.19844 C96.54452,78.91884 96.79292,78.72084 96.94412,78.59964 C96.73412,78.76764 96.42212,79.01724 96.19532,79.19844 M125.27612,74.34084 L123.58172,70.95324 C123.58172,70.95324 117.93572,66.43644 116.24132,66.43644 C114.54812,66.43644 113.41892,63.04884 111.16052,59.66124 C108.90092,56.27364 108.90092,56.83644 108.90092,56.83644 L107.77052,54.01404 L103.82012,47.80284 L103.82012,38.20404 C103.82012,38.20404 103.81892,38.19444 103.68812,36.24564 L103.24772,36.08004 L99.93452,35.71284 C99.93452,35.71284 99.93452,34.97484 97.72532,35.71284 C95.51732,36.44844 96.98972,35.34444 94.04372,36.44844 C91.09892,37.55364 92.93972,36.44844 91.09892,37.55364 C89.25812,38.65764 88.52132,37.55364 88.52132,37.55364 L87.78452,34.97484 L82.99892,33.87204 C83.73572,31.29444 84.47132,30.18924 84.47132,30.18924 C82.99892,28.34964 87.78452,30.92604 82.99892,28.34964 C78.21332,25.77204 80.05412,25.77204 78.21332,25.77204 C76.37132,25.77204 76.00412,25.77204 75.63572,27.24444 C75.26852,28.71804 76.37132,26.87604 75.26852,28.71804 C74.16332,30.55764 76.37132,29.82204 74.16332,30.55764 C71.95412,31.29444 68.64092,30.55764 70.48052,32.03004 C72.32132,33.50364 71.95412,31.66284 73.42652,33.87204 C74.89892,36.08004 77.10812,35.71284 74.89892,36.08004 C72.68972,36.44844 76.00412,36.44844 72.68972,36.44844 C69.37652,36.44844 67.53572,37.55364 67.16852,36.08004 C66.80012,34.60764 69.37652,38.28924 66.80012,34.60764 C64.22252,30.92604 64.95932,32.39844 64.22252,30.92604 C63.48572,29.45364 64.59092,31.29444 63.48572,29.45364 L62.38172,27.61284 C62.38172,27.61284 63.48572,25.77204 59.80532,26.50884 C56.12252,27.24444 58.70012,27.98004 56.12252,27.24444 C53.54612,26.50884 51.33692,24.66804 51.33692,24.66804 L48.39092,25.03524 C48.39092,25.03524 50.60012,24.66804 46.18172,23.93124 C41.76452,23.19444 42.50132,24.66804 41.76452,23.19444 C41.02772,21.72204 41.76452,26.50884 41.02772,21.72204 C40.29212,16.93524 45.07772,18.40884 38.81972,16.19964 C32.56052,13.99044 27.03812,8.09964 27.03812,8.09964 C27.03812,8.09964 26.30132,5.52324 25.19732,5.15484 C24.09212,4.78644 16.72892,1.84164 16.72892,1.84164 C7.52492,-0.36756 7.52492,1.47324 7.52492,1.47324 L6.05252,2.20884 L4.47452,2.30244 L3.84332,16.93524 L3.84332,18.40884 L3.84332,19.88124 L3.84332,23.19444 C3.84332,23.19444 3.84332,24.29844 3.10652,26.87604 C2.37092,29.45364 2.73932,27.98004 2.37092,32.39844 C2.00252,36.81684 2.37092,34.60764 2.37092,40.13004 C2.37092,45.65244 2.37092,42.33924 2.73932,45.65244 C3.10652,48.96684 2.73932,45.65244 0.89732,51.54324 C-0.94228,57.43404 0.89732,52.64844 1.26692,56.69724 C1.63412,60.74724 1.26692,56.69724 3.47492,61.11564 C5.68412,65.53284 3.84332,62.22084 3.84332,66.63804 C3.84332,71.05644 3.84332,68.11164 4.58012,71.42364 C5.31572,74.73804 4.58012,71.42364 5.31572,73.26564 C6.05252,75.10644 5.31572,75.10644 5.68412,76.57884 L7.15652,82.46964 C7.52492,83.94204 7.15652,84.31044 7.15652,86.51964 C7.15652,88.72764 15.25652,125.54484 15.25652,125.54484 L38.81972,220.90044 L38.81972,229.73604 L39.55532,233.41764 C39.55532,233.41764 39.92252,235.62564 39.55532,237.09924 C39.18692,238.57284 38.45132,239.30844 38.45132,241.88484 L38.45132,247.40844 C38.45132,248.87964 38.08292,251.82564 38.08292,254.40324 C38.08292,256.97964 37.71452,258.08364 38.08292,261.76644 C38.45132,265.44804 38.81972,268.39284 38.45132,269.49804 C38.08292,270.60204 37.71452,272.07444 37.71452,273.17844 C37.71452,274.28364 38.81972,282.38364 38.81972,282.38364 L38.81972,283.85604 L38.81972,287.17044 C38.81972,290.48244 39.18692,291.58764 39.18692,293.42844 C39.18692,295.26924 37.10852,295.43964 38.88332,297.37884 C42.27092,299.63724 38.88332,297.37884 43.96652,299.07324 C49.04852,300.76764 47.91932,299.63724 51.30692,300.76764 C54.69452,301.89684 51.30692,300.76764 53.00012,297.94404 C54.69452,295.12164 53.00012,297.94404 52.43492,295.68444 C51.87092,293.42604 52.43492,295.68444 50.74172,293.42604 C49.04852,291.16884 46.78892,289.47324 46.78892,289.47324 L45.65972,287.78004 C44.53052,286.08564 43.96652,285.52164 43.96652,285.52164 C43.96652,285.52164 43.96652,283.26324 44.53052,280.43964 C45.09572,277.61724 45.09572,276.48684 45.09572,276.48684 L44.53052,273.66444 C44.53052,273.66444 44.53052,269.14644 46.22372,266.32284 C47.91932,263.50044 46.22372,266.32284 48.48332,264.62844 C50.74172,262.93524 51.87092,266.88804 51.87092,266.88804 L54.69452,273.09924 L56.38772,268.58124 L60.90572,266.32284 C65.42252,264.06564 63.72812,263.50044 63.72812,263.50044 L65.42252,259.54764 L68.24612,257.28924 L72.76412,257.28924 L77.27972,257.28924 C77.27972,257.28924 76.15172,254.46564 80.10332,252.77244 C80.10332,252.77244 81.79772,253.33644 88.57292,252.20724 C95.34932,251.07684 90.26852,252.20724 93.09092,250.51404 C95.91452,248.81964 97.04372,247.12404 97.04372,247.12404 C97.04372,247.12404 98.17172,245.43084 97.60772,242.04324 C97.04372,238.65564 97.60772,242.04324 97.04372,239.78484 C96.47852,237.52524 93.65612,238.09044 93.65612,238.09044 C93.65612,238.09044 91.96172,237.52524 89.70332,234.70284 C87.44372,231.87924 89.70332,234.70284 90.26852,232.44444 C90.83132,230.18484 90.83132,228.49164 90.83132,228.49164 C90.83132,228.49164 92.52572,227.36244 93.65612,223.97364 C94.78412,220.58604 93.65612,223.97364 94.22012,219.45684 C94.78412,214.94004 94.22012,219.45684 94.22012,217.76364 C94.22012,216.06924 93.09092,213.81084 93.09092,213.81084 L89.70332,214.37484 L84.62012,211.55244 L84.62012,202.51764 C84.62012,200.25924 86.31572,201.95364 91.96172,199.69404 C97.60772,197.43564 94.78412,197.43564 94.78412,197.43564 C94.78412,197.43564 97.04372,192.35364 98.73692,188.96604 C100.43132,185.57724 99.30212,187.27284 100.43132,182.75484 C101.56052,178.23684 100.43132,182.75484 99.86732,178.80204 C99.30212,174.84924 99.86732,178.80204 99.30212,177.10884 C98.73692,175.41444 99.30212,174.84924 99.30212,171.46164 C99.30212,168.07284 97.60772,168.07284 97.60772,168.07284 L98.73692,163.55724 C98.73692,163.55724 99.30212,161.86284 100.43132,160.16964 C101.56052,158.47404 100.43132,155.08644 100.43132,155.08644 L97.04372,148.31124 L95.91452,145.48764 L94.78412,133.62924 L89.70332,129.67644 L92.52572,129.67644 C92.52572,129.67644 90.83132,125.72484 89.70332,123.46644 C88.57292,121.20804 87.44372,120.64284 87.44372,120.64284 C87.44372,120.64284 85.75052,120.07764 82.36292,112.73724 C78.97412,105.39684 82.36292,112.73724 79.53932,112.73724 C76.71692,112.73724 79.53932,112.73724 76.15172,109.34964 C72.76412,105.96204 76.15172,109.34964 77.27972,106.52604 C78.41012,103.70364 77.27972,106.52604 78.41012,101.44524 C79.53932,96.36324 78.41012,101.44524 82.92692,96.36324 C87.44372,91.28124 85.18532,95.23284 85.18532,95.23284 L89.13812,88.45764 C89.13812,88.45764 90.26852,86.76444 93.09092,81.68124 C95.91452,76.60044 93.09092,81.68124 95.91452,79.42284 L105.51332,81.68124 C115.11212,83.94084 108.33572,82.81164 110.59532,83.94084 C112.85372,85.07004 110.59532,83.94084 116.24132,86.19924 C121.88732,88.45764 116.24132,86.19924 117.93572,82.81164 C119.62892,79.42284 117.93572,82.81164 123.58172,79.42284 C129.22772,76.03524 125.84012,77.72844 127.53452,76.03524 C129.22772,74.34084 125.27612,74.34084 125.27612,74.34084" id="Fill-67" fill="#7A79B8" mask="url(#mask-2)"></path>
                </g>
                <path d="M29.32968,319.60008 C29.40648,319.63608 29.47968,319.66608 29.55528,319.69968 C29.47968,319.66608 29.40648,319.63608 29.32968,319.60008" id="Fill-70" fill="#D6797E"></path>
                <path d="M30.29652,320.01024 C30.19932,319.97184 30.10452,319.93584 30.00492,319.89504 C30.10572,319.93584 30.19932,319.97184 30.29652,320.01024" id="Fill-72" fill="#D6797E"></path>
                <path d="M31.46832,320.4228 C31.38912,320.3976 31.30512,320.3712 31.21872,320.3436 C31.30752,320.3712 31.38792,320.3976 31.46832,320.4228" id="Fill-74" fill="#D6797E"></path>
                <path d="M30.64164,320.14272 C30.74004,320.17752 30.83004,320.20992 30.92244,320.24112 C30.83004,320.20992 30.73884,320.17752 30.64164,320.14272" id="Fill-76" fill="#D6797E"></path>
                <path d="M40.64472,454.56492 C40.53672,454.55292 40.46712,454.54572 40.46712,454.54572 C40.46712,454.54572 40.63992,454.63212 40.64472,454.56492" id="Fill-78" fill="#D6797E"></path>
                <path d="M39.64632,319.98792 L39.64632,319.98792 C39.64632,319.98912 39.64632,319.98792 39.64632,319.98792" id="Fill-80" fill="#D6797E"></path>
                <path d="M226.23744,543.1962 C226.23744,543.1962 228.49584,545.4558 231.88344,547.7142 C230.10864,545.7738 232.18704,545.6034 232.18704,543.7638 C232.18704,541.9218 231.81864,540.8178 231.81864,537.5046 L231.81864,534.1902 L231.81864,532.719 C231.81864,532.719 230.71344,524.619 230.71344,523.5138 C230.71344,522.4098 231.08304,520.9362 231.45144,519.8322 C231.81864,518.727 231.45144,515.7822 231.08304,512.1006 C230.71344,508.419 231.08304,507.315 231.08304,504.7374 C231.08304,502.161 231.45144,499.215 231.45144,497.7426 L231.45144,492.2202 C231.45144,489.6426 232.18704,488.907 232.55544,487.4334 C232.92264,485.961 232.55544,483.7518 232.55544,483.7518 L231.81864,480.0714 L231.81864,471.2346 L230.34624,472.3386 C228.87384,473.4426 230.34624,472.3386 228.50544,473.4426 C226.66464,474.5478 228.50544,473.4426 223.71864,471.603 L222.24744,468.657 L219.66864,465.7122 L217.82904,463.503 L216.35664,465.3438 L210.46464,458.349 L209.36184,457.6122 C208.25664,456.8754 208.25664,456.8754 205.67904,455.7714 C203.10264,454.6674 205.67904,455.7714 204.57504,453.1938 C204.57504,453.1938 204.20664,450.9846 204.20664,449.1438 C204.20664,447.3042 203.83824,448.0398 202.73424,446.9346 C201.62904,445.8306 202.73424,446.9346 200.89344,445.4634 C199.05264,443.9898 200.89344,445.4634 200.15664,443.6214 C199.41984,441.7806 200.15664,443.6214 199.41984,442.149 C198.68424,440.6766 198.68424,441.045 197.21184,438.8358 C195.73824,436.6266 197.21184,438.8358 195.73824,437.3634 C194.26584,435.8898 192.79344,435.5214 192.79344,435.5214 L190.21584,433.6806 L186.53424,431.841 C182.85264,430.0002 186.53424,431.841 186.16584,430.7358 C185.79864,429.6306 185.43024,428.5266 185.43024,428.5266 C185.43024,428.5266 183.95784,427.791 181.38024,427.4214 C178.80264,427.0542 180.27624,425.2134 180.27624,425.2134 L178.80264,419.3226 C178.30104,417.3162 178.14144,416.6778 178.13424,416.6346 C178.06584,416.6214 177.94464,416.5026 177.69864,416.0094 C176.96184,414.537 176.22624,413.0646 175.12104,411.591 C174.01704,410.1198 174.75384,407.9106 174.75384,407.9106 C174.75384,407.9106 172.91184,402.7554 171.80784,400.9146 L169.96704,397.9698 L168.86184,396.8658 C167.75784,395.7606 168.12624,394.6554 168.12624,394.6554 L166.28544,392.0778 L164.44464,388.7658 L162.97224,388.3974 L161.86704,388.3974 C160.76304,388.3974 160.39464,387.2922 160.39464,387.2922 C160.39464,387.2922 159.65904,386.1882 158.92224,385.083 C158.18664,383.979 157.81704,383.6106 157.08144,382.1382 C156.34464,380.6658 156.71304,380.6658 156.71304,380.6658 C156.71304,380.6658 155.60904,379.5618 153.39984,378.0882 L149.71824,375.1434 L148.61304,375.5118 C147.50904,375.879 146.77224,374.7738 146.77224,374.7738 L145.66824,373.671 C144.56304,372.5658 144.19584,373.3026 142.72224,372.1974 C141.24984,371.0934 142.72224,372.1974 141.98664,370.725 C141.24984,369.2526 141.61824,368.8842 141.61824,368.8842 L141.24984,366.3078 L140.88264,364.467 L137.19984,360.0486 L130.94184,357.8394 C124.68264,355.6302 130.94184,357.8394 129.83784,356.367 C128.73264,354.8934 129.46824,354.8934 129.46824,354.8934 C129.46824,354.8934 128.73264,353.4222 127.62864,351.5802 C126.52344,349.7394 127.26024,350.475 125.78784,347.8986 C124.31424,345.3222 124.68264,346.0578 123.21024,344.9538 C121.73784,343.8486 122.10624,344.217 121.00104,343.4802 C119.89704,342.7446 119.52864,343.4802 118.05624,343.113 C116.58264,342.7446 116.21424,340.1682 116.21424,340.1682 L114.74184,340.1682 L112.16424,339.7986 L109.21944,341.6394 C106.27464,343.4802 108.48384,339.4302 108.48384,339.4302 C108.48384,339.4302 107.74704,337.959 105.53784,335.013 C103.32864,332.0682 105.53784,335.013 104.80224,333.909 C104.06544,332.8038 103.69704,332.8038 103.32864,331.6998 C102.96144,330.5946 101.85624,327.6498 101.85624,326.1762 C101.85624,324.7038 95.22984,320.2854 95.22984,320.2854 C95.22984,320.2854 93.75744,317.709 94.12464,316.2366 C94.49304,314.7642 94.49304,314.0274 94.49304,314.0274 C94.49304,314.0274 94.12464,311.8194 93.75744,310.3458 C93.38784,308.8722 94.86144,309.2406 94.86144,308.1366 C94.86144,307.0314 93.75744,305.9274 93.75744,305.9274 C93.75744,305.9274 92.65224,305.5602 91.54824,304.0866 C90.44304,302.6142 91.54824,304.0866 91.17984,302.6142 C90.81144,301.1418 88.60224,303.7194 88.60224,303.7194 L84.92064,307.7694 C81.23904,311.8194 84.92064,307.7694 83.81664,309.9774 C82.71264,312.1866 83.81664,309.9774 83.81664,314.3958 C83.81664,318.8142 83.81664,314.3958 84.18504,318.0774 C84.55224,321.759 83.07984,319.9182 81.23904,321.3906 C79.39824,322.8642 81.23904,321.3906 80.13504,321.3906 C79.02984,321.3906 77.92584,319.9182 77.92584,319.9182 C77.92584,319.9182 76.08504,319.1814 73.13904,318.0774 C70.19424,316.9722 73.13904,318.0774 70.19424,316.605 C67.24944,315.1314 67.61664,315.1314 67.61664,315.1314 L63.19944,312.9222 C58.78104,310.7142 62.46264,311.4498 62.46264,311.4498 C62.46264,311.4498 59.88624,307.7694 61.35864,306.2958 C62.83104,304.8222 61.35864,306.2958 61.72584,304.8222 C62.09424,303.351 60.99024,301.1418 60.99024,301.1418 L59.88624,300.7734 C58.78104,300.405 58.78104,300.0366 55.83624,298.9326 C52.89024,297.8274 55.83624,298.9326 53.62704,299.301 C51.41784,299.6694 53.62704,299.301 52.15464,300.0366 C50.68104,300.7734 51.04944,302.2458 51.04944,302.2458 C51.04944,302.2458 48.84024,304.455 47.73624,306.2958 C46.63224,308.1366 47.36784,307.401 47.36784,308.8722 C47.36784,310.3458 47.36784,310.7142 46.26264,313.2906 C45.15864,315.8682 45.15864,315.1314 45.15864,315.1314 L42.58224,316.9722 L40.00464,319.9182 L39.73464,320.0286 C39.89784,320.2638 38.61504,321.5718 38.20824,325.2402 C37.64304,330.3222 37.07904,326.9346 35.94984,328.6278 C34.82064,330.3222 34.82064,330.3222 30.86784,335.4042 C26.91504,340.4862 30.86784,335.4042 28.60944,338.2266 C26.35104,341.0514 28.04424,340.4862 28.04424,345.5682 C28.04424,350.6502 29.73864,350.085 29.73864,354.0378 C29.73864,357.9906 29.17344,357.4254 29.17344,359.6838 C29.17344,361.9434 26.91504,363.6366 26.91504,363.6366 L22.96224,367.0242 C19.01064,370.413 24.09144,370.413 24.09144,370.413 C24.09144,370.413 25.22064,372.1074 26.91504,374.9298 C28.60944,377.7534 28.04424,377.7534 28.04424,377.7534 L26.91504,383.9646 L21.26784,392.9994 C15.62184,402.033 21.26784,395.2578 21.83304,398.6454 C22.39824,402.033 22.39824,404.2914 22.39824,404.2914 C22.39824,404.2914 19.01064,407.679 15.05784,411.6318 C11.10504,415.5846 12.79824,414.4554 11.10504,416.715 C9.41064,418.9722 8.84664,421.7958 8.28144,424.6206 C7.71624,427.443 7.71624,439.8654 7.71624,439.8654 C7.71624,439.8654 4.89384,443.253 1.50624,448.335 C-1.88256,453.417 1.50624,448.335 1.50624,450.5934 C1.50624,452.8518 4.32864,453.981 4.32864,453.981 L5.45904,450.5934 C5.45904,450.5934 7.15224,448.335 11.10504,444.9474 C15.05784,441.5598 11.10504,444.9474 12.79824,444.3822 C14.49264,443.8182 15.62184,446.0754 19.01064,447.2058 C22.39824,448.335 21.83304,447.2058 26.35104,446.6406 C30.86784,446.0754 31.43184,447.771 34.82064,449.4642 C38.20824,451.1586 34.82064,449.4642 38.20824,452.2878 C40.26144,453.9978 40.65264,454.4634 40.64424,454.5654 C41.53704,454.6566 45.73224,455.049 47.24184,454.5462 C48.93624,453.981 50.63064,454.5462 56.84184,453.981 C56.84184,453.981 59.66424,456.2394 61.92384,458.499 C64.18224,460.7574 63.61704,459.627 66.44064,461.8866 C69.26424,464.145 66.44064,461.8866 67.00584,464.145 C67.56984,466.4034 70.39344,466.9686 70.39344,466.9686 C70.39344,466.9686 73.78104,466.4034 78.86304,464.7102 C83.94504,463.0158 80.55744,464.7102 87.33264,465.8394 C94.10904,466.9686 87.33264,465.8394 88.46184,468.0978 C89.59104,470.3562 92.97984,470.9214 94.67304,472.6158 C96.36744,474.309 98.06184,472.0506 98.06184,472.0506 L101.44944,474.873 L108.22464,479.9562 L112.74264,481.0842 C112.74264,481.0842 113.87184,483.9078 120.08304,483.9078 C126.29424,483.9078 120.08304,483.9078 122.34144,482.7786 C122.34144,482.7786 127.98744,483.9078 130.24704,483.9078 C132.50544,483.9078 135.89304,485.037 135.89304,485.037 C135.89304,485.037 139.28064,485.6022 140.97504,485.6022 C142.66824,485.6022 144.36264,483.9078 144.36264,483.9078 C144.36264,483.9078 147.75024,483.3438 150.00984,482.7786 C152.26824,482.2146 152.26824,481.0842 152.26824,481.0842 L153.39744,478.8258 L157.91424,474.309 L160.73784,473.1798 C163.56144,472.0506 165.81984,474.873 165.81984,474.873 C165.81984,474.873 165.81984,478.8258 177.11184,478.2618 L182.75904,481.6494 C182.75904,481.6494 185.58264,483.3438 188.40624,485.6022 C191.22864,487.8606 191.79384,488.9898 191.79384,488.9898 L194.05224,491.8134 C196.31064,494.6358 196.31064,492.9426 197.43984,494.6358 C198.56904,496.3302 197.43984,494.6358 197.43984,500.283 C197.43984,505.929 197.43984,500.283 199.69824,503.1066 C201.95784,505.929 199.69824,503.1066 202.52184,505.929 L210.42744,513.8346 C218.33184,521.7402 210.42744,513.8346 212.68584,518.3514 C214.94424,522.8694 214.37904,521.175 215.50944,523.4334 C216.63864,525.6918 217.20384,527.9514 217.20384,527.9514 L223.41384,531.9042 L226.23744,543.1962 Z" id="Fill-82" fill="#D6797E"></path>
                <path d="M244.88088,517.2438 C244.87248,517.2246 244.87128,517.2222 244.87128,517.2222 C244.87128,517.2222 244.87248,517.2246 244.88088,517.2438" id="Fill-84" fill="#D6797E"></path>
                <path d="M246.93744,521.7672 C246.50904,520.824 246.17184,520.0848 245.90304,519.492 C246.17064,520.0824 246.51144,520.83 246.93744,521.7672" id="Fill-86" fill="#D6797E"></path>
                <path d="M31.9224,320.55864 C31.86,320.54064 31.7904,320.52024 31.7208,320.49864 C31.7928,320.52144 31.8588,320.53944 31.9224,320.55864" id="Fill-88" fill="#D6797E"></path>
                <path d="M244.97928,517.46064 C244.93368,517.36104 244.90848,517.30464 244.89408,517.27224 C244.90848,517.30464 244.93608,517.36464 244.97928,517.46064" id="Fill-90" fill="#D6797E"></path>
                <path d="M245.3262,518.22348 C245.1918,517.92828 245.097,517.71708 245.0298,517.57068 C245.097,517.71708 245.193,517.92948 245.3262,518.22348" id="Fill-92" fill="#D6797E"></path>
                <path d="M32.48556,320.70636 C32.47116,320.70276 32.44356,320.69556 32.42556,320.69076 C32.44716,320.69676 32.46876,320.70156 32.48556,320.70636" id="Fill-94" fill="#D6797E"></path>
                <path d="M32.26692,320.65128 C32.22612,320.64168 32.17332,320.62608 32.12412,320.61408 C32.17572,320.62728 32.22372,320.64048 32.26692,320.65128" id="Fill-96" fill="#D6797E"></path>
                <path d="M298.14612,88.78284 C298.01772,88.95564 297.89532,89.11884 297.77172,89.28324 C297.89532,89.11764 298.01772,88.95684 298.14612,88.78284" id="Fill-98" fill="#EB9261"></path>
                <path d="M297.58356,89.53464 C297.46116,89.69664 297.34356,89.85504 297.22956,90.00504 C297.34476,89.85264 297.45996,89.69904 297.58356,89.53464" id="Fill-100" fill="#EB9261"></path>
                <path d="M267.8988,286.41492 C270.108,286.04652 267.8988,286.41492 266.4264,284.20572 C264.954,281.99652 265.3224,283.83852 263.4804,282.36492 C261.6408,280.89132 264.954,281.62932 267.1632,280.89132 C269.3724,280.15572 267.1632,280.89132 268.2684,279.05172 C269.3724,277.21092 268.2684,279.05172 268.6356,277.57932 C269.004,276.10692 269.3724,276.10692 271.2132,276.10692 C273.054,276.10692 271.2132,276.10692 275.9988,278.68452 C280.7844,281.26092 275.9988,278.68452 277.4724,280.52412 C277.4724,280.52412 276.7356,281.62932 275.9988,284.20572 L280.7844,285.30972 L281.5224,287.88852 C281.5224,287.88852 282.258,288.99132 284.0988,287.88852 C285.9396,286.78332 284.0988,287.88852 287.0436,286.78332 C289.9896,285.67932 288.5172,286.78332 290.7252,286.04652 C292.9344,285.30972 292.9344,286.04652 292.9344,286.04652 L296.2476,286.41492 L296.688,286.58052 C296.6064,285.34812 296.4732,283.34772 296.2548,280.06812 C296.2548,280.06812 294.5604,281.76252 291.7368,279.50292 C288.9144,277.24452 291.7368,279.50292 288.3492,278.37492 C284.9616,277.24452 288.3492,278.37492 285.5256,276.68052 C282.7032,274.98612 285.5256,274.42212 286.0908,272.72772 C286.656,271.03452 286.0908,272.72772 288.3492,271.59852 C290.6076,270.46932 288.3492,271.59852 291.1728,269.34012 C293.9952,267.08172 290.6076,267.08172 287.784,264.25812 C284.9616,261.43452 287.784,264.25812 283.8312,260.30532 C279.8796,256.35252 281.0088,256.91772 281.0088,256.91772 L281.0088,254.09412 C281.0088,251.27052 283.8312,251.83572 283.8312,251.83572 L288.3492,249.01212 C292.8672,246.18972 288.3492,249.01212 289.4784,246.18972 L290.6076,243.36612 C291.7368,240.54252 291.7368,239.41332 290.6076,237.15492 C289.4784,234.89532 290.6076,237.15492 288.9144,238.28412 C287.22,239.41332 286.656,237.71892 284.9616,236.02572 C283.2684,234.33132 283.8312,230.94372 282.7032,226.99092 C281.574,223.03812 283.8312,224.73252 287.22,218.52132 C290.6076,212.31012 287.22,218.52132 287.784,215.69772 C288.3492,212.87412 288.3492,212.87412 289.4784,209.48652 C290.6076,206.09892 290.6076,206.66412 290.6076,206.66412 C290.6076,206.66412 293.9952,202.14612 295.1244,200.45172 C296.2548,198.75852 296.2548,197.62932 296.2548,197.62932 L298.5132,194.24052 C298.5132,194.24052 297.384,189.72372 296.82,188.03052 C296.2548,186.33612 296.82,188.03052 296.2548,185.77092 C295.6896,183.51252 292.302,183.51252 292.302,183.51252 L290.0436,179.55972 C287.784,175.60812 290.0436,179.55972 290.6076,176.17212 C290.6076,176.17212 294.5604,173.91372 296.82,171.09012 C299.0772,168.26652 296.82,171.09012 297.948,168.83172 C299.0772,166.57332 299.0772,167.13852 301.9008,163.18572 C301.9008,163.18572 304.7232,162.62052 306.4188,162.05652 C308.112,161.49132 311.4996,159.79692 311.4996,159.79692 C311.4996,159.79692 312.6288,158.10372 314.8872,156.40932 C317.1468,154.71492 314.8872,156.40932 317.712,152.45652 C320.5344,148.50372 318.276,150.76332 318.84,147.37452 C319.4052,143.98692 319.9704,143.42172 319.9704,143.42172 L318.276,136.64652 L313.7592,129.87012 L318.84,133.25892 C323.9232,136.64652 318.84,133.25892 323.9232,131.56452 C329.004,129.87012 323.9232,131.56452 326.7456,129.30612 L325.6164,124.78932 C325.6164,124.78932 323.358,124.22412 321.6636,123.09492 C319.9704,121.96572 319.4052,121.96572 317.712,120.83652 C316.0176,119.70732 316.5816,118.57812 316.5816,118.57812 C316.5816,118.57812 312.0648,111.80172 311.4996,110.10852 C310.9356,108.41412 310.3716,108.41412 309.8064,106.15572 C309.2412,103.89612 306.4188,99.94332 306.4188,99.94332 C306.4188,99.94332 299.6424,98.25012 297.948,98.25012 C296.2548,98.25012 295.6896,94.86252 295.6896,94.86252 L295.6896,92.03892 L281.154,117.42732 L274.158,103.06812 L272.3172,100.49052 L263.4804,90.91812 L259.8,89.07852 L255.1596,83.85732 L257.2236,84.66012 L243.9684,79.50612 L242.1276,79.50612 L240.6552,79.87332 L238.446,81.34692 C236.2368,82.81932 238.446,81.34692 236.6052,80.61012 L235.5012,78.40092 L234.7644,76.92852 L233.292,75.45612 C233.292,75.45612 231.0828,75.45612 229.6104,75.82452 C228.1368,76.19172 227.4012,74.35092 227.4012,74.35092 C227.4012,74.35092 201.9984,114.48132 200.5248,117.05892 L200.5248,124.05372 L203.1024,133.25772 C203.1024,133.25772 206.0472,142.83012 205.6788,145.40772 C205.3116,147.98532 206.784,159.39732 206.784,160.86972 L206.784,163.07892 C206.784,165.28812 206.4156,165.65652 206.0472,168.23412 C205.6788,170.81052 206.0472,168.23412 205.3116,173.01972 C204.5748,177.80652 205.3116,174.49212 205.3116,180.75132 L205.3116,184.43292 C205.3116,184.43292 202.3656,191.06052 201.9984,192.53292 L202.734,194.00532 C202.734,194.00532 203.1024,195.11052 203.1024,196.58292 L203.1024,199.15932 C203.1024,199.15932 202.734,201.73692 201.6288,203.20932 C200.5248,204.68172 200.8932,208.73172 200.8932,208.73172 L199.0524,216.09492 L197.4744,252.63732 L199.0524,252.54372 L200.5248,251.80692 C200.5248,251.80692 200.5248,249.96612 209.7288,252.17532 C209.7288,252.17532 217.092,255.12012 218.1972,255.48972 C219.3012,255.85692 220.038,258.43452 220.038,258.43452 C220.038,258.43452 225.5604,264.32532 231.8196,266.53452 C238.0776,268.74252 233.292,267.27012 234.0276,272.05692 C234.7644,276.84252 234.0276,272.05692 234.7644,273.52932 C235.5012,275.00172 234.7644,273.52932 239.1816,274.26492 C243.6,275.00172 241.3908,275.37012 241.3908,275.37012 L244.3368,275.00172 C244.3368,275.00172 246.546,276.84252 249.1236,277.57932 C251.7,278.31492 249.1236,277.57932 252.8052,276.84252 C256.4856,276.10692 255.3816,277.94652 255.3816,277.94652 L256.4856,279.78852 C257.5908,281.62932 256.4856,279.78852 257.2236,281.26092 C257.9592,282.73332 257.2236,281.26092 259.8,284.94132 C262.3764,288.62412 259.8,284.94132 260.1684,286.41492 C260.5356,287.88852 262.3764,286.78332 265.6896,286.78332 C269.004,286.78332 265.6896,286.78332 267.8988,286.41492" id="Fill-102" fill="#EB9261"></path>
                <path d="M295.68984,92.03892 C295.68984,92.03892 295.75224,91.95732 295.84104,91.84092 C295.74864,91.96212 295.68984,92.03892 295.68984,92.03892" id="Fill-104" fill="#EB9261"></path>
                <path d="M296.1258,91.46712 C296.3658,91.15032 296.6958,90.71592 297.0882,90.19272 C296.6982,90.71112 296.3658,91.14912 296.1258,91.46712" id="Fill-106" fill="#EB9261"></path>
                <path d="M296.79612,288.1974 C296.80332,288.3066 296.80932,288.3882 296.81292,288.4374 C296.80932,288.3882 296.80452,288.3114 296.79612,288.1974" id="Fill-108" fill="#EB9261"></path>
                <path d="M296.81712,288.51264 C296.81832,288.52704 296.81832,288.53424 296.81952,288.53664 C296.81832,288.53304 296.81832,288.52464 296.81712,288.51264" id="Fill-110" fill="#EB9261"></path>
                <path d="M295.91136,91.74828 C295.96416,91.67868 296.02176,91.60308 296.09256,91.50948 C296.02296,91.60188 295.96416,91.67868 295.91136,91.74828" id="Fill-112" fill="#EB9261"></path>
            </g>
        </g>
    </g>
</svg>