<?xml version="1.0" encoding="UTF-8"?>
<svg width="24px" height="24px" viewBox="0 0 24 24" version="1.1" xmlns="http://www.w3.org/2000/svg" xmlns:xlink="http://www.w3.org/1999/xlink">
    <!-- Generator: sketchtool 62 (101010) - https://sketch.com -->
    <title>9808C7A7-BF28-49A8-BBB2-A875CDDF3FB3</title>
    <desc>Created with sketchtool.</desc>
    <g id="Page-1" stroke="none" stroke-width="1" fill="none" fill-rule="evenodd">
        <g id="1" transform="translate(-686.000000, -3977.000000)" fill="#15AAC5">
            <g id="Group-27" transform="translate(300.000000, 3540.000000)">
                <g id="Group-18" transform="translate(0.000000, 108.000000)">
                    <g id="Group-15" transform="translate(386.000000, 326.000000)">
                        <g id="Group-12" transform="translate(0.000000, 3.000000)">
                            <path d="M19.9784,15.284 L19.9784,20.7624 L3.2208,20.7624 L3.2208,15.284 L1.24344979e-14,15.284 L1.24344979e-14,22.3728 C1.24344979e-14,23.2616 0.72,23.9824 1.6128,23.9824 L21.5864,23.9824 C22.4784,23.9824 23.1992,23.2624 23.1992,22.3728 L23.1992,15.284 L19.9784,15.284 Z" id="Path"></path>
                            <path d="M11.3048,14.7408 L6.6936,9.1688 C6.6936,9.1688 5.992,8.5064 6.7528,8.5064 C7.5136,8.5064 9.3512,8.5064 9.3512,8.5064 C9.3512,8.5064 9.3512,8.0608 9.3512,7.3736 C9.3512,5.4144 9.3512,1.8488 9.3512,0.3952 C9.3512,0.3952 9.248,3.60600438e-13 9.8432,3.60600438e-13 C10.4432,3.60600438e-13 13.0712,3.60600438e-13 13.5008,3.60600438e-13 C13.9296,3.60600438e-13 13.92,0.3328 13.92,0.3328 C13.92,1.7424 13.92,5.4312 13.92,7.3264 C13.92,7.9408 13.92,8.3392 13.92,8.3392 C13.92,8.3392 15.3936,8.3392 16.3184,8.3392 C17.2416,8.3392 16.5464,9.0328 16.5464,9.0328 C16.5464,9.0328 12.6232,14.2408 12.076,14.7872 C11.6824,15.1832 11.3048,14.7408 11.3048,14.7408 Z" id="Path"></path>
                        </g>
                    </g>
                </g>
            </g>
        </g>
    </g>
</svg>