<?xml version="1.0" encoding="UTF-8"?>
<svg width="18px" height="21px" viewBox="0 0 18 21" version="1.1" xmlns="http://www.w3.org/2000/svg" xmlns:xlink="http://www.w3.org/1999/xlink">
    <!-- Generator: Sketch 63 (92445) - https://sketch.com -->
    <title>mail</title>
    <desc>Created with Sketch.</desc>
    <g id="Mock-Ups" stroke="none" stroke-width="1" fill="none" fill-rule="evenodd">
        <g id="Feedback" transform="translate(-575.000000, -977.000000)" fill="#FFFFFF" fill-rule="nonzero">
            <g id="Footer" transform="translate(0.000000, 928.000000)">
                <g id="Group-31" transform="translate(575.000000, 48.000000)">
                    <g id="mail" transform="translate(0.000000, 1.000000)">
                        <path d="M9,3 C6.7944,3 5,4.79416874 5,6.99948449 C5,8.36856517 5.69051429,9.62828851 6.84712381,10.3692216 C8.02819048,11.1258098 9.47798095,11.2062185 10.8252571,10.5864507 C11.1119238,10.454582 11.2374476,10.1152734 11.1055238,9.82860555 C10.9736381,9.54197583 10.6343238,9.4164682 10.347581,9.54833691 C9.3624381,10.0015356 8.3112381,9.94999943 7.46365714,9.40705988 C6.63660952,8.87726151 6.14285714,7.97722513 6.14285714,6.99948449 C6.14285714,5.42425896 7.42457143,4.14270985 9,4.14270985 C10.5754286,4.14270985 11.8571429,5.42425896 11.8571429,6.99948449 C11.8571429,7.3145296 11.6008,7.57083942 11.2857143,7.57083942 C10.9977905,7.57083942 10.7288381,7.35250566 10.7143619,7.00816909 C10.7143238,7.00527422 10.7142857,7.00237936 10.7142857,6.99948449 C10.7142857,6.05434917 9.94525714,5.28541971 9,5.28541971 C8.05474286,5.28541971 7.28571429,6.05434917 7.28571429,6.99948449 C7.28571429,7.94461981 8.05474286,8.71354927 9,8.71354927 C9.43870476,8.71354927 9.83927619,8.54774207 10.142819,8.27573904 C10.4463238,8.54778016 10.8469714,8.71354927 11.2857143,8.71354927 C12.2309714,8.71354927 13,7.94461981 13,6.99948449 C13,4.79416874 11.2056,3 9,3 Z M9.56339048,7.09112982 C9.51927619,7.36267577 9.28380952,7.57083942 9,7.57083942 C8.68491429,7.57083942 8.42857143,7.3145296 8.42857143,6.99948449 C8.42857143,6.68443938 8.68491429,6.42812956 9,6.42812956 C9.29299048,6.42812956 9.53485714,6.64981528 9.56742857,6.93415958 C9.55889524,6.9860767 9.55748571,7.03890798 9.56339048,7.09112982 Z" id="Shape"></path>
                        <path d="M18,8.07909375 C17.9998,7.91999414 17.93732,7.76097656 17.82424,7.64502539 L15.6,5.36431055 L15.6,0.615234375 C15.6,0.275460937 15.33136,0 15,0 L3,0 C2.66864,0 2.4,0.275460937 2.4,0.615234375 L2.4,5.36431055 L0.17576,7.64502539 C0.17368,7.6471582 0.17192,7.64953711 0.16988,7.65171094 C0.05744,7.77049219 0.00028,7.92688477 0,8.07909375 C0,8.07950391 0,8.07987305 0,8.0802832 L0,19.1542969 C0,20.1733301 0.80864,21 1.8,21 L16.2,21 C17.19356,21 18,20.1711973 18,19.1542969 L18,8.0802832 C18,8.07987305 18,8.07950391 18,8.07909375 Z M15.6,7.10443945 L16.55148,8.08007813 L15.6,9.0557168 L15.6,7.10443945 Z M3.6,5.6193457 C3.6,5.61922266 3.6,5.61905859 3.6,5.61893555 L3.6,1.23046875 L14.4,1.23046875 L14.4,5.61893555 C14.4,5.61905859 14.4,5.61922266 14.4,5.6193457 L14.4,10.2861855 L11.15148,13.6171875 L6.84852,13.6171875 L3.6,10.2861855 L3.6,5.6193457 Z M2.4,7.10443945 L2.4,9.0557168 L1.44852,8.08007813 L2.4,7.10443945 Z M1.2,18.8994668 L1.2,9.56537695 L5.75148,14.2324219 L1.2,18.8994668 Z M2.04856,19.7695313 L6.84852,14.8476563 L11.15148,14.8476563 L15.95144,19.7695313 L2.04856,19.7695313 Z M16.8,18.8994668 L12.24852,14.2324219 L16.8,9.56537695 L16.8,18.8994668 Z" id="Shape"></path>
                    </g>
                </g>
            </g>
        </g>
    </g>
</svg>