<?xml version="1.0" encoding="UTF-8"?>
<svg width="169px" height="113px" viewBox="0 0 169 113" version="1.1" xmlns="http://www.w3.org/2000/svg" xmlns:xlink="http://www.w3.org/1999/xlink">
    <!-- Generator: sketchtool 62 (101010) - https://sketch.com -->
    <title>BD7AA8C9-3A55-4331-AB88-B52D2AFF4CBC</title>
    <desc>Created with sketchtool.</desc>
    <defs>
        <polygon id="path-1" points="0.403782946 0.084991453 74.1217436 0.084991453 74.1217436 73.7349145 0.403782946 73.7349145"></polygon>
        <polygon id="path-3" points="0.713802326 0.149348333 15.5551977 0.149348333 15.5551977 18.8333333 0.713802326 18.8333333"></polygon>
        <polygon id="path-5" points="0.0128735465 0.151594173 16.8827544 0.151594173 16.8827544 19.1165414 0.0128735465 19.1165414"></polygon>
        <polygon id="path-7" points="0.0375828488 0.151594173 16.9074637 0.151594173 16.9074637 19.1165414 0.0375828488 19.1165414"></polygon>
        <polygon id="path-9" points="0.515752326 0.151785338 15.0986686 0.151785338 15.0986686 18.6680673 0.515752326 18.6680673"></polygon>
    </defs>
    <g id="Page-1" stroke="none" stroke-width="1" fill="none" fill-rule="evenodd">
        <g id="1" transform="translate(-765.000000, -943.000000)">
            <g id="Group-34" transform="translate(765.000000, 943.000000)">
                <g id="Group-10" transform="translate(46.947674, 0.000000)">
                    <g id="Group-3">
                        <mask id="mask-2" fill="white">
                            <use xlink:href="#path-1"></use>
                        </mask>
                        <g id="Clip-2"></g>
                        <path d="M37.2646893,73.7349145 C16.9389946,73.7349145 0.403782946,57.2156667 0.403782946,36.9104359 C0.403782946,16.6052051 16.9389946,0.084025641 37.2646893,0.084025641 C57.588458,0.084025641 74.1217436,16.6052051 74.1217436,36.9104359 C74.1217436,57.2156667 57.588458,73.7349145 37.2646893,73.7349145 M37.2646893,3.06645299 C18.5780704,3.06645299 3.37376506,18.2470855 3.37376506,36.9104359 C3.37376506,55.5718547 18.5780704,70.7544188 37.2646893,70.7544188 C55.9493822,70.7544188 71.1517615,55.5718547 71.1517615,36.9104359 C71.1517615,18.2470855 55.9493822,3.06645299 37.2646893,3.06645299" id="Fill-1" fill="#275CA8" mask="url(#mask-2)"></path>
                    </g>
                    <path d="M12.5429589,33.9865368 C12.4235432,32.6440581 12.3869481,31.4831521 12.4196911,30.3164513 C12.4331735,29.7755966 12.6065188,29.4568786 13.107294,29.1961094 C20.8885701,25.160947 28.6621419,21.1103316 36.4260835,17.0423316 C36.9018199,16.7931521 37.2253977,16.8704171 37.6375742,17.1369812 C41.2643423,19.4974256 44.8872582,21.863665 48.5467692,24.1738872 C51.2856243,25.9026906 53.978254,27.7106906 56.7614085,29.3796137 C58.1770614,30.225665 59.4887072,31.2455624 60.9371032,32.0549128 C61.557294,32.4006735 61.4166917,32.6865538 60.8119094,32.9917504 C56.0738056,35.377306 51.3472582,37.7899043 46.6187847,40.1928444 C43.2019571,41.9332376 39.773573,43.6523829 36.377932,45.4294769 C35.6652904,45.8022803 35.1702934,45.7346735 34.5154335,45.3116479 C28.4714621,41.417494 22.402452,37.5561778 16.3334419,33.6948615 C16.0657197,33.522947 15.7845152,33.1057162 15.4590113,33.327853 C15.1758807,33.5210154 15.3684866,33.9672205 15.3877472,34.2917333 C15.5090888,36.173135 15.6766559,38.0487419 15.7691067,39.9301436 C15.7960716,40.5212205 16.0349028,40.8534598 16.5087132,41.1547932 C22.9186357,45.244041 29.3189278,49.3390838 35.7095897,53.4553744 C36.2045868,53.7721607 36.5686118,53.8127248 37.10213,53.5365026 C44.2150638,49.8509641 51.34148,46.1905368 58.4621181,42.5262462 C58.9417066,42.2770667 59.4232212,42.0278872 59.9047358,41.7845026 C61.1605259,41.1528615 61.1605259,41.1528615 61.7595301,42.4876137 C62.3180871,43.7354427 62.3200131,43.7373744 61.0873357,44.3728786 C53.1712355,48.4486051 45.2551354,52.5166051 37.3544436,56.621306 C36.5705379,57.026947 36.0100549,57.057853 35.2300012,56.5517675 C28.6236208,52.2616308 22.0287967,47.9463829 15.3145569,43.8300923 C13.536805,42.7406564 12.8164592,41.5527077 12.8684627,39.5418872 C12.9166142,37.6334427 12.6565963,35.7192034 12.5429589,33.9865368 M55.9043125,32.2789812 C55.4420584,31.9641265 55.1685581,31.7690325 54.8854275,31.5893915 C49.1265128,27.8922632 43.3598939,24.210588 37.6183137,20.4941436 C37.0404961,20.1174769 36.6186893,20.1503145 36.0389457,20.4535795 C29.9429708,23.6523487 23.8392916,26.8240752 17.7336863,30.0073915 C16.7032451,30.5424513 16.7032451,30.5482462 17.6624222,31.1586393 C23.3654812,34.7997504 29.0781705,38.4234769 34.7638951,42.0974256 C35.4129767,42.5146564 35.8867871,42.4914769 36.5262385,42.157306 C39.6560835,40.5328103 42.803263,38.9450154 45.9485164,37.3436991 C49.2074073,35.6844342 52.4701503,34.0271009 55.9043125,32.2789812" id="Fill-4" fill="#275CA8"></path>
                    <path d="M57.715,40.4097658 C57.7515951,40.8733556 57.3394186,40.8540393 57.0986613,40.9834581 C51.3301163,43.9909966 45.5596452,46.9888769 39.7891741,49.9944838 C39.4578921,50.1663983 39.1304621,50.3576291 38.8088104,50.5507915 C38.500641,50.7362274 38.204028,50.8965521 37.9420841,50.481253 C37.6339147,49.9964154 38.0537955,49.8824496 38.335,49.7356462 C40.6404919,48.5322444 42.9517621,47.3385009 45.257254,46.1370308 C49.0843321,44.1474581 52.9114103,42.1540222 56.7327102,40.1567231 C57.1525909,39.9384496 57.5589893,39.6854068 57.715,40.4097658" id="Fill-6" fill="#275CA8"></path>
                    <path d="M38.3105391,47.8349282 C38.1179332,47.8716291 37.9754049,47.7866376 37.8829541,47.6301761 C37.7712427,47.4428085 37.7211652,47.2303299 37.913771,47.0738684 C38.0697818,46.9483128 38.2681658,46.8710479 38.4492153,46.7744667 C44.5105212,43.6162615 50.569901,40.4522615 56.635059,37.3037145 C56.9143375,37.162706 57.2552499,36.7242274 57.555715,37.3172359 C57.8407716,37.8774068 57.3303661,37.9450137 57.0433834,38.0937487 C50.9859296,41.2558171 44.9207716,44.4062957 38.8575397,47.5625692 C38.6745641,47.6572188 38.4935146,47.7460735 38.3105391,47.8349282" id="Fill-8" fill="#275CA8"></path>
                </g>
                <polygon id="Fill-11" fill="#275CA8" points="0.494186047 87.2280702 0.494186047 112.008772 15.3197674 112.008772 15.3197674 109.328727 3.70210634 109.328727 3.70210634 100.335042 13.1804991 100.335042 13.1804991 97.6530551 3.70210634 97.6530551 3.70210634 89.8731576 14.9386673 89.8731576 14.9386673 87.2280702"></polygon>
                <g id="Group-14" transform="translate(18.284884, 93.175439)">
                    <mask id="mask-4" fill="white">
                        <use xlink:href="#path-3"></use>
                    </mask>
                    <g id="Clip-13"></g>
                    <path d="M9.71194186,0.149348333 C12.1729884,0.149348333 13.9026395,1.13809833 15.1697326,2.27374833 L13.5942674,4.215465 C12.4793837,3.300165 11.3249651,2.64099833 9.82659302,2.64099833 C6.44240698,2.64099833 3.98333721,5.424565 3.98333721,9.52834833 C3.98333721,13.594465 6.32775581,16.3422483 9.7495,16.3422483 C11.518686,16.3422483 13.0170581,15.5003983 14.1319419,14.5455483 L15.5551977,16.5249317 C13.8631047,17.9524983 11.7104302,18.8338983 9.48066279,18.8338983 C4.52101163,18.8338983 0.713802326,15.4269483 0.713802326,9.52834833 C0.713802326,3.55629833 4.9045,0.149348333 9.71194186,0.149348333" id="Fill-12" fill="#275CA8" mask="url(#mask-4)"></path>
                </g>
                <polygon id="Fill-15" fill="#275CA8" points="38.0523256 84.254386 38.0523256 111.017544 41.0242348 111.017544 41.0242348 106.207558 44.3622077 102.222748 49.5757856 111.017544 52.877907 111.017544 46.0887455 100.079608 52.0703024 92.749645 48.7323295 92.749645 41.1336765 102.37155 41.0242348 102.37155 41.0242348 84.254386"></polygon>
                <g id="Group-33" transform="translate(53.866279, 85.245614)">
                    <g id="Group-18" transform="translate(0.000000, 7.646617)">
                        <mask id="mask-6" fill="white">
                            <use xlink:href="#path-5"></use>
                        </mask>
                        <g id="Clip-17"></g>
                        <path d="M8.44685029,0.151594173 C12.908609,0.151594173 16.8827544,3.6097765 16.8827544,9.67163177 C16.8827544,15.6589325 12.908609,19.1171148 8.44685029,19.1171148 C3.9870189,19.1171148 0.0128735465,15.6589325 0.0128735465,9.67163177 C0.0128735465,3.6097765 3.9870189,0.151594173 8.44685029,0.151594173 M8.44685029,16.5879964 C11.5980276,16.5879964 13.6949578,13.798893 13.6949578,9.67163177 C13.6949578,5.50613741 11.5980276,2.68071259 8.44685029,2.68071259 C5.3361468,2.68071259 3.20067006,5.50613741 3.20067006,9.67163177 C3.20067006,13.798893 5.3361468,16.5879964 8.44685029,16.5879964" id="Fill-16" fill="#275CA8" mask="url(#mask-6)"></path>
                    </g>
                    <path d="M18.9187811,8.24572895 L22.1065776,8.24572895 L25.5526358,18.5074883 C26.0787956,20.2929733 26.6781939,22.112868 27.2429003,23.8237985 L27.3913044,23.8237985 C27.9155369,22.112868 28.5149352,20.2929733 29.0410951,18.5074883 L32.4890805,8.24572895 L35.5265456,8.24572895 L29.0777142,26.3146838 L25.4793974,26.3146838 L18.9187811,8.24572895 Z" id="Fill-19" fill="#275CA8"></path>
                    <path d="M48.6180974,14.8629197 C48.6180974,12.5593765 47.8317485,10.3265645 44.8694491,10.3265645 C42.7320451,10.3265645 40.8567573,11.2938615 39.4324637,12.2611585 L38.1951206,10.1392224 C39.8834578,9.06296109 42.4333096,7.79744605 45.3570625,7.79744605 C49.8168939,7.79744605 51.6921817,10.7356585 51.6921817,15.2337806 L51.6921817,26.3156397 L49.1423299,26.3156397 L48.8802137,24.1592938 L48.8069753,24.1592938 C47.0434724,25.5720062 45.0197805,26.7629667 42.7705916,26.7629667 C39.6965073,26.7629667 37.4106991,24.8666058 37.4106991,21.632087 C37.4106991,17.6902562 40.8567573,15.7193408 48.6180974,14.8629197 M43.6321061,24.3084028 C45.3936817,24.3084028 46.8545945,23.4519818 48.6180974,21.8901603 L48.6180974,16.8720682 C42.506548,17.6157017 40.4462369,19.1029686 40.4462369,21.4084235 C40.4462369,23.4519818 41.831984,24.3084028 43.6321061,24.3084028" id="Fill-21" fill="#275CA8"></path>
                    <path d="M58.0382866,10.7356585 L55.3400308,10.7356585 L55.3400308,8.43020357 L58.188618,8.24668477 L58.5625192,3.18653628 L61.1509174,3.18653628 L61.1509174,8.24668477 L66.0598157,8.24668477 L66.0598157,10.7356585 L61.1509174,10.7356585 L61.1509174,20.775666 C61.1509174,23.0065664 61.8621006,24.2720814 63.9609581,24.2720814 C64.5989029,24.2720814 65.4237983,24.0101848 66.0231965,23.7884329 L66.6245221,26.0938878 C65.6107488,26.4284273 64.3753331,26.7629667 63.2478477,26.7629667 C59.3507953,26.7629667 58.0382866,24.3084028 58.0382866,20.7393445 L58.0382866,10.7356585 Z" id="Fill-23" fill="#275CA8"></path>
                    <path d="M69.6286445,2.55607274 C69.6286445,1.36702387 70.567252,0.585157331 71.7660485,0.585157331 C72.9648451,0.585157331 73.9015253,1.36702387 73.9015253,2.55607274 C73.9015253,3.70880019 72.9648451,4.5250765 71.7660485,4.5250765 C70.567252,4.5250765 69.6286445,3.70880019 69.6286445,2.55607274 L69.6286445,2.55607274 Z M70.1914235,26.3141103 L73.2635805,26.3141103 L73.2635805,8.24515545 L70.1914235,8.24515545 L70.1914235,26.3141103 Z" id="Fill-25" fill="#275CA8"></path>
                    <g id="Group-29" transform="translate(78.031977, 7.646617)">
                        <mask id="mask-8" fill="white">
                            <use xlink:href="#path-7"></use>
                        </mask>
                        <g id="Clip-28"></g>
                        <path d="M8.47155959,0.151594173 C12.9333183,0.151594173 16.9074637,3.6097765 16.9074637,9.67163177 C16.9074637,15.6589325 12.9333183,19.1171148 8.47155959,19.1171148 C4.0117282,19.1171148 0.0375828488,15.6589325 0.0375828488,9.67163177 C0.0375828488,3.6097765 4.0117282,0.151594173 8.47155959,0.151594173 M8.47155959,16.5879964 C11.6227369,16.5879964 13.7196672,13.798893 13.7196672,9.67163177 C13.7196672,5.50613741 11.6227369,2.68071259 8.47155959,2.68071259 C5.3608561,2.68071259 3.22345203,5.50613741 3.22345203,9.67163177 C3.22345203,13.798893 5.3608561,16.5879964 8.47155959,16.5879964" id="Fill-27" fill="#275CA8" mask="url(#mask-8)"></path>
                    </g>
                    <g id="Group-32" transform="translate(99.232558, 7.646617)">
                        <mask id="mask-10" fill="white">
                            <use xlink:href="#path-9"></use>
                        </mask>
                        <g id="Clip-31"></g>
                        <path d="M0.515752326,0.599112406 L3.06560407,0.599112406 L3.32772035,3.20087368 L3.43950523,3.20087368 C5.16446163,1.49185489 7.03974942,0.151785338 9.55105465,0.151785338 C13.3748686,0.151785338 15.099825,2.60634925 15.099825,7.21534737 L15.099825,18.6680673 L12.0257407,18.6680673 L12.0257407,7.62635301 C12.0257407,4.24272519 10.9753483,2.79369135 8.57582791,2.79369135 C6.70054012,2.79369135 5.42850523,3.75716504 3.58983663,5.58088308 L3.58983663,18.6680673 L0.515752326,18.6680673 L0.515752326,0.599112406 Z" id="Fill-30" fill="#275CA8" mask="url(#mask-10)"></path>
                    </g>
                </g>
            </g>
        </g>
    </g>
</svg>