<?xml version="1.0" encoding="UTF-8"?>
<svg width="144px" height="144px" viewBox="0 0 144 144" version="1.1" xmlns="http://www.w3.org/2000/svg" xmlns:xlink="http://www.w3.org/1999/xlink">
    <!-- Generator: sketchtool 62 (101010) - https://sketch.com -->
    <title>355D2E35-C838-40E0-A6BE-97948865C575</title>
    <desc>Created with sketchtool.</desc>
    <defs>
        <path d="M0.217538287,71.8610096 C0.217538287,111.5465 32.3896994,143.717822 72.07519,143.717822 L72.07519,143.717822 C111.760681,143.717822 143.932842,111.5465 143.932842,71.8610096 L143.932842,71.8610096 C143.932842,32.1746795 111.760681,0.00419739081 72.07519,0.00419739081 L72.07519,0.00419739081 C32.3896994,0.00419739081 0.217538287,32.1746795 0.217538287,71.8610096 L0.217538287,71.8610096 Z" id="path-1"></path>
        <path d="M0.217538287,71.8610096 C0.217538287,111.5465 32.3896994,143.717822 72.07519,143.717822 L72.07519,143.717822 C111.760681,143.717822 143.932842,111.5465 143.932842,71.8610096 L143.932842,71.8610096 C143.932842,32.1746795 111.760681,0.00419739081 72.07519,0.00419739081 L72.07519,0.00419739081 C32.3896994,0.00419739081 0.217538287,32.1746795 0.217538287,71.8610096 L0.217538287,71.8610096 Z" id="path-3"></path>
        <path d="M0.217538287,71.8610096 C0.217538287,111.5465 32.3896994,143.717822 72.07519,143.717822 L72.07519,143.717822 C111.760681,143.717822 143.932842,111.5465 143.932842,71.8610096 L143.932842,71.8610096 C143.932842,32.1746795 111.760681,0.00419739081 72.07519,0.00419739081 L72.07519,0.00419739081 C32.3896994,0.00419739081 0.217538287,32.1746795 0.217538287,71.8610096 L0.217538287,71.8610096 Z" id="path-5"></path>
        <path d="M0.217538287,71.8610096 C0.217538287,111.5465 32.3896994,143.717822 72.07519,143.717822 L72.07519,143.717822 C111.760681,143.717822 143.932842,111.5465 143.932842,71.8610096 L143.932842,71.8610096 C143.932842,32.1746795 111.760681,0.00419739081 72.07519,0.00419739081 L72.07519,0.00419739081 C32.3896994,0.00419739081 0.217538287,32.1746795 0.217538287,71.8610096" id="path-7"></path>
        <path d="M0.217538287,71.8610096 C0.217538287,111.5465 32.3896994,143.717822 72.07519,143.717822 L72.07519,143.717822 C111.760681,143.717822 143.932842,111.5465 143.932842,71.8610096 L143.932842,71.8610096 C143.932842,32.1746795 111.760681,0.00419739081 72.07519,0.00419739081 L72.07519,0.00419739081 C32.3896994,0.00419739081 0.217538287,32.1746795 0.217538287,71.8610096" id="path-9"></path>
        <path d="M0.217538287,71.8610096 C0.217538287,111.5465 32.3896994,143.717822 72.07519,143.717822 L72.07519,143.717822 C111.760681,143.717822 143.932842,111.5465 143.932842,71.8610096 L143.932842,71.8610096 C143.932842,32.1746795 111.760681,0.00419739081 72.07519,0.00419739081 L72.07519,0.00419739081 C32.3896994,0.00419739081 0.217538287,32.1746795 0.217538287,71.8610096" id="path-11"></path>
    </defs>
    <g id="Page-1" stroke="none" stroke-width="1" fill="none" fill-rule="evenodd">
        <g id="1" transform="translate(-353.000000, -1533.000000)">
            <g id="Group-22-Copy" transform="translate(353.000000, 1533.000000)">
                <path d="M144,71.7865629 C144,111.433256 111.86013,143.573964 72.2125984,143.573964 C32.5659055,143.573964 0.426035503,111.433256 0.426035503,71.7865629 C0.426035503,32.13987 32.5659055,0 72.2125984,0 C111.86013,0 144,32.13987 144,71.7865629" id="Fill-1" fill="#F9C396"></path>
                <g id="Group-21">
                    <g id="Group-5">
                        <mask id="mask-2" fill="white">
                            <use xlink:href="#path-1"></use>
                        </mask>
                        <g id="Clip-4"></g>
                        <path d="M99.3444628,-25.2400023 C102.835013,-21.4388452 105.946959,-17.446287 108.530872,-12.9584368 C111.625189,-7.63950312 113.900175,-1.90670675 116.73929,3.60362791 C119.732869,9.4010641 123.905915,14.2087555 128.797554,18.3608145 C135.365631,23.9508996 142.548206,28.8223914 149.74925,33.5335428 C152.45237,35.3224708 155.308275,36.679907 158.521797,37.35065 C159.925404,37.6545411 161.328172,37.8299921 162.695682,37.8299921 C165.638053,37.8299921 168.443589,37.0475984 171.042614,35.2108202 C173.641638,33.3899921 175.711791,31.0579217 177.541854,28.47065 C181.885314,22.2585116 184.640481,15.2790902 187.529965,8.347519 C189.992994,2.45354282 192.455183,-3.45554396 195.670385,-8.98098922 C197.553334,-12.1752036 198.21904,-15.5616585 197.535705,-19.235215 C196.509863,-24.8404107 196.184145,-30.5421463 196.218564,-36.2119818 C196.252143,-37.8892592 196.628229,-39.5816472 196.527492,-41.3067748 L175.370124,-41.3067748 C174.053822,-40.5243812 173.504803,-39.1350448 172.719052,-37.9849597 C170.666528,-34.9342961 168.595535,-31.8357822 167.296023,-28.3704163 C163.619948,-18.4368712 162.884565,-8.13479524 163.82562,2.37463188 C164.133708,5.90379807 164.612211,9.44891435 163.995195,13.0108202 C163.277441,17.3710698 159.891825,20.1656926 155.683521,20.1656926 C155.273856,20.1656926 154.863351,20.1337924 154.434378,20.0859421 C148.756147,19.3513988 143.642886,17.1628792 138.750407,14.4001566 C135.67372,12.6271787 132.936182,10.4394986 130.506732,7.85222689 C126.436102,3.42817697 123.665824,-1.77826659 121.88697,-7.49595235 C118.672608,-17.7971889 115.816703,-28.1949654 113.643294,-38.7992535 C113.438462,-39.7898378 113.336045,-40.8114827 112.242205,-41.3067748 L89.4931866,-41.3067748 C90.2126194,-38.0647102 91.3585071,-34.9821463 93.3757731,-32.267274 C95.2234645,-29.8076029 97.2591991,-27.5082723 99.3444628,-25.2400023 L99.3444628,-25.2400023 Z M112.070112,-40.6519818 C112.618292,-40.3489302 112.737497,-39.8217379 112.90959,-38.9428043 L112.959959,-38.6716529 C114.944486,-29.0092592 117.646766,-18.7558729 121.203635,-7.32050142 C123.119324,-1.20322405 126.077645,4.05106977 129.9787,8.28287918 C132.457679,10.9188406 135.279165,13.170321 138.39195,14.959249 C144.190226,18.2491639 149.269908,20.0859421 154.34959,20.7407351 C154.795353,20.7885854 155.238598,20.8204855 155.683521,20.8204855 C160.301491,20.8204855 163.926357,17.7219716 164.680209,13.1224708 C165.227548,10.0080068 164.953039,6.89354282 164.66258,3.89156892 L164.525745,2.32594214 C163.499902,-9.14132955 164.612211,-19.1227249 167.964247,-28.1471151 C169.23018,-31.5167805 171.265075,-34.5825547 173.30081,-37.6332184 C173.504803,-37.9211594 173.694525,-38.2401611 173.881729,-38.5440522 C174.377021,-39.3742961 174.839573,-40.1407396 175.592585,-40.6519818 L195.842478,-40.6519818 C195.842478,-39.8855383 195.756851,-39.1190947 195.670385,-38.3845513 C195.602387,-37.6500079 195.534389,-36.9465252 195.50081,-36.2119818 C195.465552,-29.8395031 195.910475,-24.249418 196.833901,-19.1227249 C197.485336,-15.641409 196.903578,-12.4312445 195.055887,-9.3008304 C191.908683,-3.9189359 189.480073,1.89445037 187.121139,7.5172751 L186.880209,8.10826773 L186.230453,9.68816563 C183.629749,15.9489938 180.927469,22.4339626 176.960935,28.1029586 C174.908411,30.9941214 172.906255,33.086101 170.632948,34.6836279 C168.237078,36.3600658 165.655682,37.1751991 162.695682,37.1751991 C161.430589,37.1751991 160.079029,37.0148588 158.676261,36.7118071 C155.819517,36.1048644 153.01566,34.890979 150.142126,32.9904005 C143.197123,28.4546999 135.860923,23.4875077 129.258428,17.882312 C124.007492,13.4104118 120.142534,8.65057062 117.371417,3.31652638 C116.243998,1.14395689 115.199687,-1.10752354 114.191474,-3.27925355 C112.634242,-6.60190811 111.04427,-10.0353738 109.14537,-13.2614884 C106.768808,-17.4143868 103.723181,-21.4707453 99.875013,-25.671494 C98.0273216,-27.6837232 95.8732206,-30.0795939 93.9575315,-32.6349654 C92.3314623,-34.8226455 91.1536744,-37.4418174 90.3654044,-40.6519818 L112.070112,-40.6519818 Z" id="Fill-3" fill="#FEFEFE" mask="url(#mask-2)"></path>
                    </g>
                    <g id="Group-8">
                        <mask id="mask-4" fill="white">
                            <use xlink:href="#path-3"></use>
                        </mask>
                        <g id="Clip-7"></g>
                        <path d="M204.39441,56.2447011 C207.33678,56.2447011 210.243893,56.5956029 213.116588,57.3141963 C223.243213,59.901468 229.775192,66.7692388 234.770087,75.4578378 C239.661727,84.0020465 241.252538,93.3773386 242.0215,102.975932 C242.432844,108.102625 243.459526,113.053867 245.954455,117.653368 C248.280649,121.870067 251.684733,124.616839 256.250655,125.877736 C257.107762,126.118666 257.893513,126.213527 258.645686,126.213527 C261.569588,126.213527 263.811834,124.504349 265.111347,121.422625 C266.92378,117.110226 267.437541,112.478825 268.292129,107.959074 C270.002986,98.551882 273.627853,90.0236234 279.581432,82.5329597 C284.420184,76.4794827 290.441761,71.5928803 296.273615,66.5299875 C300.720331,62.6171798 304.790121,58.400481 308.655918,53.9126307 C312.420138,49.5523812 316.078584,45.1602314 319.9788,40.928422 C325.332152,35.1309858 331.403258,30.068093 337.543201,25.1328009 L337.543201,2.45429836 C336.979072,1.51156438 336.774239,0.393379467 336.056486,-0.532564946 C334.037541,-3.21637663 332.001806,-5.8506591 330.052538,-8.56637096 C324.85281,-15.7531435 317.994273,-20.5927351 309.578505,-23.3873579 C305.458346,-24.7447941 301.266832,-25.8151288 297.163462,-27.1406648 C291.228352,-29.0731435 287.173672,-32.6828996 286.046253,-39.0226387 C285.87416,-39.8696721 285.719696,-40.7326557 284.984313,-41.3068588 L270.875204,-41.3068588 L230.169747,-41.3068588 L215.426832,-41.3068588 C216.263791,-39.5179308 217.049543,-37.6971027 217.974648,-35.9409144 C221.463519,-29.2804946 226.832821,-24.9689348 234.221908,-23.1002564 C239.934557,-21.6303301 245.78488,-22.2053727 251.563848,-21.9182711 C256.013082,-21.6303301 260.42454,-21.5027294 264.734421,-20.5129847 C270.754319,-19.1387589 274.912254,-15.7371934 276.740638,-9.79620647 C277.972991,-5.80280885 278.161035,-1.69860011 277.835317,2.37370845 C277.579276,5.74421327 276.895102,9.03412819 275.185085,12.020152 C270.515907,20.0220579 263.058822,22.8326307 254.301386,22.8326307 L254.233389,22.8326307 C249.101659,22.78562 244.108442,21.4273443 239.524052,18.9357731 C234.752458,16.3325513 230.066491,13.5857788 225.24285,11.0463573 C222.113275,9.40098015 219.00049,8.60263642 215.886866,8.60263642 C212.22842,8.60263642 208.601035,9.72082133 205.008908,11.9093409 C200.716656,14.4966126 197.432617,18.0417289 194.593502,22.0989268 C190.746174,27.5605718 187.939798,33.6140488 184.964687,39.5709858 C184.074841,41.311224 183.116996,43.0523018 181.938369,44.6657788 C179.594546,47.828093 176.687433,50.1593239 172.651222,50.8938673 C170.974784,51.1818083 169.348715,51.325359 167.741114,51.325359 C162.867104,51.325359 158.231505,50.0157731 153.801579,47.540152 C149.15087,44.9050301 145.181817,41.311224 141.162396,37.8299081 C136.186809,33.4856086 131.088658,29.3175995 125.992186,25.1328009 C120.99897,21.0285922 116.244166,16.7161929 112.343111,11.4929597 C108.682986,6.55850709 106.083961,0.984372093 102.835181,-4.20612138 C98.5253001,-11.026042 92.606979,-15.6733931 84.8921747,-18.0365241 C83.3702008,-18.4999161 81.8482269,-18.7240567 80.343882,-18.7240567 C75.7603313,-18.7240567 71.4151923,-16.6152876 68.4056631,-12.8779308 C66.1306773,-10.083308 64.1293613,-7.11323426 62.1968826,-4.15827113 C58.4167124,1.54346455 54.4829178,7.06974929 49.8825774,12.1485922 C47.9836778,14.2405718 46.1536154,16.3804016 44.6140125,18.7762723 C41.2796052,23.9508157 40.1160885,29.5728009 41.0571435,35.6900783 C42.0661963,42.3656086 44.7172683,48.2108951 49.455283,53.0815474 C53.2346137,56.9473443 58.0582552,59.2785752 63.1203086,61.1313035 C68.542498,63.1124719 74.1863097,64.2936177 79.6764969,66.0984957 C85.7996506,68.0947748 90.4335701,71.9924719 94.1289529,77.1502258 C96.93281,81.0470834 98.8484991,85.4870834 101.073116,89.7365218 C102.904018,93.2169983 105.126117,96.4439524 107.947603,99.2864254 C112.378369,103.790226 117.714931,107.176681 122.469736,111.280889 C126.471528,114.746255 130.166071,118.468501 133.636474,122.429159 C137.655896,126.96402 141.112027,131.963113 144.772152,136.818655 C146.739049,139.422716 148.978777,140.716352 151.57948,140.716352 C152.434069,140.716352 153.324756,140.587072 154.281761,140.30081 C160.233661,138.448082 165.296554,135.270657 169.127092,130.270725 C172.71922,125.575524 175.199038,120.27254 177.85011,115.066096 C183.083417,104.71701 185.785697,93.7928803 185.664812,82.1493182 C185.631233,77.4700669 185.854534,72.7261758 186.607546,68.047764 C187.59897,61.8658469 190.642918,58.3366807 196.765232,57.0270947 C199.297938,56.4999024 201.863383,56.2447011 204.39441,56.2447011 L204.39441,56.2447011 Z M269.89973,-40.6520658 C269.880422,-40.605055 269.858596,-40.5614022 269.839288,-40.5152309 C269.607592,-40.2617085 269.410314,-39.972928 269.249974,-39.6304209 C268.019299,-37.0750493 266.016304,-35.3020715 263.332492,-34.3274373 C259.158607,-32.8902507 254.951982,-32.1238071 250.709259,-32.1238071 C247.698891,-32.1238071 244.654943,-32.5225593 241.610995,-33.3368531 C237.591573,-34.4071877 234.085913,-36.3883562 231.777348,-39.9972728 C231.659821,-40.1744027 231.524665,-40.3221509 231.378596,-40.4556279 C231.340819,-40.5219467 231.300524,-40.5849075 231.263587,-40.6520658 L269.89973,-40.6520658 Z M185.904903,67.951224 C185.237518,72.1200726 184.931108,76.7674237 184.964687,82.1652683 C185.067943,93.5846897 182.535238,104.253618 177.200354,114.778995 L176.22488,116.727424 C173.985153,121.199324 171.65728,125.830725 168.545334,129.887923 C164.988465,134.550385 160.233661,137.744599 154.042509,139.661128 C153.187081,139.949069 152.348442,140.076669 151.57948,140.076669 C149.218868,140.076669 147.183973,138.879573 145.353071,136.434174 C144.430484,135.205178 143.506219,133.976182 142.582793,132.730396 C139.930881,129.121479 137.178233,125.415183 134.167864,122.013618 C130.47332,117.796919 126.795567,114.124202 122.948238,110.801547 C121.066968,109.17296 119.064812,107.655183 117.133173,106.170146 C114.190802,103.885926 111.129225,101.554695 108.460524,98.839823 C105.843871,96.2047011 103.639401,93.1212978 101.705243,89.4485808 C101.141114,88.3622961 100.593774,87.2600613 100.046434,86.1586659 C98.4564628,82.9963517 96.8312331,79.7374974 94.7107113,76.7833738 C90.6409212,71.0975882 85.7996506,67.4080817 79.9165876,65.4756029 C77.5047669,64.6932093 75.0249484,64.0065162 72.6299172,63.3517232 C69.5683403,62.5055292 66.4043471,61.6265956 63.3771889,60.5252002 C59.2377221,59.0074237 53.9867862,56.7551038 49.9673647,52.634945 C45.4702802,48.019494 42.7847896,42.4461985 41.7581078,35.5935383 C40.8178922,29.5568508 41.9629404,24.1741168 45.2133999,19.1120635 C46.786582,16.6683426 48.6342734,14.5285128 50.4122881,12.5632944 C55.3895542,7.08569938 59.4601838,1.20767328 62.7954305,-3.82247986 C64.5398661,-6.48950199 66.6091798,-9.58801588 68.9697924,-12.4791787 C71.8256971,-16.040245 75.982793,-18.0852138 80.343882,-18.0852138 C81.7970187,-18.0852138 83.2509949,-17.8610732 84.669713,-17.4144708 C92.1796846,-15.1143006 97.9259126,-10.6902507 102.236633,-3.87033012 C103.449679,-1.9219013 104.595567,0.106277935 105.707036,2.08660692 C107.555567,5.36057175 109.471256,8.76213727 111.779821,11.8606512 C115.935238,17.4347862 121.049339,21.9385865 125.513683,25.628093 L126.932402,26.7773386 C131.482373,30.5155349 136.186809,34.3637028 140.683893,38.3092501 L141.728204,39.2192445 C145.353071,42.3815587 149.115612,45.6555235 153.460751,48.0992445 C158.044302,50.6705661 162.849475,51.980152 167.741114,51.980152 C169.399923,51.980152 171.076361,51.8366012 172.787217,51.5335496 C176.601806,50.846017 179.800218,48.7221373 182.519288,45.0326307 C183.545969,43.6113942 184.487024,42.0138673 185.580864,39.8421373 L186.880377,37.2389155 C189.360195,32.2557731 191.908851,27.0812297 195.192889,22.4498287 C198.357722,17.9141282 201.588874,14.7358639 205.385833,12.4516438 C208.891494,10.3437141 212.433252,9.25742938 215.886866,9.25742938 C218.880445,9.25742938 221.907603,10.0557731 224.901182,11.6213999 C227.740297,13.1064368 230.596202,14.7199138 233.332061,16.2528009 C235.283848,17.3390856 237.233116,18.4413205 239.181545,19.4948656 C243.937189,22.0989268 249.000082,23.4395735 254.301386,23.4874237 C264.393593,23.4874237 271.405754,19.8466069 275.800422,12.3240431 C277.357654,9.62512082 278.211403,6.47875666 278.55475,2.42155871 C278.896417,-2.25769257 278.537121,-6.29810096 277.424812,-9.9716574 C275.577121,-15.9134838 271.370496,-19.6659512 264.906514,-21.1509881 C261.177552,-21.9980216 257.362963,-22.2213227 253.65247,-22.4454634 L251.599106,-22.5730641 C249.88825,-22.6528145 248.110235,-22.6679251 246.417007,-22.6679251 C242.448794,-22.7006648 238.345425,-22.7166149 234.394001,-23.7382598 C227.330632,-25.5280272 222.010019,-29.7279365 218.589146,-36.2280159 C217.957019,-37.4419013 217.37526,-38.7195871 216.811971,-39.9494226 C216.707875,-40.1895133 216.607138,-40.4128145 216.503882,-40.6520658 L229.947285,-40.6520658 C230.015283,-40.6042155 230.10091,-40.5563653 230.185697,-40.4925649 C230.431664,-40.3389404 230.649089,-40.1945502 230.838811,-40.0300125 C233.293445,-35.7906478 237.338891,-33.6038071 241.987921,-32.3949586 C244.72378,-31.6763653 247.42606,-31.3733137 250.163598,-31.3733137 C253.138709,-31.3733137 256.11382,-31.7242155 259.08977,-32.2673579 C264.206389,-33.2168077 268.346695,-35.3255769 270.431959,-40.1525763 C270.611607,-40.3355825 270.818119,-40.5017992 271.062407,-40.6520658 L284.693854,-40.6520658 C285.105198,-40.220574 285.224404,-39.5817311 285.345289,-38.9118276 C286.455079,-32.7466999 290.252039,-28.7054521 296.941001,-26.517772 C298.907898,-25.8789291 300.892424,-25.3038866 302.90969,-24.728844 C305.030212,-24.1059512 307.219571,-23.4671083 309.340933,-22.7644651 C317.839809,-19.9538922 324.425516,-15.178101 329.471619,-8.199519 C330.856758,-6.25025071 332.310734,-4.34967215 333.763871,-2.44909359 L335.490677,-0.149762904 C335.849974,0.297678956 336.056486,0.824871242 336.278947,1.3839637 C336.448522,1.79950539 336.602986,2.2142076 336.843077,2.61379921 L336.843077,24.8297493 C331.31931,29.2697493 324.989645,34.5072535 319.430621,40.4969302 C316.523508,43.6592445 313.718811,46.9491594 310.982112,50.1433738 C310.023428,51.2615587 309.065584,52.3797436 308.109418,53.4979285 C304.072368,58.1931299 300.035317,62.2973386 295.793434,66.0506455 L293.399242,68.1107249 C288.406866,72.4231242 283.239877,76.8631242 279.015623,82.1333681 C273.218187,89.4166807 269.385969,98.0733795 267.608794,107.846584 C267.437541,108.773368 267.265448,109.699313 267.110984,110.626096 C266.514115,114.155263 265.864358,117.812869 264.46159,121.182534 C263.605323,123.179653 261.929724,125.575524 258.645686,125.575524 C257.962351,125.575524 257.209339,125.462194 256.456327,125.254843 C252.077609,124.040957 248.828828,121.454525 246.5891,117.366267 C244.414852,113.388819 243.201806,108.805268 242.739254,102.928082 C242.0215,94.303283 240.617892,84.2740374 235.385425,75.1379966 C229.467104,64.8846103 222.454943,59.0233738 213.30547,56.6761929 C210.413468,55.9567601 207.404778,55.5899081 204.39441,55.5899081 C201.828964,55.5899081 199.212311,55.8610596 196.628397,56.3882518 C190.369248,57.7297379 186.948374,61.4032944 185.904903,67.951224 L185.904903,67.951224 Z" id="Fill-6" fill="#FEFEFE" mask="url(#mask-4)"></path>
                    </g>
                    <g id="Group-11">
                        <mask id="mask-6" fill="white">
                            <use xlink:href="#path-5"></use>
                        </mask>
                        <g id="Clip-10"></g>
                        <path d="M-72.8513965,121.965432 C-67.5324628,125.224286 -62.606405,129.057343 -57.1330074,132.091217 C-51.3179421,135.301382 -45.1956279,137.426101 -38.5763426,137.426101 C-37.3792467,137.426101 -36.1645218,137.361461 -34.9330074,137.21791 C-30.0581577,136.642028 -25.8003244,134.758239 -22.6019126,131.101472 C-16.8204265,124.553543 -14.2893999,116.599487 -13.7252706,108.006589 C-13.3491843,102.465193 -14.4262348,97.1143596 -15.8290028,91.7803154 C-17.4189745,85.7108883 -18.4280272,79.5466001 -18.188776,73.2219716 C-18.0183619,69.0380125 -17.590228,64.8691639 -16.9060533,60.7322155 C-15.400869,51.7246149 -12.0656222,43.5472581 -6.0969325,36.5359365 C-2.7448962,32.5752785 0.675977311,28.6305706 4.08006126,24.7177629 C8.38994214,19.7186704 12.7854498,14.8958684 18.121173,11.0309109 C23.4409461,7.1810641 28.1269132,2.82081452 31.9406625,-2.56107998 C34.9510312,-6.82478956 38.1838616,-10.8660374 41.7751492,-14.7150448 C47.1797096,-20.5284311 53.6109518,-25.0481815 59.9221486,-29.759333 C63.8727328,-32.7142961 66.7462666,-36.4676029 68.0121997,-41.3071946 L47.8126761,-41.3071946 L29.2215927,-41.3071946 L13.5208327,-41.3071946 L-1.54780034,-41.3071946 C-2.214346,-40.8119024 -2.55685309,-40.1252093 -2.79610437,-39.3268656 C-4.01082927,-35.0942167 -6.38739195,-31.5801611 -9.67143052,-28.6100874 C-12.6650096,-25.895215 -16.2050891,-24.0584368 -19.6427521,-21.9983573 C-22.9947884,-19.9852887 -26.278827,-17.8933091 -28.9466886,-15.0667862 C-32.9828996,-10.8181872 -35.2066773,-5.59579353 -36.6606534,-0.0057084515 C-38.2170459,6.01502893 -38.8332229,12.2439569 -40.0983165,18.3125445 C-41.3466205,24.270321 -43.5536086,29.7798162 -47.4529847,34.5875077 C-51.0786909,39.0761974 -55.2181577,43.0200658 -59.5104095,46.8690732 C-64.6245105,51.4375133 -70.4395757,55.0145298 -76.6307272,57.9375927 C-83.8997686,61.3870085 -91.1343914,64.9010641 -98.1297629,68.8936222 C-98.9851912,69.3889144 -99.720574,69.9639569 -100.267914,70.8101509 L-100.267914,94.4154373 L-100.267914,112.606929 C-99.6861554,112.73369 -99.0876075,112.84618 -98.5234782,112.957831 C-89.5100011,114.619158 -80.770194,117.12668 -72.8513965,121.965432 L-72.8513965,121.965432 Z M27.8700329,-40.6524016 C27.7827272,-40.5491458 27.6878661,-40.4534453 27.596363,-40.3535474 C27.2034872,-40.0714827 26.8215247,-39.77011 26.4336858,-39.4704163 C25.0141282,-38.272481 23.4065275,-37.4103369 21.5420465,-36.9150448 C20.9434986,-36.7395939 20.3617402,-36.659004 19.7976109,-36.659004 C17.8307136,-36.659004 16.1198571,-37.6814884 15.1452229,-39.6299172 C15.0344118,-39.8448236 14.9135269,-40.0387431 14.7825683,-40.2167124 C14.7615814,-40.2662416 14.738076,-40.3157708 14.7179285,-40.3644606 C14.6835099,-40.4601611 14.6323018,-40.5567011 14.5978832,-40.6524016 L27.8700329,-40.6524016 Z M-99.5669495,71.0015519 C-99.1564447,70.4105593 -98.5923154,69.9320567 -97.7713057,69.4527147 C-90.5702621,65.3476665 -82.9075054,61.6589994 -76.3234782,58.5285854 C-69.4985207,55.3016313 -63.854709,51.6448644 -59.031907,47.3484152 C-55.16611,43.8830493 -50.7193942,39.7142008 -46.8880159,34.9870993 C-43.2455201,30.4832989 -40.8001202,25.0846149 -39.4141418,18.4409847 C-38.8844311,15.9334634 -38.4730868,13.3780919 -38.0634214,10.9024708 C-37.4816631,7.34140442 -36.8822757,3.66784799 -35.9764787,0.153792399 C-34.3176699,-6.26653659 -31.9058491,-10.9617379 -28.4161384,-14.6352944 C-25.7826954,-17.4299172 -22.4474487,-19.5386863 -19.2666659,-21.455215 C-18.6169098,-21.838017 -17.9495247,-22.2216585 -17.2997686,-22.6044606 C-14.5286512,-24.2179376 -11.6559569,-25.895215 -9.19208849,-28.1466954 C-5.63521951,-31.3568599 -3.32665457,-34.9506659 -2.12871923,-39.1505752 C-1.90625752,-39.8540579 -1.65021668,-40.3166103 -1.29092002,-40.6524016 L13.3151605,-40.6524016 C13.6534702,-40.4484084 13.9288191,-40.2116756 14.1596756,-39.9178582 C15.3173159,-37.2592309 17.2632263,-35.8447102 19.7464027,-35.8447102 C20.5842019,-35.8447102 21.4740488,-36.004211 22.4142643,-36.3240522 C24.6086602,-37.0871378 26.5621259,-38.2179149 28.114321,-39.905266 C28.5189495,-40.1915281 28.9311333,-40.4492479 29.3752172,-40.6524016 L47.4198003,-40.6524016 C47.4424663,-40.5944776 47.45254,-40.5365536 47.4558979,-40.4786296 C47.4433057,-40.4568032 47.4323925,-40.4341373 47.4198003,-40.4123108 C44.050135,-34.6627249 39.4153761,-29.9994237 34.5069472,-25.5434736 C28.7430902,-20.3529801 22.2606398,-16.5358729 15.1284334,-13.6606602 C7.31205218,-10.498346 1.77065683,-5.05265116 -1.39333636,2.75785366 C-3.3946523,7.67635621 -5.36154963,12.6275984 -7.51649007,17.4990902 C-10.0307272,23.120236 -13.6740624,28.0555281 -17.0773069,33.150321 C-19.8307952,37.2545298 -21.8665298,41.7104799 -22.8579535,46.5500715 C-24.6712263,55.4619716 -25.3041929,64.5493227 -25.8683222,73.6047737 C-26.3644538,81.70238 -25.5090255,89.7034464 -23.4565014,97.5937016 C-21.780903,104.142471 -21.4216064,110.6585 -23.798169,117.22238 C-26.4500805,124.472953 -31.9402677,128.545261 -38.6611299,128.545261 C-40.5944481,128.545261 -42.6301826,128.19352 -44.7330754,127.523617 C-50.805021,125.479487 -55.6966602,121.61453 -60.4514645,117.589232 C-66.1464844,112.83023 -72.081595,108.454031 -78.7520885,105.100315 C-85.3772501,101.784377 -92.1929733,98.7975133 -98.723274,95.2633103 C-99.0682995,94.9753693 -99.3411299,94.6471333 -99.5669495,94.2559365 L-99.5669495,71.0015519 Z M-99.5669495,112.079737 L-99.5669495,95.5655224 C-99.4116461,95.6503097 -99.2555031,95.7325786 -99.1001997,95.8173659 C-98.8810959,95.9877799 -98.6452025,96.1430834 -98.3866432,96.2841157 C-95.3082768,98.0092433 -92.1610732,99.637831 -88.9458718,101.028007 C-77.9478684,105.834859 -67.8397119,111.935347 -58.8438639,119.921302 C-54.4483562,123.818999 -49.5055088,127.060225 -43.7240227,128.672862 C-41.9283789,129.152204 -40.1839433,129.409085 -38.5075054,129.409085 C-34.368878,129.409085 -30.6063369,127.875358 -27.4079251,124.536753 C-23.0972048,120.096753 -21.6432286,114.427757 -21.301561,108.485931 C-21.0799387,104.397672 -21.9001089,100.404275 -22.9091617,96.4755167 C-24.9616858,88.586101 -25.5610732,80.5363449 -25.0473125,72.4387385 C-24.6368077,66.1787499 -23.9870516,59.9817221 -23.2684583,53.7049438 C-22.3618219,45.9750289 -20.1556733,38.7723063 -15.5889121,32.3200771 C-12.3225026,27.7197368 -9.20971753,23.0245355 -6.81468633,17.8659421 C-4.79658083,13.585443 -3.12098242,9.16139308 -1.41012592,4.73734317 C1.63466137,-3.21587294 6.67908565,-9.33315031 14.7691367,-12.6230652 C16.7536631,-13.437359 18.6693522,-14.3473534 20.6186205,-15.2422371 C28.999131,-19.2028951 35.8576676,-25.1279319 42.0832377,-31.9000023 C44.0845536,-34.023882 45.914616,-36.3240522 47.4021713,-38.8475235 C47.6657674,-39.2983233 48.0955803,-39.7751469 48.1551832,-40.3208077 C48.2097493,-40.4316188 48.2609575,-40.5432694 48.3088077,-40.6524016 L67.1055632,-40.6524016 C65.8396302,-36.5633035 63.3421826,-33.1617379 59.4772252,-30.2705752 L57.2030788,-28.5781872 C51.7296812,-24.5058786 46.0514509,-20.3051299 41.2454385,-15.1465366 C37.7565672,-11.4091798 34.5237368,-7.41662167 31.3597436,-2.92793193 C27.8876619,1.97462053 23.4241566,6.36677028 17.6938786,10.5196687 C12.1180647,14.5441271 7.63693023,19.5432195 3.53188202,24.3022212 C0.12863755,28.2150289 -3.29223596,32.1597368 -6.64427226,36.1371843 C-12.3913398,42.876515 -15.9658378,50.894371 -17.590228,60.636515 C-18.2911923,64.7726239 -18.7193261,68.9893227 -18.8905797,73.189232 C-19.1122019,78.9396574 -18.3432399,84.8965944 -16.5131775,91.9398162 C-15.1951968,96.9229586 -14.033359,102.288903 -14.4262348,107.974689 C-15.0415723,117.30213 -17.8806875,124.744944 -23.1484129,130.685931 C-26.0395757,134.007746 -30.0413681,135.988075 -35.0186341,136.563957 C-36.1989404,136.706668 -37.3960363,136.786419 -38.5763426,136.786419 C-44.4090369,136.786419 -50.3600976,135.06297 -56.7745502,131.548075 C-59.9041248,129.791887 -62.931283,127.746918 -65.8383959,125.766589 C-67.9941758,124.298341 -70.2003244,122.796515 -72.4753103,121.423129 C-79.4362632,117.15774 -87.439848,114.347167 -98.3866432,112.318988 L-99.5493205,112.095687 L-99.5669495,112.079737 Z" id="Fill-9" fill="#FEFEFE" mask="url(#mask-6)"></path>
                    </g>
                    <g id="Group-14">
                        <mask id="mask-8" fill="white">
                            <use xlink:href="#path-7"></use>
                        </mask>
                        <g id="Clip-13"></g>
                        <path d="M62.6242609,80.2649416 C58.31438,77.7893205 53.8500352,75.6175905 49.4545275,73.3333704 C43.7250891,70.3951968 38.4397345,66.8492411 33.925021,62.21784 C30.9322813,59.1352762 27.9899104,55.9570119 24.8947544,52.9541985 C22.2948905,50.4147771 19.2677323,48.609899 15.4363539,48.4344481 C15.2138922,48.418498 14.9914305,48.418498 14.7865978,48.418498 C8.25293931,48.418498 2.72833352,53.6727918 0.111680091,59.4072672 C-2.53939195,65.1560136 -2.79627226,71.2413908 -1.61596597,77.3586682 C-0.811745888,81.575367 0.385349972,85.7433761 1.41203176,89.9273352 C2.26662053,93.5043517 2.57470902,97.1779081 2.18183324,100.835514 C1.633654,105.883297 0.57339308,110.817749 -0.880583097,115.657341 C-3.18914804,123.467006 -5.32729892,131.340472 -9.12425865,138.608674 C-10.3901917,141.035605 -11.877747,143.350886 -13.9134816,145.154925 C-17.0086375,147.822786 -20.6519728,149.594925 -24.6369756,150.650149 C-31.751553,152.502877 -39.1062212,152.406337 -46.3584731,153.17362 C-49.590464,153.525361 -52.8400839,153.875424 -55.8672422,155.24881 C-58.5015247,156.431635 -60.9813432,158.699905 -60.5364197,162.260132 C-60.2291707,164.912043 -59.3225343,167.291964 -58.0053931,169.575344 C-55.7480363,173.344601 -53.0625457,176.777227 -50.2746387,180.131782 C-44.3571571,187.334505 -38.7469246,194.666507 -36.4727782,203.96037 L-17.8984844,203.96037 C-16.6837595,198.514675 -14.6144458,193.419882 -12.1858355,188.421629 C-9.07305048,182.128901 -5.65217697,175.979723 -1.95763358,170.006836 C4.01105615,160.294913 10.2878344,150.793699 19.1132683,143.303875 C23.6800295,139.437239 28.5716687,136.052463 33.8393942,133.17725 C40.8683449,129.312293 48.514312,127.171623 56.1938582,125.063694 C62.5386341,123.371306 66.7637277,119.282208 69.2779648,113.373121 C71.3472785,108.517579 72.9548792,103.535276 73.2285491,98.1684923 C73.4678003,93.7763426 72.7668361,89.704034 69.8588837,86.2546183 C67.7895701,83.8587476 65.3441702,81.845679 62.6242609,80.2649416 M72.5267453,98.1365922 C72.287494,102.720982 71.0903982,107.336433 68.6273693,113.13387 C66.0963426,119.058906 61.8544594,122.860903 55.988186,124.440801 C48.83919,126.406019 40.7323494,128.60881 33.4800976,132.603047 C28.2467907,135.476581 23.2527351,138.910886 18.6347657,142.824533 C9.56924107,150.522548 3.19004651,160.312542 -2.55702099,169.686155 C-6.26835394,175.660721 -9.70517754,181.857749 -12.818802,188.150478 C-15.5722904,193.819474 -17.3855632,198.658226 -18.4626137,203.306416 L-35.9254385,203.306416 C-38.2852116,194.154425 -43.7930278,186.935753 -49.7272989,179.74898 C-52.3447918,176.569876 -55.0806512,173.10451 -57.3900556,169.273132 C-58.758405,166.891533 -59.5617856,164.575412 -59.8354555,162.181221 C-60.2971685,158.555514 -57.355637,156.655775 -55.5599932,155.824692 C-52.6688304,154.515106 -49.4712581,154.179315 -46.2728463,153.827573 C-44.0322791,153.588322 -41.7237141,153.428821 -39.4999365,153.267642 C-34.53946,152.917579 -29.4085695,152.565838 -24.4489325,151.288152 C-20.1902598,150.170807 -16.4789268,148.254278 -13.434979,145.634267 C-11.0567374,143.526337 -9.4835553,140.780404 -8.49129212,138.894096 C-5.02004991,132.251306 -2.8986886,124.999893 -0.829374929,117.972622 L-0.214037436,115.832792 C1.34235508,110.690149 2.35224731,105.802707 2.88195803,100.900154 C3.25888372,97.3222984 3.0020034,93.5849416 2.09536699,89.7997345 C1.78811798,88.5220488 1.44561089,87.244363 1.12073284,85.9666773 C0.385349972,83.1082541 -0.36766194,80.153291 -0.931791265,77.2461781 C-2.19688486,70.6344481 -1.65038457,64.8848622 0.761436188,59.6624685 C3.15562791,54.3922246 8.42419285,49.073291 14.7865978,49.073291 C14.9914305,49.073291 15.1962632,49.073291 15.4019353,49.0892411 C18.6683449,49.2336313 21.5250891,50.6061781 24.3809938,53.4016404 C26.5191446,55.4785094 28.6228769,57.6661894 30.6586115,59.7900692 C31.5644084,60.7479138 32.4886739,61.7065978 33.4120998,62.6652819 C37.6019353,66.9449416 42.7336653,70.6344481 49.1128599,73.9084129 C50.2587476,74.4994056 51.4046353,75.0744481 52.550523,75.6654407 C55.7665638,77.3099784 59.0841815,79.0032059 62.2481747,80.824034 C64.9680839,82.4047714 67.3454861,84.3699898 69.311544,86.6693205 C71.7745729,89.5764334 72.8012547,93.2172501 72.5267453,98.1365922" id="Fill-12" fill="#FEFEFE" mask="url(#mask-8)"></path>
                    </g>
                    <g id="Group-17">
                        <mask id="mask-10" fill="white">
                            <use xlink:href="#path-9"></use>
                        </mask>
                        <g id="Clip-16"></g>
                        <path d="M53.3544073,89.2245241 C50.1895746,85.9665094 46.3934543,83.6033783 42.4252411,81.5265094 C36.8662167,78.5883358 31.240034,75.7609733 25.9890981,72.2788179 C24.2782416,71.1295723 22.5170164,70.0592377 20.6013273,69.1970936 C19.5066478,68.7177516 18.4808054,68.4785003 17.5573795,68.4785003 C14.8550993,68.4785003 13.0418264,70.4428792 12.8873625,73.9241951 C12.7849461,76.0010641 13.0241974,78.0611435 13.4011231,80.0893227 C14.4949631,86.7967533 14.3925468,93.3933727 12.6993193,100.005103 C11.0917187,106.345681 8.73194555,112.447009 7.20997164,118.835437 C6.388962,122.365443 5.72157686,125.927349 5.84078276,129.567326 C5.96082813,133.113282 7.55163925,134.96601 10.425173,134.96601 C11.0749291,134.96601 11.7935224,134.85436 12.5801134,134.66128 C16.2578673,133.719385 19.4554396,131.739056 22.6538514,129.838478 C28.8282133,126.149811 34.9169484,122.317593 40.9888939,118.499646 C45.0251049,115.992125 48.9933182,113.436753 52.3109359,109.923537 C55.4069314,106.665522 57.3226205,102.976016 57.1169484,98.2321248 C57.3738287,94.7029586 55.8174362,91.7798956 53.3544073,89.2245241 M51.7803857,109.508835 C48.5651843,112.89445 44.6658083,115.433872 40.5951787,117.956504 C34.6600681,121.69386 28.5201248,125.558818 22.2777652,129.279385 L21.5935905,129.694927 C18.7032672,131.420054 15.709688,133.193032 12.3920703,134.040905 C11.673477,134.198727 11.0060919,134.295267 10.425173,134.295267 C7.94535451,134.295267 6.64500284,132.69774 6.5425865,129.536265 C6.42254112,125.87782 7.12434487,122.301643 7.89414634,118.994938 C8.69752694,115.625273 9.7409983,112.270718 10.7676801,109.028653 C11.673477,106.15428 12.614532,103.151467 13.383494,100.149493 C15.0255133,93.7291639 15.2647646,87.1325445 14.0852978,79.9776721 C13.6571639,77.6623914 13.5035394,75.7450233 13.5891662,73.9401452 C13.7260011,70.9373318 15.1967669,69.1332933 17.5573795,69.1332933 C18.3951787,69.1332933 19.3186047,69.3565944 20.2940783,69.7880862 C21.9360976,70.5226296 23.5772774,71.4645241 25.5785933,72.8068497 C30.1109359,75.8088236 35.0025752,78.3809847 39.7061713,80.8557663 L42.0835735,82.1023914 C45.2987748,83.7947794 49.4374022,86.1746999 52.8414861,89.671966 C55.4581395,92.4027884 56.6384458,95.1823006 56.4159841,98.2648644 C56.6040272,102.385023 55.1164719,105.96204 51.7803857,109.508835" id="Fill-15" fill="#FEFEFE" mask="url(#mask-10)"></path>
                    </g>
                    <g id="Group-20">
                        <mask id="mask-12" fill="white">
                            <use xlink:href="#path-11"></use>
                        </mask>
                        <g id="Clip-19"></g>
                        <path d="M155.649774,79.3869314 C152.77624,76.4479183 149.629037,73.8287465 146.635458,71.0341237 C140.08501,64.868996 133.962695,58.257266 128.026745,51.5170959 C123.768912,46.6783437 119.21978,42.2383437 113.54155,39.1079297 C110.257511,37.2552014 106.76864,35.9128758 102.97168,35.6895746 C102.766847,35.6736245 102.544386,35.6736245 102.337874,35.6736245 C100.474233,35.6736245 98.747426,36.1689166 97.5494906,37.846194 C96.2323494,39.6829722 96.8821055,41.4551106 97.7543233,43.2280885 C98.6945389,45.1605672 99.6700125,47.0451957 101.055991,48.6746228 C107.195934,56.0049461 112.052315,64.0547022 115.457239,73.0144526 C117.715435,78.8110493 120.792123,84.1618832 125.377352,88.4742825 C129.78881,92.643131 134.749286,96.0287465 140.189105,98.7276687 C142.822548,100.005355 145.593665,100.979149 148.568776,101.13949 C148.72324,101.15544 148.877704,101.17139 149.013699,101.17139 C149.835548,101.17139 150.63725,100.948088 151.44147,100.755848 C157.92476,99.3824617 162.081016,92.2594895 159.977284,86.1900624 C159.03539,83.6027907 157.565463,81.3513103 155.649774,79.3869314 M158.216059,95.102802 C156.623569,97.6892343 154.092542,99.5100624 151.271056,100.117005 L150.998226,100.180805 C150.313212,100.341146 149.663455,100.500647 149.013699,100.500647 C148.877704,100.500647 148.774448,100.500647 148.619984,100.484697 C146.106587,100.341146 143.523512,99.6057629 140.495514,98.1526262 C135.057375,95.4537039 130.132157,92.0353488 125.855015,88.0108905 C121.785225,84.1778332 118.602763,79.1946909 116.106995,72.790312 C112.788538,64.0547022 107.914528,55.797595 101.602491,48.2750312 C100.251771,46.6783437 99.2762972,44.7769257 98.3881293,42.956937 C97.4462348,41.0404084 97.1045672,39.651072 98.1304095,38.2130459 C99.0538355,36.9194101 100.388606,36.3284175 102.337874,36.3284175 C102.544386,36.3284175 102.731589,36.3284175 102.919632,36.3443676 C106.23809,36.5366081 109.48687,37.5901531 113.199882,39.6670221 C119.186201,42.9888372 123.784862,47.7318888 127.497874,51.9317981 C134.510875,59.9177538 140.426677,66.1307317 146.140166,71.4975156 C147.201266,72.4872604 148.260687,73.4451049 149.355367,74.403789 C151.271056,76.1608168 153.271533,77.9489053 155.136853,79.8335337 C157.052542,81.782802 158.453631,84.0023823 159.309899,86.398253 C160.284533,89.1928758 159.874028,92.3711401 158.216059,95.102802" id="Fill-18" fill="#FEFEFE" mask="url(#mask-12)"></path>
                    </g>
                </g>
            </g>
        </g>
    </g>
</svg>