<?xml version="1.0" encoding="UTF-8"?>
<svg width="196px" height="40px" viewBox="0 0 196 40" version="1.1" xmlns="http://www.w3.org/2000/svg" xmlns:xlink="http://www.w3.org/1999/xlink">
    <!-- Generator: sketchtool 62 (101010) - https://sketch.com -->
    <title>42DD1D03-4B47-47D5-9D1A-E16DFB75EC48</title>
    <desc>Created with sketchtool.</desc>
    <g id="Page-1" stroke="none" stroke-width="1" fill="none" fill-rule="evenodd">
        <g id="1" transform="translate(-261.000000, -4872.000000)" fill="#EF4136" fill-rule="nonzero">
            <g id="Group-23" transform="translate(135.000000, 4860.000000)">
                <g id="logo_yourstory" transform="translate(126.000000, 12.000000)">
                    <path d="M7.7943139,39.4979075 L7.7943139,26.5550912 L0,0.44630375 L6.44853308,0.44630375 L11.1026917,18.2426775 L11.2148401,18.2426775 L15.8689987,0.44630375 L21.7567897,0.44630375 L13.962476,26.5550912 L13.962476,39.4979075 L7.7943139,39.4979075 Z M29.0464358,9.4281725 L29.0464358,30.5160388 C29.0464358,33.3054388 30.2800682,34.3654113 32.2426653,34.3654113 C34.2052623,34.3654113 35.4388947,33.3054388 35.4388947,30.5160388 L35.4388947,9.4281725 C35.4388947,6.6387725 34.2052623,5.5788 32.2426653,5.5788 C30.2800682,5.5788 29.0464358,6.6387725 29.0464358,9.4281725 Z M22.8782738,30.1255225 L22.8782738,9.81868875 C22.8782738,3.5704325 26.1866517,0 32.2426653,0 C38.2986789,0 41.6070568,3.5704325 41.6070568,9.81868875 L41.6070568,30.1255225 C41.6070568,36.37378 38.2986789,39.9442125 32.2426653,39.9442125 C26.1866517,39.9442125 22.8782738,36.37378 22.8782738,30.1255225 Z M45.307954,0.44630375 L51.4761161,0.44630375 L51.4761161,30.5718275 C51.4761161,33.3612275 52.7097484,34.3654113 54.6723455,34.3654113 C56.6349424,34.3654113 57.8685749,33.3612275 57.8685749,30.5718275 L57.8685749,0.44630375 L63.7002921,0.44630375 L63.7002921,30.1813112 C63.7002921,36.4295675 60.5601366,40 54.5041228,40 C48.4481092,40 45.307954,36.4295675 45.307954,30.1813112 L45.307954,0.44630375 Z M87.0832332,39.4979075 L80.8029225,39.4979075 C80.4664779,38.4937238 80.2421803,37.8800563 80.2421803,34.70014 L80.2421803,28.5634587 C80.2421803,24.9372388 79.0085488,23.5983262 76.2048387,23.5983262 L74.0740191,23.5983262 L74.0740191,39.4979075 L67.9058566,39.4979075 L67.9058566,0.44630375 L77.2141738,0.44630375 C83.6066326,0.44630375 86.3542692,3.40306875 86.3542692,9.4281725 L86.3542692,12.4965137 C86.3542692,16.51325 85.0645618,19.0794975 82.3169264,20.3626225 L82.3169264,20.4741975 C85.4010076,21.7573225 86.4103427,24.6582988 86.4103427,28.7308225 L86.4103427,34.7559275 C86.4103427,36.65272 86.4664175,38.04742 87.0832332,39.4979075 Z M77.0459509,6.025105 L74.0740191,6.025105 L74.0740191,18.0195262 L76.4852098,18.0195262 C78.7842511,18.0195262 80.1861068,17.0153412 80.1861068,13.8912137 L80.1861068,10.0418412 C80.1861068,7.25244125 79.2328452,6.025105 77.0459509,6.025105 Z M89.6626469,9.81868875 C89.6626469,3.5704325 92.7467281,0 98.7466676,0 C104.746606,0 107.830687,3.5704325 107.830687,9.81868875 L107.830687,11.046025 L101.998971,11.046025 L101.998971,9.4281725 C101.998971,6.6387725 100.877487,5.5788 98.9148893,5.5788 C96.9522926,5.5788 95.8308081,6.6387725 95.8308081,9.4281725 C95.8308081,12.2733613 97.0644408,14.393305 101.101784,17.90795 C106.26061,22.4267787 107.886762,25.6624825 107.886762,30.1255225 C107.886762,36.37378 104.746606,39.9442125 98.6905929,39.9442125 C92.6345786,39.9442125 89.4944239,36.37378 89.4944239,30.1255225 L89.4944239,27.7266387 L95.3261405,27.7266387 L95.3261405,30.5160388 C95.3261405,33.3054387 96.5597733,34.3096237 98.52237,34.3096237 C100.484967,34.3096237 101.718599,33.3054387 101.718599,30.5160388 C101.718599,27.6708513 100.484967,25.5509062 96.4476251,22.0362625 C91.288799,17.5174337 89.6626469,14.28173 89.6626469,9.81868875 Z M109.625062,6.025105 L109.625062,0.44630375 L128.69029,0.44630375 L128.69029,6.025105 L122.241757,6.025105 L122.241757,39.4979075 L116.073594,39.4979075 L116.073594,6.025105 L109.625062,6.025105 Z M137.045346,9.4281725 L137.045346,30.5160388 C137.045346,33.3054388 138.278979,34.3654113 140.241575,34.3654113 C142.204172,34.3654113 143.437805,33.3054388 143.437805,30.5160388 L143.437805,9.4281725 C143.437805,6.6387725 142.204172,5.5788 140.241575,5.5788 C138.278979,5.5788 137.045346,6.6387725 137.045346,9.4281725 Z M130.877184,30.1255225 L130.877184,9.81868875 C130.877184,3.5704325 134.185561,0 140.241575,0 C146.297588,0 149.605967,3.5704325 149.605967,9.81868875 L149.605967,30.1255225 C149.605967,36.37378 146.297588,39.9442125 140.241575,39.9442125 C134.185561,39.9442125 130.877184,36.37378 130.877184,30.1255225 Z M172.764612,39.4979075 L166.484301,39.4979075 C166.147855,38.4937238 165.923559,37.8800563 165.923559,34.70014 L165.923559,28.5634587 C165.923559,24.9372388 164.689926,23.5983262 161.886216,23.5983262 L159.755397,23.5983262 L159.755397,39.4979075 L153.587235,39.4979075 L153.587235,0.44630375 L162.895553,0.44630375 C169.288011,0.44630375 172.035647,3.40306875 172.035647,9.4281725 L172.035647,12.4965137 C172.035647,16.51325 170.745941,19.0794975 167.998305,20.3626225 L167.998305,20.4741975 C171.082385,21.7573225 172.091722,24.6582988 172.091722,28.7308225 L172.091722,34.7559275 C172.091722,36.65272 172.147795,38.04742 172.764612,39.4979075 Z M162.72733,6.025105 L159.755397,6.025105 L159.755397,18.0195262 L162.166587,18.0195262 C164.46563,18.0195262 165.867486,17.0153412 165.867486,13.8912137 L165.867486,10.0418412 C165.867486,7.25244125 164.914224,6.025105 162.72733,6.025105 Z M181.343964,39.4979075 L181.343964,26.5550912 L173.549651,0.44630375 L179.998183,0.44630375 L184.652342,18.2426775 L184.764491,18.2426775 L189.41865,0.44630375 L195.30644,0.44630375 L187.512126,26.5550912 L187.512126,39.4979075 L181.343964,39.4979075 Z" id="YOURSTORY"></path>
                </g>
            </g>
        </g>
    </g>
</svg>